<svg width="51" height="32" viewBox="0 0 51 32" fill="none" xmlns="http://www.w3.org/2000/svg">
<path d="M18.7554 30.7859C20.139 30.5043 21.3249 29.9843 22.3351 29.226C23.2356 28.5544 23.9823 27.7528 24.5752 26.7779C25.5196 25.3047 25.9808 23.6365 25.9808 21.795C25.9808 19.9968 25.5635 18.4803 24.751 17.2237C23.9164 15.9671 22.7085 15.0571 21.0833 14.4722C22.1375 13.9306 22.9501 13.3456 23.4991 12.6957C24.4654 11.5474 24.9705 10.0092 24.9705 8.10271C24.9705 6.26119 24.4874 4.65796 23.521 3.33639C21.9178 1.16989 19.1726 0.0649949 15.3074 0H0V31.2409H14.2751C15.8784 31.2193 17.3718 31.0676 18.7554 30.7859ZM6.325 5.39459H13.221C14.7364 5.39459 15.9882 5.54624 16.9545 5.89288C18.0965 6.34784 18.6675 7.32277 18.6675 8.77432C18.6675 10.0959 18.2283 11.0058 17.3718 11.5258C16.5153 12.0457 15.3952 12.3057 14.0116 12.3057H6.30305V5.39459H6.325ZM6.325 25.7813V17.462H14.1214C15.4831 17.4836 16.5372 17.6569 17.2839 17.9819C18.6236 18.5885 19.3044 19.7151 19.3044 21.34C19.3044 23.2682 18.6016 24.5681 17.2181 25.2397C16.4494 25.608 15.3732 25.7813 14.0116 25.7813H6.325Z" fill="#111111"/>
<path d="M31.361 29.162C33.7549 31.0685 36.5001 32.0001 39.6187 32.0001C43.3961 32.0001 46.339 30.8735 48.4254 28.6203C49.787 27.2121 50.5337 25.8039 50.6874 24.439H44.4283C44.055 25.1106 43.6377 25.6523 43.1765 26.0206C42.298 26.7355 41.178 27.0822 39.7724 27.0822C38.4547 27.0822 37.3346 26.8005 36.3903 26.2156C34.853 25.284 34.0404 23.6591 33.9306 21.3409H50.9949C51.0168 19.3478 50.9509 17.8096 50.7972 16.748C50.5117 14.9281 49.8968 13.3466 48.9304 11.9817C47.8763 10.4218 46.5147 9.27353 44.8895 8.55859C43.2643 7.84365 41.4195 7.47534 39.3771 7.47534C35.951 7.47534 33.1619 8.53692 31.0096 10.6817C28.8574 12.8266 27.7812 15.8813 27.7812 19.8894C27.7813 24.179 28.9672 27.2555 31.361 29.162ZM35.7315 13.8015C36.588 12.9132 37.8178 12.4799 39.3771 12.4799C40.8265 12.4799 42.0345 12.8916 43.0008 13.7149C43.9671 14.5381 44.5161 15.773 44.626 17.3762H34.0624C34.3259 15.8597 34.853 14.6681 35.7315 13.8015Z" fill="#111111"/>
<path d="M45.8834 1.75488H32.1133V4.91798H45.8834V1.75488Z" fill="#111111"/>
</svg>
