<svg width="1440" height="1024" viewBox="0 0 1440 1024" fill="none" xmlns="http://www.w3.org/2000/svg">
<g clip-path="url(#clip0_433_567)">
<rect width="1440" height="1024" fill="#F2F2F2"/>
<rect x="-113.998" y="-21.9998" width="1580.64" height="1068" rx="20" fill="white"/>
<rect x="-112.931" y="-20.9983" width="1578.51" height="1066" rx="20" fill="black"/>
<rect x="-49.8184" y="-0.639893" width="1537.92" height="1025.28" fill="#F2F2F2"/>
<path d="M250.184 387.97V387.5C260.927 381.873 269.267 373.609 275.215 362.707C281.163 351.805 284.131 340.519 284.131 328.849C284.131 313.623 279.283 302.08 269.587 294.2C259.891 286.32 244.759 282.391 224.214 282.391H198.98L192.861 333.066H209.509C220.359 333.066 225.773 337.711 225.773 346.99C225.773 354.186 223.455 360.283 218.81 365.291C214.165 370.299 208.249 372.797 201.052 372.797H188.077L182.866 415.967H204.202C208.377 415.967 211.89 416.618 214.763 417.921C217.636 419.223 219.739 421.028 221.095 423.313C222.452 425.598 223.124 428.32 223.124 431.449C223.124 439.265 220.305 445.97 214.678 451.544C209.05 457.118 202.055 459.915 193.715 459.915H177.559L171.515 509.971H208.1C219.152 509.971 229.265 508.039 238.448 504.184C247.621 500.33 255.374 495.012 261.674 488.232C267.974 481.452 272.855 473.294 276.304 463.759C279.753 454.224 281.462 443.867 281.462 432.709C281.472 410.073 271.039 395.167 250.184 387.97Z" fill="#323333"/>
<path d="M439.933 282.391L423.669 414.248C422.623 422.8 421.139 429.997 419.216 435.827C417.294 441.657 414.838 446.28 411.87 449.665C408.901 453.05 405.537 455.473 401.778 456.936C398.66 458.143 395.029 458.847 390.908 459.05L384.394 513.068C398.457 513.015 410.78 511.349 421.331 508.071C432.073 504.729 441.609 499.337 449.96 491.884C458.311 484.431 465.081 474.415 470.292 461.848C475.503 449.28 479.209 433.98 481.398 415.945L497.8 282.391H439.933Z" fill="#323333"/>
<path d="M579.706 282.391L552.24 509.961H563.976L591.815 282.391H579.706Z" fill="#323333"/>
<path d="M676.005 458.346L669.779 509.961H738.699L744.957 458.346H676.005Z" fill="#323333"/>
<path d="M955.933 338.202C952.025 326.575 946.205 316.591 938.495 308.252C930.785 299.913 920.918 293.517 908.926 289.086C896.934 284.655 883.169 282.434 867.632 282.434H859.858L853.611 334.209H860.435C874.723 334.209 885.124 337.936 891.637 345.388C898.151 352.841 901.419 363.978 901.419 378.777C901.419 387.437 900.714 395.648 899.305 403.41C897.895 411.173 895.653 418.423 892.577 425.15C889.502 431.876 885.743 437.685 881.311 442.586C876.88 447.487 871.455 451.341 865.048 454.16C858.641 456.979 851.571 458.389 843.851 458.389H838.629L832.403 510.004H836.974C856.27 510.004 873.783 506.747 889.534 500.223C905.285 493.699 918.419 484.613 928.949 472.931C939.478 461.25 947.593 447.284 953.274 431.011C958.955 414.739 961.796 396.918 961.796 377.517C961.796 362.942 959.842 349.83 955.933 338.202Z" fill="#323333"/>
<path d="M1111.39 372.061H1059.66L1053.57 422.587H1105.28L1111.39 372.061Z" fill="#323333"/>
<path d="M1043.02 510.014H1118.58L1124.84 458.399H1049.24L1043.02 510.014Z" fill="#323333"/>
<path d="M1070.47 282.444L1064.22 334.209H1134.22L1140.48 282.444H1070.47Z" fill="#323333"/>
<path d="M1255.13 510.015H1317.21L1280.61 428.524L1280.77 427.744C1294.53 420.238 1305.11 409.422 1312.52 395.285C1319.94 381.148 1323.63 364.865 1323.63 346.403C1323.63 337.327 1322.35 328.988 1319.8 321.375C1317.24 313.762 1313.41 307.014 1308.3 301.12C1303.18 295.226 1296.38 290.645 1287.88 287.356C1279.38 284.068 1269.55 282.434 1258.39 282.434H1242.4L1236.23 333.579H1243.38C1249.01 333.579 1253.76 335.277 1257.62 338.662C1261.47 342.047 1263.4 347.503 1263.4 355.009C1263.4 364.181 1260.67 372.082 1255.19 378.703C1249.71 385.323 1242.55 388.633 1233.68 388.633H1229.58L1223.49 439.148L1255.13 510.015Z" fill="#323333"/>
<path d="M143.269 282.391C141.977 282.391 140.877 283.362 140.728 284.644L128.789 382.236L113.604 507.088C113.423 508.615 114.608 509.961 116.146 509.961H116.221C117.513 509.961 118.613 508.989 118.762 507.708L145.811 285.263C146.003 283.736 144.807 282.391 143.269 282.391Z" fill="#323333"/>
<path d="M153.756 282.391H153.681C152.389 282.391 151.289 283.362 151.14 284.644L124.091 507.088C123.909 508.615 125.094 509.961 126.632 509.961H126.707C127.999 509.961 129.099 508.989 129.248 507.708L156.297 285.263C156.49 283.736 155.294 282.391 153.756 282.391Z" fill="#323333"/>
<path d="M182.588 284.644L155.539 507.089C155.357 508.615 156.543 509.961 158.08 509.961H158.369C159.672 509.961 160.761 508.989 160.91 507.708L187.756 285.263C187.938 283.736 186.742 282.391 185.204 282.391H185.129C183.837 282.391 182.737 283.363 182.588 284.644Z" fill="#323333"/>
<path d="M174.718 282.391H174.643C173.351 282.391 172.251 283.363 172.101 284.644L145.053 507.089C144.871 508.615 146.056 509.961 147.594 509.961H147.669C148.961 509.961 150.061 508.989 150.21 507.708L177.27 285.263C177.451 283.736 176.255 282.391 174.718 282.391Z" fill="#323333"/>
<path d="M164.241 282.391H164.166C162.874 282.391 161.774 283.363 161.625 284.644L134.565 507.089C134.384 508.615 135.569 509.961 137.107 509.961H137.182C138.474 509.961 139.574 508.989 139.723 507.708L166.783 285.263C166.964 283.736 165.779 282.391 164.241 282.391Z" fill="#323333"/>
<path d="M538.859 509.961H539.254C540.461 509.961 541.475 509.064 541.614 507.868L568.503 285.05C568.674 283.64 567.563 282.391 566.143 282.391H565.951C564.744 282.391 563.74 283.288 563.591 284.484L536.499 507.302C536.317 508.722 537.428 509.961 538.859 509.961Z" fill="#323333"/>
<path d="M555.913 282.391H555.464C554.258 282.391 553.254 283.288 553.104 284.484L526.013 507.302C525.842 508.722 526.942 509.972 528.373 509.972H528.821C530.028 509.972 531.032 509.075 531.181 507.879L558.273 285.06C558.444 283.64 557.344 282.391 555.913 282.391Z" fill="#323333"/>
<path d="M517.886 509.961H518.335C519.541 509.961 520.545 509.064 520.695 507.868L547.797 285.06C547.968 283.64 546.868 282.391 545.437 282.391H544.989C543.782 282.391 542.778 283.288 542.629 284.484L515.526 507.302C515.355 508.722 516.455 509.961 517.886 509.961Z" fill="#323333"/>
<path d="M534.95 282.391C533.743 282.391 532.739 283.288 532.59 284.484L505.327 507.302C505.156 508.722 506.256 509.972 507.687 509.972H507.858C509.065 509.972 510.068 509.075 510.218 507.879L537.309 285.06C537.48 283.64 536.37 282.391 534.95 282.391Z" fill="#323333"/>
<path d="M614.562 509.961H614.808C616.057 509.961 617.114 509.021 617.264 507.783L644.345 285.167C644.526 283.694 643.373 282.391 641.889 282.391H641.643C640.394 282.391 639.336 283.33 639.187 284.569L612.117 507.185C611.924 508.669 613.078 509.961 614.562 509.961Z" fill="#323333"/>
<path d="M656.624 509.961H656.378C654.894 509.961 653.741 508.658 653.922 507.185L680.982 284.569C681.131 283.32 682.188 282.391 683.438 282.391H683.555C685.04 282.391 686.193 283.694 686.011 285.167L659.069 507.783C658.93 509.032 657.873 509.961 656.624 509.961Z" fill="#323333"/>
<path d="M652.364 282.391H652.118C650.869 282.391 649.812 283.33 649.662 284.569L622.592 507.185C622.411 508.658 623.564 509.961 625.048 509.961H625.294C626.543 509.961 627.6 509.021 627.75 507.783L654.831 285.167C655.002 283.694 653.848 282.391 652.364 282.391Z" fill="#323333"/>
<path d="M631.402 282.391C630.152 282.391 629.095 283.33 628.945 284.569L601.704 507.185C601.523 508.658 602.676 509.961 604.16 509.961H604.331C605.581 509.961 606.638 509.021 606.787 507.783L633.858 285.167C634.039 283.694 632.886 282.391 631.402 282.391Z" fill="#323333"/>
<path d="M662.849 282.391H662.604C661.354 282.391 660.297 283.33 660.148 284.569L633.077 507.185C632.896 508.658 634.049 509.961 635.534 509.961H635.779C637.029 509.961 638.086 509.021 638.235 507.783L665.305 285.167C665.487 283.694 664.334 282.391 662.849 282.391Z" fill="#323333"/>
<path d="M673.207 282.391H673.079C671.83 282.391 670.773 283.33 670.623 284.569L643.553 507.185C643.371 508.658 644.525 509.961 646.009 509.961H646.137C647.387 509.961 648.444 509.021 648.593 507.783L675.674 285.167C675.845 283.694 674.692 282.391 673.207 282.391Z" fill="#323333"/>
<path d="M777.442 509.961H777.666C778.926 509.961 779.983 509.021 780.143 507.772L807.203 285.188C807.384 283.704 806.22 282.391 804.725 282.391H804.501C803.241 282.391 802.184 283.33 802.024 284.58L774.964 507.174C774.793 508.658 775.947 509.961 777.442 509.961Z" fill="#323333"/>
<path d="M815.211 282.391H814.986C813.726 282.391 812.669 283.33 812.509 284.58L785.449 507.174C785.268 508.658 786.432 509.971 787.927 509.971H788.151C789.411 509.971 790.468 509.032 790.629 507.783L817.688 285.188C817.87 283.704 816.706 282.391 815.211 282.391Z" fill="#323333"/>
<path d="M825.697 282.391H825.473C824.213 282.391 823.155 283.33 822.995 284.58L795.936 507.174C795.754 508.658 796.918 509.971 798.413 509.971H798.637C799.897 509.971 800.955 509.032 801.115 507.783L828.174 285.188C828.356 283.704 827.192 282.391 825.697 282.391Z" fill="#323333"/>
<path d="M836.055 282.391H835.959C834.699 282.391 833.642 283.33 833.482 284.58L806.422 507.174C806.24 508.658 807.404 509.971 808.899 509.971H808.996C810.256 509.971 811.313 509.032 811.473 507.783L838.533 285.188C838.714 283.704 837.55 282.391 836.055 282.391Z" fill="#323333"/>
<path d="M846.392 282.391H846.296C845.036 282.391 843.979 283.33 843.819 284.58L816.759 507.174C816.577 508.658 817.741 509.971 819.236 509.971H819.333C820.593 509.971 821.65 509.032 821.81 507.783L848.869 285.188C849.051 283.704 847.887 282.391 846.392 282.391Z" fill="#323333"/>
<path d="M794.249 282.391C792.989 282.391 791.932 283.33 791.772 284.58L764.541 507.174C764.36 508.658 765.524 509.971 767.019 509.971H767.189C768.45 509.971 769.507 509.032 769.667 507.783L796.726 285.188C796.897 283.704 795.744 282.391 794.249 282.391Z" fill="#323333"/>
<path d="M1197.65 282.444H1197.18C1195.98 282.444 1194.97 283.341 1194.83 284.526L1167.74 507.366C1167.56 508.775 1168.66 510.014 1170.08 510.014H1170.55C1171.75 510.014 1172.76 509.117 1172.9 507.932L1200 285.092C1200.17 283.683 1199.07 282.444 1197.65 282.444Z" fill="#323333"/>
<path d="M1159.6 510.014H1160.07C1161.26 510.014 1162.28 509.117 1162.42 507.932L1189.51 285.092C1189.68 283.683 1188.58 282.444 1187.16 282.444H1186.69C1185.49 282.444 1184.48 283.341 1184.34 284.526L1157.25 507.366C1157.08 508.775 1158.18 510.014 1159.6 510.014Z" fill="#323333"/>
<path d="M1208.13 282.444H1207.66C1206.47 282.444 1205.45 283.341 1205.31 284.526L1178.22 507.366C1178.05 508.775 1179.15 510.014 1180.57 510.014H1181.04C1182.24 510.014 1183.25 509.117 1183.39 507.932L1210.48 285.092C1210.65 283.683 1209.55 282.444 1208.13 282.444Z" fill="#323333"/>
<path d="M1176.68 282.444C1175.49 282.444 1174.48 283.341 1174.33 284.526L1147.07 507.366C1146.9 508.776 1148 510.025 1149.42 510.025H1149.59C1150.79 510.025 1151.8 509.128 1151.94 507.943L1179.03 285.103C1179.2 283.683 1178.1 282.444 1176.68 282.444Z" fill="#323333"/>
<path d="M1218.49 282.444H1218.14C1216.94 282.444 1215.93 283.341 1215.79 284.526L1188.7 507.366C1188.53 508.775 1189.63 510.014 1191.05 510.014H1191.4C1192.59 510.014 1193.61 509.117 1193.75 507.932L1220.84 285.092C1221.01 283.683 1219.91 282.444 1218.49 282.444Z" fill="#323333"/>
<path d="M1228.85 282.444H1228.5C1227.3 282.444 1226.29 283.341 1226.15 284.526L1199.06 507.366C1198.88 508.775 1199.98 510.014 1201.4 510.014H1201.76C1202.95 510.014 1203.97 509.117 1204.11 507.932L1231.2 285.092C1231.38 283.683 1230.28 282.444 1228.85 282.444Z" fill="#323333"/>
<path d="M987.811 510.014H988.174C989.402 510.014 990.427 509.096 990.576 507.889L1017.66 285.156C1017.83 283.715 1016.71 282.444 1015.25 282.444H1014.89C1013.66 282.444 1012.64 283.362 1012.49 284.569L985.408 507.302C985.226 508.743 986.358 510.014 987.811 510.014Z" fill="#323333"/>
<path d="M1025.74 282.444H1025.38C1024.15 282.444 1023.12 283.362 1022.98 284.569L995.894 507.302C995.723 508.743 996.845 510.014 998.297 510.014H998.66C999.888 510.014 1000.91 509.096 1001.06 507.889L1028.14 285.156C1028.31 283.715 1027.19 282.444 1025.74 282.444Z" fill="#323333"/>
<path d="M1036.1 282.444H1035.85C1034.63 282.444 1033.6 283.362 1033.45 284.569L1006.37 507.302C1006.2 508.743 1007.32 510.014 1008.77 510.014H1009.02C1010.25 510.014 1011.27 509.096 1011.42 507.889L1038.5 285.156C1038.67 283.715 1037.55 282.444 1036.1 282.444Z" fill="#323333"/>
<path d="M1004.77 282.444C1003.54 282.444 1002.51 283.351 1002.36 284.569L975.113 507.302C974.931 508.743 976.063 510.014 977.516 510.014H977.686C978.914 510.014 979.94 509.095 980.089 507.889L1007.17 285.156C1007.35 283.714 1006.22 282.444 1004.77 282.444Z" fill="#323333"/>
<path d="M1046.58 282.444H1046.22C1044.99 282.444 1043.97 283.362 1043.82 284.569L1016.74 507.302C1016.57 508.743 1017.69 510.014 1019.14 510.014H1019.5C1020.73 510.014 1021.76 509.096 1021.91 507.889L1048.99 285.156C1049.16 283.715 1048.04 282.444 1046.58 282.444Z" fill="#323333"/>
<path d="M1057.06 282.444H1056.7C1055.47 282.444 1054.44 283.362 1054.3 284.569L1027.21 507.302C1027.04 508.743 1028.16 510.014 1029.62 510.014H1029.98C1031.21 510.014 1032.23 509.096 1032.38 507.889L1059.46 285.156C1059.65 283.715 1058.51 282.444 1057.06 282.444Z" fill="#323333"/>
<path d="M357.751 282.391H357.698C356.384 282.391 355.285 283.363 355.124 284.665L328.641 493.699C328.535 494.532 328.834 495.375 329.453 495.941C329.464 495.952 329.485 495.973 329.496 495.984C331.055 497.404 333.575 496.496 333.842 494.393L360.325 285.317C360.528 283.768 359.321 282.391 357.751 282.391Z" fill="#323333"/>
<path d="M311.213 464.272L333.958 284.676C334.129 283.362 335.24 282.38 336.564 282.38C338.144 282.38 339.362 283.768 339.169 285.338L316.424 464.934C316.082 467.667 312.302 468.083 311.352 465.5C311.213 465.115 311.159 464.688 311.213 464.272Z" fill="#323333"/>
<path d="M370.949 512.481C371.067 512.491 371.184 512.502 371.302 512.513C372.54 512.641 373.662 511.744 373.811 510.505L379.962 459.509C380.08 458.527 379.546 457.587 378.649 457.16C378.638 457.15 378.617 457.15 378.606 457.139C377.207 456.466 375.563 457.385 375.37 458.922L368.91 509.897C368.75 511.189 369.668 512.342 370.949 512.481Z" fill="#323333"/>
<path d="M304.87 436.435L323.772 284.409C323.91 283.256 324.893 282.402 326.046 282.402H326.367C327.744 282.402 328.812 283.619 328.641 284.986L309.42 437.012C309.056 439.884 304.796 439.575 304.849 436.681C304.849 436.596 304.86 436.51 304.87 436.435Z" fill="#323333"/>
<path d="M347.179 282.391H347.125C345.812 282.391 344.712 283.363 344.552 284.665L319.457 482.754C319.382 483.363 319.511 483.982 319.852 484.506C319.863 484.527 319.884 484.548 319.895 484.57C321.219 486.598 324.359 485.883 324.658 483.481L349.752 285.317C349.945 283.768 348.738 282.391 347.179 282.391Z" fill="#323333"/>
<path d="M368.334 282.391H368.28C366.967 282.391 365.867 283.363 365.707 284.665L338.338 500.714C338.209 501.75 338.701 502.764 339.598 503.277C339.619 503.287 339.63 503.298 339.651 503.309C341.274 504.238 343.314 503.245 343.549 501.397L370.907 285.317C371.11 283.768 369.903 282.391 368.334 282.391Z" fill="#323333"/>
<path d="M371.045 451.278L363.773 508.712C363.581 510.207 362.161 511.232 360.676 510.933C360.655 510.933 360.644 510.922 360.623 510.922C359.288 510.655 358.391 509.395 358.562 508.05L365.845 450.53C366.176 447.893 369.796 447.402 370.821 449.857L370.864 449.954C371.045 450.381 371.099 450.829 371.045 451.278Z" fill="#323333"/>
<path d="M378.916 282.391H378.862C377.549 282.391 376.449 283.363 376.289 284.665L348.343 505.231C348.193 506.448 348.909 507.612 350.073 508.017C350.094 508.028 350.105 508.028 350.126 508.039C351.685 508.583 353.34 507.537 353.554 505.903L381.489 285.317C381.681 283.768 380.475 282.391 378.916 282.391Z" fill="#323333"/>
<path d="M407.524 654.716C407.204 654.716 406.956 654.628 406.78 654.452C406.62 654.26 406.54 654.004 406.54 653.684V638.636C406.54 638.3 406.628 638.052 406.804 637.892C406.98 637.716 407.228 637.628 407.548 637.628H413.236C415.044 637.628 416.436 638.076 417.412 638.972C418.388 639.852 418.876 641.1 418.876 642.716C418.876 644.316 418.388 645.564 417.412 646.46C416.436 647.356 415.044 647.804 413.236 647.804H408.508V653.684C408.508 654.004 408.428 654.26 408.268 654.452C408.108 654.628 407.86 654.716 407.524 654.716ZM408.508 646.148H412.996C414.292 646.148 415.268 645.86 415.924 645.284C416.596 644.692 416.932 643.836 416.932 642.716C416.932 641.58 416.596 640.724 415.924 640.148C415.268 639.556 414.292 639.26 412.996 639.26H408.508V646.148ZM425.112 654.716C424.792 654.716 424.544 654.628 424.368 654.452C424.208 654.26 424.128 654.004 424.128 653.684V638.636C424.128 638.3 424.216 638.052 424.392 637.892C424.568 637.716 424.816 637.628 425.136 637.628H430.824C432.632 637.628 434.024 638.052 435 638.9C435.976 639.748 436.464 640.956 436.464 642.524C436.464 643.516 436.24 644.38 435.792 645.116C435.36 645.836 434.72 646.388 433.872 646.772C433.024 647.14 432.008 647.324 430.824 647.324L431.064 647.012H431.544C432.168 647.012 432.712 647.172 433.176 647.492C433.64 647.812 434.064 648.324 434.448 649.028L436.752 653.324C436.88 653.548 436.936 653.772 436.92 653.996C436.92 654.204 436.848 654.38 436.704 654.524C436.56 654.652 436.352 654.716 436.08 654.716C435.808 654.716 435.584 654.652 435.408 654.524C435.232 654.396 435.08 654.212 434.952 653.972L432.336 649.124C431.968 648.436 431.544 647.98 431.064 647.756C430.584 647.516 429.952 647.396 429.168 647.396H426.096V653.684C426.096 654.004 426.016 654.26 425.856 654.452C425.696 654.628 425.448 654.716 425.112 654.716ZM426.096 645.836H430.536C431.848 645.836 432.84 645.564 433.512 645.02C434.184 644.46 434.52 643.628 434.52 642.524C434.52 641.452 434.184 640.644 433.512 640.1C432.84 639.54 431.848 639.26 430.536 639.26H426.096V645.836ZM449.569 654.764C448.001 654.764 446.633 654.412 445.465 653.708C444.313 652.988 443.417 651.98 442.777 650.684C442.153 649.388 441.841 647.852 441.841 646.076C441.841 644.732 442.017 643.532 442.369 642.476C442.737 641.404 443.257 640.5 443.929 639.764C444.601 639.012 445.409 638.436 446.353 638.036C447.313 637.62 448.385 637.412 449.569 637.412C451.169 637.412 452.545 637.764 453.697 638.468C454.865 639.172 455.761 640.172 456.385 641.468C457.025 642.748 457.345 644.276 457.345 646.052C457.345 647.396 457.161 648.604 456.793 649.676C456.425 650.748 455.905 651.66 455.233 652.412C454.561 653.164 453.745 653.748 452.785 654.164C451.841 654.564 450.769 654.764 449.569 654.764ZM449.569 653.012C450.785 653.012 451.809 652.74 452.641 652.196C453.489 651.652 454.137 650.86 454.585 649.82C455.033 648.78 455.257 647.532 455.257 646.076C455.257 643.884 454.761 642.188 453.769 640.988C452.793 639.772 451.393 639.164 449.569 639.164C448.385 639.164 447.369 639.436 446.521 639.98C445.689 640.524 445.049 641.316 444.601 642.356C444.153 643.38 443.929 644.62 443.929 646.076C443.929 648.252 444.425 649.956 445.417 651.188C446.409 652.404 447.793 653.012 449.569 653.012ZM464.32 654.716C463.984 654.716 463.72 654.628 463.528 654.452C463.352 654.26 463.264 653.988 463.264 653.636V638.708C463.264 638.356 463.352 638.092 463.528 637.916C463.72 637.724 463.992 637.628 464.344 637.628H473.056C473.328 637.628 473.536 637.7 473.68 637.844C473.824 637.988 473.896 638.188 473.896 638.444C473.896 638.716 473.824 638.924 473.68 639.068C473.536 639.212 473.328 639.284 473.056 639.284H465.232V645.188H472.552C472.824 645.188 473.032 645.26 473.176 645.404C473.336 645.548 473.416 645.748 473.416 646.004C473.416 646.276 473.336 646.484 473.176 646.628C473.032 646.772 472.824 646.844 472.552 646.844H465.232V653.636C465.232 654.356 464.928 654.716 464.32 654.716ZM479.796 654.716C479.476 654.716 479.228 654.628 479.052 654.452C478.892 654.26 478.812 654.004 478.812 653.684V638.492C478.812 638.156 478.892 637.9 479.052 637.724C479.228 637.548 479.476 637.46 479.796 637.46C480.116 637.46 480.356 637.548 480.516 637.724C480.692 637.9 480.78 638.156 480.78 638.492V653.684C480.78 654.004 480.7 654.26 480.54 654.452C480.38 654.628 480.132 654.716 479.796 654.716ZM488.384 654.548C488.064 654.548 487.816 654.46 487.64 654.284C487.464 654.092 487.376 653.836 487.376 653.516V638.54C487.376 638.204 487.456 637.948 487.616 637.772C487.792 637.596 488.04 637.508 488.36 637.508C488.68 637.508 488.92 637.596 489.08 637.772C489.256 637.948 489.344 638.204 489.344 638.54V652.82H497.216C497.504 652.82 497.728 652.9 497.888 653.06C498.048 653.204 498.128 653.412 498.128 653.684C498.128 653.956 498.048 654.172 497.888 654.332C497.728 654.476 497.504 654.548 497.216 654.548H488.384ZM503.888 654.548C503.536 654.548 503.264 654.46 503.072 654.284C502.896 654.092 502.808 653.82 502.808 653.468V638.708C502.808 638.356 502.896 638.092 503.072 637.916C503.264 637.724 503.536 637.628 503.888 637.628H512.816C513.088 637.628 513.296 637.7 513.44 637.844C513.584 637.988 513.656 638.188 513.656 638.444C513.656 638.716 513.584 638.924 513.44 639.068C513.296 639.212 513.088 639.284 512.816 639.284H504.728V645.14H512.312C512.584 645.14 512.792 645.212 512.936 645.356C513.08 645.484 513.152 645.684 513.152 645.956C513.152 646.228 513.08 646.436 512.936 646.58C512.792 646.724 512.584 646.796 512.312 646.796H504.728V652.892H512.816C513.088 652.892 513.296 652.964 513.44 653.108C513.584 653.252 513.656 653.452 513.656 653.708C513.656 653.98 513.584 654.188 513.44 654.332C513.296 654.476 513.088 654.548 512.816 654.548H503.888Z" fill="black"/>
<path d="M624.563 654.764C622.899 654.764 621.475 654.412 620.291 653.708C619.107 653.004 618.195 652.004 617.555 650.708C616.931 649.412 616.619 647.868 616.619 646.076C616.619 644.732 616.795 643.532 617.147 642.476C617.515 641.404 618.035 640.5 618.707 639.764C619.395 639.012 620.235 638.436 621.227 638.036C622.219 637.62 623.331 637.412 624.563 637.412C625.555 637.412 626.499 637.556 627.395 637.844C628.291 638.116 629.067 638.524 629.723 639.068C629.931 639.228 630.067 639.412 630.131 639.62C630.211 639.812 630.219 640.004 630.155 640.196C630.107 640.372 630.011 640.524 629.867 640.652C629.739 640.764 629.579 640.82 629.387 640.82C629.195 640.82 628.979 640.74 628.739 640.58C628.163 640.116 627.531 639.772 626.843 639.548C626.155 639.324 625.411 639.212 624.611 639.212C623.347 639.212 622.275 639.484 621.395 640.028C620.515 640.556 619.851 641.332 619.403 642.356C618.955 643.38 618.731 644.62 618.731 646.076C618.731 647.532 618.955 648.78 619.403 649.82C619.851 650.844 620.515 651.628 621.395 652.172C622.275 652.7 623.347 652.964 624.611 652.964C625.395 652.964 626.139 652.852 626.843 652.628C627.547 652.388 628.195 652.036 628.787 651.572C629.027 651.412 629.243 651.34 629.435 651.356C629.627 651.356 629.787 651.412 629.915 651.524C630.043 651.636 630.131 651.78 630.179 651.956C630.243 652.132 630.243 652.316 630.179 652.508C630.131 652.7 630.011 652.868 629.819 653.012C629.147 653.588 628.355 654.028 627.443 654.332C626.547 654.62 625.587 654.764 624.563 654.764ZM642.404 654.764C640.836 654.764 639.468 654.412 638.3 653.708C637.148 652.988 636.252 651.98 635.612 650.684C634.988 649.388 634.676 647.852 634.676 646.076C634.676 644.732 634.852 643.532 635.204 642.476C635.572 641.404 636.092 640.5 636.764 639.764C637.436 639.012 638.244 638.436 639.188 638.036C640.148 637.62 641.22 637.412 642.404 637.412C644.004 637.412 645.38 637.764 646.532 638.468C647.7 639.172 648.596 640.172 649.22 641.468C649.86 642.748 650.18 644.276 650.18 646.052C650.18 647.396 649.996 648.604 649.628 649.676C649.26 650.748 648.74 651.66 648.068 652.412C647.396 653.164 646.58 653.748 645.62 654.164C644.676 654.564 643.604 654.764 642.404 654.764ZM642.404 653.012C643.62 653.012 644.644 652.74 645.476 652.196C646.324 651.652 646.972 650.86 647.42 649.82C647.868 648.78 648.092 647.532 648.092 646.076C648.092 643.884 647.596 642.188 646.604 640.988C645.628 639.772 644.228 639.164 642.404 639.164C641.22 639.164 640.204 639.436 639.356 639.98C638.524 640.524 637.884 641.316 637.436 642.356C636.988 643.38 636.764 644.62 636.764 646.076C636.764 648.252 637.26 649.956 638.252 651.188C639.244 652.404 640.628 653.012 642.404 653.012ZM657.034 654.716C656.73 654.716 656.498 654.636 656.338 654.476C656.178 654.3 656.098 654.052 656.098 653.732V638.468C656.098 638.148 656.178 637.9 656.338 637.724C656.498 637.548 656.706 637.46 656.962 637.46C657.218 637.46 657.402 637.508 657.514 637.604C657.642 637.684 657.786 637.836 657.946 638.06L668.41 652.004H667.834V638.42C667.834 638.116 667.914 637.884 668.074 637.724C668.234 637.548 668.466 637.46 668.77 637.46C669.058 637.46 669.274 637.548 669.418 637.724C669.578 637.884 669.658 638.116 669.658 638.42V653.756C669.658 654.06 669.586 654.3 669.442 654.476C669.314 654.636 669.122 654.716 668.866 654.716C668.626 654.716 668.434 654.668 668.29 654.572C668.146 654.476 667.994 654.324 667.834 654.116L657.394 640.172H657.946V653.732C657.946 654.052 657.866 654.3 657.706 654.476C657.546 654.636 657.322 654.716 657.034 654.716ZM681.4 654.716C681.096 654.716 680.856 654.628 680.68 654.452C680.504 654.26 680.416 654.004 680.416 653.684V639.332H675.016C674.728 639.332 674.504 639.252 674.344 639.092C674.184 638.932 674.104 638.724 674.104 638.468C674.104 638.196 674.184 637.988 674.344 637.844C674.504 637.7 674.728 637.628 675.016 637.628H687.808C688.096 637.628 688.32 637.7 688.48 637.844C688.64 637.988 688.72 638.196 688.72 638.468C688.72 638.74 688.64 638.956 688.48 639.116C688.32 639.26 688.096 639.332 687.808 639.332H682.408V653.684C682.408 654.004 682.32 654.26 682.144 654.452C681.984 654.628 681.736 654.716 681.4 654.716ZM694.181 654.548C693.829 654.548 693.557 654.46 693.365 654.284C693.189 654.092 693.101 653.82 693.101 653.468V638.708C693.101 638.356 693.189 638.092 693.365 637.916C693.557 637.724 693.829 637.628 694.181 637.628H703.109C703.381 637.628 703.589 637.7 703.733 637.844C703.877 637.988 703.949 638.188 703.949 638.444C703.949 638.716 703.877 638.924 703.733 639.068C703.589 639.212 703.381 639.284 703.109 639.284H695.021V645.14H702.605C702.877 645.14 703.085 645.212 703.229 645.356C703.373 645.484 703.445 645.684 703.445 645.956C703.445 646.228 703.373 646.436 703.229 646.58C703.085 646.724 702.877 646.796 702.605 646.796H695.021V652.892H703.109C703.381 652.892 703.589 652.964 703.733 653.108C703.877 653.252 703.949 653.452 703.949 653.708C703.949 653.98 703.877 654.188 703.733 654.332C703.589 654.476 703.381 654.548 703.109 654.548H694.181ZM710.429 654.716C710.125 654.716 709.893 654.636 709.733 654.476C709.573 654.3 709.493 654.052 709.493 653.732V638.468C709.493 638.148 709.573 637.9 709.733 637.724C709.893 637.548 710.101 637.46 710.357 637.46C710.613 637.46 710.797 637.508 710.909 637.604C711.037 637.684 711.181 637.836 711.341 638.06L721.805 652.004H721.229V638.42C721.229 638.116 721.309 637.884 721.469 637.724C721.629 637.548 721.861 637.46 722.165 637.46C722.453 637.46 722.669 637.548 722.813 637.724C722.973 637.884 723.053 638.116 723.053 638.42V653.756C723.053 654.06 722.981 654.3 722.837 654.476C722.709 654.636 722.517 654.716 722.261 654.716C722.021 654.716 721.829 654.668 721.685 654.572C721.541 654.476 721.389 654.324 721.229 654.116L710.789 640.172H711.341V653.732C711.341 654.052 711.261 654.3 711.101 654.476C710.941 654.636 710.717 654.716 710.429 654.716ZM734.795 654.716C734.491 654.716 734.251 654.628 734.075 654.452C733.899 654.26 733.811 654.004 733.811 653.684V639.332H728.411C728.123 639.332 727.899 639.252 727.739 639.092C727.579 638.932 727.499 638.724 727.499 638.468C727.499 638.196 727.579 637.988 727.739 637.844C727.899 637.7 728.123 637.628 728.411 637.628H741.203C741.491 637.628 741.715 637.7 741.875 637.844C742.035 637.988 742.115 638.196 742.115 638.468C742.115 638.74 742.035 638.956 741.875 639.116C741.715 639.26 741.491 639.332 741.203 639.332H735.803V653.684C735.803 654.004 735.715 654.26 735.539 654.452C735.379 654.628 735.131 654.716 734.795 654.716Z" fill="black"/>
<path d="M845.472 654.716C845.152 654.716 844.904 654.628 844.728 654.452C844.568 654.26 844.488 654.004 844.488 653.684V638.636C844.488 638.3 844.576 638.052 844.752 637.892C844.928 637.716 845.176 637.628 845.496 637.628H851.184C852.992 637.628 854.384 638.076 855.36 638.972C856.336 639.852 856.824 641.1 856.824 642.716C856.824 644.316 856.336 645.564 855.36 646.46C854.384 647.356 852.992 647.804 851.184 647.804H846.456V653.684C846.456 654.004 846.376 654.26 846.216 654.452C846.056 654.628 845.808 654.716 845.472 654.716ZM846.456 646.148H850.944C852.24 646.148 853.216 645.86 853.872 645.284C854.544 644.692 854.88 643.836 854.88 642.716C854.88 641.58 854.544 640.724 853.872 640.148C853.216 639.556 852.24 639.26 850.944 639.26H846.456V646.148ZM868.992 654.764C867.424 654.764 866.056 654.412 864.888 653.708C863.736 652.988 862.84 651.98 862.2 650.684C861.576 649.388 861.264 647.852 861.264 646.076C861.264 644.732 861.44 643.532 861.792 642.476C862.16 641.404 862.68 640.5 863.352 639.764C864.024 639.012 864.832 638.436 865.776 638.036C866.736 637.62 867.808 637.412 868.992 637.412C870.592 637.412 871.968 637.764 873.12 638.468C874.288 639.172 875.184 640.172 875.808 641.468C876.448 642.748 876.768 644.276 876.768 646.052C876.768 647.396 876.584 648.604 876.216 649.676C875.848 650.748 875.328 651.66 874.656 652.412C873.984 653.164 873.168 653.748 872.208 654.164C871.264 654.564 870.192 654.764 868.992 654.764ZM868.992 653.012C870.208 653.012 871.232 652.74 872.064 652.196C872.912 651.652 873.56 650.86 874.008 649.82C874.456 648.78 874.68 647.532 874.68 646.076C874.68 643.884 874.184 642.188 873.192 640.988C872.216 639.772 870.816 639.164 868.992 639.164C867.808 639.164 866.792 639.436 865.944 639.98C865.112 640.524 864.472 641.316 864.024 642.356C863.576 643.38 863.352 644.62 863.352 646.076C863.352 648.252 863.848 649.956 864.84 651.188C865.832 652.404 867.216 653.012 868.992 653.012ZM883.67 654.716C883.35 654.716 883.102 654.628 882.926 654.452C882.766 654.26 882.686 654.004 882.686 653.684V638.636C882.686 638.3 882.774 638.052 882.95 637.892C883.126 637.716 883.374 637.628 883.694 637.628H889.382C891.19 637.628 892.582 638.052 893.558 638.9C894.534 639.748 895.022 640.956 895.022 642.524C895.022 643.516 894.798 644.38 894.35 645.116C893.918 645.836 893.278 646.388 892.43 646.772C891.582 647.14 890.566 647.324 889.382 647.324L889.622 647.012H890.102C890.726 647.012 891.27 647.172 891.734 647.492C892.198 647.812 892.622 648.324 893.006 649.028L895.31 653.324C895.438 653.548 895.494 653.772 895.478 653.996C895.478 654.204 895.406 654.38 895.262 654.524C895.118 654.652 894.91 654.716 894.638 654.716C894.366 654.716 894.142 654.652 893.966 654.524C893.79 654.396 893.638 654.212 893.51 653.972L890.894 649.124C890.526 648.436 890.102 647.98 889.622 647.756C889.142 647.516 888.51 647.396 887.726 647.396H884.654V653.684C884.654 654.004 884.574 654.26 884.414 654.452C884.254 654.628 884.006 654.716 883.67 654.716ZM884.654 645.836H889.094C890.406 645.836 891.398 645.564 892.07 645.02C892.742 644.46 893.078 643.628 893.078 642.524C893.078 641.452 892.742 640.644 892.07 640.1C891.398 639.54 890.406 639.26 889.094 639.26H884.654V645.836ZM905.808 654.716C905.504 654.716 905.264 654.628 905.088 654.452C904.912 654.26 904.824 654.004 904.824 653.684V639.332H899.424C899.136 639.332 898.912 639.252 898.752 639.092C898.592 638.932 898.512 638.724 898.512 638.468C898.512 638.196 898.592 637.988 898.752 637.844C898.912 637.7 899.136 637.628 899.424 637.628H912.216C912.504 637.628 912.728 637.7 912.888 637.844C913.048 637.988 913.128 638.196 913.128 638.468C913.128 638.74 913.048 638.956 912.888 639.116C912.728 639.26 912.504 639.332 912.216 639.332H906.816V653.684C906.816 654.004 906.728 654.26 906.552 654.452C906.392 654.628 906.144 654.716 905.808 654.716ZM918.566 654.716C918.23 654.716 917.966 654.628 917.774 654.452C917.598 654.26 917.51 653.988 917.51 653.636V638.708C917.51 638.356 917.598 638.092 917.774 637.916C917.966 637.724 918.238 637.628 918.59 637.628H927.302C927.574 637.628 927.782 637.7 927.926 637.844C928.07 637.988 928.142 638.188 928.142 638.444C928.142 638.716 928.07 638.924 927.926 639.068C927.782 639.212 927.574 639.284 927.302 639.284H919.478V645.188H926.798C927.07 645.188 927.278 645.26 927.422 645.404C927.582 645.548 927.662 645.748 927.662 646.004C927.662 646.276 927.582 646.484 927.422 646.628C927.278 646.772 927.07 646.844 926.798 646.844H919.478V653.636C919.478 654.356 919.174 654.716 918.566 654.716ZM939.764 654.764C938.196 654.764 936.828 654.412 935.66 653.708C934.508 652.988 933.612 651.98 932.972 650.684C932.348 649.388 932.036 647.852 932.036 646.076C932.036 644.732 932.212 643.532 932.564 642.476C932.932 641.404 933.452 640.5 934.124 639.764C934.796 639.012 935.604 638.436 936.548 638.036C937.508 637.62 938.58 637.412 939.764 637.412C941.364 637.412 942.74 637.764 943.892 638.468C945.06 639.172 945.956 640.172 946.58 641.468C947.22 642.748 947.54 644.276 947.54 646.052C947.54 647.396 947.356 648.604 946.988 649.676C946.62 650.748 946.1 651.66 945.428 652.412C944.756 653.164 943.94 653.748 942.98 654.164C942.036 654.564 940.964 654.764 939.764 654.764ZM939.764 653.012C940.98 653.012 942.004 652.74 942.836 652.196C943.684 651.652 944.332 650.86 944.78 649.82C945.228 648.78 945.452 647.532 945.452 646.076C945.452 643.884 944.956 642.188 943.964 640.988C942.988 639.772 941.588 639.164 939.764 639.164C938.58 639.164 937.564 639.436 936.716 639.98C935.884 640.524 935.244 641.316 934.796 642.356C934.348 643.38 934.124 644.62 934.124 646.076C934.124 648.252 934.62 649.956 935.612 651.188C936.604 652.404 937.988 653.012 939.764 653.012ZM954.466 654.548C954.146 654.548 953.898 654.46 953.722 654.284C953.546 654.092 953.458 653.836 953.458 653.516V638.54C953.458 638.204 953.538 637.948 953.698 637.772C953.874 637.596 954.122 637.508 954.442 637.508C954.762 637.508 955.002 637.596 955.162 637.772C955.338 637.948 955.426 638.204 955.426 638.54V652.82H963.298C963.586 652.82 963.81 652.9 963.97 653.06C964.13 653.204 964.21 653.412 964.21 653.684C964.21 653.956 964.13 654.172 963.97 654.332C963.81 654.476 963.586 654.548 963.298 654.548H954.466ZM969.874 654.716C969.554 654.716 969.306 654.628 969.13 654.452C968.97 654.26 968.89 654.004 968.89 653.684V638.492C968.89 638.156 968.97 637.9 969.13 637.724C969.306 637.548 969.554 637.46 969.874 637.46C970.194 637.46 970.434 637.548 970.594 637.724C970.77 637.9 970.858 638.156 970.858 638.492V653.684C970.858 654.004 970.778 654.26 970.618 654.452C970.458 654.628 970.21 654.716 969.874 654.716ZM984.558 654.764C982.99 654.764 981.622 654.412 980.454 653.708C979.302 652.988 978.406 651.98 977.766 650.684C977.142 649.388 976.83 647.852 976.83 646.076C976.83 644.732 977.006 643.532 977.358 642.476C977.726 641.404 978.246 640.5 978.918 639.764C979.59 639.012 980.398 638.436 981.342 638.036C982.302 637.62 983.374 637.412 984.558 637.412C986.158 637.412 987.534 637.764 988.686 638.468C989.854 639.172 990.75 640.172 991.374 641.468C992.014 642.748 992.334 644.276 992.334 646.052C992.334 647.396 992.15 648.604 991.782 649.676C991.414 650.748 990.894 651.66 990.222 652.412C989.55 653.164 988.734 653.748 987.774 654.164C986.83 654.564 985.758 654.764 984.558 654.764ZM984.558 653.012C985.774 653.012 986.798 652.74 987.63 652.196C988.478 651.652 989.126 650.86 989.574 649.82C990.022 648.78 990.246 647.532 990.246 646.076C990.246 643.884 989.75 642.188 988.758 640.988C987.782 639.772 986.382 639.164 984.558 639.164C983.374 639.164 982.358 639.436 981.51 639.98C980.678 640.524 980.038 641.316 979.59 642.356C979.142 643.38 978.918 644.62 978.918 646.076C978.918 648.252 979.414 649.956 980.406 651.188C981.398 652.404 982.782 653.012 984.558 653.012Z" fill="black"/>
<rect x="1263.72" y="36.74" width="149.52" height="32.04" rx="10" fill="url(#paint0_linear_433_567)"/>
<path d="M1293.4 55.3842C1292.67 55.3842 1292.04 55.2375 1291.51 54.9442C1290.99 54.6442 1290.59 54.2242 1290.31 53.6842C1290.03 53.1375 1289.89 52.4942 1289.89 51.7542C1289.89 51.2008 1289.97 50.7042 1290.13 50.2642C1290.29 49.8175 1290.52 49.4375 1290.82 49.1242C1291.12 48.8042 1291.49 48.5608 1291.92 48.3942C1292.36 48.2208 1292.86 48.1342 1293.4 48.1342C1293.77 48.1342 1294.13 48.1808 1294.48 48.2742C1294.84 48.3675 1295.15 48.5008 1295.41 48.6742C1295.55 48.7608 1295.65 48.8675 1295.69 48.9942C1295.74 49.1142 1295.75 49.2342 1295.72 49.3542C1295.7 49.4675 1295.64 49.5642 1295.55 49.6442C1295.47 49.7242 1295.37 49.7708 1295.24 49.7842C1295.12 49.7908 1294.99 49.7475 1294.84 49.6542C1294.64 49.5208 1294.41 49.4242 1294.17 49.3642C1293.93 49.3042 1293.69 49.2742 1293.44 49.2742C1292.97 49.2742 1292.57 49.3708 1292.24 49.5642C1291.92 49.7575 1291.67 50.0375 1291.5 50.4042C1291.34 50.7708 1291.25 51.2208 1291.25 51.7542C1291.25 52.2808 1291.34 52.7308 1291.5 53.1042C1291.67 53.4775 1291.92 53.7608 1292.24 53.9542C1292.57 54.1475 1292.97 54.2442 1293.44 54.2442C1293.7 54.2442 1293.95 54.2142 1294.19 54.1542C1294.44 54.0875 1294.67 53.9875 1294.89 53.8542C1295.04 53.7675 1295.17 53.7308 1295.28 53.7442C1295.4 53.7508 1295.5 53.7908 1295.58 53.8642C1295.66 53.9375 1295.72 54.0308 1295.74 54.1442C1295.77 54.2508 1295.76 54.3642 1295.72 54.4842C1295.68 54.5975 1295.6 54.6975 1295.48 54.7842C1295.22 54.9775 1294.9 55.1275 1294.52 55.2342C1294.16 55.3342 1293.78 55.3842 1293.4 55.3842ZM1297.56 55.3642C1297.35 55.3642 1297.19 55.3075 1297.08 55.1942C1296.97 55.0742 1296.92 54.9108 1296.92 54.7042V48.8842C1296.92 48.6708 1296.98 48.5108 1297.09 48.4042C1297.2 48.2908 1297.36 48.2342 1297.57 48.2342H1299.98C1300.75 48.2342 1301.35 48.4208 1301.77 48.7942C1302.19 49.1608 1302.4 49.6775 1302.4 50.3442C1302.4 50.7775 1302.3 51.1508 1302.11 51.4642C1301.92 51.7775 1301.65 52.0175 1301.29 52.1842C1300.93 52.3508 1300.49 52.4342 1299.98 52.4342L1300.07 52.2842H1300.4C1300.67 52.2842 1300.91 52.3508 1301.11 52.4842C1301.32 52.6175 1301.5 52.8275 1301.65 53.1142L1302.4 54.5042C1302.48 54.6442 1302.52 54.7808 1302.51 54.9142C1302.5 55.0475 1302.45 55.1575 1302.36 55.2442C1302.27 55.3242 1302.13 55.3642 1301.95 55.3642C1301.77 55.3642 1301.62 55.3275 1301.51 55.2542C1301.4 55.1742 1301.3 55.0542 1301.21 54.8942L1300.2 53.0342C1300.08 52.8075 1299.94 52.6575 1299.77 52.5842C1299.61 52.5042 1299.4 52.4642 1299.15 52.4642H1298.2V54.7042C1298.2 54.9108 1298.15 55.0742 1298.04 55.1942C1297.93 55.3075 1297.77 55.3642 1297.56 55.3642ZM1298.2 51.5142H1299.76C1300.22 51.5142 1300.57 51.4208 1300.8 51.2342C1301.04 51.0408 1301.16 50.7542 1301.16 50.3742C1301.16 50.0008 1301.04 49.7208 1300.8 49.5342C1300.57 49.3408 1300.22 49.2442 1299.76 49.2442H1298.2V51.5142ZM1304.46 55.2842C1304.24 55.2842 1304.07 55.2275 1303.95 55.1142C1303.83 54.9942 1303.78 54.8242 1303.78 54.6042V48.9142C1303.78 48.6942 1303.83 48.5275 1303.95 48.4142C1304.07 48.2942 1304.24 48.2342 1304.46 48.2342H1308.03C1308.19 48.2342 1308.32 48.2775 1308.41 48.3642C1308.5 48.4508 1308.55 48.5742 1308.55 48.7342C1308.55 48.9008 1308.5 49.0308 1308.41 49.1242C1308.32 49.2108 1308.19 49.2542 1308.03 49.2542H1305.01V51.1942H1307.81C1307.98 51.1942 1308.11 51.2375 1308.2 51.3242C1308.28 51.4108 1308.33 51.5375 1308.33 51.7042C1308.33 51.8708 1308.28 51.9975 1308.2 52.0842C1308.11 52.1708 1307.98 52.2142 1307.81 52.2142H1305.01V54.2642H1308.03C1308.19 54.2642 1308.32 54.3075 1308.41 54.3942C1308.5 54.4808 1308.55 54.6075 1308.55 54.7742C1308.55 54.9408 1308.5 55.0675 1308.41 55.1542C1308.32 55.2408 1308.19 55.2842 1308.03 55.2842H1304.46ZM1309.69 55.3642C1309.53 55.3642 1309.4 55.3275 1309.3 55.2542C1309.2 55.1808 1309.15 55.0842 1309.13 54.9642C1309.11 54.8375 1309.13 54.6975 1309.2 54.5442L1311.84 48.6942C1311.92 48.5008 1312.03 48.3642 1312.15 48.2842C1312.27 48.1975 1312.42 48.1542 1312.58 48.1542C1312.73 48.1542 1312.87 48.1975 1312.99 48.2842C1313.11 48.3642 1313.22 48.5008 1313.31 48.6942L1315.96 54.5442C1316.03 54.6975 1316.06 54.8375 1316.04 54.9642C1316.02 55.0908 1315.96 55.1908 1315.87 55.2642C1315.77 55.3308 1315.65 55.3642 1315.5 55.3642C1315.31 55.3642 1315.16 55.3208 1315.06 55.2342C1314.96 55.1408 1314.87 55.0008 1314.79 54.8142L1314.14 53.3042L1314.68 53.6542H1310.46L1311 53.3042L1310.36 54.8142C1310.27 55.0075 1310.18 55.1475 1310.09 55.2342C1309.99 55.3208 1309.86 55.3642 1309.69 55.3642ZM1312.56 49.6242L1311.16 52.9542L1310.9 52.6342H1314.24L1313.99 52.9542L1312.58 49.6242H1312.56ZM1318.62 55.3642C1318.41 55.3642 1318.25 55.3075 1318.14 55.1942C1318.03 55.0742 1317.98 54.9108 1317.98 54.7042V49.3042H1316.03C1315.85 49.3042 1315.72 49.2575 1315.62 49.1642C1315.52 49.0642 1315.48 48.9308 1315.48 48.7642C1315.48 48.5908 1315.52 48.4608 1315.62 48.3742C1315.72 48.2808 1315.85 48.2342 1316.03 48.2342H1321.21C1321.38 48.2342 1321.51 48.2808 1321.61 48.3742C1321.71 48.4608 1321.76 48.5908 1321.76 48.7642C1321.76 48.9308 1321.71 49.0642 1321.61 49.1642C1321.51 49.2575 1321.38 49.3042 1321.21 49.3042H1319.26V54.7042C1319.26 54.9108 1319.2 55.0742 1319.1 55.1942C1318.99 55.3075 1318.83 55.3642 1318.62 55.3642ZM1323.17 55.2842C1322.95 55.2842 1322.78 55.2275 1322.66 55.1142C1322.54 54.9942 1322.49 54.8242 1322.49 54.6042V48.9142C1322.49 48.6942 1322.54 48.5275 1322.66 48.4142C1322.78 48.2942 1322.95 48.2342 1323.17 48.2342H1326.74C1326.9 48.2342 1327.03 48.2775 1327.12 48.3642C1327.21 48.4508 1327.26 48.5742 1327.26 48.7342C1327.26 48.9008 1327.21 49.0308 1327.12 49.1242C1327.03 49.2108 1326.9 49.2542 1326.74 49.2542H1323.72V51.1942H1326.52C1326.69 51.1942 1326.82 51.2375 1326.91 51.3242C1326.99 51.4108 1327.04 51.5375 1327.04 51.7042C1327.04 51.8708 1326.99 51.9975 1326.91 52.0842C1326.82 52.1708 1326.69 52.2142 1326.52 52.2142H1323.72V54.2642H1326.74C1326.9 54.2642 1327.03 54.3075 1327.12 54.3942C1327.21 54.4808 1327.26 54.6075 1327.26 54.7742C1327.26 54.9408 1327.21 55.0675 1327.12 55.1542C1327.03 55.2408 1326.9 55.2842 1326.74 55.2842H1323.17ZM1331.24 55.3642C1331.08 55.3642 1330.95 55.3275 1330.85 55.2542C1330.76 55.1808 1330.7 55.0842 1330.68 54.9642C1330.66 54.8375 1330.68 54.6975 1330.75 54.5442L1333.39 48.6942C1333.48 48.5008 1333.58 48.3642 1333.7 48.2842C1333.83 48.1975 1333.97 48.1542 1334.13 48.1542C1334.28 48.1542 1334.42 48.1975 1334.54 48.2842C1334.67 48.3642 1334.77 48.5008 1334.86 48.6942L1337.51 54.5442C1337.58 54.6975 1337.61 54.8375 1337.59 54.9642C1337.57 55.0908 1337.51 55.1908 1337.42 55.2642C1337.33 55.3308 1337.2 55.3642 1337.05 55.3642C1336.86 55.3642 1336.72 55.3208 1336.61 55.2342C1336.51 55.1408 1336.42 55.0008 1336.34 54.8142L1335.69 53.3042L1336.23 53.6542H1332.01L1332.55 53.3042L1331.91 54.8142C1331.82 55.0075 1331.73 55.1475 1331.64 55.2342C1331.55 55.3208 1331.41 55.3642 1331.24 55.3642ZM1334.11 49.6242L1332.71 52.9542L1332.45 52.6342H1335.79L1335.54 52.9542L1334.13 49.6242H1334.11ZM1341.74 55.3842C1341.01 55.3842 1340.38 55.2375 1339.85 54.9442C1339.33 54.6442 1338.93 54.2242 1338.65 53.6842C1338.37 53.1375 1338.23 52.4942 1338.23 51.7542C1338.23 51.2008 1338.31 50.7042 1338.47 50.2642C1338.63 49.8175 1338.86 49.4375 1339.16 49.1242C1339.46 48.8042 1339.83 48.5608 1340.26 48.3942C1340.7 48.2208 1341.2 48.1342 1341.74 48.1342C1342.11 48.1342 1342.47 48.1808 1342.82 48.2742C1343.18 48.3675 1343.49 48.5008 1343.75 48.6742C1343.89 48.7608 1343.99 48.8675 1344.03 48.9942C1344.08 49.1142 1344.09 49.2342 1344.06 49.3542C1344.04 49.4675 1343.98 49.5642 1343.89 49.6442C1343.81 49.7242 1343.71 49.7708 1343.58 49.7842C1343.46 49.7908 1343.33 49.7475 1343.18 49.6542C1342.98 49.5208 1342.75 49.4242 1342.51 49.3642C1342.27 49.3042 1342.03 49.2742 1341.78 49.2742C1341.31 49.2742 1340.91 49.3708 1340.58 49.5642C1340.26 49.7575 1340.01 50.0375 1339.84 50.4042C1339.68 50.7708 1339.59 51.2208 1339.59 51.7542C1339.59 52.2808 1339.68 52.7308 1339.84 53.1042C1340.01 53.4775 1340.26 53.7608 1340.58 53.9542C1340.91 54.1475 1341.31 54.2442 1341.78 54.2442C1342.04 54.2442 1342.29 54.2142 1342.53 54.1542C1342.78 54.0875 1343.01 53.9875 1343.23 53.8542C1343.38 53.7675 1343.51 53.7308 1343.62 53.7442C1343.74 53.7508 1343.84 53.7908 1343.92 53.8642C1344 53.9375 1344.06 54.0308 1344.08 54.1442C1344.11 54.2508 1344.1 54.3642 1344.06 54.4842C1344.02 54.5975 1343.94 54.6975 1343.82 54.7842C1343.56 54.9775 1343.24 55.1275 1342.86 55.2342C1342.5 55.3342 1342.12 55.3842 1341.74 55.3842ZM1348.32 55.3842C1347.58 55.3842 1346.95 55.2375 1346.43 54.9442C1345.91 54.6442 1345.51 54.2242 1345.23 53.6842C1344.95 53.1375 1344.81 52.4942 1344.81 51.7542C1344.81 51.2008 1344.89 50.7042 1345.05 50.2642C1345.21 49.8175 1345.44 49.4375 1345.74 49.1242C1346.04 48.8042 1346.4 48.5608 1346.84 48.3942C1347.28 48.2208 1347.77 48.1342 1348.32 48.1342C1348.68 48.1342 1349.04 48.1808 1349.4 48.2742C1349.75 48.3675 1350.06 48.5008 1350.33 48.6742C1350.47 48.7608 1350.56 48.8675 1350.61 48.9942C1350.65 49.1142 1350.66 49.2342 1350.64 49.3542C1350.61 49.4675 1350.55 49.5642 1350.47 49.6442C1350.39 49.7242 1350.28 49.7708 1350.16 49.7842C1350.04 49.7908 1349.9 49.7475 1349.76 49.6542C1349.55 49.5208 1349.33 49.4242 1349.09 49.3642C1348.85 49.3042 1348.6 49.2742 1348.36 49.2742C1347.88 49.2742 1347.48 49.3708 1347.16 49.5642C1346.83 49.7575 1346.58 50.0375 1346.42 50.4042C1346.25 50.7708 1346.17 51.2208 1346.17 51.7542C1346.17 52.2808 1346.25 52.7308 1346.42 53.1042C1346.58 53.4775 1346.83 53.7608 1347.16 53.9542C1347.48 54.1475 1347.88 54.2442 1348.36 54.2442C1348.61 54.2442 1348.86 54.2142 1349.11 54.1542C1349.35 54.0875 1349.59 53.9875 1349.81 53.8542C1349.95 53.7675 1350.08 53.7308 1350.2 53.7442C1350.32 53.7508 1350.42 53.7908 1350.5 53.8642C1350.58 53.9375 1350.63 54.0308 1350.66 54.1442C1350.68 54.2508 1350.68 54.3642 1350.64 54.4842C1350.6 54.5975 1350.52 54.6975 1350.4 54.7842C1350.13 54.9775 1349.81 55.1275 1349.44 55.2342C1349.07 55.3342 1348.7 55.3842 1348.32 55.3842ZM1354.77 55.3842C1354.09 55.3842 1353.49 55.2342 1352.98 54.9342C1352.47 54.6342 1352.08 54.2142 1351.8 53.6742C1351.52 53.1275 1351.38 52.4875 1351.38 51.7542C1351.38 51.2008 1351.46 50.7042 1351.62 50.2642C1351.78 49.8175 1352.01 49.4375 1352.3 49.1242C1352.6 48.8042 1352.96 48.5608 1353.37 48.3942C1353.79 48.2208 1354.26 48.1342 1354.77 48.1342C1355.46 48.1342 1356.05 48.2842 1356.56 48.5842C1357.07 48.8775 1357.46 49.2942 1357.74 49.8342C1358.02 50.3742 1358.16 51.0108 1358.16 51.7442C1358.16 52.2975 1358.08 52.7975 1357.92 53.2442C1357.76 53.6908 1357.53 54.0742 1357.23 54.3942C1356.94 54.7142 1356.58 54.9608 1356.16 55.1342C1355.75 55.3008 1355.28 55.3842 1354.77 55.3842ZM1354.77 54.2842C1355.2 54.2842 1355.57 54.1842 1355.87 53.9842C1356.18 53.7842 1356.41 53.4942 1356.57 53.1142C1356.74 52.7342 1356.82 52.2808 1356.82 51.7542C1356.82 50.9542 1356.64 50.3342 1356.28 49.8942C1355.93 49.4542 1355.42 49.2342 1354.77 49.2342C1354.34 49.2342 1353.98 49.3342 1353.67 49.5342C1353.36 49.7275 1353.13 50.0142 1352.96 50.3942C1352.8 50.7675 1352.72 51.2208 1352.72 51.7542C1352.72 52.5475 1352.9 53.1675 1353.26 53.6142C1353.62 54.0608 1354.12 54.2842 1354.77 54.2842ZM1362.39 55.3842C1361.9 55.3842 1361.47 55.3208 1361.1 55.1942C1360.73 55.0675 1360.42 54.8808 1360.17 54.6342C1359.92 54.3808 1359.73 54.0675 1359.6 53.6942C1359.47 53.3208 1359.41 52.8875 1359.41 52.3942V48.8042C1359.41 48.5842 1359.46 48.4208 1359.57 48.3142C1359.68 48.2075 1359.84 48.1542 1360.05 48.1542C1360.26 48.1542 1360.41 48.2075 1360.52 48.3142C1360.63 48.4208 1360.69 48.5842 1360.69 48.8042V52.3842C1360.69 53.0175 1360.83 53.4942 1361.12 53.8142C1361.41 54.1275 1361.84 54.2842 1362.39 54.2842C1362.94 54.2842 1363.36 54.1275 1363.65 53.8142C1363.94 53.4942 1364.08 53.0175 1364.08 52.3842V48.8042C1364.08 48.5842 1364.13 48.4208 1364.24 48.3142C1364.35 48.2075 1364.51 48.1542 1364.72 48.1542C1364.92 48.1542 1365.07 48.2075 1365.18 48.3142C1365.29 48.4208 1365.35 48.5842 1365.35 48.8042V52.3942C1365.35 53.0475 1365.24 53.5975 1365.01 54.0442C1364.79 54.4908 1364.46 54.8275 1364.02 55.0542C1363.58 55.2742 1363.04 55.3842 1362.39 55.3842ZM1367.44 55.3642C1367.25 55.3642 1367.1 55.3108 1366.99 55.2042C1366.89 55.0975 1366.84 54.9442 1366.84 54.7442V48.7942C1366.84 48.5875 1366.89 48.4308 1366.99 48.3242C1367.1 48.2108 1367.24 48.1542 1367.4 48.1542C1367.56 48.1542 1367.67 48.1842 1367.74 48.2442C1367.82 48.2975 1367.92 48.3908 1368.02 48.5242L1371.85 53.4942H1371.59V48.7642C1371.59 48.5708 1371.64 48.4208 1371.74 48.3142C1371.85 48.2075 1372 48.1542 1372.19 48.1542C1372.39 48.1542 1372.53 48.2075 1372.63 48.3142C1372.73 48.4208 1372.78 48.5708 1372.78 48.7642V54.7642C1372.78 54.9508 1372.74 55.0975 1372.64 55.2042C1372.55 55.3108 1372.42 55.3642 1372.26 55.3642C1372.11 55.3642 1371.99 55.3342 1371.89 55.2742C1371.81 55.2142 1371.71 55.1175 1371.6 54.9842L1367.78 50.0142H1368.03V54.7442C1368.03 54.9442 1367.98 55.0975 1367.88 55.2042C1367.78 55.3108 1367.64 55.3642 1367.44 55.3642ZM1376.66 55.3642C1376.46 55.3642 1376.3 55.3075 1376.18 55.1942C1376.08 55.0742 1376.02 54.9108 1376.02 54.7042V49.3042H1374.07C1373.9 49.3042 1373.76 49.2575 1373.66 49.1642C1373.57 49.0642 1373.52 48.9308 1373.52 48.7642C1373.52 48.5908 1373.57 48.4608 1373.66 48.3742C1373.76 48.2808 1373.9 48.2342 1374.07 48.2342H1379.25C1379.43 48.2342 1379.56 48.2808 1379.65 48.3742C1379.75 48.4608 1379.8 48.5908 1379.8 48.7642C1379.8 48.9308 1379.75 49.0642 1379.65 49.1642C1379.56 49.2575 1379.43 49.3042 1379.25 49.3042H1377.3V54.7042C1377.3 54.9108 1377.25 55.0742 1377.14 55.1942C1377.04 55.3075 1376.88 55.3642 1376.66 55.3642Z" fill="white"/>
<path d="M302.621 593.161C305.567 593.161 307.954 590.773 307.954 587.828C307.954 584.882 305.567 582.495 302.621 582.495C299.676 582.495 297.288 584.882 297.288 587.828C297.288 590.773 299.676 593.161 302.621 593.161ZM1135.66 593.161C1138.61 593.161 1140.99 590.773 1140.99 587.828C1140.99 584.882 1138.61 582.495 1135.66 582.495C1132.72 582.495 1130.33 584.882 1130.33 587.828C1130.33 590.773 1132.72 593.161 1135.66 593.161ZM302.621 588.828H1135.66V586.828H302.621V588.828Z" fill="#323333"/>
<circle cx="302.622" cy="587.828" r="10.68" fill="#323333"/>
<circle cx="280.194" cy="587.828" r="5.33999" fill="#323333"/>
<circle cx="265.776" cy="587.294" r="2.67" fill="#323333"/>
<circle cx="1135.66" cy="587.828" r="10.68" transform="rotate(-180 1135.66 587.828)" fill="#323333"/>
<circle cx="1158.09" cy="587.828" r="5.33999" transform="rotate(-180 1158.09 587.828)" fill="#323333"/>
<circle cx="1172.51" cy="588.362" r="2.67" transform="rotate(-180 1172.51 588.362)" fill="#323333"/>
<path d="M52.2553 54.1927V54.0912C54.5696 52.8765 56.3662 51.0923 57.6476 48.7389C58.929 46.3854 59.5685 43.9489 59.5685 41.4295C59.5685 38.1425 58.5241 35.6507 56.4352 33.9496C54.3464 32.2484 51.0866 31.4001 46.6628 31.4001H41.2245L39.9086 42.34H43.495C45.8323 42.34 46.9987 43.3427 46.9987 45.3458C46.9987 46.8994 46.4995 48.2156 45.4988 49.2967C44.498 50.3778 43.2236 50.9172 41.673 50.9172H38.8757L37.753 60.2366H42.3494C43.2489 60.2366 44.0057 60.3772 44.6246 60.6584C45.2434 60.9396 45.6966 61.3292 45.9888 61.8224C46.2809 62.3157 46.4258 62.9035 46.4258 63.5789C46.4258 65.2662 45.8185 66.7138 44.6062 67.917C43.3938 69.1203 41.887 69.7242 40.0903 69.7242H36.6097L35.3076 80.5304H43.1891C45.5701 80.5304 47.7486 80.1132 49.727 79.281C51.7032 78.4489 53.3733 77.301 54.7306 75.8373C56.0879 74.3735 57.1392 72.6125 57.8822 70.554C58.6253 68.4956 58.9934 66.2597 58.9934 63.8509C58.9957 58.9642 56.7481 55.7463 52.2553 54.1927Z" fill="#323333"/>
<path d="M29.2222 31.4001C28.9439 31.4001 28.7069 31.6099 28.6747 31.8865L26.1028 52.9548L25.3965 58.7175C25.3574 59.0471 25.6128 59.3376 25.9441 59.3376H25.9602C26.2385 59.3376 26.4755 59.1278 26.5077 58.8512L29.7721 32.0202C29.8112 31.6906 29.5535 31.4001 29.2222 31.4001Z" fill="#323333"/>
<path d="M31.4823 31.4001H31.4662C31.1878 31.4001 30.9509 31.6099 30.9187 31.8865L26.9756 64.116C26.9365 64.4456 27.1919 64.7361 27.5232 64.7361H27.5393C27.8176 64.7361 28.0546 64.5263 28.0868 64.2497L32.0298 32.0202C32.0712 31.6906 31.8136 31.4001 31.4823 31.4001Z" fill="#323333"/>
<path d="M37.6924 31.8865L31.8653 79.908C31.8262 80.2376 32.0815 80.5281 32.4128 80.5281H32.4749C32.7556 80.5281 32.9902 80.3183 33.0224 80.0417L38.8058 32.0202C38.845 31.6906 38.5896 31.4001 38.2583 31.4001H38.2422C37.9616 31.4001 37.7269 31.6099 37.6924 31.8865Z" fill="#323333"/>
<path d="M36.0003 31.4001H35.9842C35.7058 31.4001 35.4689 31.6099 35.4367 31.8865L30.3848 73.5299C30.3457 73.8595 30.6011 74.15 30.9323 74.15H30.9484C31.2268 74.15 31.4637 73.9402 31.496 73.6636L36.5478 32.0202C36.5869 31.6906 36.3316 31.4001 36.0003 31.4001Z" fill="#323333"/>
<path d="M33.7403 31.4001H33.7242C33.4435 31.4001 33.2089 31.6099 33.1744 31.8865L28.6631 68.9105C28.624 69.2402 28.8794 69.5306 29.2107 69.5306H29.2268C29.5051 69.5306 29.7421 69.3208 29.7743 69.0442L34.2878 32.0202C34.3292 31.6906 34.0716 31.4001 33.7403 31.4001Z" fill="#323333"/>
</g>
<defs>
<linearGradient id="paint0_linear_433_567" x1="1338.48" y1="36.74" x2="1338.48" y2="68.7799" gradientUnits="userSpaceOnUse">
<stop stop-color="#806BFF"/>
<stop offset="1" stop-color="#4A4085"/>
</linearGradient>
<clipPath id="clip0_433_567">
<rect width="1440" height="1024" fill="white"/>
</clipPath>
</defs>
</svg>
