<svg width="33" height="33" viewBox="0 0 33 33" fill="none" xmlns="http://www.w3.org/2000/svg">
<path fill-rule="evenodd" clip-rule="evenodd" d="M33 16.3355C32.7616 16.2839 27.1769 15.0818 21.5062 15.7946C21.3905 15.5125 21.2725 15.228 21.1505 14.9427C20.8073 14.1354 20.4376 13.3351 20.053 12.5496C26.571 9.8907 29.2172 6.06494 29.2477 6.01961C31.5624 8.82855 32.9625 12.4191 33 16.3355ZM27.4028 4.1165C27.3614 4.18059 25.0115 7.75703 18.7827 10.0916C15.9614 4.90901 12.8618 0.792507 12.614 0.465813C13.8617 0.163348 15.1625 0 16.5031 0C20.6823 0 24.4948 1.55688 27.4028 4.1165ZM12.5499 0.479099L12.5468 0.482226C12.5468 0.482226 12.5288 0.486915 12.4983 0.493168C12.5147 0.488478 12.5335 0.485352 12.5499 0.479099ZM9.46129 1.57642C9.68096 1.87107 12.7336 6.00788 15.5901 11.0834C7.66566 13.1881 0.788767 13.1061 0.352561 13.0982C1.4251 7.98759 4.85924 3.74995 9.46129 1.57642ZM0 16.4988C0 16.323 0.0078171 16.151 0.0140709 15.9775C0.304875 15.9838 8.45989 16.169 16.9565 13.6266C17.4295 14.5519 17.8821 15.4922 18.2956 16.4316C18.0775 16.4926 17.8602 16.5582 17.6452 16.6286C8.73897 19.5063 4.22135 27.5189 4.22135 27.5189C4.22135 27.5189 4.2276 27.5236 4.2276 27.5267C1.6002 24.6029 0 20.738 0 16.4988ZM16.5031 33C12.5093 33 8.84607 31.5807 5.99119 29.2188C6.20773 29.3946 6.36095 29.5072 6.36095 29.5072C6.36095 29.5072 9.52461 22.6091 19.3111 19.1999C19.3478 19.1858 19.3846 19.1757 19.4213 19.1647C21.7439 25.1976 22.7023 30.2505 22.9469 31.6924C20.966 32.535 18.7889 33 16.5031 33ZM25.7252 30.1856C25.5571 29.1891 24.6777 24.3465 22.5131 18.3996C27.8398 17.5477 32.4575 19.0084 32.7975 19.1202C32.0627 23.7174 29.4306 27.683 25.7252 30.1856Z" fill="#111111"/>
</svg>
