<svg width="29" height="33" viewBox="0 0 29 33" fill="none" xmlns="http://www.w3.org/2000/svg">
<path d="M22.1043 31.9592C22.1043 31.9592 20.6807 31.2977 20.6807 30.137C20.7125 28.8577 20.6807 25.8747 20.6807 24.7764C20.6523 23.6022 20.2251 22.471 19.4668 21.5626C19.4668 21.5626 29 21.6686 29 11.7026C29 7.85852 26.9535 5.85533 26.9535 5.85533C26.9535 5.85533 28.034 1.75535 26.5849 0.0142622C24.9643 -0.160471 22.0535 1.53069 20.8142 2.32323C19.1365 1.7574 17.3697 1.48904 15.5963 1.53069C13.8166 1.48722 12.0432 1.75559 10.3594 2.32323C9.08832 1.53069 6.21565 -0.172952 4.58865 0.0142622C3.14596 1.75535 4.22003 5.85533 4.22003 5.85533C4.22003 5.85533 2.17357 7.85852 2.17357 11.7026C2.17357 21.6874 11.7068 21.5626 11.7068 21.5626C11.0727 22.3154 10.6596 23.2237 10.5119 24.1898C9.73176 24.4704 8.9137 24.6365 8.08416 24.6828C6.01863 24.6828 4.44883 22.7108 3.87684 21.7997C3.57282 21.3268 3.15935 20.9311 2.67009 20.6448C2.18084 20.3585 1.62963 20.1897 1.06136 20.1522C0.343195 20.1522 0 20.5017 0 20.9011C0 21.3005 0.997809 21.5813 1.65878 22.3239C3.03791 23.8903 3.01249 27.3911 7.96976 27.3911C8.79547 27.352 9.61856 27.2708 10.4357 27.1478C10.4357 28.2586 10.4357 29.4318 10.4357 30.112C10.4675 31.279 9.05019 31.928 9.05019 31.928C13.2799 33.3466 17.8677 33.3576 22.1043 31.9592Z" fill="#111111"/>
</svg>
