<svg width="1440" height="130" viewBox="0 0 1440 130" fill="none" xmlns="http://www.w3.org/2000/svg">
<rect width="1440" height="130" fill="#F2F2F2"/>
<path d="M114.794 76.272C114.091 76.272 113.547 76.0793 113.162 75.694C112.799 75.286 112.618 74.7307 112.618 74.028V54.002C112.618 53.2767 112.799 52.7213 113.162 52.336C113.547 51.9507 114.091 51.758 114.794 51.758C115.497 51.758 116.029 51.9507 116.392 52.336C116.777 52.7213 116.97 53.2767 116.97 54.002V74.028C116.97 74.7307 116.789 75.286 116.426 75.694C116.063 76.0793 115.519 76.272 114.794 76.272ZM123.914 76.272C123.234 76.272 122.712 76.0907 122.35 75.728C121.987 75.3427 121.806 74.7987 121.806 74.096V61.244C121.806 60.5413 121.987 60.0087 122.35 59.646C122.712 59.2833 123.222 59.102 123.88 59.102C124.537 59.102 125.047 59.2833 125.41 59.646C125.772 60.0087 125.954 60.5413 125.954 61.244V63.556L125.58 62.706C126.078 61.5047 126.849 60.598 127.892 59.986C128.957 59.3513 130.158 59.034 131.496 59.034C132.833 59.034 133.932 59.2833 134.794 59.782C135.655 60.2807 136.301 61.04 136.732 62.06C137.162 63.0573 137.378 64.3267 137.378 65.868V74.096C137.378 74.7987 137.196 75.3427 136.834 75.728C136.471 76.0907 135.95 76.272 135.27 76.272C134.59 76.272 134.057 76.0907 133.672 75.728C133.309 75.3427 133.128 74.7987 133.128 74.096V66.072C133.128 64.78 132.878 63.8393 132.38 63.25C131.904 62.6607 131.156 62.366 130.136 62.366C128.889 62.366 127.892 62.7627 127.144 63.556C126.418 64.3267 126.056 65.358 126.056 66.65V74.096C126.056 75.5467 125.342 76.272 123.914 76.272ZM149.31 76.34C147.837 76.34 146.602 76.0907 145.604 75.592C144.63 75.0933 143.904 74.368 143.428 73.416C142.952 72.4413 142.714 71.24 142.714 69.812V62.57H140.946C140.402 62.57 139.983 62.434 139.688 62.162C139.394 61.8673 139.246 61.4707 139.246 60.972C139.246 60.4507 139.394 60.054 139.688 59.782C139.983 59.51 140.402 59.374 140.946 59.374H142.714V56.28C142.714 55.5773 142.896 55.0447 143.258 54.682C143.644 54.3193 144.176 54.138 144.856 54.138C145.536 54.138 146.058 54.3193 146.42 54.682C146.783 55.0447 146.964 55.5773 146.964 56.28V59.374H150.568C151.112 59.374 151.532 59.51 151.826 59.782C152.121 60.054 152.268 60.4507 152.268 60.972C152.268 61.4707 152.121 61.8673 151.826 62.162C151.532 62.434 151.112 62.57 150.568 62.57H146.964V69.574C146.964 70.662 147.202 71.478 147.678 72.022C148.154 72.566 148.925 72.838 149.99 72.838C150.376 72.838 150.716 72.804 151.01 72.736C151.305 72.668 151.566 72.6227 151.792 72.6C152.064 72.5773 152.291 72.668 152.472 72.872C152.654 73.0533 152.744 73.4387 152.744 74.028C152.744 74.4813 152.665 74.8893 152.506 75.252C152.37 75.592 152.11 75.83 151.724 75.966C151.43 76.0567 151.044 76.136 150.568 76.204C150.092 76.2947 149.673 76.34 149.31 76.34ZM162.771 76.34C160.89 76.34 159.269 75.9887 157.909 75.286C156.549 74.5833 155.495 73.586 154.747 72.294C154.022 71.002 153.659 69.472 153.659 67.704C153.659 65.9813 154.011 64.474 154.713 63.182C155.439 61.89 156.425 60.8813 157.671 60.156C158.941 59.408 160.38 59.034 161.989 59.034C163.168 59.034 164.222 59.2267 165.151 59.612C166.103 59.9973 166.908 60.5527 167.565 61.278C168.245 62.0033 168.755 62.8873 169.095 63.93C169.458 64.95 169.639 66.106 169.639 67.398C169.639 67.806 169.492 68.1233 169.197 68.35C168.925 68.554 168.529 68.656 168.007 68.656H157.093V66.208H166.647L166.103 66.718C166.103 65.6753 165.945 64.8027 165.627 64.1C165.333 63.3973 164.891 62.8647 164.301 62.502C163.735 62.1167 163.021 61.924 162.159 61.924C161.207 61.924 160.391 62.1507 159.711 62.604C159.054 63.0347 158.544 63.658 158.181 64.474C157.841 65.2673 157.671 66.2193 157.671 67.33V67.568C157.671 69.4267 158.102 70.8207 158.963 71.75C159.847 72.6567 161.139 73.11 162.839 73.11C163.429 73.11 164.086 73.042 164.811 72.906C165.559 72.7473 166.262 72.4867 166.919 72.124C167.395 71.852 167.815 71.7387 168.177 71.784C168.54 71.8067 168.823 71.9313 169.027 72.158C169.254 72.3847 169.39 72.668 169.435 73.008C169.481 73.3253 169.413 73.654 169.231 73.994C169.073 74.334 168.789 74.6287 168.381 74.878C167.588 75.3767 166.67 75.7507 165.627 76C164.607 76.2267 163.655 76.34 162.771 76.34ZM175.181 76.272C174.478 76.272 173.934 76.0907 173.549 75.728C173.186 75.3427 173.005 74.7987 173.005 74.096V61.244C173.005 60.5413 173.186 60.0087 173.549 59.646C173.912 59.2833 174.422 59.102 175.079 59.102C175.736 59.102 176.246 59.2833 176.609 59.646C176.972 60.0087 177.153 60.5413 177.153 61.244V63.386H176.813C177.13 62.026 177.754 60.9947 178.683 60.292C179.612 59.5893 180.848 59.17 182.389 59.034C182.865 58.9887 183.239 59.1133 183.511 59.408C183.806 59.68 183.976 60.1107 184.021 60.7C184.066 61.2667 183.93 61.7313 183.613 62.094C183.318 62.434 182.865 62.638 182.253 62.706L181.505 62.774C180.122 62.91 179.08 63.3407 178.377 64.066C177.674 64.7687 177.323 65.766 177.323 67.058V74.096C177.323 74.7987 177.142 75.3427 176.779 75.728C176.416 76.0907 175.884 76.272 175.181 76.272ZM191.627 76.34C190.426 76.34 189.349 76.1133 188.397 75.66C187.468 75.184 186.731 74.5493 186.187 73.756C185.666 72.9627 185.405 72.0673 185.405 71.07C185.405 69.846 185.723 68.8827 186.357 68.18C186.992 67.4547 188.023 66.9333 189.451 66.616C190.879 66.2987 192.795 66.14 195.197 66.14H196.897V68.588H195.231C193.826 68.588 192.704 68.656 191.865 68.792C191.027 68.928 190.426 69.166 190.063 69.506C189.723 69.8233 189.553 70.2767 189.553 70.866C189.553 71.614 189.814 72.226 190.335 72.702C190.857 73.178 191.582 73.416 192.511 73.416C193.259 73.416 193.917 73.246 194.483 72.906C195.073 72.5433 195.537 72.056 195.877 71.444C196.217 70.832 196.387 70.1293 196.387 69.336V65.426C196.387 64.2927 196.138 63.4767 195.639 62.978C195.141 62.4793 194.302 62.23 193.123 62.23C192.466 62.23 191.752 62.3093 190.981 62.468C190.233 62.6267 189.44 62.8987 188.601 63.284C188.171 63.488 187.785 63.5447 187.445 63.454C187.128 63.3633 186.879 63.182 186.697 62.91C186.516 62.6153 186.425 62.298 186.425 61.958C186.425 61.618 186.516 61.2893 186.697 60.972C186.879 60.632 187.185 60.3827 187.615 60.224C188.658 59.7933 189.655 59.4873 190.607 59.306C191.582 59.1247 192.466 59.034 193.259 59.034C194.891 59.034 196.229 59.2833 197.271 59.782C198.337 60.2807 199.13 61.04 199.651 62.06C200.173 63.0573 200.433 64.3493 200.433 65.936V74.096C200.433 74.7987 200.263 75.3427 199.923 75.728C199.583 76.0907 199.096 76.272 198.461 76.272C197.827 76.272 197.328 76.0907 196.965 75.728C196.625 75.3427 196.455 74.7987 196.455 74.096V72.464H196.727C196.569 73.2573 196.251 73.9487 195.775 74.538C195.322 75.1047 194.744 75.5467 194.041 75.864C193.339 76.1813 192.534 76.34 191.627 76.34ZM212.431 76.34C210.686 76.34 209.167 75.9887 207.875 75.286C206.583 74.5607 205.586 73.5407 204.883 72.226C204.18 70.9113 203.829 69.37 203.829 67.602C203.829 66.2647 204.022 65.0747 204.407 64.032C204.815 62.9667 205.393 62.0713 206.141 61.346C206.889 60.598 207.796 60.0313 208.861 59.646C209.926 59.238 211.116 59.034 212.431 59.034C213.179 59.034 213.984 59.136 214.845 59.34C215.729 59.544 216.556 59.884 217.327 60.36C217.69 60.5867 217.928 60.8587 218.041 61.176C218.154 61.4933 218.177 61.822 218.109 62.162C218.041 62.4793 217.894 62.7627 217.667 63.012C217.463 63.2387 217.202 63.386 216.885 63.454C216.568 63.4993 216.216 63.42 215.831 63.216C215.332 62.9213 214.822 62.706 214.301 62.57C213.78 62.4113 213.281 62.332 212.805 62.332C212.057 62.332 211.4 62.4567 210.833 62.706C210.266 62.9327 209.779 63.2727 209.371 63.726C208.986 64.1567 208.691 64.7007 208.487 65.358C208.283 66.0153 208.181 66.7747 208.181 67.636C208.181 69.3133 208.578 70.6393 209.371 71.614C210.187 72.566 211.332 73.042 212.805 73.042C213.281 73.042 213.768 72.974 214.267 72.838C214.788 72.702 215.31 72.4867 215.831 72.192C216.216 71.988 216.556 71.92 216.851 71.988C217.168 72.056 217.429 72.2147 217.633 72.464C217.837 72.6907 217.962 72.974 218.007 73.314C218.052 73.6313 218.007 73.9487 217.871 74.266C217.758 74.5833 217.531 74.844 217.191 75.048C216.443 75.5013 215.65 75.83 214.811 76.034C213.972 76.238 213.179 76.34 212.431 76.34ZM228.467 76.34C226.993 76.34 225.758 76.0907 224.761 75.592C223.786 75.0933 223.061 74.368 222.585 73.416C222.109 72.4413 221.871 71.24 221.871 69.812V62.57H220.103C219.559 62.57 219.139 62.434 218.845 62.162C218.55 61.8673 218.403 61.4707 218.403 60.972C218.403 60.4507 218.55 60.054 218.845 59.782C219.139 59.51 219.559 59.374 220.103 59.374H221.871V56.28C221.871 55.5773 222.052 55.0447 222.415 54.682C222.8 54.3193 223.333 54.138 224.013 54.138C224.693 54.138 225.214 54.3193 225.577 54.682C225.939 55.0447 226.121 55.5773 226.121 56.28V59.374H229.725C230.269 59.374 230.688 59.51 230.983 59.782C231.277 60.054 231.425 60.4507 231.425 60.972C231.425 61.4707 231.277 61.8673 230.983 62.162C230.688 62.434 230.269 62.57 229.725 62.57H226.121V69.574C226.121 70.662 226.359 71.478 226.835 72.022C227.311 72.566 228.081 72.838 229.147 72.838C229.532 72.838 229.872 72.804 230.167 72.736C230.461 72.668 230.722 72.6227 230.949 72.6C231.221 72.5773 231.447 72.668 231.629 72.872C231.81 73.0533 231.901 73.4387 231.901 74.028C231.901 74.4813 231.821 74.8893 231.663 75.252C231.527 75.592 231.266 75.83 230.881 75.966C230.586 76.0567 230.201 76.136 229.725 76.204C229.249 76.2947 228.829 76.34 228.467 76.34ZM236.439 76.238C235.759 76.238 235.238 76.034 234.875 75.626C234.512 75.218 234.331 74.6513 234.331 73.926V61.448C234.331 60.7 234.512 60.1333 234.875 59.748C235.238 59.34 235.759 59.136 236.439 59.136C237.119 59.136 237.64 59.34 238.003 59.748C238.388 60.1333 238.581 60.7 238.581 61.448V73.926C238.581 74.6513 238.4 75.218 238.037 75.626C237.674 76.034 237.142 76.238 236.439 76.238ZM236.439 55.974C235.646 55.974 235.022 55.7813 234.569 55.396C234.138 54.988 233.923 54.4327 233.923 53.73C233.923 53.0047 234.138 52.4493 234.569 52.064C235.022 51.6787 235.646 51.486 236.439 51.486C237.255 51.486 237.878 51.6787 238.309 52.064C238.74 52.4493 238.955 53.0047 238.955 53.73C238.955 54.4327 238.74 54.988 238.309 55.396C237.878 55.7813 237.255 55.974 236.439 55.974ZM249.729 76.272C249.162 76.272 248.664 76.1247 248.233 75.83C247.825 75.5353 247.485 75.082 247.213 74.47L241.807 61.924C241.603 61.4253 241.524 60.9607 241.569 60.53C241.637 60.0993 241.841 59.7593 242.181 59.51C242.544 59.238 243.031 59.102 243.643 59.102C244.164 59.102 244.584 59.2267 244.901 59.476C245.218 59.7027 245.502 60.1447 245.751 60.802L250.341 72.26H249.321L254.047 60.768C254.296 60.1333 254.58 59.7027 254.897 59.476C255.237 59.2267 255.69 59.102 256.257 59.102C256.756 59.102 257.152 59.238 257.447 59.51C257.742 59.7593 257.923 60.0993 257.991 60.53C258.059 60.938 257.98 61.3913 257.753 61.89L252.245 74.47C251.996 75.082 251.656 75.5353 251.225 75.83C250.817 76.1247 250.318 76.272 249.729 76.272ZM268.789 76.34C266.907 76.34 265.287 75.9887 263.927 75.286C262.567 74.5833 261.513 73.586 260.765 72.294C260.039 71.002 259.677 69.472 259.677 67.704C259.677 65.9813 260.028 64.474 260.731 63.182C261.456 61.89 262.442 60.8813 263.689 60.156C264.958 59.408 266.397 59.034 268.007 59.034C269.185 59.034 270.239 59.2267 271.169 59.612C272.121 59.9973 272.925 60.5527 273.583 61.278C274.263 62.0033 274.773 62.8873 275.113 63.93C275.475 64.95 275.657 66.106 275.657 67.398C275.657 67.806 275.509 68.1233 275.215 68.35C274.943 68.554 274.546 68.656 274.025 68.656H263.111V66.208H272.665L272.121 66.718C272.121 65.6753 271.962 64.8027 271.645 64.1C271.35 63.3973 270.908 62.8647 270.319 62.502C269.752 62.1167 269.038 61.924 268.177 61.924C267.225 61.924 266.409 62.1507 265.729 62.604C265.071 63.0347 264.561 63.658 264.199 64.474C263.859 65.2673 263.689 66.2193 263.689 67.33V67.568C263.689 69.4267 264.119 70.8207 264.981 71.75C265.865 72.6567 267.157 73.11 268.857 73.11C269.446 73.11 270.103 73.042 270.829 72.906C271.577 72.7473 272.279 72.4867 272.937 72.124C273.413 71.852 273.832 71.7387 274.195 71.784C274.557 71.8067 274.841 71.9313 275.045 72.158C275.271 72.3847 275.407 72.668 275.453 73.008C275.498 73.3253 275.43 73.654 275.249 73.994C275.09 74.334 274.807 74.6287 274.399 74.878C273.605 75.3767 272.687 75.7507 271.645 76C270.625 76.2267 269.673 76.34 268.789 76.34ZM290.837 76.272C290.134 76.272 289.59 76.0793 289.205 75.694C288.842 75.286 288.661 74.7307 288.661 74.028V54.24C288.661 53.5147 288.854 52.9707 289.239 52.608C289.624 52.2227 290.168 52.03 290.871 52.03H299.065C301.694 52.03 303.723 52.6873 305.151 54.002C306.579 55.3167 307.293 57.1527 307.293 59.51C307.293 61.8673 306.579 63.7147 305.151 65.052C303.723 66.3667 301.694 67.024 299.065 67.024H293.013V74.028C293.013 74.7307 292.832 75.286 292.469 75.694C292.106 76.0793 291.562 76.272 290.837 76.272ZM293.013 63.59H298.385C299.926 63.59 301.094 63.25 301.887 62.57C302.68 61.8673 303.077 60.8473 303.077 59.51C303.077 58.1727 302.68 57.164 301.887 56.484C301.094 55.804 299.926 55.464 298.385 55.464H293.013V63.59ZM312.277 76.272C311.574 76.272 311.03 76.0907 310.645 75.728C310.282 75.3427 310.101 74.7987 310.101 74.096V61.244C310.101 60.5413 310.282 60.0087 310.645 59.646C311.007 59.2833 311.517 59.102 312.175 59.102C312.832 59.102 313.342 59.2833 313.705 59.646C314.067 60.0087 314.249 60.5413 314.249 61.244V63.386H313.909C314.226 62.026 314.849 60.9947 315.779 60.292C316.708 59.5893 317.943 59.17 319.485 59.034C319.961 58.9887 320.335 59.1133 320.607 59.408C320.901 59.68 321.071 60.1107 321.117 60.7C321.162 61.2667 321.026 61.7313 320.709 62.094C320.414 62.434 319.961 62.638 319.349 62.706L318.601 62.774C317.218 62.91 316.175 63.3407 315.473 64.066C314.77 64.7687 314.419 65.766 314.419 67.058V74.096C314.419 74.7987 314.237 75.3427 313.875 75.728C313.512 76.0907 312.979 76.272 312.277 76.272ZM330.731 76.34C329.009 76.34 327.513 75.9887 326.243 75.286C324.974 74.5833 323.988 73.586 323.285 72.294C322.583 70.9793 322.231 69.438 322.231 67.67C322.231 66.3327 322.424 65.1427 322.809 64.1C323.217 63.0347 323.795 62.128 324.543 61.38C325.291 60.6093 326.187 60.0313 327.229 59.646C328.272 59.238 329.439 59.034 330.731 59.034C332.454 59.034 333.95 59.3853 335.219 60.088C336.489 60.7907 337.475 61.788 338.177 63.08C338.88 64.372 339.231 65.902 339.231 67.67C339.231 69.0073 339.027 70.2087 338.619 71.274C338.234 72.3393 337.667 73.2573 336.919 74.028C336.171 74.776 335.276 75.354 334.233 75.762C333.191 76.1473 332.023 76.34 330.731 76.34ZM330.731 73.11C331.57 73.11 332.307 72.906 332.941 72.498C333.576 72.09 334.063 71.4893 334.403 70.696C334.766 69.88 334.947 68.8713 334.947 67.67C334.947 65.8567 334.562 64.508 333.791 63.624C333.021 62.7173 332.001 62.264 330.731 62.264C329.893 62.264 329.156 62.468 328.521 62.876C327.887 63.2613 327.388 63.862 327.025 64.678C326.685 65.4713 326.515 66.4687 326.515 67.67C326.515 69.4607 326.901 70.8207 327.671 71.75C328.442 72.6567 329.462 73.11 330.731 73.11ZM350.189 76.34C348.716 76.34 347.481 76.0907 346.483 75.592C345.509 75.0933 344.783 74.368 344.307 73.416C343.831 72.4413 343.593 71.24 343.593 69.812V62.57H341.825C341.281 62.57 340.862 62.434 340.567 62.162C340.273 61.8673 340.125 61.4707 340.125 60.972C340.125 60.4507 340.273 60.054 340.567 59.782C340.862 59.51 341.281 59.374 341.825 59.374H343.593V56.28C343.593 55.5773 343.775 55.0447 344.137 54.682C344.523 54.3193 345.055 54.138 345.735 54.138C346.415 54.138 346.937 54.3193 347.299 54.682C347.662 55.0447 347.843 55.5773 347.843 56.28V59.374H351.447C351.991 59.374 352.411 59.51 352.705 59.782C353 60.054 353.147 60.4507 353.147 60.972C353.147 61.4707 353 61.8673 352.705 62.162C352.411 62.434 351.991 62.57 351.447 62.57H347.843V69.574C347.843 70.662 348.081 71.478 348.557 72.022C349.033 72.566 349.804 72.838 350.869 72.838C351.255 72.838 351.595 72.804 351.889 72.736C352.184 72.668 352.445 72.6227 352.671 72.6C352.943 72.5773 353.17 72.668 353.351 72.872C353.533 73.0533 353.623 73.4387 353.623 74.028C353.623 74.4813 353.544 74.8893 353.385 75.252C353.249 75.592 352.989 75.83 352.603 75.966C352.309 76.0567 351.923 76.136 351.447 76.204C350.971 76.2947 350.552 76.34 350.189 76.34ZM363.038 76.34C361.315 76.34 359.819 75.9887 358.55 75.286C357.281 74.5833 356.295 73.586 355.592 72.294C354.889 70.9793 354.538 69.438 354.538 67.67C354.538 66.3327 354.731 65.1427 355.116 64.1C355.524 63.0347 356.102 62.128 356.85 61.38C357.598 60.6093 358.493 60.0313 359.536 59.646C360.579 59.238 361.746 59.034 363.038 59.034C364.761 59.034 366.257 59.3853 367.526 60.088C368.795 60.7907 369.781 61.788 370.484 63.08C371.187 64.372 371.538 65.902 371.538 67.67C371.538 69.0073 371.334 70.2087 370.926 71.274C370.541 72.3393 369.974 73.2573 369.226 74.028C368.478 74.776 367.583 75.354 366.54 75.762C365.497 76.1473 364.33 76.34 363.038 76.34ZM363.038 73.11C363.877 73.11 364.613 72.906 365.248 72.498C365.883 72.09 366.37 71.4893 366.71 70.696C367.073 69.88 367.254 68.8713 367.254 67.67C367.254 65.8567 366.869 64.508 366.098 63.624C365.327 62.7173 364.307 62.264 363.038 62.264C362.199 62.264 361.463 62.468 360.828 62.876C360.193 63.2613 359.695 63.862 359.332 64.678C358.992 65.4713 358.822 66.4687 358.822 67.67C358.822 69.4607 359.207 70.8207 359.978 71.75C360.749 72.6567 361.769 73.11 363.038 73.11ZM382.496 76.34C381.023 76.34 379.787 76.0907 378.79 75.592C377.815 75.0933 377.09 74.368 376.614 73.416C376.138 72.4413 375.9 71.24 375.9 69.812V62.57H374.132C373.588 62.57 373.169 62.434 372.874 62.162C372.579 61.8673 372.432 61.4707 372.432 60.972C372.432 60.4507 372.579 60.054 372.874 59.782C373.169 59.51 373.588 59.374 374.132 59.374H375.9V56.28C375.9 55.5773 376.081 55.0447 376.444 54.682C376.829 54.3193 377.362 54.138 378.042 54.138C378.722 54.138 379.243 54.3193 379.606 54.682C379.969 55.0447 380.15 55.5773 380.15 56.28V59.374H383.754C384.298 59.374 384.717 59.51 385.012 59.782C385.307 60.054 385.454 60.4507 385.454 60.972C385.454 61.4707 385.307 61.8673 385.012 62.162C384.717 62.434 384.298 62.57 383.754 62.57H380.15V69.574C380.15 70.662 380.388 71.478 380.864 72.022C381.34 72.566 382.111 72.838 383.176 72.838C383.561 72.838 383.901 72.804 384.196 72.736C384.491 72.668 384.751 72.6227 384.978 72.6C385.25 72.5773 385.477 72.668 385.658 72.872C385.839 73.0533 385.93 73.4387 385.93 74.028C385.93 74.4813 385.851 74.8893 385.692 75.252C385.556 75.592 385.295 75.83 384.91 75.966C384.615 76.0567 384.23 76.136 383.754 76.204C383.278 76.2947 382.859 76.34 382.496 76.34ZM392.41 82.392C391.912 82.392 391.504 82.256 391.186 81.984C390.869 81.7347 390.676 81.3947 390.608 80.964C390.563 80.5333 390.642 80.08 390.846 79.604L393.158 74.47V76.238L386.97 61.924C386.766 61.4253 386.698 60.9607 386.766 60.53C386.834 60.0993 387.038 59.7593 387.378 59.51C387.741 59.238 388.228 59.102 388.84 59.102C389.362 59.102 389.781 59.2267 390.098 59.476C390.416 59.7027 390.699 60.1447 390.948 60.802L395.538 72.26H394.518L399.21 60.768C399.46 60.1333 399.754 59.7027 400.094 59.476C400.434 59.2267 400.888 59.102 401.454 59.102C401.953 59.102 402.35 59.238 402.644 59.51C402.939 59.7593 403.12 60.0993 403.188 60.53C403.256 60.938 403.177 61.3913 402.95 61.89L394.688 80.76C394.394 81.3947 394.076 81.8253 393.736 82.052C393.396 82.2787 392.954 82.392 392.41 82.392ZM408.199 82.392C407.519 82.392 406.998 82.2107 406.635 81.848C406.272 81.4853 406.091 80.9527 406.091 80.25V61.244C406.091 60.5413 406.272 60.0087 406.635 59.646C406.998 59.2833 407.508 59.102 408.165 59.102C408.845 59.102 409.366 59.2833 409.729 59.646C410.092 60.0087 410.273 60.5413 410.273 61.244V63.896L409.899 62.876C410.239 61.72 410.93 60.7907 411.973 60.088C413.038 59.3853 414.274 59.034 415.679 59.034C417.13 59.034 418.399 59.3853 419.487 60.088C420.598 60.7907 421.459 61.788 422.071 63.08C422.683 64.3493 422.989 65.8793 422.989 67.67C422.989 69.438 422.683 70.9793 422.071 72.294C421.459 73.586 420.609 74.5833 419.521 75.286C418.433 75.9887 417.152 76.34 415.679 76.34C414.296 76.34 413.084 76 412.041 75.32C410.998 74.6173 410.296 73.7107 409.933 72.6H410.341V80.25C410.341 80.9527 410.148 81.4853 409.763 81.848C409.4 82.2107 408.879 82.392 408.199 82.392ZM414.489 73.11C415.328 73.11 416.064 72.906 416.699 72.498C417.334 72.09 417.821 71.4893 418.161 70.696C418.524 69.88 418.705 68.8713 418.705 67.67C418.705 65.8567 418.32 64.508 417.549 63.624C416.778 62.7173 415.758 62.264 414.489 62.264C413.65 62.264 412.914 62.468 412.279 62.876C411.644 63.2613 411.146 63.862 410.783 64.678C410.443 65.4713 410.273 66.4687 410.273 67.67C410.273 69.4607 410.658 70.8207 411.429 71.75C412.2 72.6567 413.22 73.11 414.489 73.11ZM434.672 76.34C432.79 76.34 431.17 75.9887 429.81 75.286C428.45 74.5833 427.396 73.586 426.648 72.294C425.922 71.002 425.56 69.472 425.56 67.704C425.56 65.9813 425.911 64.474 426.614 63.182C427.339 61.89 428.325 60.8813 429.572 60.156C430.841 59.408 432.28 59.034 433.89 59.034C435.068 59.034 436.122 59.2267 437.052 59.612C438.004 59.9973 438.808 60.5527 439.466 61.278C440.146 62.0033 440.656 62.8873 440.996 63.93C441.358 64.95 441.54 66.106 441.54 67.398C441.54 67.806 441.392 68.1233 441.098 68.35C440.826 68.554 440.429 68.656 439.908 68.656H428.994V66.208H438.548L438.004 66.718C438.004 65.6753 437.845 64.8027 437.528 64.1C437.233 63.3973 436.791 62.8647 436.202 62.502C435.635 62.1167 434.921 61.924 434.06 61.924C433.108 61.924 432.292 62.1507 431.612 62.604C430.954 63.0347 430.444 63.658 430.082 64.474C429.742 65.2673 429.572 66.2193 429.572 67.33V67.568C429.572 69.4267 430.002 70.8207 430.864 71.75C431.748 72.6567 433.04 73.11 434.74 73.11C435.329 73.11 435.986 73.042 436.712 72.906C437.46 72.7473 438.162 72.4867 438.82 72.124C439.296 71.852 439.715 71.7387 440.078 71.784C440.44 71.8067 440.724 71.9313 440.928 72.158C441.154 72.3847 441.29 72.668 441.336 73.008C441.381 73.3253 441.313 73.654 441.132 73.994C440.973 74.334 440.69 74.6287 440.282 74.878C439.488 75.3767 438.57 75.7507 437.528 76C436.508 76.2267 435.556 76.34 434.672 76.34Z" fill="black"/>
</svg>
