<svg width="35" height="35" viewBox="0 0 35 35" fill="none" xmlns="http://www.w3.org/2000/svg">
<path d="M7.91574 11.655H0.695312V34.9823H7.91574V11.655Z" fill="#111111"/>
<path d="M4.27126 8.60586C6.62722 8.60586 8.54248 6.67464 8.54248 4.30294C8.54248 1.93125 6.62722 0 4.27126 0C1.91531 0 0 1.93125 0 4.30294C0 6.67464 1.91531 8.60586 4.27126 8.60586Z" fill="#111111"/>
<path d="M19.4753 22.7519C19.4753 19.4654 20.9837 17.5172 23.8821 17.5172C26.5431 17.5172 27.8143 19.3976 27.8143 22.7519C27.8143 26.1061 27.8143 35 27.8143 35H35.0008C35.0008 35 35.0008 26.4788 35.0008 20.2277C35.0008 13.9766 31.4585 10.9612 26.5092 10.9612C21.56 10.9612 19.4753 14.8237 19.4753 14.8237V11.6727H12.543V35H19.4753C19.4753 35 19.4753 26.3433 19.4753 22.7519Z" fill="#111111"/>
</svg>
