<svg width="1480" height="1000" viewBox="0 0 1480 1000" fill="none" xmlns="http://www.w3.org/2000/svg">
<rect width="1480" height="1000" rx="20" fill="white"/>
<rect x="0.999023" y="0.9375" width="1478" height="998.124" rx="20" fill="black"/>
<rect x="20" y="20" width="1440" height="960" fill="#F2F2F2"/>
<path d="M701.77 134.34C699.277 134.34 697.135 133.841 695.344 132.844C693.576 131.824 692.216 130.396 691.264 128.56C690.312 126.701 689.836 124.514 689.836 121.998C689.836 120.117 690.108 118.428 690.652 116.932C691.196 115.413 691.978 114.121 692.998 113.056C694.018 111.968 695.265 111.141 696.738 110.574C698.234 109.985 699.911 109.69 701.77 109.69C703.017 109.69 704.241 109.849 705.442 110.166C706.643 110.483 707.697 110.937 708.604 111.526C709.08 111.821 709.397 112.183 709.556 112.614C709.715 113.022 709.749 113.43 709.658 113.838C709.567 114.223 709.375 114.552 709.08 114.824C708.808 115.096 708.457 115.255 708.026 115.3C707.618 115.323 707.165 115.175 706.666 114.858C705.963 114.405 705.204 114.076 704.388 113.872C703.572 113.668 702.745 113.566 701.906 113.566C700.297 113.566 698.937 113.895 697.826 114.552C696.715 115.209 695.877 116.161 695.31 117.408C694.743 118.655 694.46 120.185 694.46 121.998C694.46 123.789 694.743 125.319 695.31 126.588C695.877 127.857 696.715 128.821 697.826 129.478C698.937 130.135 700.297 130.464 701.906 130.464C702.767 130.464 703.617 130.362 704.456 130.158C705.295 129.931 706.088 129.591 706.836 129.138C707.335 128.843 707.777 128.719 708.162 128.764C708.57 128.787 708.91 128.923 709.182 129.172C709.454 129.421 709.635 129.739 709.726 130.124C709.817 130.487 709.794 130.872 709.658 131.28C709.522 131.665 709.25 132.005 708.842 132.3C707.935 132.957 706.847 133.467 705.578 133.83C704.331 134.17 703.062 134.34 701.77 134.34ZM718.196 134.34C716.994 134.34 715.918 134.113 714.966 133.66C714.036 133.184 713.3 132.549 712.756 131.756C712.234 130.963 711.974 130.067 711.974 129.07C711.974 127.846 712.291 126.883 712.926 126.18C713.56 125.455 714.592 124.933 716.02 124.616C717.448 124.299 719.363 124.14 721.766 124.14H723.466V126.588H721.8C720.394 126.588 719.272 126.656 718.434 126.792C717.595 126.928 716.994 127.166 716.632 127.506C716.292 127.823 716.122 128.277 716.122 128.866C716.122 129.614 716.382 130.226 716.904 130.702C717.425 131.178 718.15 131.416 719.08 131.416C719.828 131.416 720.485 131.246 721.052 130.906C721.641 130.543 722.106 130.056 722.446 129.444C722.786 128.832 722.956 128.129 722.956 127.336V123.426C722.956 122.293 722.706 121.477 722.208 120.978C721.709 120.479 720.87 120.23 719.692 120.23C719.034 120.23 718.32 120.309 717.55 120.468C716.802 120.627 716.008 120.899 715.17 121.284C714.739 121.488 714.354 121.545 714.014 121.454C713.696 121.363 713.447 121.182 713.266 120.91C713.084 120.615 712.994 120.298 712.994 119.958C712.994 119.618 713.084 119.289 713.266 118.972C713.447 118.632 713.753 118.383 714.184 118.224C715.226 117.793 716.224 117.487 717.176 117.306C718.15 117.125 719.034 117.034 719.828 117.034C721.46 117.034 722.797 117.283 723.84 117.782C724.905 118.281 725.698 119.04 726.22 120.06C726.741 121.057 727.002 122.349 727.002 123.936V132.096C727.002 132.799 726.832 133.343 726.492 133.728C726.152 134.091 725.664 134.272 725.03 134.272C724.395 134.272 723.896 134.091 723.534 133.728C723.194 133.343 723.024 132.799 723.024 132.096V130.464H723.296C723.137 131.257 722.82 131.949 722.344 132.538C721.89 133.105 721.312 133.547 720.61 133.864C719.907 134.181 719.102 134.34 718.196 134.34ZM733.491 134.272C732.789 134.272 732.245 134.091 731.859 133.728C731.497 133.343 731.315 132.799 731.315 132.096V119.244C731.315 118.541 731.497 118.009 731.859 117.646C732.222 117.283 732.732 117.102 733.389 117.102C734.047 117.102 734.557 117.283 734.919 117.646C735.282 118.009 735.463 118.541 735.463 119.244V121.386H735.123C735.441 120.026 736.064 118.995 736.993 118.292C737.923 117.589 739.158 117.17 740.699 117.034C741.175 116.989 741.549 117.113 741.821 117.408C742.116 117.68 742.286 118.111 742.331 118.7C742.377 119.267 742.241 119.731 741.923 120.094C741.629 120.434 741.175 120.638 740.563 120.706L739.815 120.774C738.433 120.91 737.39 121.341 736.687 122.066C735.985 122.769 735.633 123.766 735.633 125.058V132.096C735.633 132.799 735.452 133.343 735.089 133.728C734.727 134.091 734.194 134.272 733.491 134.272ZM752.558 134.34C750.677 134.34 749.056 133.989 747.696 133.286C746.336 132.583 745.282 131.586 744.534 130.294C743.809 129.002 743.446 127.472 743.446 125.704C743.446 123.981 743.798 122.474 744.5 121.182C745.226 119.89 746.212 118.881 747.458 118.156C748.728 117.408 750.167 117.034 751.776 117.034C752.955 117.034 754.009 117.227 754.938 117.612C755.89 117.997 756.695 118.553 757.352 119.278C758.032 120.003 758.542 120.887 758.882 121.93C759.245 122.95 759.426 124.106 759.426 125.398C759.426 125.806 759.279 126.123 758.984 126.35C758.712 126.554 758.316 126.656 757.794 126.656H746.88V124.208H756.434L755.89 124.718C755.89 123.675 755.732 122.803 755.414 122.1C755.12 121.397 754.678 120.865 754.088 120.502C753.522 120.117 752.808 119.924 751.946 119.924C750.994 119.924 750.178 120.151 749.498 120.604C748.841 121.035 748.331 121.658 747.968 122.474C747.628 123.267 747.458 124.219 747.458 125.33V125.568C747.458 127.427 747.889 128.821 748.75 129.75C749.634 130.657 750.926 131.11 752.626 131.11C753.216 131.11 753.873 131.042 754.598 130.906C755.346 130.747 756.049 130.487 756.706 130.124C757.182 129.852 757.602 129.739 757.964 129.784C758.327 129.807 758.61 129.931 758.814 130.158C759.041 130.385 759.177 130.668 759.222 131.008C759.268 131.325 759.2 131.654 759.018 131.994C758.86 132.334 758.576 132.629 758.168 132.878C757.375 133.377 756.457 133.751 755.414 134C754.394 134.227 753.442 134.34 752.558 134.34ZM770.986 134.34C769.105 134.34 767.484 133.989 766.124 133.286C764.764 132.583 763.71 131.586 762.962 130.294C762.237 129.002 761.874 127.472 761.874 125.704C761.874 123.981 762.225 122.474 762.928 121.182C763.653 119.89 764.639 118.881 765.886 118.156C767.155 117.408 768.595 117.034 770.204 117.034C771.383 117.034 772.437 117.227 773.366 117.612C774.318 117.997 775.123 118.553 775.78 119.278C776.46 120.003 776.97 120.887 777.31 121.93C777.673 122.95 777.854 124.106 777.854 125.398C777.854 125.806 777.707 126.123 777.412 126.35C777.14 126.554 776.743 126.656 776.222 126.656H765.308V124.208H774.862L774.318 124.718C774.318 123.675 774.159 122.803 773.842 122.1C773.547 121.397 773.105 120.865 772.516 120.502C771.949 120.117 771.235 119.924 770.374 119.924C769.422 119.924 768.606 120.151 767.926 120.604C767.269 121.035 766.759 121.658 766.396 122.474C766.056 123.267 765.886 124.219 765.886 125.33V125.568C765.886 127.427 766.317 128.821 767.178 129.75C768.062 130.657 769.354 131.11 771.054 131.11C771.643 131.11 772.301 131.042 773.026 130.906C773.774 130.747 774.477 130.487 775.134 130.124C775.61 129.852 776.029 129.739 776.392 129.784C776.755 129.807 777.038 129.931 777.242 130.158C777.469 130.385 777.605 130.668 777.65 131.008C777.695 131.325 777.627 131.654 777.446 131.994C777.287 132.334 777.004 132.629 776.596 132.878C775.803 133.377 774.885 133.751 773.842 134C772.822 134.227 771.87 134.34 770.986 134.34ZM783.396 134.272C782.693 134.272 782.149 134.091 781.764 133.728C781.401 133.343 781.22 132.799 781.22 132.096V119.244C781.22 118.541 781.401 118.009 781.764 117.646C782.126 117.283 782.636 117.102 783.294 117.102C783.951 117.102 784.461 117.283 784.824 117.646C785.186 118.009 785.368 118.541 785.368 119.244V121.386H785.028C785.345 120.026 785.968 118.995 786.898 118.292C787.827 117.589 789.062 117.17 790.604 117.034C791.08 116.989 791.454 117.113 791.726 117.408C792.02 117.68 792.19 118.111 792.236 118.7C792.281 119.267 792.145 119.731 791.828 120.094C791.533 120.434 791.08 120.638 790.468 120.706L789.72 120.774C788.337 120.91 787.294 121.341 786.592 122.066C785.889 122.769 785.538 123.766 785.538 125.058V132.096C785.538 132.799 785.356 133.343 784.994 133.728C784.631 134.091 784.098 134.272 783.396 134.272Z" fill="black"/>
<path d="M240 185.333C242.946 185.333 245.333 182.946 245.333 180C245.333 177.054 242.946 174.667 240 174.667C237.054 174.667 234.667 177.054 234.667 180C234.667 182.946 237.054 185.333 240 185.333ZM1240 185.333C1242.95 185.333 1245.33 182.946 1245.33 180C1245.33 177.054 1242.95 174.667 1240 174.667C1237.05 174.667 1234.67 177.054 1234.67 180C1234.67 182.946 1237.05 185.333 1240 185.333ZM240 181L1240 181V179L240 179V181Z" fill="#323333"/>
<rect x="245.75" y="220.75" width="926.5" height="38.5" rx="9.25" fill="white" stroke="black" stroke-width="1.5"/>
<path d="M266.76 245.18C266.232 245.18 265.704 245.138 265.176 245.054C264.648 244.982 264.15 244.868 263.682 244.712C263.214 244.544 262.794 244.34 262.422 244.1C262.206 243.956 262.056 243.782 261.972 243.578C261.888 243.374 261.858 243.176 261.882 242.984C261.918 242.78 261.996 242.606 262.116 242.462C262.248 242.306 262.41 242.21 262.602 242.174C262.794 242.138 263.004 242.192 263.232 242.336C263.76 242.648 264.318 242.876 264.906 243.02C265.494 243.164 266.112 243.236 266.76 243.236C267.708 243.236 268.398 243.08 268.83 242.768C269.262 242.444 269.478 242.03 269.478 241.526C269.478 241.106 269.322 240.776 269.01 240.536C268.71 240.296 268.188 240.098 267.444 239.942L265.464 239.528C264.324 239.288 263.472 238.886 262.908 238.322C262.356 237.746 262.08 236.99 262.08 236.054C262.08 235.466 262.2 234.932 262.44 234.452C262.68 233.972 263.016 233.558 263.448 233.21C263.892 232.862 264.414 232.598 265.014 232.418C265.626 232.226 266.298 232.13 267.03 232.13C267.75 232.13 268.434 232.22 269.082 232.4C269.73 232.58 270.312 232.844 270.828 233.192C271.02 233.324 271.146 233.486 271.206 233.678C271.278 233.87 271.296 234.062 271.26 234.254C271.224 234.434 271.14 234.59 271.008 234.722C270.876 234.854 270.708 234.932 270.504 234.956C270.312 234.98 270.09 234.92 269.838 234.776C269.394 234.524 268.944 234.344 268.488 234.236C268.032 234.128 267.54 234.074 267.012 234.074C266.46 234.074 265.986 234.152 265.59 234.308C265.194 234.464 264.888 234.686 264.672 234.974C264.468 235.25 264.366 235.58 264.366 235.964C264.366 236.396 264.51 236.744 264.798 237.008C265.086 237.26 265.578 237.458 266.274 237.602L268.236 238.016C269.424 238.268 270.306 238.664 270.882 239.204C271.47 239.744 271.764 240.464 271.764 241.364C271.764 241.94 271.644 242.462 271.404 242.93C271.176 243.398 270.84 243.8 270.396 244.136C269.964 244.472 269.442 244.73 268.83 244.91C268.218 245.09 267.528 245.18 266.76 245.18Z" fill="black"/>
<path d="M277.863 245.18C276.867 245.18 276.009 244.994 275.289 244.622C274.569 244.25 274.011 243.722 273.615 243.038C273.231 242.354 273.039 241.544 273.039 240.608C273.039 239.696 273.225 238.898 273.597 238.214C273.981 237.53 274.503 236.996 275.163 236.612C275.835 236.216 276.597 236.018 277.449 236.018C278.073 236.018 278.631 236.12 279.123 236.324C279.627 236.528 280.053 236.822 280.401 237.206C280.761 237.59 281.031 238.058 281.211 238.61C281.403 239.15 281.499 239.762 281.499 240.446C281.499 240.662 281.421 240.83 281.265 240.95C281.121 241.058 280.911 241.112 280.635 241.112H274.857V239.816H279.915L279.627 240.086C279.627 239.534 279.543 239.072 279.375 238.7C279.219 238.328 278.985 238.046 278.673 237.854C278.373 237.65 277.995 237.548 277.539 237.548C277.035 237.548 276.603 237.668 276.243 237.908C275.895 238.136 275.625 238.466 275.433 238.898C275.253 239.318 275.163 239.822 275.163 240.41V240.536C275.163 241.52 275.391 242.258 275.847 242.75C276.315 243.23 276.999 243.47 277.899 243.47C278.211 243.47 278.559 243.434 278.943 243.362C279.339 243.278 279.711 243.14 280.059 242.948C280.311 242.804 280.533 242.744 280.725 242.768C280.917 242.78 281.067 242.846 281.175 242.966C281.295 243.086 281.367 243.236 281.391 243.416C281.415 243.584 281.379 243.758 281.283 243.938C281.199 244.118 281.049 244.274 280.833 244.406C280.413 244.67 279.927 244.868 279.375 245C278.835 245.12 278.331 245.18 277.863 245.18ZM286.179 245.18C285.543 245.18 284.973 245.06 284.469 244.82C283.977 244.568 283.587 244.232 283.299 243.812C283.023 243.392 282.885 242.918 282.885 242.39C282.885 241.742 283.053 241.232 283.389 240.86C283.725 240.476 284.271 240.2 285.027 240.032C285.783 239.864 286.797 239.78 288.069 239.78H288.969V241.076H288.087C287.343 241.076 286.749 241.112 286.305 241.184C285.861 241.256 285.543 241.382 285.351 241.562C285.171 241.73 285.081 241.97 285.081 242.282C285.081 242.678 285.219 243.002 285.495 243.254C285.771 243.506 286.155 243.632 286.647 243.632C287.043 243.632 287.391 243.542 287.691 243.362C288.003 243.17 288.249 242.912 288.429 242.588C288.609 242.264 288.699 241.892 288.699 241.472V239.402C288.699 238.802 288.567 238.37 288.303 238.106C288.039 237.842 287.595 237.71 286.971 237.71C286.623 237.71 286.245 237.752 285.837 237.836C285.441 237.92 285.021 238.064 284.577 238.268C284.349 238.376 284.145 238.406 283.965 238.358C283.797 238.31 283.665 238.214 283.569 238.07C283.473 237.914 283.425 237.746 283.425 237.566C283.425 237.386 283.473 237.212 283.569 237.044C283.665 236.864 283.827 236.732 284.055 236.648C284.607 236.42 285.135 236.258 285.639 236.162C286.155 236.066 286.623 236.018 287.043 236.018C287.907 236.018 288.615 236.15 289.167 236.414C289.731 236.678 290.151 237.08 290.427 237.62C290.703 238.148 290.841 238.832 290.841 239.672V243.992C290.841 244.364 290.751 244.652 290.571 244.856C290.391 245.048 290.133 245.144 289.797 245.144C289.461 245.144 289.197 245.048 289.005 244.856C288.825 244.652 288.735 244.364 288.735 243.992V243.128H288.879C288.795 243.548 288.627 243.914 288.375 244.226C288.135 244.526 287.829 244.76 287.457 244.928C287.085 245.096 286.659 245.18 286.179 245.18ZM294.277 245.144C293.905 245.144 293.617 245.048 293.413 244.856C293.221 244.652 293.125 244.364 293.125 243.992V237.188C293.125 236.816 293.221 236.534 293.413 236.342C293.605 236.15 293.875 236.054 294.223 236.054C294.571 236.054 294.841 236.15 295.033 236.342C295.225 236.534 295.321 236.816 295.321 237.188V238.322H295.141C295.309 237.602 295.639 237.056 296.131 236.684C296.623 236.312 297.277 236.09 298.093 236.018C298.345 235.994 298.543 236.06 298.687 236.216C298.843 236.36 298.933 236.588 298.957 236.9C298.981 237.2 298.909 237.446 298.741 237.638C298.585 237.818 298.345 237.926 298.021 237.962L297.625 237.998C296.893 238.07 296.341 238.298 295.969 238.682C295.597 239.054 295.411 239.582 295.411 240.266V243.992C295.411 244.364 295.315 244.652 295.123 244.856C294.931 245.048 294.649 245.144 294.277 245.144ZM304.101 245.18C303.177 245.18 302.373 244.994 301.689 244.622C301.005 244.238 300.477 243.698 300.105 243.002C299.733 242.306 299.547 241.49 299.547 240.554C299.547 239.846 299.649 239.216 299.853 238.664C300.069 238.1 300.375 237.626 300.771 237.242C301.167 236.846 301.647 236.546 302.211 236.342C302.775 236.126 303.405 236.018 304.101 236.018C304.497 236.018 304.923 236.072 305.379 236.18C305.847 236.288 306.285 236.468 306.693 236.72C306.885 236.84 307.011 236.984 307.071 237.152C307.131 237.32 307.143 237.494 307.107 237.674C307.071 237.842 306.993 237.992 306.873 238.124C306.765 238.244 306.627 238.322 306.459 238.358C306.291 238.382 306.105 238.34 305.901 238.232C305.637 238.076 305.367 237.962 305.091 237.89C304.815 237.806 304.551 237.764 304.299 237.764C303.903 237.764 303.555 237.83 303.255 237.962C302.955 238.082 302.697 238.262 302.481 238.502C302.277 238.73 302.121 239.018 302.013 239.366C301.905 239.714 301.851 240.116 301.851 240.572C301.851 241.46 302.061 242.162 302.481 242.678C302.913 243.182 303.519 243.434 304.299 243.434C304.551 243.434 304.809 243.398 305.073 243.326C305.349 243.254 305.625 243.14 305.901 242.984C306.105 242.876 306.285 242.84 306.441 242.876C306.609 242.912 306.747 242.996 306.855 243.128C306.963 243.248 307.029 243.398 307.053 243.578C307.077 243.746 307.053 243.914 306.981 244.082C306.921 244.25 306.801 244.388 306.621 244.496C306.225 244.736 305.805 244.91 305.361 245.018C304.917 245.126 304.497 245.18 304.101 245.18ZM309.64 245.144C309.28 245.144 309.004 245.048 308.812 244.856C308.62 244.652 308.524 244.364 308.524 243.992V233.3C308.524 232.928 308.62 232.646 308.812 232.454C309.004 232.262 309.28 232.166 309.64 232.166C310 232.166 310.276 232.262 310.468 232.454C310.672 232.646 310.774 232.928 310.774 233.3V237.962H310.522C310.786 237.326 311.194 236.846 311.746 236.522C312.31 236.186 312.946 236.018 313.654 236.018C314.362 236.018 314.944 236.15 315.4 236.414C315.856 236.678 316.198 237.08 316.426 237.62C316.654 238.148 316.768 238.82 316.768 239.636V243.992C316.768 244.364 316.672 244.652 316.48 244.856C316.288 245.048 316.012 245.144 315.652 245.144C315.292 245.144 315.01 245.048 314.806 244.856C314.614 244.652 314.518 244.364 314.518 243.992V239.744C314.518 239.06 314.386 238.562 314.122 238.25C313.87 237.938 313.474 237.782 312.934 237.782C312.274 237.782 311.746 237.992 311.35 238.412C310.966 238.82 310.774 239.366 310.774 240.05V243.992C310.774 244.76 310.396 245.144 309.64 245.144Z" fill="#B0B0B0"/>
<circle cx="239" cy="180" r="10" fill="#323333"/>
<circle cx="218" cy="180" r="5" fill="#323333"/>
<circle cx="204.5" cy="179.5" r="2.5" fill="#323333"/>
<circle cx="1241" cy="180" r="10" transform="rotate(-180 1241 180)" fill="#323333"/>
<circle cx="1262" cy="180" r="5" transform="rotate(-180 1262 180)" fill="#323333"/>
<circle cx="1275.5" cy="180.5" r="2.5" transform="rotate(-180 1275.5 180.5)" fill="#323333"/>
<rect x="1390" y="60" width="40" height="40" rx="10" fill="#4D4E50"/>
<path d="M1410.14 80.8916C1410.05 80.8795 1409.95 80.8795 1409.86 80.8916C1408.85 80.8572 1407.9 80.427 1407.2 79.6918C1406.5 78.9567 1406.11 77.9741 1406.11 76.9518C1406.11 74.7711 1407.84 73 1410 73C1411.02 72.9982 1412 73.4034 1412.73 74.1282C1413.46 74.853 1413.88 75.8394 1413.89 76.8747C1413.91 77.91 1413.53 78.9113 1412.83 79.6627C1412.13 80.4141 1411.16 80.8554 1410.14 80.8916V80.8916ZM1418 88.8434C1415.82 90.8784 1412.96 92.0053 1410 92C1406.91 92 1404.11 90.8072 1402 88.8434C1402.12 87.7108 1402.83 86.6024 1404.1 85.7349C1407.35 83.5422 1412.67 83.5422 1415.9 85.7349C1417.17 86.6024 1417.88 87.7108 1418 88.8434V88.8434Z" stroke="white" stroke-width="1.5" stroke-linecap="round" stroke-linejoin="round"/>
<path d="M1410 92C1416.63 92 1422 86.6276 1422 80C1422 73.3724 1416.63 68 1410 68C1403.37 68 1398 73.3724 1398 80C1398 86.6276 1403.37 92 1410 92Z" stroke="white" stroke-width="1.5" stroke-linecap="round" stroke-linejoin="round"/>
<rect x="1193" y="220" width="40" height="40" rx="10" fill="#4D4E50"/>
<path d="M1221 248L1219.4 246.4M1212.6 247.2C1213.6 247.2 1214.59 247.003 1215.51 246.621C1216.43 246.24 1217.27 245.68 1217.97 244.974C1218.68 244.268 1219.24 243.43 1219.62 242.508C1220 241.586 1220.2 240.598 1220.2 239.6C1220.2 238.602 1220 237.614 1219.62 236.692C1219.24 235.77 1218.68 234.932 1217.97 234.226C1217.27 233.52 1216.43 232.96 1215.51 232.579C1214.59 232.197 1213.6 232 1212.6 232C1210.58 232 1208.65 232.801 1207.23 234.226C1205.8 235.651 1205 237.584 1205 239.6C1205 241.616 1205.8 243.549 1207.23 244.974C1208.65 246.399 1210.58 247.2 1212.6 247.2Z" stroke="white" stroke-width="1.5" stroke-linecap="round" stroke-linejoin="round"/>
<path d="M75.1519 71.3413V71.2464C77.3188 70.1089 79.0011 68.4384 80.2009 66.2348C81.4007 64.0312 81.9995 61.7498 81.9995 59.3908C81.9995 56.313 81.0216 53.9799 79.0657 52.3871C77.1099 50.7943 74.0576 50 69.9155 50H64.8234L63.5913 60.2433H66.9494C69.1379 60.2433 70.23 61.1822 70.23 63.0578C70.23 64.5125 69.7625 65.7448 68.8255 66.7571C67.8885 67.7693 66.6952 68.2744 65.2434 68.2744H62.6241L61.573 77.0004H65.8767C66.7189 77.0004 67.4276 77.1321 68.007 77.3954C68.5864 77.6587 69.0108 78.0235 69.2843 78.4853C69.5579 78.9472 69.6936 79.4976 69.6936 80.13C69.6936 81.7098 69.1249 83.0653 67.9898 84.1919C66.8546 85.3185 65.4437 85.884 63.7615 85.884H60.5024L59.2833 96.0022H66.6629C68.8923 96.0022 70.9322 95.6115 72.7846 94.8324C74.6349 94.0532 76.1987 92.9784 77.4696 91.6078C78.7405 90.2373 79.7248 88.5884 80.4206 86.661C81.1163 84.7336 81.461 82.6401 81.461 80.3846C81.4631 75.809 79.3587 72.796 75.1519 71.3413Z" fill="#323333"/>
<path d="M53.5858 50C53.3252 50 53.1033 50.1964 53.0732 50.4554L50.665 70.1823L50.0037 75.5781C49.9671 75.8867 50.2062 76.1587 50.5164 76.1587H50.5314C50.7921 76.1587 51.0139 75.9623 51.0441 75.7033L54.1006 50.5806C54.1373 50.2719 53.896 50 53.5858 50Z" fill="#323333"/>
<path d="M55.7011 50H55.6861C55.4254 50 55.2036 50.1964 55.1734 50.4554L51.4814 80.6329C51.4448 80.9415 51.6839 81.2134 51.9941 81.2134H52.0092C52.2698 81.2134 52.4917 81.017 52.5218 80.758L56.2138 50.5806C56.2526 50.2719 56.0113 50 55.7011 50Z" fill="#323333"/>
<path d="M61.517 50.4554L56.0609 95.4194C56.0242 95.7281 56.2633 96 56.5735 96H56.6317C56.8945 96 57.1142 95.8036 57.1443 95.5446L62.5595 50.5806C62.5961 50.2719 62.357 50 62.0469 50H62.0318C61.769 50 61.5493 50.1964 61.517 50.4554Z" fill="#323333"/>
<path d="M59.9316 50H59.9165C59.6559 50 59.434 50.1964 59.4039 50.4554L54.6737 89.4474C54.6371 89.756 54.8762 90.028 55.1863 90.028H55.2014C55.462 90.028 55.6839 89.8316 55.7141 89.5726L60.4443 50.5806C60.4809 50.2719 60.2418 50 59.9316 50Z" fill="#323333"/>
<path d="M57.8164 50H57.8013C57.5385 50 57.3188 50.1964 57.2865 50.4554L53.0625 85.1221C53.0259 85.4308 53.265 85.7027 53.5751 85.7027H53.5902C53.8508 85.7027 54.0727 85.5063 54.1029 85.2473L58.329 50.5806C58.3678 50.2719 58.1266 50 57.8164 50Z" fill="#323333"/>
<rect x="160" y="379" width="1160" height="70" rx="10" fill="#D9D9D9"/>
<rect x="160" y="535" width="1160" height="70" rx="10" fill="#D9D9D9"/>
<rect x="160" y="691" width="1160" height="70" rx="10" fill="#D9D9D9"/>
<rect x="160" y="847" width="1160" height="70" rx="10" fill="#D9D9D9"/>
<rect x="160" y="333" width="371" height="30" rx="6" fill="#B0B0B0"/>
<rect x="160" y="489" width="371" height="30" rx="6" fill="#B0B0B0"/>
<rect x="160" y="645" width="371" height="30" rx="6" fill="#B0B0B0"/>
<rect x="160" y="801" width="371" height="30" rx="6" fill="#B0B0B0"/>
</svg>
