<svg width="1480" height="1000" viewBox="0 0 1480 1000" fill="none" xmlns="http://www.w3.org/2000/svg">
<rect width="1480" height="1000" rx="20" fill="white"/>
<rect x="0.999023" y="0.9375" width="1478" height="998.124" rx="20" fill="black"/>
<rect x="20" y="20" width="1440" height="960" fill="#323333"/>
<rect x="21" y="20" width="586" height="960" fill="#464646"/>
<rect x="737" y="61" width="593" height="880" rx="10" fill="white"/>
<path d="M809.877 534.24C808.005 534.24 806.421 533.888 805.125 533.184C803.845 532.48 802.869 531.48 802.197 530.184C801.525 528.888 801.189 527.352 801.189 525.576C801.189 524.232 801.381 523.024 801.765 521.952C802.165 520.88 802.733 519.968 803.469 519.216C804.221 518.448 805.133 517.864 806.205 517.464C807.277 517.048 808.493 516.84 809.853 516.84C810.749 516.84 811.645 516.952 812.541 517.176C813.453 517.384 814.309 517.744 815.109 518.256C815.381 518.432 815.557 518.648 815.637 518.904C815.733 519.16 815.749 519.424 815.685 519.696C815.621 519.952 815.501 520.176 815.325 520.368C815.149 520.56 814.925 520.68 814.653 520.728C814.397 520.776 814.109 520.712 813.789 520.536C813.181 520.184 812.565 519.928 811.941 519.768C811.317 519.608 810.621 519.528 809.853 519.528C808.669 519.528 807.669 519.768 806.853 520.248C806.037 520.712 805.421 521.392 805.005 522.288C804.605 523.184 804.405 524.28 804.405 525.576C804.405 527.544 804.877 529.04 805.821 530.064C806.765 531.088 808.165 531.6 810.021 531.6C810.661 531.6 811.309 531.536 811.965 531.408C812.621 531.28 813.261 531.104 813.885 530.88L813.285 532.248V527.136H810.645C810.245 527.136 809.933 527.032 809.709 526.824C809.501 526.616 809.397 526.336 809.397 525.984C809.397 525.616 809.501 525.336 809.709 525.144C809.933 524.952 810.245 524.856 810.645 524.856H814.605C815.005 524.856 815.309 524.968 815.517 525.192C815.741 525.4 815.853 525.704 815.853 526.104V531.936C815.853 532.288 815.781 532.584 815.637 532.824C815.509 533.064 815.293 533.24 814.989 533.352C814.285 533.608 813.477 533.824 812.565 534C811.653 534.16 810.757 534.24 809.877 534.24ZM822.989 534.24C822.141 534.24 821.381 534.08 820.709 533.76C820.053 533.424 819.533 532.976 819.149 532.416C818.781 531.856 818.597 531.224 818.597 530.52C818.597 529.656 818.821 528.976 819.269 528.48C819.717 527.968 820.445 527.6 821.453 527.376C822.461 527.152 823.813 527.04 825.509 527.04H826.709V528.768H825.533C824.541 528.768 823.749 528.816 823.157 528.912C822.565 529.008 822.141 529.176 821.885 529.416C821.645 529.64 821.525 529.96 821.525 530.376C821.525 530.904 821.709 531.336 822.077 531.672C822.445 532.008 822.957 532.176 823.613 532.176C824.141 532.176 824.605 532.056 825.005 531.816C825.421 531.56 825.749 531.216 825.989 530.784C826.229 530.352 826.349 529.856 826.349 529.296V526.536C826.349 525.736 826.173 525.16 825.821 524.808C825.469 524.456 824.877 524.28 824.045 524.28C823.581 524.28 823.077 524.336 822.533 524.448C822.005 524.56 821.445 524.752 820.853 525.024C820.549 525.168 820.277 525.208 820.037 525.144C819.813 525.08 819.637 524.952 819.509 524.76C819.381 524.552 819.317 524.328 819.317 524.088C819.317 523.848 819.381 523.616 819.509 523.392C819.637 523.152 819.853 522.976 820.157 522.864C820.893 522.56 821.597 522.344 822.269 522.216C822.957 522.088 823.581 522.024 824.141 522.024C825.293 522.024 826.237 522.2 826.973 522.552C827.725 522.904 828.285 523.44 828.653 524.16C829.021 524.864 829.205 525.776 829.205 526.896V532.656C829.205 533.152 829.085 533.536 828.845 533.808C828.605 534.064 828.261 534.192 827.813 534.192C827.365 534.192 827.013 534.064 826.757 533.808C826.517 533.536 826.397 533.152 826.397 532.656V531.504H826.589C826.477 532.064 826.253 532.552 825.917 532.968C825.597 533.368 825.189 533.68 824.693 533.904C824.197 534.128 823.629 534.24 822.989 534.24ZM836.258 534.24C834.93 534.24 833.93 533.864 833.258 533.112C832.586 532.344 832.25 531.224 832.25 529.752V518.4C832.25 517.904 832.378 517.528 832.634 517.272C832.89 517.016 833.258 516.888 833.738 516.888C834.218 516.888 834.586 517.016 834.842 517.272C835.114 517.528 835.25 517.904 835.25 518.4V529.608C835.25 530.344 835.402 530.888 835.706 531.24C836.026 531.592 836.474 531.768 837.05 531.768C837.178 531.768 837.298 531.768 837.41 531.768C837.522 531.752 837.634 531.736 837.746 531.72C837.97 531.688 838.122 531.752 838.202 531.912C838.282 532.056 838.322 532.36 838.322 532.824C838.322 533.224 838.242 533.536 838.082 533.76C837.922 533.984 837.658 534.12 837.29 534.168C837.13 534.184 836.962 534.2 836.786 534.216C836.61 534.232 836.434 534.24 836.258 534.24ZM843.922 534.24C842.594 534.24 841.594 533.864 840.922 533.112C840.25 532.344 839.914 531.224 839.914 529.752V518.4C839.914 517.904 840.042 517.528 840.298 517.272C840.554 517.016 840.922 516.888 841.402 516.888C841.882 516.888 842.25 517.016 842.506 517.272C842.778 517.528 842.914 517.904 842.914 518.4V529.608C842.914 530.344 843.066 530.888 843.37 531.24C843.69 531.592 844.138 531.768 844.714 531.768C844.842 531.768 844.962 531.768 845.074 531.768C845.186 531.752 845.298 531.736 845.41 531.72C845.634 531.688 845.786 531.752 845.866 531.912C845.946 532.056 845.986 532.36 845.986 532.824C845.986 533.224 845.906 533.536 845.746 533.76C845.586 533.984 845.322 534.12 844.954 534.168C844.794 534.184 844.626 534.2 844.45 534.216C844.274 534.232 844.098 534.24 843.922 534.24ZM853.245 534.24C851.917 534.24 850.773 533.992 849.813 533.496C848.853 533 848.109 532.296 847.581 531.384C847.069 530.472 846.813 529.392 846.813 528.144C846.813 526.928 847.061 525.864 847.557 524.952C848.069 524.04 848.765 523.328 849.645 522.816C850.541 522.288 851.557 522.024 852.693 522.024C853.525 522.024 854.269 522.16 854.925 522.432C855.597 522.704 856.165 523.096 856.629 523.608C857.109 524.12 857.469 524.744 857.709 525.48C857.965 526.2 858.093 527.016 858.093 527.928C858.093 528.216 857.989 528.44 857.781 528.6C857.589 528.744 857.309 528.816 856.941 528.816H849.237V527.088H855.981L855.597 527.448C855.597 526.712 855.485 526.096 855.261 525.6C855.053 525.104 854.741 524.728 854.325 524.472C853.925 524.2 853.421 524.064 852.813 524.064C852.141 524.064 851.565 524.224 851.085 524.544C850.621 524.848 850.261 525.288 850.005 525.864C849.765 526.424 849.645 527.096 849.645 527.88V528.048C849.645 529.36 849.949 530.344 850.557 531C851.181 531.64 852.093 531.96 853.293 531.96C853.709 531.96 854.173 531.912 854.685 531.816C855.213 531.704 855.709 531.52 856.173 531.264C856.509 531.072 856.805 530.992 857.061 531.024C857.317 531.04 857.517 531.128 857.661 531.288C857.821 531.448 857.917 531.648 857.949 531.888C857.981 532.112 857.933 532.344 857.805 532.584C857.693 532.824 857.493 533.032 857.205 533.208C856.645 533.56 855.997 533.824 855.261 534C854.541 534.16 853.869 534.24 853.245 534.24ZM862.005 534.192C861.509 534.192 861.125 534.064 860.853 533.808C860.597 533.536 860.469 533.152 860.469 532.656V523.584C860.469 523.088 860.597 522.712 860.853 522.456C861.109 522.2 861.469 522.072 861.933 522.072C862.397 522.072 862.757 522.2 863.013 522.456C863.269 522.712 863.397 523.088 863.397 523.584V525.096H863.157C863.381 524.136 863.821 523.408 864.477 522.912C865.133 522.416 866.005 522.12 867.093 522.024C867.429 521.992 867.693 522.08 867.885 522.288C868.093 522.48 868.213 522.784 868.245 523.2C868.277 523.6 868.181 523.928 867.957 524.184C867.749 524.424 867.429 524.568 866.997 524.616L866.469 524.664C865.493 524.76 864.757 525.064 864.261 525.576C863.765 526.072 863.517 526.776 863.517 527.688V532.656C863.517 533.152 863.389 533.536 863.133 533.808C862.877 534.064 862.501 534.192 862.005 534.192ZM873.57 538.512C873.218 538.512 872.93 538.416 872.706 538.224C872.482 538.048 872.346 537.808 872.298 537.504C872.266 537.2 872.322 536.88 872.466 536.544L874.098 532.92V534.168L869.73 524.064C869.586 523.712 869.538 523.384 869.586 523.08C869.634 522.776 869.778 522.536 870.018 522.36C870.274 522.168 870.618 522.072 871.05 522.072C871.418 522.072 871.714 522.16 871.938 522.336C872.162 522.496 872.362 522.808 872.538 523.272L875.778 531.36H875.058L878.37 523.248C878.546 522.8 878.754 522.496 878.994 522.336C879.234 522.16 879.554 522.072 879.954 522.072C880.306 522.072 880.586 522.168 880.794 522.36C881.002 522.536 881.13 522.776 881.178 523.08C881.226 523.368 881.17 523.688 881.01 524.04L875.178 537.36C874.97 537.808 874.746 538.112 874.506 538.272C874.266 538.432 873.954 538.512 873.57 538.512Z" fill="black"/>
<path d="M803.278 415.192C802.782 415.192 802.398 415.056 802.126 414.784C801.87 414.496 801.742 414.104 801.742 413.608V399.64C801.742 399.128 801.878 398.744 802.15 398.488C802.422 398.216 802.806 398.08 803.302 398.08H809.086C810.942 398.08 812.374 398.544 813.382 399.472C814.39 400.4 814.894 401.696 814.894 403.36C814.894 405.024 814.39 406.328 813.382 407.272C812.374 408.2 810.942 408.664 809.086 408.664H804.814V413.608C804.814 414.104 804.686 414.496 804.43 414.784C804.174 415.056 803.79 415.192 803.278 415.192ZM804.814 406.24H808.606C809.694 406.24 810.518 406 811.078 405.52C811.638 405.024 811.918 404.304 811.918 403.36C811.918 402.416 811.638 401.704 811.078 401.224C810.518 400.744 809.694 400.504 808.606 400.504H804.814V406.24ZM818.412 415.192C817.916 415.192 817.532 415.064 817.26 414.808C817.004 414.536 816.876 414.152 816.876 413.656V404.584C816.876 404.088 817.004 403.712 817.26 403.456C817.516 403.2 817.876 403.072 818.34 403.072C818.804 403.072 819.164 403.2 819.42 403.456C819.676 403.712 819.804 404.088 819.804 404.584V406.096H819.564C819.788 405.136 820.228 404.408 820.884 403.912C821.54 403.416 822.412 403.12 823.5 403.024C823.836 402.992 824.1 403.08 824.292 403.288C824.5 403.48 824.62 403.784 824.652 404.2C824.684 404.6 824.588 404.928 824.364 405.184C824.156 405.424 823.836 405.568 823.404 405.616L822.876 405.664C821.9 405.76 821.164 406.064 820.668 406.576C820.172 407.072 819.924 407.776 819.924 408.688V413.656C819.924 414.152 819.796 414.536 819.54 414.808C819.284 415.064 818.908 415.192 818.412 415.192ZM831.439 415.24C830.223 415.24 829.167 414.992 828.271 414.496C827.375 414 826.679 413.296 826.183 412.384C825.687 411.456 825.439 410.368 825.439 409.12C825.439 408.176 825.575 407.336 825.847 406.6C826.135 405.848 826.543 405.208 827.071 404.68C827.599 404.136 828.231 403.728 828.967 403.456C829.703 403.168 830.527 403.024 831.439 403.024C832.655 403.024 833.711 403.272 834.607 403.768C835.503 404.264 836.199 404.968 836.695 405.88C837.191 406.792 837.439 407.872 837.439 409.12C837.439 410.064 837.295 410.912 837.007 411.664C836.735 412.416 836.335 413.064 835.807 413.608C835.279 414.136 834.647 414.544 833.911 414.832C833.175 415.104 832.351 415.24 831.439 415.24ZM831.439 412.96C832.031 412.96 832.551 412.816 832.999 412.528C833.447 412.24 833.791 411.816 834.031 411.256C834.287 410.68 834.415 409.968 834.415 409.12C834.415 407.84 834.143 406.888 833.599 406.264C833.055 405.624 832.335 405.304 831.439 405.304C830.847 405.304 830.327 405.448 829.879 405.736C829.431 406.008 829.079 406.432 828.823 407.008C828.583 407.568 828.463 408.272 828.463 409.12C828.463 410.384 828.735 411.344 829.279 412C829.823 412.64 830.543 412.96 831.439 412.96ZM838.475 419.536C838.123 419.568 837.835 419.512 837.611 419.368C837.387 419.24 837.235 419.072 837.155 418.864C837.059 418.656 837.027 418.44 837.059 418.216C837.091 417.992 837.187 417.792 837.347 417.616C837.491 417.456 837.691 417.368 837.947 417.352C838.667 417.288 839.187 417.08 839.507 416.728C839.843 416.392 840.011 415.872 840.011 415.168V404.584C840.011 404.088 840.139 403.712 840.395 403.456C840.667 403.2 841.043 403.072 841.523 403.072C842.003 403.072 842.371 403.2 842.627 403.456C842.883 403.712 843.011 404.088 843.011 404.584V414.904C843.011 415.928 842.843 416.768 842.507 417.424C842.187 418.08 841.691 418.576 841.019 418.912C840.363 419.248 839.515 419.456 838.475 419.536ZM841.499 400.864C840.939 400.864 840.499 400.728 840.179 400.456C839.875 400.168 839.723 399.776 839.723 399.28C839.723 398.768 839.875 398.376 840.179 398.104C840.499 397.832 840.939 397.696 841.499 397.696C842.075 397.696 842.515 397.832 842.819 398.104C843.123 398.376 843.275 398.768 843.275 399.28C843.275 399.776 843.123 400.168 842.819 400.456C842.515 400.728 842.075 400.864 841.499 400.864ZM851.91 415.24C850.582 415.24 849.438 414.992 848.478 414.496C847.518 414 846.774 413.296 846.246 412.384C845.734 411.472 845.478 410.392 845.478 409.144C845.478 407.928 845.726 406.864 846.222 405.952C846.734 405.04 847.43 404.328 848.31 403.816C849.206 403.288 850.222 403.024 851.358 403.024C852.19 403.024 852.934 403.16 853.59 403.432C854.262 403.704 854.83 404.096 855.294 404.608C855.774 405.12 856.134 405.744 856.374 406.48C856.63 407.2 856.758 408.016 856.758 408.928C856.758 409.216 856.654 409.44 856.446 409.6C856.254 409.744 855.974 409.816 855.606 409.816H847.902V408.088H854.646L854.262 408.448C854.262 407.712 854.15 407.096 853.926 406.6C853.718 406.104 853.406 405.728 852.99 405.472C852.59 405.2 852.086 405.064 851.478 405.064C850.806 405.064 850.23 405.224 849.75 405.544C849.286 405.848 848.926 406.288 848.67 406.864C848.43 407.424 848.31 408.096 848.31 408.88V409.048C848.31 410.36 848.614 411.344 849.222 412C849.846 412.64 850.758 412.96 851.958 412.96C852.374 412.96 852.838 412.912 853.35 412.816C853.878 412.704 854.374 412.52 854.838 412.264C855.174 412.072 855.47 411.992 855.726 412.024C855.982 412.04 856.182 412.128 856.326 412.288C856.486 412.448 856.582 412.648 856.614 412.888C856.646 413.112 856.598 413.344 856.47 413.584C856.358 413.824 856.158 414.032 855.87 414.208C855.31 414.56 854.662 414.824 853.926 415C853.206 415.16 852.534 415.24 851.91 415.24ZM864.558 415.24C863.326 415.24 862.254 414.992 861.342 414.496C860.43 413.984 859.726 413.264 859.23 412.336C858.734 411.408 858.486 410.32 858.486 409.072C858.486 408.128 858.622 407.288 858.894 406.552C859.182 405.8 859.59 405.168 860.118 404.656C860.646 404.128 861.286 403.728 862.038 403.456C862.79 403.168 863.63 403.024 864.558 403.024C865.086 403.024 865.654 403.096 866.262 403.24C866.886 403.384 867.47 403.624 868.014 403.96C868.27 404.12 868.438 404.312 868.518 404.536C868.598 404.76 868.614 404.992 868.566 405.232C868.518 405.456 868.414 405.656 868.254 405.832C868.11 405.992 867.926 406.096 867.702 406.144C867.478 406.176 867.23 406.12 866.958 405.976C866.606 405.768 866.246 405.616 865.878 405.52C865.51 405.408 865.158 405.352 864.822 405.352C864.294 405.352 863.83 405.44 863.43 405.616C863.03 405.776 862.686 406.016 862.398 406.336C862.126 406.64 861.918 407.024 861.774 407.488C861.63 407.952 861.558 408.488 861.558 409.096C861.558 410.28 861.838 411.216 862.398 411.904C862.974 412.576 863.782 412.912 864.822 412.912C865.158 412.912 865.502 412.864 865.854 412.768C866.222 412.672 866.59 412.52 866.958 412.312C867.23 412.168 867.47 412.12 867.678 412.168C867.902 412.216 868.086 412.328 868.23 412.504C868.374 412.664 868.462 412.864 868.494 413.104C868.526 413.328 868.494 413.552 868.398 413.776C868.318 414 868.158 414.184 867.918 414.328C867.39 414.648 866.83 414.88 866.238 415.024C865.646 415.168 865.086 415.24 864.558 415.24ZM875.877 415.24C874.837 415.24 873.965 415.064 873.261 414.712C872.573 414.36 872.061 413.848 871.725 413.176C871.389 412.488 871.221 411.64 871.221 410.632V405.52H869.973C869.589 405.52 869.293 405.424 869.085 405.232C868.877 405.024 868.773 404.744 868.773 404.392C868.773 404.024 868.877 403.744 869.085 403.552C869.293 403.36 869.589 403.264 869.973 403.264H871.221V401.08C871.221 400.584 871.349 400.208 871.605 399.952C871.877 399.696 872.253 399.568 872.733 399.568C873.213 399.568 873.581 399.696 873.837 399.952C874.093 400.208 874.221 400.584 874.221 401.08V403.264H876.765C877.149 403.264 877.445 403.36 877.653 403.552C877.861 403.744 877.965 404.024 877.965 404.392C877.965 404.744 877.861 405.024 877.653 405.232C877.445 405.424 877.149 405.52 876.765 405.52H874.221V410.464C874.221 411.232 874.389 411.808 874.725 412.192C875.061 412.576 875.605 412.768 876.357 412.768C876.629 412.768 876.869 412.744 877.077 412.696C877.285 412.648 877.469 412.616 877.629 412.6C877.821 412.584 877.981 412.648 878.109 412.792C878.237 412.92 878.301 413.192 878.301 413.608C878.301 413.928 878.245 414.216 878.133 414.472C878.037 414.712 877.853 414.88 877.581 414.976C877.373 415.04 877.101 415.096 876.765 415.144C876.429 415.208 876.133 415.24 875.877 415.24Z" fill="black"/>
<path d="M777.931 403H789.911M779.129 404.886H788.713C789.252 404.886 789.552 405.441 789.252 405.829L784.46 412.709C784.221 413.097 783.622 413.097 783.322 412.709L778.53 405.829C778.291 405.386 778.65 404.886 779.129 404.886V404.886Z" stroke="black" stroke-miterlimit="10" stroke-linecap="round" stroke-linejoin="round"/>
<path d="M777.931 522H789.911M779.129 523.886H788.713C789.252 523.886 789.552 524.441 789.252 524.829L784.46 531.709C784.221 532.097 783.622 532.097 783.322 531.709L778.53 524.829C778.291 524.386 778.65 523.886 779.129 523.886V523.886Z" stroke="black" stroke-miterlimit="10" stroke-linecap="round" stroke-linejoin="round"/>
<rect x="777.433" y="553.5" width="346.414" height="329" rx="9.5" fill="#EDEDED" stroke="black"/>
<rect x="1134.83" y="553.5" width="154.197" height="159" rx="9.5" fill="#EDEDED" stroke="black"/>
<rect x="777.5" y="434.5" width="512" height="62" rx="9.5" fill="#EDEDED" stroke="black"/>
<path d="M737 70C737 64.4771 741.477 60 747 60H1320C1325.52 60 1330 64.4772 1330 70V374H737V70Z" fill="#EDEDED"/>
<rect x="1134.83" y="723.5" width="154.197" height="159" rx="9.5" fill="#EDEDED" stroke="black"/>
<path d="M54.384 84.192C53.888 84.192 53.504 84.056 53.232 83.784C52.976 83.496 52.848 83.104 52.848 82.608V68.64C52.848 68.128 52.984 67.744 53.256 67.488C53.528 67.216 53.912 67.08 54.408 67.08H60.192C62.048 67.08 63.48 67.544 64.488 68.472C65.496 69.4 66 70.696 66 72.36C66 74.024 65.496 75.328 64.488 76.272C63.48 77.2 62.048 77.664 60.192 77.664H55.92V82.608C55.92 83.104 55.792 83.496 55.536 83.784C55.28 84.056 54.896 84.192 54.384 84.192ZM55.92 75.24H59.712C60.8 75.24 61.624 75 62.184 74.52C62.744 74.024 63.024 73.304 63.024 72.36C63.024 71.416 62.744 70.704 62.184 70.224C61.624 69.744 60.8 69.504 59.712 69.504H55.92V75.24ZM83.1711 84.24C81.5391 84.24 80.1071 83.88 78.8751 83.16C77.6591 82.44 76.7151 81.432 76.0431 80.136C75.3711 78.824 75.0351 77.288 75.0351 75.528C75.0351 74.2 75.2271 73.008 75.6111 71.952C75.9951 70.88 76.5391 69.968 77.2431 69.216C77.9631 68.448 78.8191 67.864 79.8111 67.464C80.8191 67.048 81.9391 66.84 83.1711 66.84C84.8191 66.84 86.2511 67.2 87.4671 67.92C88.6831 68.624 89.6271 69.624 90.2991 70.92C90.9711 72.216 91.3071 73.744 91.3071 75.504C91.3071 76.832 91.1151 78.032 90.7311 79.104C90.3471 80.176 89.7951 81.096 89.0751 81.864C88.3711 82.632 87.5151 83.224 86.5071 83.64C85.5151 84.04 84.4031 84.24 83.1711 84.24ZM83.1711 81.6C84.2111 81.6 85.0911 81.36 85.8111 80.88C86.5471 80.4 87.1071 79.704 87.4911 78.792C87.8911 77.88 88.0911 76.792 88.0911 75.528C88.0911 73.608 87.6591 72.12 86.7951 71.064C85.9471 70.008 84.7391 69.48 83.1711 69.48C82.1471 69.48 81.2671 69.72 80.5311 70.2C79.7951 70.664 79.2271 71.352 78.8271 72.264C78.4431 73.16 78.2511 74.248 78.2511 75.528C78.2511 77.432 78.6831 78.92 79.5471 79.992C80.4111 81.064 81.6191 81.6 83.1711 81.6ZM103.167 84.192C102.671 84.192 102.287 84.056 102.015 83.784C101.759 83.496 101.631 83.104 101.631 82.608V68.64C101.631 68.128 101.767 67.744 102.039 67.488C102.311 67.216 102.695 67.08 103.191 67.08H108.975C110.831 67.08 112.263 67.528 113.271 68.424C114.279 69.304 114.783 70.544 114.783 72.144C114.783 73.184 114.551 74.08 114.087 74.832C113.639 75.584 112.983 76.16 112.119 76.56C111.255 76.96 110.207 77.16 108.975 77.16L109.191 76.8H109.983C110.639 76.8 111.207 76.96 111.687 77.28C112.183 77.6 112.615 78.104 112.983 78.792L114.783 82.128C114.975 82.464 115.063 82.792 115.047 83.112C115.031 83.432 114.911 83.696 114.687 83.904C114.463 84.096 114.135 84.192 113.703 84.192C113.271 84.192 112.919 84.104 112.647 83.928C112.375 83.736 112.135 83.448 111.927 83.064L109.503 78.6C109.215 78.056 108.871 77.696 108.471 77.52C108.087 77.328 107.591 77.232 106.983 77.232H104.703V82.608C104.703 83.104 104.575 83.496 104.319 83.784C104.063 84.056 103.679 84.192 103.167 84.192ZM104.703 74.952H108.447C109.551 74.952 110.383 74.728 110.943 74.28C111.519 73.816 111.807 73.128 111.807 72.216C111.807 71.32 111.519 70.648 110.943 70.2C110.383 69.736 109.551 69.504 108.447 69.504H104.703V74.952ZM130.431 84.192C129.935 84.192 129.551 84.056 129.279 83.784C129.023 83.496 128.895 83.104 128.895 82.608V69.648H124.215C123.799 69.648 123.471 69.536 123.231 69.312C123.007 69.072 122.895 68.752 122.895 68.352C122.895 67.936 123.007 67.624 123.231 67.416C123.471 67.192 123.799 67.08 124.215 67.08H136.647C137.063 67.08 137.383 67.192 137.607 67.416C137.847 67.624 137.967 67.936 137.967 68.352C137.967 68.752 137.847 69.072 137.607 69.312C137.383 69.536 137.063 69.648 136.647 69.648H131.967V82.608C131.967 83.104 131.839 83.496 131.583 83.784C131.327 84.056 130.943 84.192 130.431 84.192ZM148.505 84.192C148.009 84.192 147.617 84.056 147.329 83.784C147.057 83.496 146.921 83.088 146.921 82.56V68.712C146.921 68.184 147.057 67.784 147.329 67.512C147.617 67.224 148.025 67.08 148.553 67.08H156.929C157.345 67.08 157.657 67.184 157.865 67.392C158.073 67.6 158.177 67.896 158.177 68.28C158.177 68.68 158.073 68.992 157.865 69.216C157.657 69.424 157.345 69.528 156.929 69.528H149.993V74.304H156.425C156.825 74.304 157.129 74.408 157.337 74.616C157.561 74.824 157.673 75.12 157.673 75.504C157.673 75.904 157.561 76.216 157.337 76.44C157.129 76.648 156.825 76.752 156.425 76.752H149.993V82.56C149.993 83.648 149.497 84.192 148.505 84.192ZM174.877 84.24C173.245 84.24 171.813 83.88 170.581 83.16C169.365 82.44 168.421 81.432 167.749 80.136C167.077 78.824 166.741 77.288 166.741 75.528C166.741 74.2 166.933 73.008 167.317 71.952C167.701 70.88 168.245 69.968 168.949 69.216C169.669 68.448 170.525 67.864 171.517 67.464C172.525 67.048 173.645 66.84 174.877 66.84C176.525 66.84 177.957 67.2 179.173 67.92C180.389 68.624 181.333 69.624 182.005 70.92C182.677 72.216 183.013 73.744 183.013 75.504C183.013 76.832 182.821 78.032 182.437 79.104C182.053 80.176 181.501 81.096 180.781 81.864C180.077 82.632 179.221 83.224 178.213 83.64C177.221 84.04 176.109 84.24 174.877 84.24ZM174.877 81.6C175.917 81.6 176.797 81.36 177.517 80.88C178.253 80.4 178.813 79.704 179.197 78.792C179.597 77.88 179.797 76.792 179.797 75.528C179.797 73.608 179.365 72.12 178.501 71.064C177.653 70.008 176.445 69.48 174.877 69.48C173.853 69.48 172.973 69.72 172.237 70.2C171.501 70.664 170.933 71.352 170.533 72.264C170.149 73.16 169.957 74.248 169.957 75.528C169.957 77.432 170.389 78.92 171.253 79.992C172.117 81.064 173.325 81.6 174.877 81.6ZM194.897 84C194.401 84 194.017 83.864 193.745 83.592C193.473 83.304 193.337 82.912 193.337 82.416V68.568C193.337 68.056 193.465 67.672 193.721 67.416C193.993 67.144 194.377 67.008 194.873 67.008C195.369 67.008 195.745 67.144 196.001 67.416C196.273 67.672 196.409 68.056 196.409 68.568V81.384H203.369C203.801 81.384 204.129 81.496 204.353 81.72C204.593 81.944 204.713 82.264 204.713 82.68C204.713 83.096 204.593 83.424 204.353 83.664C204.129 83.888 203.801 84 203.369 84H194.897ZM215.55 84.192C215.054 84.192 214.67 84.056 214.398 83.784C214.142 83.496 214.014 83.104 214.014 82.608V68.472C214.014 67.96 214.142 67.568 214.398 67.296C214.67 67.024 215.054 66.888 215.55 66.888C216.046 66.888 216.422 67.024 216.678 67.296C216.95 67.568 217.086 67.96 217.086 68.472V82.608C217.086 83.104 216.958 83.496 216.702 83.784C216.446 84.056 216.062 84.192 215.55 84.192ZM235.571 84.24C233.939 84.24 232.507 83.88 231.275 83.16C230.059 82.44 229.115 81.432 228.443 80.136C227.771 78.824 227.435 77.288 227.435 75.528C227.435 74.2 227.627 73.008 228.011 71.952C228.395 70.88 228.939 69.968 229.643 69.216C230.363 68.448 231.219 67.864 232.211 67.464C233.219 67.048 234.339 66.84 235.571 66.84C237.219 66.84 238.651 67.2 239.867 67.92C241.083 68.624 242.027 69.624 242.699 70.92C243.371 72.216 243.707 73.744 243.707 75.504C243.707 76.832 243.515 78.032 243.131 79.104C242.747 80.176 242.195 81.096 241.475 81.864C240.771 82.632 239.915 83.224 238.907 83.64C237.915 84.04 236.803 84.24 235.571 84.24ZM235.571 81.6C236.611 81.6 237.491 81.36 238.211 80.88C238.947 80.4 239.507 79.704 239.891 78.792C240.291 77.88 240.491 76.792 240.491 75.528C240.491 73.608 240.059 72.12 239.195 71.064C238.347 70.008 237.139 69.48 235.571 69.48C234.547 69.48 233.667 69.72 232.931 70.2C232.195 70.664 231.627 71.352 231.227 72.264C230.843 73.16 230.651 74.248 230.651 75.528C230.651 77.432 231.083 78.92 231.947 79.992C232.811 81.064 234.019 81.6 235.571 81.6ZM273.362 84.192C272.866 84.192 272.482 84.056 272.21 83.784C271.954 83.496 271.826 83.104 271.826 82.608V69.648H267.146C266.73 69.648 266.402 69.536 266.162 69.312C265.938 69.072 265.826 68.752 265.826 68.352C265.826 67.936 265.938 67.624 266.162 67.416C266.402 67.192 266.73 67.08 267.146 67.08H279.578C279.994 67.08 280.314 67.192 280.538 67.416C280.778 67.624 280.898 67.936 280.898 68.352C280.898 68.752 280.778 69.072 280.538 69.312C280.314 69.536 279.994 69.648 279.578 69.648H274.898V82.608C274.898 83.104 274.77 83.496 274.514 83.784C274.258 84.056 273.874 84.192 273.362 84.192ZM291.485 84C290.957 84 290.549 83.864 290.261 83.592C289.989 83.304 289.853 82.896 289.853 82.368V68.712C289.853 68.184 289.989 67.784 290.261 67.512C290.549 67.224 290.957 67.08 291.485 67.08H300.053C300.453 67.08 300.757 67.184 300.965 67.392C301.189 67.6 301.301 67.896 301.301 68.28C301.301 68.68 301.189 68.992 300.965 69.216C300.757 69.424 300.453 69.528 300.053 69.528H292.805V74.184H299.525C299.941 74.184 300.253 74.288 300.461 74.496C300.669 74.704 300.773 75.008 300.773 75.408C300.773 75.808 300.669 76.112 300.461 76.32C300.253 76.528 299.941 76.632 299.525 76.632H292.805V81.552H300.053C300.453 81.552 300.757 81.656 300.965 81.864C301.189 82.072 301.301 82.376 301.301 82.776C301.301 83.176 301.189 83.48 300.965 83.688C300.757 83.896 300.453 84 300.053 84H291.485ZM312.813 84.192C312.365 84.192 312.021 84.064 311.781 83.808C311.541 83.552 311.421 83.2 311.421 82.752V68.328C311.421 67.864 311.549 67.512 311.805 67.272C312.061 67.016 312.413 66.888 312.861 66.888C313.261 66.888 313.573 66.968 313.797 67.128C314.037 67.272 314.253 67.528 314.445 67.896L320.373 78.864H319.605L325.533 67.896C325.725 67.528 325.933 67.272 326.157 67.128C326.381 66.968 326.693 66.888 327.093 66.888C327.541 66.888 327.885 67.016 328.125 67.272C328.365 67.512 328.485 67.864 328.485 68.328V82.752C328.485 83.2 328.365 83.552 328.125 83.808C327.901 84.064 327.557 84.192 327.093 84.192C326.645 84.192 326.301 84.064 326.061 83.808C325.821 83.552 325.701 83.2 325.701 82.752V71.64H326.229L321.189 80.832C321.029 81.104 320.861 81.304 320.685 81.432C320.509 81.56 320.269 81.624 319.965 81.624C319.661 81.624 319.413 81.56 319.221 81.432C319.029 81.288 318.861 81.088 318.717 80.832L313.629 71.616H314.205V82.752C314.205 83.2 314.085 83.552 313.845 83.808C313.621 84.064 313.277 84.192 312.813 84.192ZM340.945 84.192C340.449 84.192 340.065 84.056 339.793 83.784C339.537 83.496 339.409 83.104 339.409 82.608V68.64C339.409 68.128 339.545 67.744 339.817 67.488C340.089 67.216 340.473 67.08 340.969 67.08H346.753C348.609 67.08 350.041 67.544 351.049 68.472C352.057 69.4 352.561 70.696 352.561 72.36C352.561 74.024 352.057 75.328 351.049 76.272C350.041 77.2 348.609 77.664 346.753 77.664H342.481V82.608C342.481 83.104 342.353 83.496 342.097 83.784C341.841 84.056 341.457 84.192 340.945 84.192ZM342.481 75.24H346.273C347.361 75.24 348.185 75 348.745 74.52C349.305 74.024 349.585 73.304 349.585 72.36C349.585 71.416 349.305 70.704 348.745 70.224C348.185 69.744 347.361 69.504 346.273 69.504H342.481V75.24ZM363.825 84C363.329 84 362.945 83.864 362.673 83.592C362.401 83.304 362.265 82.912 362.265 82.416V68.568C362.265 68.056 362.393 67.672 362.649 67.416C362.921 67.144 363.305 67.008 363.801 67.008C364.297 67.008 364.673 67.144 364.929 67.416C365.201 67.672 365.337 68.056 365.337 68.568V81.384H372.297C372.729 81.384 373.057 81.496 373.281 81.72C373.521 81.944 373.641 82.264 373.641 82.68C373.641 83.096 373.521 83.424 373.281 83.664C373.057 83.888 372.729 84 372.297 84H363.825ZM382.735 84.192C382.351 84.192 382.039 84.104 381.799 83.928C381.575 83.752 381.439 83.52 381.391 83.232C381.343 82.928 381.399 82.592 381.559 82.224L387.895 68.184C388.103 67.72 388.351 67.392 388.639 67.2C388.943 66.992 389.287 66.888 389.671 66.888C390.039 66.888 390.367 66.992 390.655 67.2C390.959 67.392 391.215 67.72 391.423 68.184L397.783 82.224C397.959 82.592 398.023 82.928 397.975 83.232C397.927 83.536 397.791 83.776 397.567 83.952C397.343 84.112 397.047 84.192 396.679 84.192C396.231 84.192 395.879 84.088 395.623 83.88C395.383 83.656 395.167 83.32 394.975 82.872L393.415 79.248L394.711 80.088H384.583L385.879 79.248L384.343 82.872C384.135 83.336 383.919 83.672 383.695 83.88C383.471 84.088 383.151 84.192 382.735 84.192ZM389.623 70.416L386.263 78.408L385.639 77.64H393.655L393.055 78.408L389.671 70.416H389.623ZM411.367 84.192C410.871 84.192 410.487 84.056 410.215 83.784C409.959 83.496 409.831 83.104 409.831 82.608V69.648H405.151C404.735 69.648 404.407 69.536 404.167 69.312C403.943 69.072 403.831 68.752 403.831 68.352C403.831 67.936 403.943 67.624 404.167 67.416C404.407 67.192 404.735 67.08 405.151 67.08H417.583C417.999 67.08 418.319 67.192 418.543 67.416C418.783 67.624 418.903 67.936 418.903 68.352C418.903 68.752 418.783 69.072 418.543 69.312C418.319 69.536 417.999 69.648 417.583 69.648H412.903V82.608C412.903 83.104 412.775 83.496 412.519 83.784C412.263 84.056 411.879 84.192 411.367 84.192ZM429.489 84C428.961 84 428.553 83.864 428.265 83.592C427.993 83.304 427.857 82.896 427.857 82.368V68.712C427.857 68.184 427.993 67.784 428.265 67.512C428.553 67.224 428.961 67.08 429.489 67.08H438.057C438.457 67.08 438.761 67.184 438.969 67.392C439.193 67.6 439.305 67.896 439.305 68.28C439.305 68.68 439.193 68.992 438.969 69.216C438.761 69.424 438.457 69.528 438.057 69.528H430.809V74.184H437.529C437.945 74.184 438.257 74.288 438.465 74.496C438.673 74.704 438.777 75.008 438.777 75.408C438.777 75.808 438.673 76.112 438.465 76.32C438.257 76.528 437.945 76.632 437.529 76.632H430.809V81.552H438.057C438.457 81.552 438.761 81.656 438.969 81.864C439.193 82.072 439.305 82.376 439.305 82.776C439.305 83.176 439.193 83.48 438.969 83.688C438.761 83.896 438.457 84 438.057 84H429.489ZM454.975 84.24C454.271 84.24 453.567 84.184 452.863 84.072C452.159 83.976 451.495 83.824 450.871 83.616C450.247 83.392 449.687 83.12 449.191 82.8C448.903 82.608 448.703 82.376 448.591 82.104C448.479 81.832 448.439 81.568 448.471 81.312C448.519 81.04 448.623 80.808 448.783 80.616C448.959 80.408 449.175 80.28 449.431 80.232C449.687 80.184 449.967 80.256 450.271 80.448C450.975 80.864 451.719 81.168 452.503 81.36C453.287 81.552 454.111 81.648 454.975 81.648C456.239 81.648 457.159 81.44 457.735 81.024C458.311 80.592 458.599 80.04 458.599 79.368C458.599 78.808 458.391 78.368 457.975 78.048C457.575 77.728 456.879 77.464 455.887 77.256L453.247 76.704C451.727 76.384 450.591 75.848 449.839 75.096C449.103 74.328 448.735 73.32 448.735 72.072C448.735 71.288 448.895 70.576 449.215 69.936C449.535 69.296 449.983 68.744 450.559 68.28C451.151 67.816 451.847 67.464 452.647 67.224C453.463 66.968 454.359 66.84 455.335 66.84C456.295 66.84 457.207 66.96 458.071 67.2C458.935 67.44 459.711 67.792 460.399 68.256C460.655 68.432 460.823 68.648 460.903 68.904C460.999 69.16 461.023 69.416 460.975 69.672C460.927 69.912 460.815 70.12 460.639 70.296C460.463 70.472 460.239 70.576 459.967 70.608C459.711 70.64 459.415 70.56 459.079 70.368C458.487 70.032 457.887 69.792 457.279 69.648C456.671 69.504 456.015 69.432 455.311 69.432C454.575 69.432 453.943 69.536 453.415 69.744C452.887 69.952 452.479 70.248 452.191 70.632C451.919 71 451.783 71.44 451.783 71.952C451.783 72.528 451.975 72.992 452.359 73.344C452.743 73.68 453.399 73.944 454.327 74.136L456.943 74.688C458.527 75.024 459.703 75.552 460.471 76.272C461.255 76.992 461.647 77.952 461.647 79.152C461.647 79.92 461.487 80.616 461.167 81.24C460.863 81.864 460.415 82.4 459.823 82.848C459.247 83.296 458.551 83.64 457.735 83.88C456.919 84.12 455.999 84.24 454.975 84.24Z" fill="white"/>
<rect x="1390" y="820" width="40" height="40" rx="10" fill="white"/>
<path d="M1419 837V831M1419 831H1413M1419 831L1411.5 838.5M1401 843V849M1401 849H1407M1401 849L1408.5 841.5" stroke="black" stroke-width="1.5" stroke-linecap="round" stroke-linejoin="round"/>
<rect x="1390" y="60" width="40" height="40" rx="10" fill="white"/>
<path d="M1410.14 80.8916C1410.05 80.8795 1409.95 80.8795 1409.86 80.8916C1408.85 80.8572 1407.9 80.427 1407.2 79.6918C1406.5 78.9567 1406.11 77.9741 1406.11 76.9518C1406.11 74.7711 1407.84 73 1410 73C1411.02 72.9982 1412 73.4034 1412.73 74.1282C1413.46 74.853 1413.88 75.8394 1413.89 76.8747C1413.91 77.91 1413.53 78.9113 1412.83 79.6627C1412.13 80.4141 1411.16 80.8554 1410.14 80.8916V80.8916ZM1418 88.8434C1415.82 90.8784 1412.96 92.0053 1410 92C1406.91 92 1404.11 90.8072 1402 88.8434C1402.12 87.7108 1402.83 86.6024 1404.1 85.7349C1407.35 83.5422 1412.67 83.5422 1415.9 85.7349C1417.17 86.6024 1417.88 87.7108 1418 88.8434V88.8434Z" stroke="black" stroke-width="1.5" stroke-linecap="round" stroke-linejoin="round"/>
<path d="M1410 92C1416.63 92 1422 86.6276 1422 80C1422 73.3724 1416.63 68 1410 68C1403.37 68 1398 73.3724 1398 80C1398 86.6276 1403.37 92 1410 92Z" stroke="black" stroke-width="1.5" stroke-linecap="round" stroke-linejoin="round"/>
<rect x="637" y="900" width="60" height="40" rx="10" fill="white"/>
<path d="M661.01 927H670.85C674.245 927 677 924.515 677 921.453C677 918.391 674.245 915.906 670.85 915.906H657.319" stroke="black" stroke-width="1.5" stroke-miterlimit="10" stroke-linecap="round" stroke-linejoin="round"/>
<path d="M660.149 918.68L657 915.84L660.149 913" stroke="black" stroke-width="1.5" stroke-linecap="round" stroke-linejoin="round"/>
<rect x="1370" y="900" width="60" height="40" rx="10" fill="white"/>
<path d="M1401.26 911.439L1393.05 920.129C1392.74 920.459 1392.44 921.109 1392.38 921.559L1392.01 924.799C1391.88 925.969 1392.72 926.769 1393.88 926.569L1397.1 926.019C1397.55 925.939 1398.18 925.609 1398.49 925.269L1406.7 916.579C1408.12 915.079 1408.76 913.369 1406.55 911.279C1404.35 909.209 1402.68 909.939 1401.26 911.439Z" stroke="black" stroke-width="1.5" stroke-miterlimit="10" stroke-linecap="round" stroke-linejoin="round"/>
<path d="M1399.89 912.889C1400.1 914.23 1400.75 915.463 1401.74 916.395C1402.72 917.327 1403.99 917.905 1405.34 918.039M1391 929.839H1409" stroke="black" stroke-width="1.5" stroke-miterlimit="10" stroke-linecap="round" stroke-linejoin="round"/>
<rect x="324" y="123" width="253" height="30" rx="10" fill="white"/>
<rect x="324" y="283" width="253" height="30" rx="10" fill="white"/>
<rect x="324" y="443" width="253" height="30" rx="10" fill="white"/>
<rect x="324" y="603" width="253" height="30" rx="10" fill="white"/>
<rect x="324" y="763" width="253" height="30" rx="10" fill="white"/>
<rect x="324" y="163" width="253" height="30" rx="10" fill="white"/>
<rect x="324" y="323" width="253" height="30" rx="10" fill="white"/>
<rect x="324" y="483" width="253" height="30" rx="10" fill="white"/>
<rect x="324" y="643" width="253" height="30" rx="10" fill="white"/>
<rect x="324" y="803" width="253" height="30" rx="10" fill="white"/>
<rect x="324" y="203" width="253" height="30" rx="10" fill="white"/>
<rect x="324" y="363" width="253" height="30" rx="10" fill="white"/>
<rect x="324" y="523" width="253" height="30" rx="10" fill="white"/>
<rect x="324" y="683" width="253" height="30" rx="10" fill="white"/>
<rect x="324" y="843" width="253" height="30" rx="10" fill="white"/>
<rect x="324" y="883" width="253" height="30" rx="10" fill="white"/>
<rect x="324" y="923" width="253" height="30" rx="10" fill="white"/>
<rect x="324" y="243" width="253" height="30" rx="10" fill="white"/>
<rect x="324" y="403" width="253" height="30" rx="10" fill="white"/>
<rect x="324" y="563" width="253" height="30" rx="10" fill="white"/>
<rect x="324" y="723" width="253" height="30" rx="10" fill="white"/>
<path d="M555 133H567M556.2 134.886H565.8C566.34 134.886 566.64 135.441 566.34 135.829L561.54 142.709C561.3 143.097 560.7 143.097 560.4 142.709L555.6 135.829C555.36 135.386 555.72 134.886 556.2 134.886Z" stroke="black" stroke-miterlimit="10" stroke-linecap="round" stroke-linejoin="round"/>
<path d="M555 293H567M556.2 294.886H565.8C566.34 294.886 566.64 295.441 566.34 295.829L561.54 302.709C561.3 303.097 560.7 303.097 560.4 302.709L555.6 295.829C555.36 295.386 555.72 294.886 556.2 294.886Z" stroke="black" stroke-miterlimit="10" stroke-linecap="round" stroke-linejoin="round"/>
<path d="M555 453H567M556.2 454.886H565.8C566.34 454.886 566.64 455.441 566.34 455.829L561.54 462.709C561.3 463.097 560.7 463.097 560.4 462.709L555.6 455.829C555.36 455.386 555.72 454.886 556.2 454.886Z" stroke="black" stroke-miterlimit="10" stroke-linecap="round" stroke-linejoin="round"/>
<path d="M555 613H567M556.2 614.886H565.8C566.34 614.886 566.64 615.441 566.34 615.829L561.54 622.709C561.3 623.097 560.7 623.097 560.4 622.709L555.6 615.829C555.36 615.386 555.72 614.886 556.2 614.886Z" stroke="black" stroke-miterlimit="10" stroke-linecap="round" stroke-linejoin="round"/>
<path d="M555 773H567M556.2 774.886H565.8C566.34 774.886 566.64 775.441 566.34 775.829L561.54 782.709C561.3 783.097 560.7 783.097 560.4 782.709L555.6 775.829C555.36 775.386 555.72 774.886 556.2 774.886Z" stroke="black" stroke-miterlimit="10" stroke-linecap="round" stroke-linejoin="round"/>
<path d="M555 173H567M556.2 174.886H565.8C566.34 174.886 566.64 175.441 566.34 175.829L561.54 182.709C561.3 183.097 560.7 183.097 560.4 182.709L555.6 175.829C555.36 175.386 555.72 174.886 556.2 174.886Z" stroke="black" stroke-miterlimit="10" stroke-linecap="round" stroke-linejoin="round"/>
<path d="M555 333H567M556.2 334.886H565.8C566.34 334.886 566.64 335.441 566.34 335.829L561.54 342.709C561.3 343.097 560.7 343.097 560.4 342.709L555.6 335.829C555.36 335.386 555.72 334.886 556.2 334.886Z" stroke="black" stroke-miterlimit="10" stroke-linecap="round" stroke-linejoin="round"/>
<path d="M555 493H567M556.2 494.886H565.8C566.34 494.886 566.64 495.441 566.34 495.829L561.54 502.709C561.3 503.097 560.7 503.097 560.4 502.709L555.6 495.829C555.36 495.386 555.72 494.886 556.2 494.886Z" stroke="black" stroke-miterlimit="10" stroke-linecap="round" stroke-linejoin="round"/>
<path d="M555 653H567M556.2 654.886H565.8C566.34 654.886 566.64 655.441 566.34 655.829L561.54 662.709C561.3 663.097 560.7 663.097 560.4 662.709L555.6 655.829C555.36 655.386 555.72 654.886 556.2 654.886Z" stroke="black" stroke-miterlimit="10" stroke-linecap="round" stroke-linejoin="round"/>
<path d="M555 813H567M556.2 814.886H565.8C566.34 814.886 566.64 815.441 566.34 815.829L561.54 822.709C561.3 823.097 560.7 823.097 560.4 822.709L555.6 815.829C555.36 815.386 555.72 814.886 556.2 814.886Z" stroke="black" stroke-miterlimit="10" stroke-linecap="round" stroke-linejoin="round"/>
<path d="M555 213H567M556.2 214.886H565.8C566.34 214.886 566.64 215.441 566.34 215.829L561.54 222.709C561.3 223.097 560.7 223.097 560.4 222.709L555.6 215.829C555.36 215.386 555.72 214.886 556.2 214.886Z" stroke="black" stroke-miterlimit="10" stroke-linecap="round" stroke-linejoin="round"/>
<path d="M555 373H567M556.2 374.886H565.8C566.34 374.886 566.64 375.441 566.34 375.829L561.54 382.709C561.3 383.097 560.7 383.097 560.4 382.709L555.6 375.829C555.36 375.386 555.72 374.886 556.2 374.886Z" stroke="black" stroke-miterlimit="10" stroke-linecap="round" stroke-linejoin="round"/>
<path d="M555 533H567M556.2 534.886H565.8C566.34 534.886 566.64 535.441 566.34 535.829L561.54 542.709C561.3 543.097 560.7 543.097 560.4 542.709L555.6 535.829C555.36 535.386 555.72 534.886 556.2 534.886Z" stroke="black" stroke-miterlimit="10" stroke-linecap="round" stroke-linejoin="round"/>
<path d="M555 693H567M556.2 694.886H565.8C566.34 694.886 566.64 695.441 566.34 695.829L561.54 702.709C561.3 703.097 560.7 703.097 560.4 702.709L555.6 695.829C555.36 695.386 555.72 694.886 556.2 694.886Z" stroke="black" stroke-miterlimit="10" stroke-linecap="round" stroke-linejoin="round"/>
<path d="M555 853H567M556.2 854.886H565.8C566.34 854.886 566.64 855.441 566.34 855.829L561.54 862.709C561.3 863.097 560.7 863.097 560.4 862.709L555.6 855.829C555.36 855.386 555.72 854.886 556.2 854.886Z" stroke="black" stroke-miterlimit="10" stroke-linecap="round" stroke-linejoin="round"/>
<path d="M555 893H567M556.2 894.886H565.8C566.34 894.886 566.64 895.441 566.34 895.829L561.54 902.709C561.3 903.097 560.7 903.097 560.4 902.709L555.6 895.829C555.36 895.386 555.72 894.886 556.2 894.886Z" stroke="black" stroke-miterlimit="10" stroke-linecap="round" stroke-linejoin="round"/>
<path d="M555 933H567M556.2 934.886H565.8C566.34 934.886 566.64 935.441 566.34 935.829L561.54 942.709C561.3 943.097 560.7 943.097 560.4 942.709L555.6 935.829C555.36 935.386 555.72 934.886 556.2 934.886Z" stroke="black" stroke-miterlimit="10" stroke-linecap="round" stroke-linejoin="round"/>
<path d="M555 253H567M556.2 254.886H565.8C566.34 254.886 566.64 255.441 566.34 255.829L561.54 262.709C561.3 263.097 560.7 263.097 560.4 262.709L555.6 255.829C555.36 255.386 555.72 254.886 556.2 254.886Z" stroke="black" stroke-miterlimit="10" stroke-linecap="round" stroke-linejoin="round"/>
<path d="M555 413H567M556.2 414.886H565.8C566.34 414.886 566.64 415.441 566.34 415.829L561.54 422.709C561.3 423.097 560.7 423.097 560.4 422.709L555.6 415.829C555.36 415.386 555.72 414.886 556.2 414.886Z" stroke="black" stroke-miterlimit="10" stroke-linecap="round" stroke-linejoin="round"/>
<path d="M555 573H567M556.2 574.886H565.8C566.34 574.886 566.64 575.441 566.34 575.829L561.54 582.709C561.3 583.097 560.7 583.097 560.4 582.709L555.6 575.829C555.36 575.386 555.72 574.886 556.2 574.886Z" stroke="black" stroke-miterlimit="10" stroke-linecap="round" stroke-linejoin="round"/>
<path d="M555 733H567M556.2 734.886H565.8C566.34 734.886 566.64 735.441 566.34 735.829L561.54 742.709C561.3 743.097 560.7 743.097 560.4 742.709L555.6 735.829C555.36 735.386 555.72 734.886 556.2 734.886Z" stroke="black" stroke-miterlimit="10" stroke-linecap="round" stroke-linejoin="round"/>
<rect x="51" y="283" width="253" height="30" rx="10" fill="white"/>
<rect x="51" y="443" width="253" height="30" rx="10" fill="white"/>
<rect x="51" y="603" width="253" height="30" rx="10" fill="white"/>
<rect x="51" y="763" width="253" height="30" rx="10" fill="white"/>
<rect x="51" y="163" width="253" height="30" rx="10" fill="white"/>
<rect x="51" y="323" width="253" height="30" rx="10" fill="white"/>
<rect x="51" y="483" width="253" height="30" rx="10" fill="white"/>
<rect x="51" y="643" width="253" height="30" rx="10" fill="white"/>
<rect x="51" y="803" width="253" height="30" rx="10" fill="white"/>
<rect x="51" y="203" width="253" height="30" rx="10" fill="white"/>
<rect x="51" y="363" width="253" height="30" rx="10" fill="white"/>
<rect x="51" y="523" width="253" height="30" rx="10" fill="white"/>
<rect x="51" y="683" width="253" height="30" rx="10" fill="white"/>
<rect x="51" y="843" width="253" height="30" rx="10" fill="white"/>
<rect x="51" y="883" width="253" height="30" rx="10" fill="white"/>
<rect x="51" y="923" width="253" height="30" rx="10" fill="white"/>
<rect x="51" y="243" width="253" height="30" rx="10" fill="white"/>
<rect x="51" y="403" width="253" height="30" rx="10" fill="white"/>
<rect x="51" y="563" width="253" height="30" rx="10" fill="white"/>
<rect x="51" y="723" width="253" height="30" rx="10" fill="white"/>
<path d="M282 293H294M283.2 294.886H292.8C293.34 294.886 293.64 295.441 293.34 295.829L288.54 302.709C288.3 303.097 287.7 303.097 287.4 302.709L282.6 295.829C282.36 295.386 282.72 294.886 283.2 294.886Z" stroke="black" stroke-miterlimit="10" stroke-linecap="round" stroke-linejoin="round"/>
<path d="M282 453H294M283.2 454.886H292.8C293.34 454.886 293.64 455.441 293.34 455.829L288.54 462.709C288.3 463.097 287.7 463.097 287.4 462.709L282.6 455.829C282.36 455.386 282.72 454.886 283.2 454.886Z" stroke="black" stroke-miterlimit="10" stroke-linecap="round" stroke-linejoin="round"/>
<path d="M282 613H294M283.2 614.886H292.8C293.34 614.886 293.64 615.441 293.34 615.829L288.54 622.709C288.3 623.097 287.7 623.097 287.4 622.709L282.6 615.829C282.36 615.386 282.72 614.886 283.2 614.886Z" stroke="black" stroke-miterlimit="10" stroke-linecap="round" stroke-linejoin="round"/>
<path d="M282 773H294M283.2 774.886H292.8C293.34 774.886 293.64 775.441 293.34 775.829L288.54 782.709C288.3 783.097 287.7 783.097 287.4 782.709L282.6 775.829C282.36 775.386 282.72 774.886 283.2 774.886Z" stroke="black" stroke-miterlimit="10" stroke-linecap="round" stroke-linejoin="round"/>
<path d="M282 173H294M283.2 174.886H292.8C293.34 174.886 293.64 175.441 293.34 175.829L288.54 182.709C288.3 183.097 287.7 183.097 287.4 182.709L282.6 175.829C282.36 175.386 282.72 174.886 283.2 174.886Z" stroke="black" stroke-miterlimit="10" stroke-linecap="round" stroke-linejoin="round"/>
<path d="M282 333H294M283.2 334.886H292.8C293.34 334.886 293.64 335.441 293.34 335.829L288.54 342.709C288.3 343.097 287.7 343.097 287.4 342.709L282.6 335.829C282.36 335.386 282.72 334.886 283.2 334.886Z" stroke="black" stroke-miterlimit="10" stroke-linecap="round" stroke-linejoin="round"/>
<path d="M282 493H294M283.2 494.886H292.8C293.34 494.886 293.64 495.441 293.34 495.829L288.54 502.709C288.3 503.097 287.7 503.097 287.4 502.709L282.6 495.829C282.36 495.386 282.72 494.886 283.2 494.886Z" stroke="black" stroke-miterlimit="10" stroke-linecap="round" stroke-linejoin="round"/>
<path d="M282 653H294M283.2 654.886H292.8C293.34 654.886 293.64 655.441 293.34 655.829L288.54 662.709C288.3 663.097 287.7 663.097 287.4 662.709L282.6 655.829C282.36 655.386 282.72 654.886 283.2 654.886Z" stroke="black" stroke-miterlimit="10" stroke-linecap="round" stroke-linejoin="round"/>
<path d="M282 813H294M283.2 814.886H292.8C293.34 814.886 293.64 815.441 293.34 815.829L288.54 822.709C288.3 823.097 287.7 823.097 287.4 822.709L282.6 815.829C282.36 815.386 282.72 814.886 283.2 814.886Z" stroke="black" stroke-miterlimit="10" stroke-linecap="round" stroke-linejoin="round"/>
<path d="M282 213H294M283.2 214.886H292.8C293.34 214.886 293.64 215.441 293.34 215.829L288.54 222.709C288.3 223.097 287.7 223.097 287.4 222.709L282.6 215.829C282.36 215.386 282.72 214.886 283.2 214.886Z" stroke="black" stroke-miterlimit="10" stroke-linecap="round" stroke-linejoin="round"/>
<path d="M282 373H294M283.2 374.886H292.8C293.34 374.886 293.64 375.441 293.34 375.829L288.54 382.709C288.3 383.097 287.7 383.097 287.4 382.709L282.6 375.829C282.36 375.386 282.72 374.886 283.2 374.886Z" stroke="black" stroke-miterlimit="10" stroke-linecap="round" stroke-linejoin="round"/>
<path d="M282 533H294M283.2 534.886H292.8C293.34 534.886 293.64 535.441 293.34 535.829L288.54 542.709C288.3 543.097 287.7 543.097 287.4 542.709L282.6 535.829C282.36 535.386 282.72 534.886 283.2 534.886Z" stroke="black" stroke-miterlimit="10" stroke-linecap="round" stroke-linejoin="round"/>
<path d="M282 693H294M283.2 694.886H292.8C293.34 694.886 293.64 695.441 293.34 695.829L288.54 702.709C288.3 703.097 287.7 703.097 287.4 702.709L282.6 695.829C282.36 695.386 282.72 694.886 283.2 694.886Z" stroke="black" stroke-miterlimit="10" stroke-linecap="round" stroke-linejoin="round"/>
<path d="M282 853H294M283.2 854.886H292.8C293.34 854.886 293.64 855.441 293.34 855.829L288.54 862.709C288.3 863.097 287.7 863.097 287.4 862.709L282.6 855.829C282.36 855.386 282.72 854.886 283.2 854.886Z" stroke="black" stroke-miterlimit="10" stroke-linecap="round" stroke-linejoin="round"/>
<path d="M282 893H294M283.2 894.886H292.8C293.34 894.886 293.64 895.441 293.34 895.829L288.54 902.709C288.3 903.097 287.7 903.097 287.4 902.709L282.6 895.829C282.36 895.386 282.72 894.886 283.2 894.886Z" stroke="black" stroke-miterlimit="10" stroke-linecap="round" stroke-linejoin="round"/>
<path d="M282 933H294M283.2 934.886H292.8C293.34 934.886 293.64 935.441 293.34 935.829L288.54 942.709C288.3 943.097 287.7 943.097 287.4 942.709L282.6 935.829C282.36 935.386 282.72 934.886 283.2 934.886Z" stroke="black" stroke-miterlimit="10" stroke-linecap="round" stroke-linejoin="round"/>
<path d="M282 253H294M283.2 254.886H292.8C293.34 254.886 293.64 255.441 293.34 255.829L288.54 262.709C288.3 263.097 287.7 263.097 287.4 262.709L282.6 255.829C282.36 255.386 282.72 254.886 283.2 254.886Z" stroke="black" stroke-miterlimit="10" stroke-linecap="round" stroke-linejoin="round"/>
<path d="M282 413H294M283.2 414.886H292.8C293.34 414.886 293.64 415.441 293.34 415.829L288.54 422.709C288.3 423.097 287.7 423.097 287.4 422.709L282.6 415.829C282.36 415.386 282.72 414.886 283.2 414.886Z" stroke="black" stroke-miterlimit="10" stroke-linecap="round" stroke-linejoin="round"/>
<path d="M282 573H294M283.2 574.886H292.8C293.34 574.886 293.64 575.441 293.34 575.829L288.54 582.709C288.3 583.097 287.7 583.097 287.4 582.709L282.6 575.829C282.36 575.386 282.72 574.886 283.2 574.886Z" stroke="black" stroke-miterlimit="10" stroke-linecap="round" stroke-linejoin="round"/>
<path d="M282 733H294M283.2 734.886H292.8C293.34 734.886 293.64 735.441 293.34 735.829L288.54 742.709C288.3 743.097 287.7 743.097 287.4 742.709L282.6 735.829C282.36 735.386 282.72 734.886 283.2 734.886Z" stroke="black" stroke-miterlimit="10" stroke-linecap="round" stroke-linejoin="round"/>
<rect x="51" y="123" width="253" height="30" rx="10" fill="white"/>
<path d="M282 133H294M283.2 134.886H292.8C293.34 134.886 293.64 135.441 293.34 135.829L288.54 142.709C288.3 143.097 287.7 143.097 287.4 142.709L282.6 135.829C282.36 135.386 282.72 134.886 283.2 134.886Z" stroke="black" stroke-miterlimit="10" stroke-linecap="round" stroke-linejoin="round"/>
</svg>
