<svg width="1480" height="1000" viewBox="0 0 1480 1000" fill="none" xmlns="http://www.w3.org/2000/svg">
<rect width="1480" height="1000" rx="20" fill="white"/>
<rect x="0.999023" y="0.9375" width="1478" height="998.124" rx="20" fill="black"/>
<rect x="20" y="20" width="1440" height="960" fill="#F2F2F2"/>
<path d="M666.77 134.34C664.277 134.34 662.135 133.841 660.344 132.844C658.576 131.824 657.216 130.396 656.264 128.56C655.312 126.701 654.836 124.514 654.836 121.998C654.836 120.117 655.108 118.428 655.652 116.932C656.196 115.413 656.978 114.121 657.998 113.056C659.018 111.968 660.265 111.141 661.738 110.574C663.234 109.985 664.911 109.69 666.77 109.69C668.017 109.69 669.241 109.849 670.442 110.166C671.643 110.483 672.697 110.937 673.604 111.526C674.08 111.821 674.397 112.183 674.556 112.614C674.715 113.022 674.749 113.43 674.658 113.838C674.567 114.223 674.375 114.552 674.08 114.824C673.808 115.096 673.457 115.255 673.026 115.3C672.618 115.323 672.165 115.175 671.666 114.858C670.963 114.405 670.204 114.076 669.388 113.872C668.572 113.668 667.745 113.566 666.906 113.566C665.297 113.566 663.937 113.895 662.826 114.552C661.715 115.209 660.877 116.161 660.31 117.408C659.743 118.655 659.46 120.185 659.46 121.998C659.46 123.789 659.743 125.319 660.31 126.588C660.877 127.857 661.715 128.821 662.826 129.478C663.937 130.135 665.297 130.464 666.906 130.464C667.767 130.464 668.617 130.362 669.456 130.158C670.295 129.931 671.088 129.591 671.836 129.138C672.335 128.843 672.777 128.719 673.162 128.764C673.57 128.787 673.91 128.923 674.182 129.172C674.454 129.421 674.635 129.739 674.726 130.124C674.817 130.487 674.794 130.872 674.658 131.28C674.522 131.665 674.25 132.005 673.842 132.3C672.935 132.957 671.847 133.467 670.578 133.83C669.331 134.17 668.062 134.34 666.77 134.34ZM684.706 134.34C682.983 134.34 681.487 133.989 680.218 133.286C678.949 132.583 677.963 131.586 677.26 130.294C676.557 128.979 676.206 127.438 676.206 125.67C676.206 124.333 676.399 123.143 676.784 122.1C677.192 121.035 677.77 120.128 678.518 119.38C679.266 118.609 680.161 118.031 681.204 117.646C682.247 117.238 683.414 117.034 684.706 117.034C686.429 117.034 687.925 117.385 689.194 118.088C690.463 118.791 691.449 119.788 692.152 121.08C692.855 122.372 693.206 123.902 693.206 125.67C693.206 127.007 693.002 128.209 692.594 129.274C692.209 130.339 691.642 131.257 690.894 132.028C690.146 132.776 689.251 133.354 688.208 133.762C687.165 134.147 685.998 134.34 684.706 134.34ZM684.706 131.11C685.545 131.11 686.281 130.906 686.916 130.498C687.551 130.09 688.038 129.489 688.378 128.696C688.741 127.88 688.922 126.871 688.922 125.67C688.922 123.857 688.537 122.508 687.766 121.624C686.995 120.717 685.975 120.264 684.706 120.264C683.867 120.264 683.131 120.468 682.496 120.876C681.861 121.261 681.363 121.862 681 122.678C680.66 123.471 680.49 124.469 680.49 125.67C680.49 127.461 680.875 128.821 681.646 129.75C682.417 130.657 683.437 131.11 684.706 131.11ZM698.89 134.272C698.21 134.272 697.689 134.091 697.326 133.728C696.963 133.343 696.782 132.799 696.782 132.096V119.244C696.782 118.541 696.963 118.009 697.326 117.646C697.689 117.283 698.199 117.102 698.856 117.102C699.513 117.102 700.023 117.283 700.386 117.646C700.749 118.009 700.93 118.541 700.93 119.244V121.726L700.556 120.706C701.009 119.573 701.712 118.677 702.664 118.02C703.616 117.363 704.749 117.034 706.064 117.034C707.401 117.034 708.501 117.351 709.362 117.986C710.223 118.621 710.824 119.595 711.164 120.91H710.688C711.141 119.709 711.889 118.768 712.932 118.088C713.975 117.385 715.176 117.034 716.536 117.034C717.805 117.034 718.848 117.283 719.664 117.782C720.503 118.281 721.126 119.04 721.534 120.06C721.942 121.057 722.146 122.327 722.146 123.868V132.096C722.146 132.799 721.953 133.343 721.568 133.728C721.205 134.091 720.684 134.272 720.004 134.272C719.324 134.272 718.803 134.091 718.44 133.728C718.077 133.343 717.896 132.799 717.896 132.096V124.038C717.896 122.769 717.681 121.839 717.25 121.25C716.842 120.661 716.139 120.366 715.142 120.366C714.031 120.366 713.159 120.763 712.524 121.556C711.889 122.327 711.572 123.403 711.572 124.786V132.096C711.572 132.799 711.391 133.343 711.028 133.728C710.665 134.091 710.144 134.272 709.464 134.272C708.784 134.272 708.251 134.091 707.866 133.728C707.503 133.343 707.322 132.799 707.322 132.096V124.038C707.322 122.769 707.107 121.839 706.676 121.25C706.268 120.661 705.577 120.366 704.602 120.366C703.491 120.366 702.619 120.763 701.984 121.556C701.349 122.327 701.032 123.403 701.032 124.786V132.096C701.032 133.547 700.318 134.272 698.89 134.272ZM728.638 140.392C727.958 140.392 727.437 140.211 727.074 139.848C726.712 139.485 726.53 138.953 726.53 138.25V119.244C726.53 118.541 726.712 118.009 727.074 117.646C727.437 117.283 727.947 117.102 728.604 117.102C729.284 117.102 729.806 117.283 730.168 117.646C730.531 118.009 730.712 118.541 730.712 119.244V121.896L730.338 120.876C730.678 119.72 731.37 118.791 732.412 118.088C733.478 117.385 734.713 117.034 736.118 117.034C737.569 117.034 738.838 117.385 739.926 118.088C741.037 118.791 741.898 119.788 742.51 121.08C743.122 122.349 743.428 123.879 743.428 125.67C743.428 127.438 743.122 128.979 742.51 130.294C741.898 131.586 741.048 132.583 739.96 133.286C738.872 133.989 737.592 134.34 736.118 134.34C734.736 134.34 733.523 134 732.48 133.32C731.438 132.617 730.735 131.711 730.372 130.6H730.78V138.25C730.78 138.953 730.588 139.485 730.202 139.848C729.84 140.211 729.318 140.392 728.638 140.392ZM734.928 131.11C735.767 131.11 736.504 130.906 737.138 130.498C737.773 130.09 738.26 129.489 738.6 128.696C738.963 127.88 739.144 126.871 739.144 125.67C739.144 123.857 738.759 122.508 737.988 121.624C737.218 120.717 736.198 120.264 734.928 120.264C734.09 120.264 733.353 120.468 732.718 120.876C732.084 121.261 731.585 121.862 731.222 122.678C730.882 123.471 730.712 124.469 730.712 125.67C730.712 127.461 731.098 128.821 731.868 129.75C732.639 130.657 733.659 131.11 734.928 131.11ZM752.391 134.34C751.19 134.34 750.113 134.113 749.161 133.66C748.232 133.184 747.495 132.549 746.951 131.756C746.43 130.963 746.169 130.067 746.169 129.07C746.169 127.846 746.486 126.883 747.121 126.18C747.756 125.455 748.787 124.933 750.215 124.616C751.643 124.299 753.558 124.14 755.961 124.14H757.661V126.588H755.995C754.59 126.588 753.468 126.656 752.629 126.792C751.79 126.928 751.19 127.166 750.827 127.506C750.487 127.823 750.317 128.277 750.317 128.866C750.317 129.614 750.578 130.226 751.099 130.702C751.62 131.178 752.346 131.416 753.275 131.416C754.023 131.416 754.68 131.246 755.247 130.906C755.836 130.543 756.301 130.056 756.641 129.444C756.981 128.832 757.151 128.129 757.151 127.336V123.426C757.151 122.293 756.902 121.477 756.403 120.978C755.904 120.479 755.066 120.23 753.887 120.23C753.23 120.23 752.516 120.309 751.745 120.468C750.997 120.627 750.204 120.899 749.365 121.284C748.934 121.488 748.549 121.545 748.209 121.454C747.892 121.363 747.642 121.182 747.461 120.91C747.28 120.615 747.189 120.298 747.189 119.958C747.189 119.618 747.28 119.289 747.461 118.972C747.642 118.632 747.948 118.383 748.379 118.224C749.422 117.793 750.419 117.487 751.371 117.306C752.346 117.125 753.23 117.034 754.023 117.034C755.655 117.034 756.992 117.283 758.035 117.782C759.1 118.281 759.894 119.04 760.415 120.06C760.936 121.057 761.197 122.349 761.197 123.936V132.096C761.197 132.799 761.027 133.343 760.687 133.728C760.347 134.091 759.86 134.272 759.225 134.272C758.59 134.272 758.092 134.091 757.729 133.728C757.389 133.343 757.219 132.799 757.219 132.096V130.464H757.491C757.332 131.257 757.015 131.949 756.539 132.538C756.086 133.105 755.508 133.547 754.805 133.864C754.102 134.181 753.298 134.34 752.391 134.34ZM767.619 134.272C766.939 134.272 766.417 134.091 766.055 133.728C765.692 133.343 765.511 132.799 765.511 132.096V119.244C765.511 118.541 765.692 118.009 766.055 117.646C766.417 117.283 766.927 117.102 767.585 117.102C768.242 117.102 768.752 117.283 769.115 117.646C769.477 118.009 769.659 118.541 769.659 119.244V121.556L769.285 120.706C769.783 119.505 770.554 118.598 771.597 117.986C772.662 117.351 773.863 117.034 775.201 117.034C776.538 117.034 777.637 117.283 778.499 117.782C779.36 118.281 780.006 119.04 780.437 120.06C780.867 121.057 781.083 122.327 781.083 123.868V132.096C781.083 132.799 780.901 133.343 780.539 133.728C780.176 134.091 779.655 134.272 778.975 134.272C778.295 134.272 777.762 134.091 777.377 133.728C777.014 133.343 776.833 132.799 776.833 132.096V124.072C776.833 122.78 776.583 121.839 776.085 121.25C775.609 120.661 774.861 120.366 773.841 120.366C772.594 120.366 771.597 120.763 770.849 121.556C770.123 122.327 769.761 123.358 769.761 124.65V132.096C769.761 133.547 769.047 134.272 767.619 134.272ZM787.507 134.238C786.827 134.238 786.306 134.034 785.943 133.626C785.581 133.218 785.399 132.651 785.399 131.926V119.448C785.399 118.7 785.581 118.133 785.943 117.748C786.306 117.34 786.827 117.136 787.507 117.136C788.187 117.136 788.709 117.34 789.071 117.748C789.457 118.133 789.649 118.7 789.649 119.448V131.926C789.649 132.651 789.468 133.218 789.105 133.626C788.743 134.034 788.21 134.238 787.507 134.238ZM787.507 113.974C786.714 113.974 786.091 113.781 785.637 113.396C785.207 112.988 784.991 112.433 784.991 111.73C784.991 111.005 785.207 110.449 785.637 110.064C786.091 109.679 786.714 109.486 787.507 109.486C788.323 109.486 788.947 109.679 789.377 110.064C789.808 110.449 790.023 111.005 790.023 111.73C790.023 112.433 789.808 112.988 789.377 113.396C788.947 113.781 788.323 113.974 787.507 113.974ZM802.259 134.34C800.378 134.34 798.757 133.989 797.397 133.286C796.037 132.583 794.983 131.586 794.235 130.294C793.51 129.002 793.147 127.472 793.147 125.704C793.147 123.981 793.499 122.474 794.201 121.182C794.927 119.89 795.913 118.881 797.159 118.156C798.429 117.408 799.868 117.034 801.477 117.034C802.656 117.034 803.71 117.227 804.639 117.612C805.591 117.997 806.396 118.553 807.053 119.278C807.733 120.003 808.243 120.887 808.583 121.93C808.946 122.95 809.127 124.106 809.127 125.398C809.127 125.806 808.98 126.123 808.685 126.35C808.413 126.554 808.017 126.656 807.495 126.656H796.581V124.208H806.135L805.591 124.718C805.591 123.675 805.433 122.803 805.115 122.1C804.821 121.397 804.379 120.865 803.789 120.502C803.223 120.117 802.509 119.924 801.647 119.924C800.695 119.924 799.879 120.151 799.199 120.604C798.542 121.035 798.032 121.658 797.669 122.474C797.329 123.267 797.159 124.219 797.159 125.33V125.568C797.159 127.427 797.59 128.821 798.451 129.75C799.335 130.657 800.627 131.11 802.327 131.11C802.917 131.11 803.574 131.042 804.299 130.906C805.047 130.747 805.75 130.487 806.407 130.124C806.883 129.852 807.303 129.739 807.665 129.784C808.028 129.807 808.311 129.931 808.515 130.158C808.742 130.385 808.878 130.668 808.923 131.008C808.969 131.325 808.901 131.654 808.719 131.994C808.561 132.334 808.277 132.629 807.869 132.878C807.076 133.377 806.158 133.751 805.115 134C804.095 134.227 803.143 134.34 802.259 134.34ZM818.579 134.34C817.605 134.34 816.573 134.238 815.485 134.034C814.397 133.83 813.423 133.479 812.561 132.98C812.199 132.753 811.938 132.493 811.779 132.198C811.643 131.881 811.587 131.575 811.609 131.28C811.655 130.963 811.768 130.691 811.949 130.464C812.153 130.237 812.403 130.09 812.697 130.022C813.015 129.954 813.355 130.011 813.717 130.192C814.624 130.623 815.474 130.929 816.267 131.11C817.061 131.269 817.843 131.348 818.613 131.348C819.701 131.348 820.506 131.167 821.027 130.804C821.571 130.419 821.843 129.92 821.843 129.308C821.843 128.787 821.662 128.39 821.299 128.118C820.959 127.823 820.438 127.608 819.735 127.472L816.335 126.826C814.93 126.554 813.853 126.044 813.105 125.296C812.38 124.525 812.017 123.539 812.017 122.338C812.017 121.25 812.312 120.309 812.901 119.516C813.513 118.723 814.352 118.111 815.417 117.68C816.483 117.249 817.707 117.034 819.089 117.034C820.087 117.034 821.016 117.147 821.877 117.374C822.761 117.578 823.611 117.907 824.427 118.36C824.767 118.541 824.994 118.779 825.107 119.074C825.243 119.369 825.277 119.675 825.209 119.992C825.141 120.287 825.005 120.559 824.801 120.808C824.597 121.035 824.337 121.182 824.019 121.25C823.725 121.295 823.385 121.227 822.999 121.046C822.297 120.683 821.617 120.423 820.959 120.264C820.325 120.105 819.713 120.026 819.123 120.026C818.013 120.026 817.185 120.219 816.641 120.604C816.12 120.989 815.859 121.499 815.859 122.134C815.859 122.61 816.018 123.007 816.335 123.324C816.653 123.641 817.14 123.857 817.797 123.97L821.197 124.616C822.671 124.888 823.781 125.387 824.529 126.112C825.3 126.837 825.685 127.812 825.685 129.036C825.685 130.691 825.039 131.994 823.747 132.946C822.455 133.875 820.733 134.34 818.579 134.34Z" fill="black"/>
<path d="M240 185.333C242.946 185.333 245.333 182.946 245.333 180C245.333 177.054 242.946 174.667 240 174.667C237.054 174.667 234.667 177.054 234.667 180C234.667 182.946 237.054 185.333 240 185.333ZM1240 185.333C1242.95 185.333 1245.33 182.946 1245.33 180C1245.33 177.054 1242.95 174.667 1240 174.667C1237.05 174.667 1234.67 177.054 1234.67 180C1234.67 182.946 1237.05 185.333 1240 185.333ZM240 181L1240 181V179L240 179V181Z" fill="#323333"/>
<rect x="245.75" y="220.75" width="926.5" height="38.5" rx="9.25" fill="white" stroke="black" stroke-width="1.5"/>
<path d="M266.76 245.18C266.232 245.18 265.704 245.138 265.176 245.054C264.648 244.982 264.15 244.868 263.682 244.712C263.214 244.544 262.794 244.34 262.422 244.1C262.206 243.956 262.056 243.782 261.972 243.578C261.888 243.374 261.858 243.176 261.882 242.984C261.918 242.78 261.996 242.606 262.116 242.462C262.248 242.306 262.41 242.21 262.602 242.174C262.794 242.138 263.004 242.192 263.232 242.336C263.76 242.648 264.318 242.876 264.906 243.02C265.494 243.164 266.112 243.236 266.76 243.236C267.708 243.236 268.398 243.08 268.83 242.768C269.262 242.444 269.478 242.03 269.478 241.526C269.478 241.106 269.322 240.776 269.01 240.536C268.71 240.296 268.188 240.098 267.444 239.942L265.464 239.528C264.324 239.288 263.472 238.886 262.908 238.322C262.356 237.746 262.08 236.99 262.08 236.054C262.08 235.466 262.2 234.932 262.44 234.452C262.68 233.972 263.016 233.558 263.448 233.21C263.892 232.862 264.414 232.598 265.014 232.418C265.626 232.226 266.298 232.13 267.03 232.13C267.75 232.13 268.434 232.22 269.082 232.4C269.73 232.58 270.312 232.844 270.828 233.192C271.02 233.324 271.146 233.486 271.206 233.678C271.278 233.87 271.296 234.062 271.26 234.254C271.224 234.434 271.14 234.59 271.008 234.722C270.876 234.854 270.708 234.932 270.504 234.956C270.312 234.98 270.09 234.92 269.838 234.776C269.394 234.524 268.944 234.344 268.488 234.236C268.032 234.128 267.54 234.074 267.012 234.074C266.46 234.074 265.986 234.152 265.59 234.308C265.194 234.464 264.888 234.686 264.672 234.974C264.468 235.25 264.366 235.58 264.366 235.964C264.366 236.396 264.51 236.744 264.798 237.008C265.086 237.26 265.578 237.458 266.274 237.602L268.236 238.016C269.424 238.268 270.306 238.664 270.882 239.204C271.47 239.744 271.764 240.464 271.764 241.364C271.764 241.94 271.644 242.462 271.404 242.93C271.176 243.398 270.84 243.8 270.396 244.136C269.964 244.472 269.442 244.73 268.83 244.91C268.218 245.09 267.528 245.18 266.76 245.18Z" fill="black"/>
<path d="M277.863 245.18C276.867 245.18 276.009 244.994 275.289 244.622C274.569 244.25 274.011 243.722 273.615 243.038C273.231 242.354 273.039 241.544 273.039 240.608C273.039 239.696 273.225 238.898 273.597 238.214C273.981 237.53 274.503 236.996 275.163 236.612C275.835 236.216 276.597 236.018 277.449 236.018C278.073 236.018 278.631 236.12 279.123 236.324C279.627 236.528 280.053 236.822 280.401 237.206C280.761 237.59 281.031 238.058 281.211 238.61C281.403 239.15 281.499 239.762 281.499 240.446C281.499 240.662 281.421 240.83 281.265 240.95C281.121 241.058 280.911 241.112 280.635 241.112H274.857V239.816H279.915L279.627 240.086C279.627 239.534 279.543 239.072 279.375 238.7C279.219 238.328 278.985 238.046 278.673 237.854C278.373 237.65 277.995 237.548 277.539 237.548C277.035 237.548 276.603 237.668 276.243 237.908C275.895 238.136 275.625 238.466 275.433 238.898C275.253 239.318 275.163 239.822 275.163 240.41V240.536C275.163 241.52 275.391 242.258 275.847 242.75C276.315 243.23 276.999 243.47 277.899 243.47C278.211 243.47 278.559 243.434 278.943 243.362C279.339 243.278 279.711 243.14 280.059 242.948C280.311 242.804 280.533 242.744 280.725 242.768C280.917 242.78 281.067 242.846 281.175 242.966C281.295 243.086 281.367 243.236 281.391 243.416C281.415 243.584 281.379 243.758 281.283 243.938C281.199 244.118 281.049 244.274 280.833 244.406C280.413 244.67 279.927 244.868 279.375 245C278.835 245.12 278.331 245.18 277.863 245.18ZM286.179 245.18C285.543 245.18 284.973 245.06 284.469 244.82C283.977 244.568 283.587 244.232 283.299 243.812C283.023 243.392 282.885 242.918 282.885 242.39C282.885 241.742 283.053 241.232 283.389 240.86C283.725 240.476 284.271 240.2 285.027 240.032C285.783 239.864 286.797 239.78 288.069 239.78H288.969V241.076H288.087C287.343 241.076 286.749 241.112 286.305 241.184C285.861 241.256 285.543 241.382 285.351 241.562C285.171 241.73 285.081 241.97 285.081 242.282C285.081 242.678 285.219 243.002 285.495 243.254C285.771 243.506 286.155 243.632 286.647 243.632C287.043 243.632 287.391 243.542 287.691 243.362C288.003 243.17 288.249 242.912 288.429 242.588C288.609 242.264 288.699 241.892 288.699 241.472V239.402C288.699 238.802 288.567 238.37 288.303 238.106C288.039 237.842 287.595 237.71 286.971 237.71C286.623 237.71 286.245 237.752 285.837 237.836C285.441 237.92 285.021 238.064 284.577 238.268C284.349 238.376 284.145 238.406 283.965 238.358C283.797 238.31 283.665 238.214 283.569 238.07C283.473 237.914 283.425 237.746 283.425 237.566C283.425 237.386 283.473 237.212 283.569 237.044C283.665 236.864 283.827 236.732 284.055 236.648C284.607 236.42 285.135 236.258 285.639 236.162C286.155 236.066 286.623 236.018 287.043 236.018C287.907 236.018 288.615 236.15 289.167 236.414C289.731 236.678 290.151 237.08 290.427 237.62C290.703 238.148 290.841 238.832 290.841 239.672V243.992C290.841 244.364 290.751 244.652 290.571 244.856C290.391 245.048 290.133 245.144 289.797 245.144C289.461 245.144 289.197 245.048 289.005 244.856C288.825 244.652 288.735 244.364 288.735 243.992V243.128H288.879C288.795 243.548 288.627 243.914 288.375 244.226C288.135 244.526 287.829 244.76 287.457 244.928C287.085 245.096 286.659 245.18 286.179 245.18ZM294.277 245.144C293.905 245.144 293.617 245.048 293.413 244.856C293.221 244.652 293.125 244.364 293.125 243.992V237.188C293.125 236.816 293.221 236.534 293.413 236.342C293.605 236.15 293.875 236.054 294.223 236.054C294.571 236.054 294.841 236.15 295.033 236.342C295.225 236.534 295.321 236.816 295.321 237.188V238.322H295.141C295.309 237.602 295.639 237.056 296.131 236.684C296.623 236.312 297.277 236.09 298.093 236.018C298.345 235.994 298.543 236.06 298.687 236.216C298.843 236.36 298.933 236.588 298.957 236.9C298.981 237.2 298.909 237.446 298.741 237.638C298.585 237.818 298.345 237.926 298.021 237.962L297.625 237.998C296.893 238.07 296.341 238.298 295.969 238.682C295.597 239.054 295.411 239.582 295.411 240.266V243.992C295.411 244.364 295.315 244.652 295.123 244.856C294.931 245.048 294.649 245.144 294.277 245.144ZM304.101 245.18C303.177 245.18 302.373 244.994 301.689 244.622C301.005 244.238 300.477 243.698 300.105 243.002C299.733 242.306 299.547 241.49 299.547 240.554C299.547 239.846 299.649 239.216 299.853 238.664C300.069 238.1 300.375 237.626 300.771 237.242C301.167 236.846 301.647 236.546 302.211 236.342C302.775 236.126 303.405 236.018 304.101 236.018C304.497 236.018 304.923 236.072 305.379 236.18C305.847 236.288 306.285 236.468 306.693 236.72C306.885 236.84 307.011 236.984 307.071 237.152C307.131 237.32 307.143 237.494 307.107 237.674C307.071 237.842 306.993 237.992 306.873 238.124C306.765 238.244 306.627 238.322 306.459 238.358C306.291 238.382 306.105 238.34 305.901 238.232C305.637 238.076 305.367 237.962 305.091 237.89C304.815 237.806 304.551 237.764 304.299 237.764C303.903 237.764 303.555 237.83 303.255 237.962C302.955 238.082 302.697 238.262 302.481 238.502C302.277 238.73 302.121 239.018 302.013 239.366C301.905 239.714 301.851 240.116 301.851 240.572C301.851 241.46 302.061 242.162 302.481 242.678C302.913 243.182 303.519 243.434 304.299 243.434C304.551 243.434 304.809 243.398 305.073 243.326C305.349 243.254 305.625 243.14 305.901 242.984C306.105 242.876 306.285 242.84 306.441 242.876C306.609 242.912 306.747 242.996 306.855 243.128C306.963 243.248 307.029 243.398 307.053 243.578C307.077 243.746 307.053 243.914 306.981 244.082C306.921 244.25 306.801 244.388 306.621 244.496C306.225 244.736 305.805 244.91 305.361 245.018C304.917 245.126 304.497 245.18 304.101 245.18ZM309.64 245.144C309.28 245.144 309.004 245.048 308.812 244.856C308.62 244.652 308.524 244.364 308.524 243.992V233.3C308.524 232.928 308.62 232.646 308.812 232.454C309.004 232.262 309.28 232.166 309.64 232.166C310 232.166 310.276 232.262 310.468 232.454C310.672 232.646 310.774 232.928 310.774 233.3V237.962H310.522C310.786 237.326 311.194 236.846 311.746 236.522C312.31 236.186 312.946 236.018 313.654 236.018C314.362 236.018 314.944 236.15 315.4 236.414C315.856 236.678 316.198 237.08 316.426 237.62C316.654 238.148 316.768 238.82 316.768 239.636V243.992C316.768 244.364 316.672 244.652 316.48 244.856C316.288 245.048 316.012 245.144 315.652 245.144C315.292 245.144 315.01 245.048 314.806 244.856C314.614 244.652 314.518 244.364 314.518 243.992V239.744C314.518 239.06 314.386 238.562 314.122 238.25C313.87 237.938 313.474 237.782 312.934 237.782C312.274 237.782 311.746 237.992 311.35 238.412C310.966 238.82 310.774 239.366 310.774 240.05V243.992C310.774 244.76 310.396 245.144 309.64 245.144Z" fill="#B0B0B0"/>
<rect x="1390" y="60" width="40" height="40" rx="10" fill="#4D4E50"/>
<path d="M1410.14 80.8916C1410.05 80.8795 1409.95 80.8795 1409.86 80.8916C1408.85 80.8572 1407.9 80.427 1407.2 79.6918C1406.5 78.9567 1406.11 77.9741 1406.11 76.9518C1406.11 74.7711 1407.84 73 1410 73C1411.02 72.9982 1412 73.4034 1412.73 74.1282C1413.46 74.853 1413.88 75.8394 1413.89 76.8747C1413.91 77.91 1413.53 78.9113 1412.83 79.6627C1412.13 80.4141 1411.16 80.8554 1410.14 80.8916V80.8916ZM1418 88.8434C1415.82 90.8784 1412.96 92.0053 1410 92C1406.91 92 1404.11 90.8072 1402 88.8434C1402.12 87.7108 1402.83 86.6024 1404.1 85.7349C1407.35 83.5422 1412.67 83.5422 1415.9 85.7349C1417.17 86.6024 1417.88 87.7108 1418 88.8434V88.8434Z" stroke="white" stroke-width="1.5" stroke-linecap="round" stroke-linejoin="round"/>
<path d="M1410 92C1416.63 92 1422 86.6276 1422 80C1422 73.3724 1416.63 68 1410 68C1403.37 68 1398 73.3724 1398 80C1398 86.6276 1403.37 92 1410 92Z" stroke="white" stroke-width="1.5" stroke-linecap="round" stroke-linejoin="round"/>
<rect x="1193" y="220" width="40" height="40" rx="10" fill="#4D4E50"/>
<path d="M1221 248L1219.4 246.4M1212.6 247.2C1213.6 247.2 1214.59 247.003 1215.51 246.621C1216.43 246.24 1217.27 245.68 1217.97 244.974C1218.68 244.268 1219.24 243.43 1219.62 242.508C1220 241.586 1220.2 240.598 1220.2 239.6C1220.2 238.602 1220 237.614 1219.62 236.692C1219.24 235.77 1218.68 234.932 1217.97 234.226C1217.27 233.52 1216.43 232.96 1215.51 232.579C1214.59 232.197 1213.6 232 1212.6 232C1210.58 232 1208.65 232.801 1207.23 234.226C1205.8 235.651 1205 237.584 1205 239.6C1205 241.616 1205.8 243.549 1207.23 244.974C1208.65 246.399 1210.58 247.2 1212.6 247.2Z" stroke="white" stroke-width="1.5" stroke-linecap="round" stroke-linejoin="round"/>
<path d="M75.1519 71.3413V71.2464C77.3189 70.1089 79.0012 68.4384 80.2009 66.2348C81.4007 64.0312 81.9995 61.7498 81.9995 59.3908C81.9995 56.313 81.0216 53.9799 79.0658 52.3871C77.1099 50.7943 74.0577 50 69.9155 50H64.8234L63.5913 60.2433H66.9495C69.1379 60.2433 70.23 61.1822 70.23 63.0578C70.23 64.5125 69.7626 65.7448 68.8256 66.7571C67.8886 67.7693 66.6953 68.2744 65.2435 68.2744H62.6242L61.573 77.0004H65.8768C66.719 77.0004 67.4276 77.1321 68.0071 77.3954C68.5865 77.6587 69.0108 78.0235 69.2844 78.4853C69.558 78.9472 69.6937 79.4976 69.6937 80.13C69.6937 81.7098 69.125 83.0653 67.9898 84.1919C66.8547 85.3185 65.4438 85.884 63.7615 85.884H60.5025L59.2833 96.0022H66.663C68.8924 96.0022 70.9322 95.6115 72.7847 94.8324C74.635 94.0532 76.1988 92.9784 77.4696 91.6078C78.7405 90.2373 79.7249 88.5884 80.4206 86.661C81.1164 84.7336 81.461 82.6401 81.461 80.3846C81.4632 75.809 79.3587 72.796 75.1519 71.3413Z" fill="#323333"/>
<path d="M53.5858 50C53.3252 50 53.1033 50.1964 53.0732 50.4554L50.665 70.1823L50.0037 75.5781C49.9671 75.8867 50.2062 76.1587 50.5164 76.1587H50.5314C50.7921 76.1587 51.0139 75.9623 51.0441 75.7033L54.1006 50.5806C54.1373 50.2719 53.896 50 53.5858 50Z" fill="#323333"/>
<path d="M55.7012 50H55.6861C55.4255 50 55.2036 50.1964 55.1735 50.4554L51.4815 80.6329C51.4449 80.9415 51.684 81.2134 51.9941 81.2134H52.0092C52.2699 81.2134 52.4917 81.017 52.5219 80.758L56.2139 50.5806C56.2526 50.2719 56.0114 50 55.7012 50Z" fill="#323333"/>
<path d="M61.517 50.4554L56.0608 95.4194C56.0242 95.7281 56.2633 96 56.5735 96H56.6317C56.8944 96 57.1142 95.8036 57.1443 95.5446L62.5595 50.5806C62.5961 50.2719 62.357 50 62.0468 50H62.0318C61.769 50 61.5493 50.1964 61.517 50.4554Z" fill="#323333"/>
<path d="M59.9316 50H59.9165C59.6559 50 59.434 50.1964 59.4038 50.4554L54.6736 89.4474C54.637 89.756 54.8761 90.028 55.1863 90.028H55.2014C55.462 90.028 55.6839 89.8316 55.714 89.5726L60.4442 50.5806C60.4808 50.2719 60.2418 50 59.9316 50Z" fill="#323333"/>
<path d="M57.8163 50H57.8013C57.5385 50 57.3188 50.1964 57.2864 50.4554L53.0624 85.1221C53.0258 85.4308 53.2649 85.7027 53.5751 85.7027H53.5902C53.8508 85.7027 54.0727 85.5063 54.1028 85.2473L58.329 50.5806C58.3678 50.2719 58.1265 50 57.8163 50Z" fill="#323333"/>
<circle cx="239" cy="180" r="10" fill="#323333"/>
<circle cx="218" cy="180" r="5" fill="#323333"/>
<circle cx="204.5" cy="179.5" r="2.5" fill="#323333"/>
<circle cx="1241" cy="180" r="10" transform="rotate(-180 1241 180)" fill="#323333"/>
<circle cx="1262" cy="180" r="5" transform="rotate(-180 1262 180)" fill="#323333"/>
<circle cx="1275.5" cy="180.5" r="2.5" transform="rotate(-180 1275.5 180.5)" fill="#323333"/>
<rect x="336" y="806" width="80" height="80" rx="40" fill="#B0B0B0"/>
<rect x="220" y="350" width="80" height="80" rx="40" fill="#B0B0B0"/>
<rect x="340" y="350" width="80" height="80" rx="40" fill="#B0B0B0"/>
<rect x="460" y="350" width="80" height="80" rx="40" fill="#B0B0B0"/>
<rect x="580" y="347" width="80" height="80" rx="40" fill="#B0B0B0"/>
<rect x="700" y="347" width="80" height="80" rx="40" fill="#B0B0B0"/>
<rect x="820" y="340" width="80" height="80" rx="40" fill="#B0B0B0"/>
<rect x="940" y="347" width="80" height="80" rx="40" fill="#B0B0B0"/>
<rect x="1060" y="347" width="80" height="80" rx="40" fill="#B0B0B0"/>
<rect x="1060" y="806" width="80" height="80" rx="40" fill="#B0B0B0"/>
<rect x="220" y="502" width="80" height="80" rx="40" fill="#B0B0B0"/>
<rect x="340" y="502" width="80" height="80" rx="40" fill="#B0B0B0"/>
<rect x="460" y="498" width="80" height="80" rx="40" fill="#B0B0B0"/>
<rect x="580" y="806" width="80" height="80" rx="40" fill="#B0B0B0"/>
<rect x="1180" y="347" width="80" height="80" rx="40" fill="#B0B0B0"/>
<rect x="336" y="654" width="80" height="80" rx="40" fill="#B0B0B0"/>
<rect x="580" y="498" width="80" height="80" rx="40" fill="#B0B0B0"/>
<rect x="700" y="498" width="80" height="80" rx="40" fill="#B0B0B0"/>
<rect x="220" y="654" width="80" height="80" rx="40" fill="#B0B0B0"/>
<rect x="820" y="502" width="80" height="80" rx="40" fill="#B0B0B0"/>
<rect x="940" y="502" width="80" height="80" rx="40" fill="#B0B0B0"/>
<rect x="1060" y="498" width="80" height="80" rx="40" fill="#B0B0B0"/>
<rect x="1180" y="502" width="80" height="80" rx="40" fill="#B0B0B0"/>
<rect x="580" y="654" width="80" height="80" rx="40" fill="#B0B0B0"/>
<rect x="700" y="654" width="80" height="80" rx="40" fill="#B0B0B0"/>
<rect x="820" y="654" width="80" height="80" rx="40" fill="#B0B0B0"/>
<rect x="1060" y="654" width="80" height="80" rx="40" fill="#B0B0B0"/>
<rect x="940" y="657" width="80" height="80" rx="40" fill="#B0B0B0"/>
<rect x="460" y="654" width="80" height="80" rx="40" fill="#B0B0B0"/>
<rect x="1180" y="654" width="80" height="80" rx="40" fill="#B0B0B0"/>
<rect x="220" y="806" width="80" height="80" rx="40" fill="#B0B0B0"/>
<rect x="700" y="806" width="80" height="80" rx="40" fill="#B0B0B0"/>
<rect x="820" y="806" width="80" height="80" rx="40" fill="#B0B0B0"/>
<rect x="940" y="806" width="80" height="80" rx="40" fill="#B0B0B0"/>
<rect x="1180" y="806" width="80" height="80" rx="40" fill="#B0B0B0"/>
<rect x="460" y="806" width="80" height="80" rx="40" fill="#B0B0B0"/>
</svg>
