<svg width="1480" height="1780" viewBox="0 0 1480 1780" fill="none" xmlns="http://www.w3.org/2000/svg">
<rect width="1480" height="1000" rx="20" fill="white"/>
<rect x="0.999023" y="0.9375" width="1478" height="998.124" rx="20" fill="black"/>
<rect x="20" y="20" width="1440" height="960" fill="#323333"/>
<rect x="1390" y="60" width="40" height="40" rx="10" fill="white"/>
<path d="M1410.14 80.8916C1410.05 80.8795 1409.95 80.8795 1409.86 80.8916C1408.85 80.8572 1407.9 80.427 1407.2 79.6918C1406.5 78.9567 1406.11 77.9741 1406.11 76.9518C1406.11 74.7711 1407.84 73 1410 73C1411.02 72.9982 1412 73.4034 1412.73 74.1282C1413.46 74.853 1413.88 75.8394 1413.89 76.8747C1413.91 77.91 1413.53 78.9113 1412.83 79.6627C1412.13 80.4141 1411.16 80.8554 1410.14 80.8916V80.8916ZM1418 88.8434C1415.82 90.8784 1412.96 92.0053 1410 92C1406.91 92 1404.11 90.8072 1402 88.8434C1402.12 87.7108 1402.83 86.6024 1404.1 85.7349C1407.35 83.5422 1412.67 83.5422 1415.9 85.7349C1417.17 86.6024 1417.88 87.7108 1418 88.8434V88.8434Z" stroke="black" stroke-width="1.5" stroke-linecap="round" stroke-linejoin="round"/>
<path d="M1410 92C1416.63 92 1422 86.6276 1422 80C1422 73.3724 1416.63 68 1410 68C1403.37 68 1398 73.3724 1398 80C1398 86.6276 1403.37 92 1410 92Z" stroke="black" stroke-width="1.5" stroke-linecap="round" stroke-linejoin="round"/>
<rect x="1370" y="900" width="60" height="40" rx="10" fill="white"/>
<path d="M1405.99 927H1396.15C1392.76 927 1390 924.515 1390 921.453C1390 918.391 1392.76 915.906 1396.15 915.906H1409.68" stroke="black" stroke-width="1.5" stroke-miterlimit="10" stroke-linecap="round" stroke-linejoin="round"/>
<path d="M1406.85 918.68L1410 915.84L1406.85 913" stroke="black" stroke-width="1.5" stroke-linecap="round" stroke-linejoin="round"/>
<rect x="50" y="900" width="60" height="40" rx="10" fill="white"/>
<path d="M74.0096 927H83.8498C87.2447 927 90 924.515 90 921.453C90 918.391 87.2447 915.906 83.8498 915.906H70.3194" stroke="black" stroke-width="1.5" stroke-miterlimit="10" stroke-linecap="round" stroke-linejoin="round"/>
<path d="M73.1489 918.68L70 915.84L73.1489 913" stroke="black" stroke-width="1.5" stroke-linecap="round" stroke-linejoin="round"/>
<rect x="434.5" y="60.5" width="612" height="1719" rx="9.5" fill="white" stroke="black"/>
<rect x="476.5" y="1306.5" width="532" height="199" rx="9.5" fill="#EDEDED" stroke="black"/>
<rect x="476.5" y="1590.5" width="149" height="149" rx="9.5" fill="#EDEDED" stroke="black"/>
<rect x="859.5" y="1590.5" width="149" height="149" rx="9.5" fill="#EDEDED" stroke="black"/>
<rect x="668.5" y="1590.5" width="149" height="149" rx="9.5" fill="#EDEDED" stroke="black"/>
<path d="M503.384 1284.19C502.888 1284.19 502.504 1284.06 502.232 1283.78C501.976 1283.5 501.848 1283.1 501.848 1282.61V1268.64C501.848 1268.13 501.984 1267.74 502.256 1267.49C502.528 1267.22 502.912 1267.08 503.408 1267.08H509.192C511.048 1267.08 512.48 1267.54 513.488 1268.47C514.496 1269.4 515 1270.7 515 1272.36C515 1274.02 514.496 1275.33 513.488 1276.27C512.48 1277.2 511.048 1277.66 509.192 1277.66H504.92V1282.61C504.92 1283.1 504.792 1283.5 504.536 1283.78C504.28 1284.06 503.896 1284.19 503.384 1284.19ZM504.92 1275.24H508.712C509.8 1275.24 510.624 1275 511.184 1274.52C511.744 1274.02 512.024 1273.3 512.024 1272.36C512.024 1271.42 511.744 1270.7 511.184 1270.22C510.624 1269.74 509.8 1269.5 508.712 1269.5H504.92V1275.24ZM518.518 1284.19C518.022 1284.19 517.638 1284.06 517.366 1283.81C517.11 1283.54 516.982 1283.15 516.982 1282.66V1273.58C516.982 1273.09 517.11 1272.71 517.366 1272.46C517.622 1272.2 517.982 1272.07 518.446 1272.07C518.91 1272.07 519.27 1272.2 519.526 1272.46C519.782 1272.71 519.91 1273.09 519.91 1273.58V1275.1H519.67C519.894 1274.14 520.334 1273.41 520.99 1272.91C521.646 1272.42 522.518 1272.12 523.606 1272.02C523.942 1271.99 524.206 1272.08 524.398 1272.29C524.606 1272.48 524.726 1272.78 524.758 1273.2C524.79 1273.6 524.694 1273.93 524.47 1274.18C524.262 1274.42 523.942 1274.57 523.51 1274.62L522.982 1274.66C522.006 1274.76 521.27 1275.06 520.774 1275.58C520.278 1276.07 520.03 1276.78 520.03 1277.69V1282.66C520.03 1283.15 519.902 1283.54 519.646 1283.81C519.39 1284.06 519.014 1284.19 518.518 1284.19ZM531.545 1284.24C530.329 1284.24 529.273 1283.99 528.377 1283.5C527.481 1283 526.785 1282.3 526.289 1281.38C525.793 1280.46 525.545 1279.37 525.545 1278.12C525.545 1277.18 525.681 1276.34 525.953 1275.6C526.241 1274.85 526.649 1274.21 527.177 1273.68C527.705 1273.14 528.337 1272.73 529.073 1272.46C529.809 1272.17 530.633 1272.02 531.545 1272.02C532.761 1272.02 533.817 1272.27 534.713 1272.77C535.609 1273.26 536.305 1273.97 536.801 1274.88C537.297 1275.79 537.545 1276.87 537.545 1278.12C537.545 1279.06 537.401 1279.91 537.113 1280.66C536.841 1281.42 536.441 1282.06 535.913 1282.61C535.385 1283.14 534.753 1283.54 534.017 1283.83C533.281 1284.1 532.457 1284.24 531.545 1284.24ZM531.545 1281.96C532.137 1281.96 532.657 1281.82 533.105 1281.53C533.553 1281.24 533.897 1280.82 534.137 1280.26C534.393 1279.68 534.521 1278.97 534.521 1278.12C534.521 1276.84 534.249 1275.89 533.705 1275.26C533.161 1274.62 532.441 1274.3 531.545 1274.3C530.953 1274.3 530.433 1274.45 529.985 1274.74C529.537 1275.01 529.185 1275.43 528.929 1276.01C528.689 1276.57 528.569 1277.27 528.569 1278.12C528.569 1279.38 528.841 1280.34 529.385 1281C529.929 1281.64 530.649 1281.96 531.545 1281.96ZM538.581 1288.54C538.229 1288.57 537.941 1288.51 537.717 1288.37C537.493 1288.24 537.341 1288.07 537.261 1287.86C537.165 1287.66 537.133 1287.44 537.165 1287.22C537.197 1286.99 537.293 1286.79 537.453 1286.62C537.597 1286.46 537.797 1286.37 538.053 1286.35C538.773 1286.29 539.293 1286.08 539.613 1285.73C539.949 1285.39 540.117 1284.87 540.117 1284.17V1273.58C540.117 1273.09 540.245 1272.71 540.501 1272.46C540.773 1272.2 541.149 1272.07 541.629 1272.07C542.109 1272.07 542.477 1272.2 542.733 1272.46C542.989 1272.71 543.117 1273.09 543.117 1273.58V1283.9C543.117 1284.93 542.949 1285.77 542.613 1286.42C542.293 1287.08 541.797 1287.58 541.125 1287.91C540.469 1288.25 539.621 1288.46 538.581 1288.54ZM541.605 1269.86C541.045 1269.86 540.605 1269.73 540.285 1269.46C539.981 1269.17 539.829 1268.78 539.829 1268.28C539.829 1267.77 539.981 1267.38 540.285 1267.1C540.605 1266.83 541.045 1266.7 541.605 1266.7C542.181 1266.7 542.621 1266.83 542.925 1267.1C543.229 1267.38 543.381 1267.77 543.381 1268.28C543.381 1268.78 543.229 1269.17 542.925 1269.46C542.621 1269.73 542.181 1269.86 541.605 1269.86ZM552.016 1284.24C550.688 1284.24 549.544 1283.99 548.584 1283.5C547.624 1283 546.88 1282.3 546.352 1281.38C545.84 1280.47 545.584 1279.39 545.584 1278.14C545.584 1276.93 545.832 1275.86 546.328 1274.95C546.84 1274.04 547.536 1273.33 548.416 1272.82C549.312 1272.29 550.328 1272.02 551.464 1272.02C552.296 1272.02 553.04 1272.16 553.696 1272.43C554.368 1272.7 554.936 1273.1 555.4 1273.61C555.88 1274.12 556.24 1274.74 556.48 1275.48C556.736 1276.2 556.864 1277.02 556.864 1277.93C556.864 1278.22 556.76 1278.44 556.552 1278.6C556.36 1278.74 556.08 1278.82 555.712 1278.82H548.008V1277.09H554.752L554.368 1277.45C554.368 1276.71 554.256 1276.1 554.032 1275.6C553.824 1275.1 553.512 1274.73 553.096 1274.47C552.696 1274.2 552.192 1274.06 551.584 1274.06C550.912 1274.06 550.336 1274.22 549.856 1274.54C549.392 1274.85 549.032 1275.29 548.776 1275.86C548.536 1276.42 548.416 1277.1 548.416 1277.88V1278.05C548.416 1279.36 548.72 1280.34 549.328 1281C549.952 1281.64 550.864 1281.96 552.064 1281.96C552.48 1281.96 552.944 1281.91 553.456 1281.82C553.984 1281.7 554.48 1281.52 554.944 1281.26C555.28 1281.07 555.576 1280.99 555.832 1281.02C556.088 1281.04 556.288 1281.13 556.432 1281.29C556.592 1281.45 556.688 1281.65 556.72 1281.89C556.752 1282.11 556.704 1282.34 556.576 1282.58C556.464 1282.82 556.264 1283.03 555.976 1283.21C555.416 1283.56 554.768 1283.82 554.032 1284C553.312 1284.16 552.64 1284.24 552.016 1284.24ZM564.664 1284.24C563.432 1284.24 562.36 1283.99 561.448 1283.5C560.536 1282.98 559.832 1282.26 559.336 1281.34C558.84 1280.41 558.592 1279.32 558.592 1278.07C558.592 1277.13 558.728 1276.29 559 1275.55C559.288 1274.8 559.696 1274.17 560.224 1273.66C560.752 1273.13 561.392 1272.73 562.144 1272.46C562.896 1272.17 563.736 1272.02 564.664 1272.02C565.192 1272.02 565.76 1272.1 566.368 1272.24C566.992 1272.38 567.576 1272.62 568.12 1272.96C568.376 1273.12 568.544 1273.31 568.624 1273.54C568.704 1273.76 568.72 1273.99 568.672 1274.23C568.624 1274.46 568.52 1274.66 568.36 1274.83C568.216 1274.99 568.032 1275.1 567.808 1275.14C567.584 1275.18 567.336 1275.12 567.064 1274.98C566.712 1274.77 566.352 1274.62 565.984 1274.52C565.616 1274.41 565.264 1274.35 564.928 1274.35C564.4 1274.35 563.936 1274.44 563.536 1274.62C563.136 1274.78 562.792 1275.02 562.504 1275.34C562.232 1275.64 562.024 1276.02 561.88 1276.49C561.736 1276.95 561.664 1277.49 561.664 1278.1C561.664 1279.28 561.944 1280.22 562.504 1280.9C563.08 1281.58 563.888 1281.91 564.928 1281.91C565.264 1281.91 565.608 1281.86 565.96 1281.77C566.328 1281.67 566.696 1281.52 567.064 1281.31C567.336 1281.17 567.576 1281.12 567.784 1281.17C568.008 1281.22 568.192 1281.33 568.336 1281.5C568.48 1281.66 568.568 1281.86 568.6 1282.1C568.632 1282.33 568.6 1282.55 568.504 1282.78C568.424 1283 568.264 1283.18 568.024 1283.33C567.496 1283.65 566.936 1283.88 566.344 1284.02C565.752 1284.17 565.192 1284.24 564.664 1284.24ZM575.983 1284.24C574.943 1284.24 574.071 1284.06 573.367 1283.71C572.679 1283.36 572.167 1282.85 571.831 1282.18C571.495 1281.49 571.327 1280.64 571.327 1279.63V1274.52H570.079C569.695 1274.52 569.399 1274.42 569.191 1274.23C568.983 1274.02 568.879 1273.74 568.879 1273.39C568.879 1273.02 568.983 1272.74 569.191 1272.55C569.399 1272.36 569.695 1272.26 570.079 1272.26H571.327V1270.08C571.327 1269.58 571.455 1269.21 571.711 1268.95C571.983 1268.7 572.359 1268.57 572.839 1268.57C573.319 1268.57 573.687 1268.7 573.943 1268.95C574.199 1269.21 574.327 1269.58 574.327 1270.08V1272.26H576.871C577.255 1272.26 577.551 1272.36 577.759 1272.55C577.967 1272.74 578.071 1273.02 578.071 1273.39C578.071 1273.74 577.967 1274.02 577.759 1274.23C577.551 1274.42 577.255 1274.52 576.871 1274.52H574.327V1279.46C574.327 1280.23 574.495 1280.81 574.831 1281.19C575.167 1281.58 575.711 1281.77 576.463 1281.77C576.735 1281.77 576.975 1281.74 577.183 1281.7C577.391 1281.65 577.575 1281.62 577.735 1281.6C577.927 1281.58 578.087 1281.65 578.215 1281.79C578.343 1281.92 578.407 1282.19 578.407 1282.61C578.407 1282.93 578.351 1283.22 578.239 1283.47C578.143 1283.71 577.959 1283.88 577.687 1283.98C577.479 1284.04 577.207 1284.1 576.871 1284.14C576.535 1284.21 576.239 1284.24 575.983 1284.24Z" fill="black"/>
<path d="M509.984 1569.24C508.112 1569.24 506.528 1568.89 505.232 1568.18C503.952 1567.48 502.976 1566.48 502.304 1565.18C501.632 1563.89 501.296 1562.35 501.296 1560.58C501.296 1559.23 501.488 1558.02 501.872 1556.95C502.272 1555.88 502.84 1554.97 503.576 1554.22C504.328 1553.45 505.24 1552.86 506.312 1552.46C507.384 1552.05 508.6 1551.84 509.96 1551.84C510.856 1551.84 511.752 1551.95 512.648 1552.18C513.56 1552.38 514.416 1552.74 515.216 1553.26C515.488 1553.43 515.664 1553.65 515.744 1553.9C515.84 1554.16 515.856 1554.42 515.792 1554.7C515.728 1554.95 515.608 1555.18 515.432 1555.37C515.256 1555.56 515.032 1555.68 514.76 1555.73C514.504 1555.78 514.216 1555.71 513.896 1555.54C513.288 1555.18 512.672 1554.93 512.048 1554.77C511.424 1554.61 510.728 1554.53 509.96 1554.53C508.776 1554.53 507.776 1554.77 506.96 1555.25C506.144 1555.71 505.528 1556.39 505.112 1557.29C504.712 1558.18 504.512 1559.28 504.512 1560.58C504.512 1562.54 504.984 1564.04 505.928 1565.06C506.872 1566.09 508.272 1566.6 510.128 1566.6C510.768 1566.6 511.416 1566.54 512.072 1566.41C512.728 1566.28 513.368 1566.1 513.992 1565.88L513.392 1567.25V1562.14H510.752C510.352 1562.14 510.04 1562.03 509.816 1561.82C509.608 1561.62 509.504 1561.34 509.504 1560.98C509.504 1560.62 509.608 1560.34 509.816 1560.14C510.04 1559.95 510.352 1559.86 510.752 1559.86H514.712C515.112 1559.86 515.416 1559.97 515.624 1560.19C515.848 1560.4 515.96 1560.7 515.96 1561.1V1566.94C515.96 1567.29 515.888 1567.58 515.744 1567.82C515.616 1568.06 515.4 1568.24 515.096 1568.35C514.392 1568.61 513.584 1568.82 512.672 1569C511.76 1569.16 510.864 1569.24 509.984 1569.24ZM523.096 1569.24C522.248 1569.24 521.488 1569.08 520.816 1568.76C520.16 1568.42 519.64 1567.98 519.256 1567.42C518.888 1566.86 518.704 1566.22 518.704 1565.52C518.704 1564.66 518.928 1563.98 519.376 1563.48C519.824 1562.97 520.552 1562.6 521.56 1562.38C522.568 1562.15 523.92 1562.04 525.616 1562.04H526.816V1563.77H525.64C524.648 1563.77 523.856 1563.82 523.264 1563.91C522.672 1564.01 522.248 1564.18 521.992 1564.42C521.752 1564.64 521.632 1564.96 521.632 1565.38C521.632 1565.9 521.816 1566.34 522.184 1566.67C522.552 1567.01 523.064 1567.18 523.72 1567.18C524.248 1567.18 524.712 1567.06 525.112 1566.82C525.528 1566.56 525.856 1566.22 526.096 1565.78C526.336 1565.35 526.456 1564.86 526.456 1564.3V1561.54C526.456 1560.74 526.28 1560.16 525.928 1559.81C525.576 1559.46 524.984 1559.28 524.152 1559.28C523.688 1559.28 523.184 1559.34 522.64 1559.45C522.112 1559.56 521.552 1559.75 520.96 1560.02C520.656 1560.17 520.384 1560.21 520.144 1560.14C519.92 1560.08 519.744 1559.95 519.616 1559.76C519.488 1559.55 519.424 1559.33 519.424 1559.09C519.424 1558.85 519.488 1558.62 519.616 1558.39C519.744 1558.15 519.96 1557.98 520.264 1557.86C521 1557.56 521.704 1557.34 522.376 1557.22C523.064 1557.09 523.688 1557.02 524.248 1557.02C525.4 1557.02 526.344 1557.2 527.08 1557.55C527.832 1557.9 528.392 1558.44 528.76 1559.16C529.128 1559.86 529.312 1560.78 529.312 1561.9V1567.66C529.312 1568.15 529.192 1568.54 528.952 1568.81C528.712 1569.06 528.368 1569.19 527.92 1569.19C527.472 1569.19 527.12 1569.06 526.864 1568.81C526.624 1568.54 526.504 1568.15 526.504 1567.66V1566.5H526.696C526.584 1567.06 526.36 1567.55 526.024 1567.97C525.704 1568.37 525.296 1568.68 524.8 1568.9C524.304 1569.13 523.736 1569.24 523.096 1569.24ZM536.365 1569.24C535.037 1569.24 534.037 1568.86 533.365 1568.11C532.693 1567.34 532.357 1566.22 532.357 1564.75V1553.4C532.357 1552.9 532.485 1552.53 532.741 1552.27C532.997 1552.02 533.365 1551.89 533.845 1551.89C534.325 1551.89 534.693 1552.02 534.949 1552.27C535.221 1552.53 535.357 1552.9 535.357 1553.4V1564.61C535.357 1565.34 535.509 1565.89 535.813 1566.24C536.133 1566.59 536.581 1566.77 537.157 1566.77C537.285 1566.77 537.405 1566.77 537.517 1566.77C537.629 1566.75 537.741 1566.74 537.853 1566.72C538.077 1566.69 538.229 1566.75 538.309 1566.91C538.389 1567.06 538.429 1567.36 538.429 1567.82C538.429 1568.22 538.349 1568.54 538.189 1568.76C538.029 1568.98 537.765 1569.12 537.397 1569.17C537.237 1569.18 537.069 1569.2 536.893 1569.22C536.717 1569.23 536.541 1569.24 536.365 1569.24ZM544.029 1569.24C542.701 1569.24 541.701 1568.86 541.029 1568.11C540.357 1567.34 540.021 1566.22 540.021 1564.75V1553.4C540.021 1552.9 540.149 1552.53 540.405 1552.27C540.661 1552.02 541.029 1551.89 541.509 1551.89C541.989 1551.89 542.357 1552.02 542.613 1552.27C542.885 1552.53 543.021 1552.9 543.021 1553.4V1564.61C543.021 1565.34 543.173 1565.89 543.477 1566.24C543.797 1566.59 544.245 1566.77 544.821 1566.77C544.949 1566.77 545.069 1566.77 545.181 1566.77C545.293 1566.75 545.405 1566.74 545.517 1566.72C545.741 1566.69 545.893 1566.75 545.973 1566.91C546.053 1567.06 546.093 1567.36 546.093 1567.82C546.093 1568.22 546.013 1568.54 545.853 1568.76C545.693 1568.98 545.429 1569.12 545.061 1569.17C544.901 1569.18 544.733 1569.2 544.557 1569.22C544.381 1569.23 544.205 1569.24 544.029 1569.24ZM553.352 1569.24C552.024 1569.24 550.88 1568.99 549.92 1568.5C548.96 1568 548.216 1567.3 547.688 1566.38C547.176 1565.47 546.92 1564.39 546.92 1563.14C546.92 1561.93 547.168 1560.86 547.664 1559.95C548.176 1559.04 548.872 1558.33 549.752 1557.82C550.648 1557.29 551.664 1557.02 552.8 1557.02C553.632 1557.02 554.376 1557.16 555.032 1557.43C555.704 1557.7 556.272 1558.1 556.736 1558.61C557.216 1559.12 557.576 1559.74 557.816 1560.48C558.072 1561.2 558.2 1562.02 558.2 1562.93C558.2 1563.22 558.096 1563.44 557.888 1563.6C557.696 1563.74 557.416 1563.82 557.048 1563.82H549.344V1562.09H556.088L555.704 1562.45C555.704 1561.71 555.592 1561.1 555.368 1560.6C555.16 1560.1 554.848 1559.73 554.432 1559.47C554.032 1559.2 553.528 1559.06 552.92 1559.06C552.248 1559.06 551.672 1559.22 551.192 1559.54C550.728 1559.85 550.368 1560.29 550.112 1560.86C549.872 1561.42 549.752 1562.1 549.752 1562.88V1563.05C549.752 1564.36 550.056 1565.34 550.664 1566C551.288 1566.64 552.2 1566.96 553.4 1566.96C553.816 1566.96 554.28 1566.91 554.792 1566.82C555.32 1566.7 555.816 1566.52 556.28 1566.26C556.616 1566.07 556.912 1565.99 557.168 1566.02C557.424 1566.04 557.624 1566.13 557.768 1566.29C557.928 1566.45 558.024 1566.65 558.056 1566.89C558.088 1567.11 558.04 1567.34 557.912 1567.58C557.8 1567.82 557.6 1568.03 557.312 1568.21C556.752 1568.56 556.104 1568.82 555.368 1569C554.648 1569.16 553.976 1569.24 553.352 1569.24ZM562.112 1569.19C561.616 1569.19 561.232 1569.06 560.96 1568.81C560.704 1568.54 560.576 1568.15 560.576 1567.66V1558.58C560.576 1558.09 560.704 1557.71 560.96 1557.46C561.216 1557.2 561.576 1557.07 562.04 1557.07C562.504 1557.07 562.864 1557.2 563.12 1557.46C563.376 1557.71 563.504 1558.09 563.504 1558.58V1560.1H563.264C563.488 1559.14 563.928 1558.41 564.584 1557.91C565.24 1557.42 566.112 1557.12 567.2 1557.02C567.536 1556.99 567.8 1557.08 567.992 1557.29C568.2 1557.48 568.32 1557.78 568.352 1558.2C568.384 1558.6 568.288 1558.93 568.064 1559.18C567.856 1559.42 567.536 1559.57 567.104 1559.62L566.576 1559.66C565.6 1559.76 564.864 1560.06 564.368 1560.58C563.872 1561.07 563.624 1561.78 563.624 1562.69V1567.66C563.624 1568.15 563.496 1568.54 563.24 1568.81C562.984 1569.06 562.608 1569.19 562.112 1569.19ZM573.677 1573.51C573.325 1573.51 573.037 1573.42 572.813 1573.22C572.589 1573.05 572.453 1572.81 572.405 1572.5C572.373 1572.2 572.429 1571.88 572.573 1571.54L574.205 1567.92V1569.17L569.837 1559.06C569.693 1558.71 569.645 1558.38 569.693 1558.08C569.741 1557.78 569.885 1557.54 570.125 1557.36C570.381 1557.17 570.725 1557.07 571.157 1557.07C571.525 1557.07 571.821 1557.16 572.045 1557.34C572.269 1557.5 572.469 1557.81 572.645 1558.27L575.885 1566.36H575.165L578.477 1558.25C578.653 1557.8 578.861 1557.5 579.101 1557.34C579.341 1557.16 579.661 1557.07 580.061 1557.07C580.413 1557.07 580.693 1557.17 580.901 1557.36C581.109 1557.54 581.237 1557.78 581.285 1558.08C581.333 1558.37 581.277 1558.69 581.117 1559.04L575.285 1572.36C575.077 1572.81 574.853 1573.11 574.613 1573.27C574.373 1573.43 574.061 1573.51 573.677 1573.51Z" fill="black"/>
<path d="M478 1271H490M479.2 1272.89H488.8C489.34 1272.89 489.64 1273.44 489.34 1273.83L484.54 1280.71C484.3 1281.1 483.7 1281.1 483.4 1280.71L478.6 1273.83C478.36 1273.39 478.72 1272.89 479.2 1272.89V1272.89Z" stroke="black" stroke-miterlimit="10" stroke-linecap="round" stroke-linejoin="round"/>
<path d="M478 1557H490M479.2 1558.89H488.8C489.34 1558.89 489.64 1559.44 489.34 1559.83L484.54 1566.71C484.3 1567.1 483.7 1567.1 483.4 1566.71L478.6 1559.83C478.36 1559.39 478.72 1558.89 479.2 1558.89V1558.89Z" stroke="black" stroke-miterlimit="10" stroke-linecap="round" stroke-linejoin="round"/>
<path d="M474 457H486M475.2 458.886H484.8C485.34 458.886 485.64 459.441 485.34 459.829L480.54 466.709C480.3 467.097 479.7 467.097 479.4 466.709L474.6 459.829C474.36 459.386 474.72 458.886 475.2 458.886V458.886Z" stroke="black" stroke-miterlimit="10" stroke-linecap="round" stroke-linejoin="round"/>
<path d="M474 641H486M475.2 642.886H484.8C485.34 642.886 485.64 643.441 485.34 643.829L480.54 650.709C480.3 651.097 479.7 651.097 479.4 650.709L474.6 643.829C474.36 643.386 474.72 642.886 475.2 642.886V642.886Z" stroke="black" stroke-miterlimit="10" stroke-linecap="round" stroke-linejoin="round"/>
<path d="M474 826H486M475.2 827.886H484.8C485.34 827.886 485.64 828.441 485.34 828.829L480.54 835.709C480.3 836.097 479.7 836.097 479.4 835.709L474.6 828.829C474.36 828.386 474.72 827.886 475.2 827.886V827.886Z" stroke="black" stroke-miterlimit="10" stroke-linecap="round" stroke-linejoin="round"/>
<path d="M474 1007H486M475.2 1008.89H484.8C485.34 1008.89 485.64 1009.44 485.34 1009.83L480.54 1016.71C480.3 1017.1 479.7 1017.1 479.4 1016.71L474.6 1009.83C474.36 1009.39 474.72 1008.89 475.2 1008.89V1008.89Z" stroke="black" stroke-miterlimit="10" stroke-linecap="round" stroke-linejoin="round"/>
<path d="M474 1194H486M475.2 1195.89H484.8C485.34 1195.89 485.64 1196.44 485.34 1196.83L480.54 1203.71C480.3 1204.1 479.7 1204.1 479.4 1203.71L474.6 1196.83C474.36 1196.39 474.72 1195.89 475.2 1195.89V1195.89Z" stroke="black" stroke-miterlimit="10" stroke-linecap="round" stroke-linejoin="round"/>
<path d="M763 639H775M764.2 640.886H773.8C774.34 640.886 774.64 641.441 774.34 641.829L769.54 648.709C769.3 649.097 768.7 649.097 768.4 648.709L763.6 641.829C763.36 641.386 763.72 640.886 764.2 640.886V640.886Z" stroke="black" stroke-miterlimit="10" stroke-linecap="round" stroke-linejoin="round"/>
<rect x="474.5" y="491.5" width="532" height="99" rx="9.5" fill="#EDEDED" stroke="black"/>
<rect x="474.5" y="1043.5" width="532" height="99" rx="9.5" fill="#EDEDED" stroke="black"/>
<rect x="474.5" y="859.5" width="532" height="99" rx="9.5" fill="#EDEDED" stroke="black"/>
<rect x="761.5" y="675.5" width="245" height="99" rx="9.5" fill="#EDEDED" stroke="black"/>
<rect x="474.5" y="675.5" width="245" height="99" rx="9.5" fill="#EDEDED" stroke="black"/>
<path d="M498.016 469.192C497.632 469.192 497.32 469.104 497.08 468.928C496.856 468.752 496.72 468.52 496.672 468.232C496.624 467.928 496.68 467.592 496.84 467.224L503.176 453.184C503.384 452.72 503.632 452.392 503.92 452.2C504.224 451.992 504.568 451.888 504.952 451.888C505.32 451.888 505.648 451.992 505.936 452.2C506.24 452.392 506.496 452.72 506.704 453.184L513.064 467.224C513.24 467.592 513.304 467.928 513.256 468.232C513.208 468.536 513.072 468.776 512.848 468.952C512.624 469.112 512.328 469.192 511.96 469.192C511.512 469.192 511.16 469.088 510.904 468.88C510.664 468.656 510.448 468.32 510.256 467.872L508.696 464.248L509.992 465.088H499.864L501.16 464.248L499.624 467.872C499.416 468.336 499.2 468.672 498.976 468.88C498.752 469.088 498.432 469.192 498.016 469.192ZM504.904 455.416L501.544 463.408L500.92 462.64H508.936L508.336 463.408L504.952 455.416H504.904ZM522.187 469.24C521.195 469.24 520.323 468.992 519.571 468.496C518.835 468 518.347 467.336 518.107 466.504L518.371 465.904V467.656C518.371 468.152 518.243 468.536 517.987 468.808C517.731 469.064 517.371 469.192 516.907 469.192C516.427 469.192 516.059 469.064 515.803 468.808C515.547 468.536 515.419 468.152 515.419 467.656V453.4C515.419 452.904 515.547 452.528 515.803 452.272C516.059 452.016 516.427 451.888 516.907 451.888C517.387 451.888 517.755 452.016 518.011 452.272C518.283 452.528 518.419 452.904 518.419 453.4V459.64H518.131C518.387 458.856 518.883 458.224 519.619 457.744C520.355 457.264 521.211 457.024 522.187 457.024C523.227 457.024 524.131 457.272 524.899 457.768C525.667 458.264 526.267 458.968 526.699 459.88C527.131 460.776 527.347 461.856 527.347 463.12C527.347 464.368 527.131 465.456 526.699 466.384C526.267 467.296 525.659 468 524.875 468.496C524.107 468.992 523.211 469.24 522.187 469.24ZM521.347 466.96C521.939 466.96 522.459 466.816 522.907 466.528C523.355 466.24 523.699 465.816 523.939 465.256C524.195 464.68 524.323 463.968 524.323 463.12C524.323 461.84 524.051 460.888 523.507 460.264C522.963 459.624 522.243 459.304 521.347 459.304C520.755 459.304 520.235 459.448 519.787 459.736C519.339 460.008 518.987 460.432 518.731 461.008C518.491 461.568 518.371 462.272 518.371 463.12C518.371 464.384 518.643 465.344 519.187 466C519.731 466.64 520.451 466.96 521.347 466.96ZM535.162 469.24C533.946 469.24 532.89 468.992 531.994 468.496C531.098 468 530.402 467.296 529.906 466.384C529.41 465.456 529.162 464.368 529.162 463.12C529.162 462.176 529.298 461.336 529.57 460.6C529.858 459.848 530.266 459.208 530.794 458.68C531.322 458.136 531.954 457.728 532.69 457.456C533.426 457.168 534.25 457.024 535.162 457.024C536.378 457.024 537.434 457.272 538.33 457.768C539.226 458.264 539.922 458.968 540.418 459.88C540.914 460.792 541.162 461.872 541.162 463.12C541.162 464.064 541.018 464.912 540.73 465.664C540.458 466.416 540.058 467.064 539.53 467.608C539.002 468.136 538.37 468.544 537.634 468.832C536.898 469.104 536.074 469.24 535.162 469.24ZM535.162 466.96C535.754 466.96 536.274 466.816 536.722 466.528C537.17 466.24 537.514 465.816 537.754 465.256C538.01 464.68 538.138 463.968 538.138 463.12C538.138 461.84 537.866 460.888 537.322 460.264C536.778 459.624 536.058 459.304 535.162 459.304C534.57 459.304 534.05 459.448 533.602 459.736C533.154 460.008 532.802 460.432 532.546 461.008C532.306 461.568 532.186 462.272 532.186 463.12C532.186 464.384 532.458 465.344 533.002 466C533.546 466.64 534.266 466.96 535.162 466.96ZM547.886 469.24C546.91 469.24 546.102 469.064 545.462 468.712C544.822 468.344 544.342 467.8 544.022 467.08C543.718 466.36 543.566 465.464 543.566 464.392V458.584C543.566 458.072 543.694 457.696 543.95 457.456C544.206 457.2 544.574 457.072 545.054 457.072C545.534 457.072 545.902 457.2 546.158 457.456C546.43 457.696 546.566 458.072 546.566 458.584V464.44C546.566 465.272 546.734 465.888 547.07 466.288C547.406 466.688 547.942 466.888 548.678 466.888C549.478 466.888 550.134 466.616 550.646 466.072C551.158 465.512 551.414 464.776 551.414 463.864V458.584C551.414 458.072 551.542 457.696 551.798 457.456C552.054 457.2 552.422 457.072 552.902 457.072C553.382 457.072 553.75 457.2 554.006 457.456C554.278 457.696 554.414 458.072 554.414 458.584V467.656C554.414 468.68 553.926 469.192 552.95 469.192C552.486 469.192 552.126 469.064 551.87 468.808C551.614 468.536 551.486 468.152 551.486 467.656V465.832L551.822 466.552C551.486 467.416 550.974 468.08 550.286 468.544C549.614 469.008 548.814 469.24 547.886 469.24ZM562.913 469.24C561.873 469.24 561.001 469.064 560.297 468.712C559.609 468.36 559.097 467.848 558.761 467.176C558.425 466.488 558.257 465.64 558.257 464.632V459.52H557.009C556.625 459.52 556.329 459.424 556.121 459.232C555.913 459.024 555.809 458.744 555.809 458.392C555.809 458.024 555.913 457.744 556.121 457.552C556.329 457.36 556.625 457.264 557.009 457.264H558.257V455.08C558.257 454.584 558.385 454.208 558.641 453.952C558.913 453.696 559.289 453.568 559.769 453.568C560.249 453.568 560.617 453.696 560.873 453.952C561.129 454.208 561.257 454.584 561.257 455.08V457.264H563.801C564.185 457.264 564.481 457.36 564.689 457.552C564.897 457.744 565.001 458.024 565.001 458.392C565.001 458.744 564.897 459.024 564.689 459.232C564.481 459.424 564.185 459.52 563.801 459.52H561.257V464.464C561.257 465.232 561.425 465.808 561.761 466.192C562.097 466.576 562.641 466.768 563.393 466.768C563.665 466.768 563.905 466.744 564.113 466.696C564.321 466.648 564.505 466.616 564.665 466.6C564.857 466.584 565.017 466.648 565.145 466.792C565.273 466.92 565.337 467.192 565.337 467.608C565.337 467.928 565.281 468.216 565.169 468.472C565.073 468.712 564.889 468.88 564.617 468.976C564.409 469.04 564.137 469.096 563.801 469.144C563.465 469.208 563.169 469.24 562.913 469.24Z" fill="black"/>
<path d="M499.384 653.192C498.888 653.192 498.504 653.056 498.232 652.784C497.976 652.496 497.848 652.104 497.848 651.608V637.64C497.848 637.128 497.984 636.744 498.256 636.488C498.528 636.216 498.912 636.08 499.408 636.08H505.192C507.048 636.08 508.48 636.544 509.488 637.472C510.496 638.4 511 639.696 511 641.36C511 643.024 510.496 644.328 509.488 645.272C508.48 646.2 507.048 646.664 505.192 646.664H500.92V651.608C500.92 652.104 500.792 652.496 500.536 652.784C500.28 653.056 499.896 653.192 499.384 653.192ZM500.92 644.24H504.712C505.8 644.24 506.624 644 507.184 643.52C507.744 643.024 508.024 642.304 508.024 641.36C508.024 640.416 507.744 639.704 507.184 639.224C506.624 638.744 505.8 638.504 504.712 638.504H500.92V644.24ZM517.982 653.24C516.766 653.24 515.71 652.992 514.814 652.496C513.918 652 513.222 651.296 512.726 650.384C512.23 649.456 511.982 648.368 511.982 647.12C511.982 646.176 512.118 645.336 512.39 644.6C512.678 643.848 513.086 643.208 513.614 642.68C514.142 642.136 514.774 641.728 515.51 641.456C516.246 641.168 517.07 641.024 517.982 641.024C519.198 641.024 520.254 641.272 521.15 641.768C522.046 642.264 522.742 642.968 523.238 643.88C523.734 644.792 523.982 645.872 523.982 647.12C523.982 648.064 523.838 648.912 523.55 649.664C523.278 650.416 522.878 651.064 522.35 651.608C521.822 652.136 521.19 652.544 520.454 652.832C519.718 653.104 518.894 653.24 517.982 653.24ZM517.982 650.96C518.574 650.96 519.094 650.816 519.542 650.528C519.99 650.24 520.334 649.816 520.574 649.256C520.83 648.68 520.958 647.968 520.958 647.12C520.958 645.84 520.686 644.888 520.142 644.264C519.598 643.624 518.878 643.304 517.982 643.304C517.39 643.304 516.87 643.448 516.422 643.736C515.974 644.008 515.622 644.432 515.366 645.008C515.126 645.568 515.006 646.272 515.006 647.12C515.006 648.384 515.278 649.344 515.822 650C516.366 650.64 517.086 650.96 517.982 650.96ZM527.994 653.192C527.498 653.192 527.114 653.064 526.842 652.808C526.586 652.536 526.458 652.152 526.458 651.656V642.584C526.458 642.088 526.586 641.712 526.842 641.456C527.098 641.2 527.458 641.072 527.922 641.072C528.386 641.072 528.746 641.2 529.002 641.456C529.258 641.712 529.386 642.088 529.386 642.584V644.096H529.146C529.37 643.136 529.81 642.408 530.466 641.912C531.122 641.416 531.994 641.12 533.082 641.024C533.418 640.992 533.682 641.08 533.874 641.288C534.082 641.48 534.202 641.784 534.234 642.2C534.266 642.6 534.17 642.928 533.946 643.184C533.738 643.424 533.418 643.568 532.986 643.616L532.458 643.664C531.482 643.76 530.746 644.064 530.25 644.576C529.754 645.072 529.506 645.776 529.506 646.688V651.656C529.506 652.152 529.378 652.536 529.122 652.808C528.866 653.064 528.49 653.192 527.994 653.192ZM541.913 653.24C540.873 653.24 540.001 653.064 539.297 652.712C538.609 652.36 538.097 651.848 537.761 651.176C537.425 650.488 537.257 649.64 537.257 648.632V643.52H536.009C535.625 643.52 535.329 643.424 535.121 643.232C534.913 643.024 534.809 642.744 534.809 642.392C534.809 642.024 534.913 641.744 535.121 641.552C535.329 641.36 535.625 641.264 536.009 641.264H537.257V639.08C537.257 638.584 537.385 638.208 537.641 637.952C537.913 637.696 538.289 637.568 538.769 637.568C539.249 637.568 539.617 637.696 539.873 637.952C540.129 638.208 540.257 638.584 540.257 639.08V641.264H542.801C543.185 641.264 543.481 641.36 543.689 641.552C543.897 641.744 544.001 642.024 544.001 642.392C544.001 642.744 543.897 643.024 543.689 643.232C543.481 643.424 543.185 643.52 542.801 643.52H540.257V648.464C540.257 649.232 540.425 649.808 540.761 650.192C541.097 650.576 541.641 650.768 542.393 650.768C542.665 650.768 542.905 650.744 543.113 650.696C543.321 650.648 543.505 650.616 543.665 650.6C543.857 650.584 544.017 650.648 544.145 650.792C544.273 650.92 544.337 651.192 544.337 651.608C544.337 651.928 544.281 652.216 544.169 652.472C544.073 652.712 543.889 652.88 543.617 652.976C543.409 653.04 543.137 653.096 542.801 653.144C542.465 653.208 542.169 653.24 541.913 653.24ZM548.005 653.192C547.525 653.192 547.149 653.064 546.877 652.808C546.621 652.536 546.493 652.152 546.493 651.656V643.52H545.389C545.005 643.52 544.709 643.424 544.501 643.232C544.293 643.024 544.189 642.744 544.189 642.392C544.189 642.024 544.293 641.744 544.501 641.552C544.709 641.36 545.005 641.264 545.389 641.264H547.357L546.493 642.056V641.24C546.493 639.592 546.909 638.36 547.741 637.544C548.573 636.712 549.773 636.224 551.341 636.08L552.157 636.008C552.477 635.976 552.733 636.032 552.925 636.176C553.117 636.304 553.245 636.48 553.309 636.704C553.373 636.912 553.381 637.128 553.333 637.352C553.285 637.576 553.181 637.776 553.021 637.952C552.877 638.112 552.685 638.2 552.445 638.216L552.109 638.24C551.197 638.304 550.533 638.536 550.117 638.936C549.701 639.336 549.493 639.944 549.493 640.76V641.648L549.109 641.264H551.533C551.917 641.264 552.213 641.36 552.421 641.552C552.629 641.744 552.733 642.024 552.733 642.392C552.733 642.744 552.629 643.024 552.421 643.232C552.213 643.424 551.917 643.52 551.533 643.52H549.493V651.656C549.493 652.68 548.997 653.192 548.005 653.192ZM559.49 653.24C558.274 653.24 557.218 652.992 556.322 652.496C555.426 652 554.73 651.296 554.234 650.384C553.738 649.456 553.49 648.368 553.49 647.12C553.49 646.176 553.626 645.336 553.898 644.6C554.186 643.848 554.594 643.208 555.122 642.68C555.65 642.136 556.282 641.728 557.018 641.456C557.754 641.168 558.578 641.024 559.49 641.024C560.706 641.024 561.762 641.272 562.658 641.768C563.554 642.264 564.25 642.968 564.746 643.88C565.242 644.792 565.49 645.872 565.49 647.12C565.49 648.064 565.346 648.912 565.058 649.664C564.786 650.416 564.386 651.064 563.858 651.608C563.33 652.136 562.698 652.544 561.962 652.832C561.226 653.104 560.402 653.24 559.49 653.24ZM559.49 650.96C560.082 650.96 560.602 650.816 561.05 650.528C561.498 650.24 561.842 649.816 562.082 649.256C562.338 648.68 562.466 647.968 562.466 647.12C562.466 645.84 562.194 644.888 561.65 644.264C561.106 643.624 560.386 643.304 559.49 643.304C558.898 643.304 558.378 643.448 557.93 643.736C557.482 644.008 557.13 644.432 556.874 645.008C556.634 645.568 556.514 646.272 556.514 647.12C556.514 648.384 556.786 649.344 557.33 650C557.874 650.64 558.594 650.96 559.49 650.96ZM571.974 653.24C570.646 653.24 569.646 652.864 568.974 652.112C568.302 651.344 567.966 650.224 567.966 648.752V637.4C567.966 636.904 568.094 636.528 568.35 636.272C568.606 636.016 568.974 635.888 569.454 635.888C569.934 635.888 570.302 636.016 570.558 636.272C570.83 636.528 570.966 636.904 570.966 637.4V648.608C570.966 649.344 571.118 649.888 571.422 650.24C571.742 650.592 572.19 650.768 572.766 650.768C572.894 650.768 573.014 650.768 573.126 650.768C573.238 650.752 573.35 650.736 573.462 650.72C573.686 650.688 573.838 650.752 573.918 650.912C573.998 651.056 574.038 651.36 574.038 651.824C574.038 652.224 573.958 652.536 573.798 652.76C573.638 652.984 573.374 653.12 573.006 653.168C572.846 653.184 572.678 653.2 572.502 653.216C572.326 653.232 572.15 653.24 571.974 653.24ZM577.118 653.168C576.638 653.168 576.27 653.024 576.014 652.736C575.758 652.448 575.63 652.048 575.63 651.536V642.728C575.63 642.2 575.758 641.8 576.014 641.528C576.27 641.24 576.638 641.096 577.118 641.096C577.598 641.096 577.966 641.24 578.222 641.528C578.494 641.8 578.63 642.2 578.63 642.728V651.536C578.63 652.048 578.502 652.448 578.246 652.736C577.99 653.024 577.614 653.168 577.118 653.168ZM577.118 638.864C576.558 638.864 576.118 638.728 575.798 638.456C575.494 638.168 575.342 637.776 575.342 637.28C575.342 636.768 575.494 636.376 575.798 636.104C576.118 635.832 576.558 635.696 577.118 635.696C577.694 635.696 578.134 635.832 578.438 636.104C578.742 636.376 578.894 636.768 578.894 637.28C578.894 637.776 578.742 638.168 578.438 638.456C578.134 638.728 577.694 638.864 577.118 638.864ZM587.1 653.24C585.884 653.24 584.828 652.992 583.932 652.496C583.036 652 582.34 651.296 581.844 650.384C581.348 649.456 581.1 648.368 581.1 647.12C581.1 646.176 581.236 645.336 581.508 644.6C581.796 643.848 582.204 643.208 582.732 642.68C583.26 642.136 583.892 641.728 584.628 641.456C585.364 641.168 586.188 641.024 587.1 641.024C588.316 641.024 589.372 641.272 590.268 641.768C591.164 642.264 591.86 642.968 592.356 643.88C592.852 644.792 593.1 645.872 593.1 647.12C593.1 648.064 592.956 648.912 592.668 649.664C592.396 650.416 591.996 651.064 591.468 651.608C590.94 652.136 590.308 652.544 589.572 652.832C588.836 653.104 588.012 653.24 587.1 653.24ZM587.1 650.96C587.692 650.96 588.212 650.816 588.66 650.528C589.108 650.24 589.452 649.816 589.692 649.256C589.948 648.68 590.076 647.968 590.076 647.12C590.076 645.84 589.804 644.888 589.26 644.264C588.716 643.624 587.996 643.304 587.1 643.304C586.508 643.304 585.988 643.448 585.54 643.736C585.092 644.008 584.74 644.432 584.484 645.008C584.244 645.568 584.124 646.272 584.124 647.12C584.124 648.384 584.396 649.344 584.94 650C585.484 650.64 586.204 650.96 587.1 650.96Z" fill="black"/>
<path d="M503.68 838.24C502.976 838.24 502.272 838.184 501.568 838.072C500.864 837.976 500.2 837.824 499.576 837.616C498.952 837.392 498.392 837.12 497.896 836.8C497.608 836.608 497.408 836.376 497.296 836.104C497.184 835.832 497.144 835.568 497.176 835.312C497.224 835.04 497.328 834.808 497.488 834.616C497.664 834.408 497.88 834.28 498.136 834.232C498.392 834.184 498.672 834.256 498.976 834.448C499.68 834.864 500.424 835.168 501.208 835.36C501.992 835.552 502.816 835.648 503.68 835.648C504.944 835.648 505.864 835.44 506.44 835.024C507.016 834.592 507.304 834.04 507.304 833.368C507.304 832.808 507.096 832.368 506.68 832.048C506.28 831.728 505.584 831.464 504.592 831.256L501.952 830.704C500.432 830.384 499.296 829.848 498.544 829.096C497.808 828.328 497.44 827.32 497.44 826.072C497.44 825.288 497.6 824.576 497.92 823.936C498.24 823.296 498.688 822.744 499.264 822.28C499.856 821.816 500.552 821.464 501.352 821.224C502.168 820.968 503.064 820.84 504.04 820.84C505 820.84 505.912 820.96 506.776 821.2C507.64 821.44 508.416 821.792 509.104 822.256C509.36 822.432 509.528 822.648 509.608 822.904C509.704 823.16 509.728 823.416 509.68 823.672C509.632 823.912 509.52 824.12 509.344 824.296C509.168 824.472 508.944 824.576 508.672 824.608C508.416 824.64 508.12 824.56 507.784 824.368C507.192 824.032 506.592 823.792 505.984 823.648C505.376 823.504 504.72 823.432 504.016 823.432C503.28 823.432 502.648 823.536 502.12 823.744C501.592 823.952 501.184 824.248 500.896 824.632C500.624 825 500.488 825.44 500.488 825.952C500.488 826.528 500.68 826.992 501.064 827.344C501.448 827.68 502.104 827.944 503.032 828.136L505.648 828.688C507.232 829.024 508.408 829.552 509.176 830.272C509.96 830.992 510.352 831.952 510.352 833.152C510.352 833.92 510.192 834.616 509.872 835.24C509.568 835.864 509.12 836.4 508.528 836.848C507.952 837.296 507.256 837.64 506.44 837.88C505.624 838.12 504.704 838.24 503.68 838.24ZM518.125 838.24C516.893 838.24 515.821 837.992 514.909 837.496C513.997 836.984 513.293 836.264 512.797 835.336C512.301 834.408 512.053 833.32 512.053 832.072C512.053 831.128 512.189 830.288 512.461 829.552C512.749 828.8 513.157 828.168 513.685 827.656C514.213 827.128 514.853 826.728 515.605 826.456C516.357 826.168 517.197 826.024 518.125 826.024C518.653 826.024 519.221 826.096 519.829 826.24C520.453 826.384 521.037 826.624 521.581 826.96C521.837 827.12 522.005 827.312 522.085 827.536C522.165 827.76 522.181 827.992 522.133 828.232C522.085 828.456 521.981 828.656 521.821 828.832C521.677 828.992 521.493 829.096 521.269 829.144C521.045 829.176 520.797 829.12 520.525 828.976C520.173 828.768 519.813 828.616 519.445 828.52C519.077 828.408 518.725 828.352 518.389 828.352C517.861 828.352 517.397 828.44 516.997 828.616C516.597 828.776 516.253 829.016 515.965 829.336C515.693 829.64 515.485 830.024 515.341 830.488C515.197 830.952 515.125 831.488 515.125 832.096C515.125 833.28 515.405 834.216 515.965 834.904C516.541 835.576 517.349 835.912 518.389 835.912C518.725 835.912 519.069 835.864 519.421 835.768C519.789 835.672 520.157 835.52 520.525 835.312C520.797 835.168 521.037 835.12 521.245 835.168C521.469 835.216 521.653 835.328 521.797 835.504C521.941 835.664 522.029 835.864 522.061 836.104C522.093 836.328 522.061 836.552 521.965 836.776C521.885 837 521.725 837.184 521.485 837.328C520.957 837.648 520.397 837.88 519.805 838.024C519.213 838.168 518.653 838.24 518.125 838.24ZM525.509 838.192C525.029 838.192 524.661 838.064 524.405 837.808C524.149 837.536 524.021 837.152 524.021 836.656V822.4C524.021 821.904 524.149 821.528 524.405 821.272C524.661 821.016 525.029 820.888 525.509 820.888C525.989 820.888 526.357 821.016 526.613 821.272C526.885 821.528 527.021 821.904 527.021 822.4V828.616H526.685C527.037 827.768 527.581 827.128 528.317 826.696C529.069 826.248 529.917 826.024 530.861 826.024C531.805 826.024 532.581 826.2 533.189 826.552C533.797 826.904 534.253 827.44 534.557 828.16C534.861 828.864 535.013 829.76 535.013 830.848V836.656C535.013 837.152 534.885 837.536 534.629 837.808C534.373 838.064 534.005 838.192 533.525 838.192C533.045 838.192 532.669 838.064 532.397 837.808C532.141 837.536 532.013 837.152 532.013 836.656V830.992C532.013 830.08 531.837 829.416 531.485 829C531.149 828.584 530.621 828.376 529.901 828.376C529.021 828.376 528.317 828.656 527.789 829.216C527.277 829.76 527.021 830.488 527.021 831.4V836.656C527.021 837.68 526.517 838.192 525.509 838.192ZM543.412 838.24C542.196 838.24 541.14 837.992 540.244 837.496C539.348 837 538.652 836.296 538.156 835.384C537.66 834.456 537.412 833.368 537.412 832.12C537.412 831.176 537.548 830.336 537.82 829.6C538.108 828.848 538.516 828.208 539.044 827.68C539.572 827.136 540.204 826.728 540.94 826.456C541.676 826.168 542.5 826.024 543.412 826.024C544.628 826.024 545.684 826.272 546.58 826.768C547.476 827.264 548.172 827.968 548.668 828.88C549.164 829.792 549.412 830.872 549.412 832.12C549.412 833.064 549.268 833.912 548.98 834.664C548.708 835.416 548.308 836.064 547.78 836.608C547.252 837.136 546.62 837.544 545.884 837.832C545.148 838.104 544.324 838.24 543.412 838.24ZM543.412 835.96C544.004 835.96 544.524 835.816 544.972 835.528C545.42 835.24 545.764 834.816 546.004 834.256C546.26 833.68 546.388 832.968 546.388 832.12C546.388 830.84 546.116 829.888 545.572 829.264C545.028 828.624 544.308 828.304 543.412 828.304C542.82 828.304 542.3 828.448 541.852 828.736C541.404 829.008 541.052 829.432 540.796 830.008C540.556 830.568 540.436 831.272 540.436 832.12C540.436 833.384 540.708 834.344 541.252 835C541.796 835.64 542.516 835.96 543.412 835.96ZM557.24 838.24C556.024 838.24 554.968 837.992 554.072 837.496C553.176 837 552.48 836.296 551.984 835.384C551.488 834.456 551.24 833.368 551.24 832.12C551.24 831.176 551.376 830.336 551.648 829.6C551.936 828.848 552.344 828.208 552.872 827.68C553.4 827.136 554.032 826.728 554.768 826.456C555.504 826.168 556.328 826.024 557.24 826.024C558.456 826.024 559.512 826.272 560.408 826.768C561.304 827.264 562 827.968 562.496 828.88C562.992 829.792 563.24 830.872 563.24 832.12C563.24 833.064 563.096 833.912 562.808 834.664C562.536 835.416 562.136 836.064 561.608 836.608C561.08 837.136 560.448 837.544 559.712 837.832C558.976 838.104 558.152 838.24 557.24 838.24ZM557.24 835.96C557.832 835.96 558.352 835.816 558.8 835.528C559.248 835.24 559.592 834.816 559.832 834.256C560.088 833.68 560.216 832.968 560.216 832.12C560.216 830.84 559.944 829.888 559.4 829.264C558.856 828.624 558.136 828.304 557.24 828.304C556.648 828.304 556.128 828.448 555.68 828.736C555.232 829.008 554.88 829.432 554.624 830.008C554.384 830.568 554.264 831.272 554.264 832.12C554.264 833.384 554.536 834.344 555.08 835C555.624 835.64 556.344 835.96 557.24 835.96ZM569.724 838.24C568.396 838.24 567.396 837.864 566.724 837.112C566.052 836.344 565.716 835.224 565.716 833.752V822.4C565.716 821.904 565.844 821.528 566.1 821.272C566.356 821.016 566.724 820.888 567.204 820.888C567.684 820.888 568.052 821.016 568.308 821.272C568.58 821.528 568.716 821.904 568.716 822.4V833.608C568.716 834.344 568.868 834.888 569.172 835.24C569.492 835.592 569.94 835.768 570.516 835.768C570.644 835.768 570.764 835.768 570.876 835.768C570.988 835.752 571.1 835.736 571.212 835.72C571.436 835.688 571.588 835.752 571.668 835.912C571.748 836.056 571.788 836.36 571.788 836.824C571.788 837.224 571.708 837.536 571.548 837.76C571.388 837.984 571.124 838.12 570.756 838.168C570.596 838.184 570.428 838.2 570.252 838.216C570.076 838.232 569.9 838.24 569.724 838.24Z" fill="black"/>
<path d="M503.8 1021.19C503.368 1021.19 503.016 1021.09 502.744 1020.88C502.488 1020.67 502.28 1020.34 502.12 1019.9L497.104 1005.71C496.928 1005.2 496.96 1004.77 497.2 1004.42C497.456 1004.06 497.88 1003.89 498.472 1003.89C498.904 1003.89 499.24 1003.99 499.48 1004.2C499.72 1004.39 499.912 1004.7 500.056 1005.14L504.376 1017.95H503.416L507.928 1005.16C508.088 1004.73 508.288 1004.41 508.528 1004.2C508.768 1003.99 509.08 1003.89 509.464 1003.89C509.848 1003.89 510.152 1003.99 510.376 1004.2C510.6 1004.41 510.792 1004.74 510.952 1005.18L515.32 1017.95H514.48L518.872 1005.14C519.016 1004.72 519.208 1004.41 519.448 1004.2C519.688 1003.99 520.016 1003.89 520.432 1003.89C520.944 1003.89 521.32 1004.06 521.56 1004.42C521.8 1004.77 521.832 1005.2 521.656 1005.71L516.592 1019.92C516.432 1020.35 516.224 1020.67 515.968 1020.88C515.712 1021.09 515.368 1021.19 514.936 1021.19C514.504 1021.19 514.16 1021.09 513.904 1020.88C513.648 1020.67 513.44 1020.34 513.28 1019.9L509.104 1007.99H509.656L505.432 1019.92C505.272 1020.35 505.064 1020.67 504.808 1020.88C504.568 1021.09 504.232 1021.19 503.8 1021.19ZM528.131 1021.24C526.915 1021.24 525.859 1020.99 524.963 1020.5C524.067 1020 523.371 1019.3 522.875 1018.38C522.379 1017.46 522.131 1016.37 522.131 1015.12C522.131 1014.18 522.267 1013.34 522.539 1012.6C522.827 1011.85 523.235 1011.21 523.763 1010.68C524.291 1010.14 524.923 1009.73 525.659 1009.46C526.395 1009.17 527.219 1009.02 528.131 1009.02C529.347 1009.02 530.403 1009.27 531.299 1009.77C532.195 1010.26 532.891 1010.97 533.387 1011.88C533.883 1012.79 534.131 1013.87 534.131 1015.12C534.131 1016.06 533.987 1016.91 533.699 1017.66C533.427 1018.42 533.027 1019.06 532.499 1019.61C531.971 1020.14 531.339 1020.54 530.603 1020.83C529.867 1021.1 529.043 1021.24 528.131 1021.24ZM528.131 1018.96C528.723 1018.96 529.243 1018.82 529.691 1018.53C530.139 1018.24 530.483 1017.82 530.723 1017.26C530.979 1016.68 531.107 1015.97 531.107 1015.12C531.107 1013.84 530.835 1012.89 530.291 1012.26C529.747 1011.62 529.027 1011.3 528.131 1011.3C527.539 1011.3 527.019 1011.45 526.571 1011.74C526.123 1012.01 525.771 1012.43 525.515 1013.01C525.275 1013.57 525.155 1014.27 525.155 1015.12C525.155 1016.38 525.427 1017.34 525.971 1018C526.515 1018.64 527.235 1018.96 528.131 1018.96ZM538.143 1021.19C537.647 1021.19 537.263 1021.06 536.991 1020.81C536.735 1020.54 536.607 1020.15 536.607 1019.66V1010.58C536.607 1010.09 536.735 1009.71 536.991 1009.46C537.247 1009.2 537.607 1009.07 538.071 1009.07C538.535 1009.07 538.895 1009.2 539.151 1009.46C539.407 1009.71 539.535 1010.09 539.535 1010.58V1012.1H539.295C539.519 1011.14 539.959 1010.41 540.615 1009.91C541.271 1009.42 542.143 1009.12 543.231 1009.02C543.567 1008.99 543.831 1009.08 544.023 1009.29C544.231 1009.48 544.351 1009.78 544.383 1010.2C544.415 1010.6 544.319 1010.93 544.095 1011.18C543.887 1011.42 543.567 1011.57 543.135 1011.62L542.607 1011.66C541.631 1011.76 540.895 1012.06 540.399 1012.58C539.903 1013.07 539.655 1013.78 539.655 1014.69V1019.66C539.655 1020.15 539.527 1020.54 539.271 1020.81C539.015 1021.06 538.639 1021.19 538.143 1021.19ZM547.493 1021.19C547.013 1021.19 546.645 1021.06 546.389 1020.81C546.133 1020.54 546.005 1020.15 546.005 1019.66V1005.4C546.005 1004.9 546.133 1004.53 546.389 1004.27C546.645 1004.02 547.013 1003.89 547.493 1003.89C547.973 1003.89 548.341 1004.02 548.597 1004.27C548.869 1004.53 549.005 1004.9 549.005 1005.4V1014.26H549.053L553.013 1010.08C553.333 1009.76 553.613 1009.51 553.853 1009.34C554.093 1009.16 554.421 1009.07 554.837 1009.07C555.253 1009.07 555.565 1009.18 555.773 1009.41C555.997 1009.62 556.109 1009.87 556.109 1010.18C556.109 1010.48 555.965 1010.78 555.677 1011.09L551.501 1015.5V1014.26L556.085 1019.2C556.373 1019.5 556.501 1019.82 556.469 1020.14C556.453 1020.44 556.325 1020.7 556.085 1020.9C555.845 1021.1 555.541 1021.19 555.173 1021.19C554.725 1021.19 554.365 1021.1 554.093 1020.93C553.837 1020.75 553.549 1020.49 553.229 1020.14L549.053 1015.77H549.005V1019.66C549.005 1020.68 548.501 1021.19 547.493 1021.19Z" fill="black"/>
<path d="M505.72 1206.24C503.96 1206.24 502.448 1205.89 501.184 1205.18C499.936 1204.46 498.976 1203.46 498.304 1202.16C497.632 1200.85 497.296 1199.3 497.296 1197.53C497.296 1196.2 497.488 1195.01 497.872 1193.95C498.256 1192.88 498.808 1191.97 499.528 1191.22C500.248 1190.45 501.128 1189.86 502.168 1189.46C503.224 1189.05 504.408 1188.84 505.72 1188.84C506.6 1188.84 507.464 1188.95 508.312 1189.18C509.16 1189.4 509.904 1189.72 510.544 1190.14C510.88 1190.34 511.104 1190.6 511.216 1190.9C511.328 1191.19 511.352 1191.48 511.288 1191.77C511.224 1192.04 511.088 1192.27 510.88 1192.46C510.688 1192.66 510.44 1192.77 510.136 1192.8C509.848 1192.82 509.528 1192.71 509.176 1192.49C508.68 1192.17 508.144 1191.94 507.568 1191.79C506.992 1191.65 506.408 1191.58 505.816 1191.58C504.68 1191.58 503.72 1191.81 502.936 1192.27C502.152 1192.74 501.56 1193.41 501.16 1194.29C500.76 1195.17 500.56 1196.25 500.56 1197.53C500.56 1198.79 500.76 1199.87 501.16 1200.77C501.56 1201.66 502.152 1202.34 502.936 1202.81C503.72 1203.27 504.68 1203.5 505.816 1203.5C506.424 1203.5 507.024 1203.43 507.616 1203.29C508.208 1203.13 508.768 1202.89 509.296 1202.57C509.648 1202.36 509.96 1202.27 510.232 1202.3C510.52 1202.32 510.76 1202.42 510.952 1202.59C511.144 1202.77 511.272 1202.99 511.336 1203.26C511.4 1203.52 511.384 1203.79 511.288 1204.08C511.192 1204.35 511 1204.59 510.712 1204.8C510.072 1205.26 509.304 1205.62 508.408 1205.88C507.528 1206.12 506.632 1206.24 505.72 1206.24ZM518.381 1206.24C517.165 1206.24 516.109 1205.99 515.213 1205.5C514.317 1205 513.621 1204.3 513.125 1203.38C512.629 1202.46 512.381 1201.37 512.381 1200.12C512.381 1199.18 512.517 1198.34 512.789 1197.6C513.077 1196.85 513.485 1196.21 514.013 1195.68C514.541 1195.14 515.173 1194.73 515.909 1194.46C516.645 1194.17 517.469 1194.02 518.381 1194.02C519.597 1194.02 520.653 1194.27 521.549 1194.77C522.445 1195.26 523.141 1195.97 523.637 1196.88C524.133 1197.79 524.381 1198.87 524.381 1200.12C524.381 1201.06 524.237 1201.91 523.949 1202.66C523.677 1203.42 523.277 1204.06 522.749 1204.61C522.221 1205.14 521.589 1205.54 520.853 1205.83C520.117 1206.1 519.293 1206.24 518.381 1206.24ZM518.381 1203.96C518.973 1203.96 519.493 1203.82 519.941 1203.53C520.389 1203.24 520.733 1202.82 520.973 1202.26C521.229 1201.68 521.357 1200.97 521.357 1200.12C521.357 1198.84 521.085 1197.89 520.541 1197.26C519.997 1196.62 519.277 1196.3 518.381 1196.3C517.789 1196.3 517.269 1196.45 516.821 1196.74C516.373 1197.01 516.021 1197.43 515.765 1198.01C515.525 1198.57 515.405 1199.27 515.405 1200.12C515.405 1201.38 515.677 1202.34 516.221 1203C516.765 1203.64 517.485 1203.96 518.381 1203.96ZM531.375 1206.19C530.975 1206.19 530.623 1206.09 530.319 1205.88C530.031 1205.67 529.791 1205.35 529.599 1204.92L525.783 1196.06C525.639 1195.71 525.583 1195.38 525.615 1195.08C525.663 1194.78 525.807 1194.54 526.047 1194.36C526.303 1194.17 526.647 1194.07 527.079 1194.07C527.447 1194.07 527.743 1194.16 527.967 1194.34C528.191 1194.5 528.391 1194.81 528.567 1195.27L531.807 1203.36H531.087L534.423 1195.25C534.599 1194.8 534.799 1194.5 535.023 1194.34C535.263 1194.16 535.583 1194.07 535.983 1194.07C536.335 1194.07 536.615 1194.17 536.823 1194.36C537.031 1194.54 537.159 1194.78 537.207 1195.08C537.255 1195.37 537.199 1195.69 537.039 1196.04L533.151 1204.92C532.975 1205.35 532.735 1205.67 532.431 1205.88C532.143 1206.09 531.791 1206.19 531.375 1206.19ZM544.828 1206.24C543.5 1206.24 542.356 1205.99 541.396 1205.5C540.436 1205 539.692 1204.3 539.164 1203.38C538.652 1202.47 538.396 1201.39 538.396 1200.14C538.396 1198.93 538.644 1197.86 539.14 1196.95C539.652 1196.04 540.348 1195.33 541.228 1194.82C542.124 1194.29 543.14 1194.02 544.276 1194.02C545.108 1194.02 545.852 1194.16 546.508 1194.43C547.18 1194.7 547.748 1195.1 548.212 1195.61C548.692 1196.12 549.052 1196.74 549.292 1197.48C549.548 1198.2 549.676 1199.02 549.676 1199.93C549.676 1200.22 549.572 1200.44 549.364 1200.6C549.172 1200.74 548.892 1200.82 548.524 1200.82H540.82V1199.09H547.564L547.18 1199.45C547.18 1198.71 547.068 1198.1 546.844 1197.6C546.636 1197.1 546.324 1196.73 545.908 1196.47C545.508 1196.2 545.004 1196.06 544.396 1196.06C543.724 1196.06 543.148 1196.22 542.668 1196.54C542.204 1196.85 541.844 1197.29 541.588 1197.86C541.348 1198.42 541.228 1199.1 541.228 1199.88V1200.05C541.228 1201.36 541.532 1202.34 542.14 1203C542.764 1203.64 543.676 1203.96 544.876 1203.96C545.292 1203.96 545.756 1203.91 546.268 1203.82C546.796 1203.7 547.292 1203.52 547.756 1203.26C548.092 1203.07 548.388 1202.99 548.644 1203.02C548.9 1203.04 549.1 1203.13 549.244 1203.29C549.404 1203.45 549.5 1203.65 549.532 1203.89C549.564 1204.11 549.516 1204.34 549.388 1204.58C549.276 1204.82 549.076 1205.03 548.788 1205.21C548.228 1205.56 547.58 1205.82 546.844 1206C546.124 1206.16 545.452 1206.24 544.828 1206.24ZM553.588 1206.19C553.092 1206.19 552.708 1206.06 552.436 1205.81C552.18 1205.54 552.052 1205.15 552.052 1204.66V1195.58C552.052 1195.09 552.18 1194.71 552.436 1194.46C552.692 1194.2 553.052 1194.07 553.516 1194.07C553.98 1194.07 554.34 1194.2 554.596 1194.46C554.852 1194.71 554.98 1195.09 554.98 1195.58V1197.1H554.74C554.964 1196.14 555.404 1195.41 556.06 1194.91C556.716 1194.42 557.588 1194.12 558.676 1194.02C559.012 1193.99 559.276 1194.08 559.468 1194.29C559.676 1194.48 559.796 1194.78 559.828 1195.2C559.86 1195.6 559.764 1195.93 559.54 1196.18C559.332 1196.42 559.012 1196.57 558.58 1196.62L558.052 1196.66C557.076 1196.76 556.34 1197.06 555.844 1197.58C555.348 1198.07 555.1 1198.78 555.1 1199.69V1204.66C555.1 1205.15 554.972 1205.54 554.716 1205.81C554.46 1206.06 554.084 1206.19 553.588 1206.19ZM569.814 1206C569.318 1206 568.934 1205.86 568.662 1205.59C568.39 1205.3 568.254 1204.91 568.254 1204.42V1190.57C568.254 1190.06 568.382 1189.67 568.638 1189.42C568.91 1189.14 569.294 1189.01 569.79 1189.01C570.286 1189.01 570.662 1189.14 570.918 1189.42C571.19 1189.67 571.326 1190.06 571.326 1190.57V1203.38H578.286C578.718 1203.38 579.046 1203.5 579.27 1203.72C579.51 1203.94 579.63 1204.26 579.63 1204.68C579.63 1205.1 579.51 1205.42 579.27 1205.66C579.046 1205.89 578.718 1206 578.286 1206H569.814ZM587.11 1206.24C585.782 1206.24 584.638 1205.99 583.678 1205.5C582.718 1205 581.974 1204.3 581.446 1203.38C580.934 1202.47 580.678 1201.39 580.678 1200.14C580.678 1198.93 580.926 1197.86 581.422 1196.95C581.934 1196.04 582.63 1195.33 583.51 1194.82C584.406 1194.29 585.422 1194.02 586.558 1194.02C587.39 1194.02 588.134 1194.16 588.79 1194.43C589.462 1194.7 590.03 1195.1 590.494 1195.61C590.974 1196.12 591.334 1196.74 591.574 1197.48C591.83 1198.2 591.958 1199.02 591.958 1199.93C591.958 1200.22 591.854 1200.44 591.646 1200.6C591.454 1200.74 591.174 1200.82 590.806 1200.82H583.102V1199.09H589.846L589.462 1199.45C589.462 1198.71 589.35 1198.1 589.126 1197.6C588.918 1197.1 588.606 1196.73 588.19 1196.47C587.79 1196.2 587.286 1196.06 586.678 1196.06C586.006 1196.06 585.43 1196.22 584.95 1196.54C584.486 1196.85 584.126 1197.29 583.87 1197.86C583.63 1198.42 583.51 1199.1 583.51 1199.88V1200.05C583.51 1201.36 583.814 1202.34 584.422 1203C585.046 1203.64 585.958 1203.96 587.158 1203.96C587.574 1203.96 588.038 1203.91 588.55 1203.82C589.078 1203.7 589.574 1203.52 590.038 1203.26C590.374 1203.07 590.67 1202.99 590.926 1203.02C591.182 1203.04 591.382 1203.13 591.526 1203.29C591.686 1203.45 591.782 1203.65 591.814 1203.89C591.846 1204.11 591.798 1204.34 591.67 1204.58C591.558 1204.82 591.358 1205.03 591.07 1205.21C590.51 1205.56 589.862 1205.82 589.126 1206C588.406 1206.16 587.734 1206.24 587.11 1206.24ZM599.663 1206.24C598.623 1206.24 597.751 1206.06 597.047 1205.71C596.359 1205.36 595.847 1204.85 595.511 1204.18C595.175 1203.49 595.007 1202.64 595.007 1201.63V1196.52H593.759C593.375 1196.52 593.079 1196.42 592.871 1196.23C592.663 1196.02 592.559 1195.74 592.559 1195.39C592.559 1195.02 592.663 1194.74 592.871 1194.55C593.079 1194.36 593.375 1194.26 593.759 1194.26H595.007V1192.08C595.007 1191.58 595.135 1191.21 595.391 1190.95C595.663 1190.7 596.039 1190.57 596.519 1190.57C596.999 1190.57 597.367 1190.7 597.623 1190.95C597.879 1191.21 598.007 1191.58 598.007 1192.08V1194.26H600.551C600.935 1194.26 601.231 1194.36 601.439 1194.55C601.647 1194.74 601.751 1195.02 601.751 1195.39C601.751 1195.74 601.647 1196.02 601.439 1196.23C601.231 1196.42 600.935 1196.52 600.551 1196.52H598.007V1201.46C598.007 1202.23 598.175 1202.81 598.511 1203.19C598.847 1203.58 599.391 1203.77 600.143 1203.77C600.415 1203.77 600.655 1203.74 600.863 1203.7C601.071 1203.65 601.255 1203.62 601.415 1203.6C601.607 1203.58 601.767 1203.65 601.895 1203.79C602.023 1203.92 602.087 1204.19 602.087 1204.61C602.087 1204.93 602.031 1205.22 601.919 1205.47C601.823 1205.71 601.639 1205.88 601.367 1205.98C601.159 1206.04 600.887 1206.1 600.551 1206.14C600.215 1206.21 599.919 1206.24 599.663 1206.24ZM608.194 1206.24C607.154 1206.24 606.282 1206.06 605.578 1205.71C604.89 1205.36 604.378 1204.85 604.042 1204.18C603.706 1203.49 603.538 1202.64 603.538 1201.63V1196.52H602.29C601.906 1196.52 601.61 1196.42 601.402 1196.23C601.194 1196.02 601.09 1195.74 601.09 1195.39C601.09 1195.02 601.194 1194.74 601.402 1194.55C601.61 1194.36 601.906 1194.26 602.29 1194.26H603.538V1192.08C603.538 1191.58 603.666 1191.21 603.922 1190.95C604.194 1190.7 604.57 1190.57 605.05 1190.57C605.53 1190.57 605.898 1190.7 606.154 1190.95C606.41 1191.21 606.538 1191.58 606.538 1192.08V1194.26H609.082C609.466 1194.26 609.762 1194.36 609.97 1194.55C610.178 1194.74 610.282 1195.02 610.282 1195.39C610.282 1195.74 610.178 1196.02 609.97 1196.23C609.762 1196.42 609.466 1196.52 609.082 1196.52H606.538V1201.46C606.538 1202.23 606.706 1202.81 607.042 1203.19C607.378 1203.58 607.922 1203.77 608.674 1203.77C608.946 1203.77 609.186 1203.74 609.394 1203.7C609.602 1203.65 609.786 1203.62 609.946 1203.6C610.138 1203.58 610.298 1203.65 610.426 1203.79C610.554 1203.92 610.618 1204.19 610.618 1204.61C610.618 1204.93 610.562 1205.22 610.45 1205.47C610.354 1205.71 610.17 1205.88 609.898 1205.98C609.69 1206.04 609.418 1206.1 609.082 1206.14C608.746 1206.21 608.45 1206.24 608.194 1206.24ZM617.696 1206.24C616.368 1206.24 615.224 1205.99 614.264 1205.5C613.304 1205 612.56 1204.3 612.032 1203.38C611.52 1202.47 611.264 1201.39 611.264 1200.14C611.264 1198.93 611.512 1197.86 612.008 1196.95C612.52 1196.04 613.216 1195.33 614.096 1194.82C614.992 1194.29 616.008 1194.02 617.144 1194.02C617.976 1194.02 618.72 1194.16 619.376 1194.43C620.048 1194.7 620.616 1195.1 621.08 1195.61C621.56 1196.12 621.92 1196.74 622.16 1197.48C622.416 1198.2 622.544 1199.02 622.544 1199.93C622.544 1200.22 622.44 1200.44 622.232 1200.6C622.04 1200.74 621.76 1200.82 621.392 1200.82H613.688V1199.09H620.432L620.048 1199.45C620.048 1198.71 619.936 1198.1 619.712 1197.6C619.504 1197.1 619.192 1196.73 618.776 1196.47C618.376 1196.2 617.872 1196.06 617.264 1196.06C616.592 1196.06 616.016 1196.22 615.536 1196.54C615.072 1196.85 614.712 1197.29 614.456 1197.86C614.216 1198.42 614.096 1199.1 614.096 1199.88V1200.05C614.096 1201.36 614.4 1202.34 615.008 1203C615.632 1203.64 616.544 1203.96 617.744 1203.96C618.16 1203.96 618.624 1203.91 619.136 1203.82C619.664 1203.7 620.16 1203.52 620.624 1203.26C620.96 1203.07 621.256 1202.99 621.512 1203.02C621.768 1203.04 621.968 1203.13 622.112 1203.29C622.272 1203.45 622.368 1203.65 622.4 1203.89C622.432 1204.11 622.384 1204.34 622.256 1204.58C622.144 1204.82 621.944 1205.03 621.656 1205.21C621.096 1205.56 620.448 1205.82 619.712 1206C618.992 1206.16 618.32 1206.24 617.696 1206.24ZM626.455 1206.19C625.959 1206.19 625.575 1206.06 625.303 1205.81C625.047 1205.54 624.919 1205.15 624.919 1204.66V1195.58C624.919 1195.09 625.047 1194.71 625.303 1194.46C625.559 1194.2 625.919 1194.07 626.383 1194.07C626.847 1194.07 627.207 1194.2 627.463 1194.46C627.719 1194.71 627.847 1195.09 627.847 1195.58V1197.1H627.607C627.831 1196.14 628.271 1195.41 628.927 1194.91C629.583 1194.42 630.455 1194.12 631.543 1194.02C631.879 1193.99 632.143 1194.08 632.335 1194.29C632.543 1194.48 632.663 1194.78 632.695 1195.2C632.727 1195.6 632.631 1195.93 632.407 1196.18C632.199 1196.42 631.879 1196.57 631.447 1196.62L630.919 1196.66C629.943 1196.76 629.207 1197.06 628.711 1197.58C628.215 1198.07 627.967 1198.78 627.967 1199.69V1204.66C627.967 1205.15 627.839 1205.54 627.583 1205.81C627.327 1206.06 626.951 1206.19 626.455 1206.19Z" fill="black"/>
<path d="M792.68 653.24C791.976 653.24 791.272 653.184 790.568 653.072C789.864 652.976 789.2 652.824 788.576 652.616C787.952 652.392 787.392 652.12 786.896 651.8C786.608 651.608 786.408 651.376 786.296 651.104C786.184 650.832 786.144 650.568 786.176 650.312C786.224 650.04 786.328 649.808 786.488 649.616C786.664 649.408 786.88 649.28 787.136 649.232C787.392 649.184 787.672 649.256 787.976 649.448C788.68 649.864 789.424 650.168 790.208 650.36C790.992 650.552 791.816 650.648 792.68 650.648C793.944 650.648 794.864 650.44 795.44 650.024C796.016 649.592 796.304 649.04 796.304 648.368C796.304 647.808 796.096 647.368 795.68 647.048C795.28 646.728 794.584 646.464 793.592 646.256L790.952 645.704C789.432 645.384 788.296 644.848 787.544 644.096C786.808 643.328 786.44 642.32 786.44 641.072C786.44 640.288 786.6 639.576 786.92 638.936C787.24 638.296 787.688 637.744 788.264 637.28C788.856 636.816 789.552 636.464 790.352 636.224C791.168 635.968 792.064 635.84 793.04 635.84C794 635.84 794.912 635.96 795.776 636.2C796.64 636.44 797.416 636.792 798.104 637.256C798.36 637.432 798.528 637.648 798.608 637.904C798.704 638.16 798.728 638.416 798.68 638.672C798.632 638.912 798.52 639.12 798.344 639.296C798.168 639.472 797.944 639.576 797.672 639.608C797.416 639.64 797.12 639.56 796.784 639.368C796.192 639.032 795.592 638.792 794.984 638.648C794.376 638.504 793.72 638.432 793.016 638.432C792.28 638.432 791.648 638.536 791.12 638.744C790.592 638.952 790.184 639.248 789.896 639.632C789.624 640 789.488 640.44 789.488 640.952C789.488 641.528 789.68 641.992 790.064 642.344C790.448 642.68 791.104 642.944 792.032 643.136L794.648 643.688C796.232 644.024 797.408 644.552 798.176 645.272C798.96 645.992 799.352 646.952 799.352 648.152C799.352 648.92 799.192 649.616 798.872 650.24C798.568 650.864 798.12 651.4 797.528 651.848C796.952 652.296 796.256 652.64 795.44 652.88C794.624 653.12 793.704 653.24 792.68 653.24ZM803.189 653.192C802.709 653.192 802.341 653.064 802.085 652.808C801.829 652.536 801.701 652.152 801.701 651.656V637.4C801.701 636.904 801.829 636.528 802.085 636.272C802.341 636.016 802.709 635.888 803.189 635.888C803.669 635.888 804.037 636.016 804.293 636.272C804.565 636.528 804.701 636.904 804.701 637.4V646.256H804.749L808.709 642.08C809.029 641.76 809.309 641.512 809.549 641.336C809.789 641.16 810.117 641.072 810.533 641.072C810.949 641.072 811.261 641.184 811.469 641.408C811.693 641.616 811.805 641.872 811.805 642.176C811.805 642.48 811.661 642.784 811.373 643.088L807.197 647.504V646.256L811.781 651.2C812.069 651.504 812.197 651.816 812.165 652.136C812.149 652.44 812.021 652.696 811.781 652.904C811.541 653.096 811.237 653.192 810.869 653.192C810.421 653.192 810.061 653.104 809.789 652.928C809.533 652.752 809.245 652.488 808.925 652.136L804.749 647.768H804.701V651.656C804.701 652.68 804.197 653.192 803.189 653.192ZM816.056 653.168C815.576 653.168 815.208 653.024 814.952 652.736C814.696 652.448 814.568 652.048 814.568 651.536V642.728C814.568 642.2 814.696 641.8 814.952 641.528C815.208 641.24 815.576 641.096 816.056 641.096C816.536 641.096 816.904 641.24 817.16 641.528C817.432 641.8 817.568 642.2 817.568 642.728V651.536C817.568 652.048 817.44 652.448 817.184 652.736C816.928 653.024 816.552 653.168 816.056 653.168ZM816.056 638.864C815.496 638.864 815.056 638.728 814.736 638.456C814.432 638.168 814.28 637.776 814.28 637.28C814.28 636.768 814.432 636.376 814.736 636.104C815.056 635.832 815.496 635.696 816.056 635.696C816.632 635.696 817.072 635.832 817.376 636.104C817.68 636.376 817.832 636.768 817.832 637.28C817.832 637.776 817.68 638.168 817.376 638.456C817.072 638.728 816.632 638.864 816.056 638.864ZM824.693 653.24C823.365 653.24 822.365 652.864 821.693 652.112C821.021 651.344 820.685 650.224 820.685 648.752V637.4C820.685 636.904 820.813 636.528 821.069 636.272C821.325 636.016 821.693 635.888 822.173 635.888C822.653 635.888 823.021 636.016 823.277 636.272C823.549 636.528 823.685 636.904 823.685 637.4V648.608C823.685 649.344 823.837 649.888 824.141 650.24C824.461 650.592 824.909 650.768 825.485 650.768C825.613 650.768 825.733 650.768 825.845 650.768C825.957 650.752 826.069 650.736 826.181 650.72C826.405 650.688 826.557 650.752 826.637 650.912C826.717 651.056 826.757 651.36 826.757 651.824C826.757 652.224 826.677 652.536 826.517 652.76C826.357 652.984 826.093 653.12 825.725 653.168C825.565 653.184 825.397 653.2 825.221 653.216C825.045 653.232 824.869 653.24 824.693 653.24ZM832.357 653.24C831.029 653.24 830.029 652.864 829.357 652.112C828.685 651.344 828.349 650.224 828.349 648.752V637.4C828.349 636.904 828.477 636.528 828.733 636.272C828.989 636.016 829.357 635.888 829.837 635.888C830.317 635.888 830.685 636.016 830.941 636.272C831.213 636.528 831.349 636.904 831.349 637.4V648.608C831.349 649.344 831.501 649.888 831.805 650.24C832.125 650.592 832.573 650.768 833.149 650.768C833.277 650.768 833.397 650.768 833.509 650.768C833.621 650.752 833.733 650.736 833.845 650.72C834.069 650.688 834.221 650.752 834.301 650.912C834.381 651.056 834.421 651.36 834.421 651.824C834.421 652.224 834.341 652.536 834.181 652.76C834.021 652.984 833.757 653.12 833.389 653.168C833.229 653.184 833.061 653.2 832.885 653.216C832.709 653.232 832.533 653.24 832.357 653.24ZM840.192 653.24C839.504 653.24 838.776 653.168 838.008 653.024C837.24 652.88 836.552 652.632 835.944 652.28C835.688 652.12 835.504 651.936 835.392 651.728C835.296 651.504 835.256 651.288 835.272 651.08C835.304 650.856 835.384 650.664 835.512 650.504C835.656 650.344 835.832 650.24 836.04 650.192C836.264 650.144 836.504 650.184 836.76 650.312C837.4 650.616 838 650.832 838.56 650.96C839.12 651.072 839.672 651.128 840.216 651.128C840.984 651.128 841.552 651 841.92 650.744C842.304 650.472 842.496 650.12 842.496 649.688C842.496 649.32 842.368 649.04 842.112 648.848C841.872 648.64 841.504 648.488 841.008 648.392L838.608 647.936C837.616 647.744 836.856 647.384 836.328 646.856C835.816 646.312 835.56 645.616 835.56 644.768C835.56 644 835.768 643.336 836.184 642.776C836.616 642.216 837.208 641.784 837.96 641.48C838.712 641.176 839.576 641.024 840.552 641.024C841.256 641.024 841.912 641.104 842.52 641.264C843.144 641.408 843.744 641.64 844.32 641.96C844.56 642.088 844.72 642.256 844.8 642.464C844.896 642.672 844.92 642.888 844.872 643.112C844.824 643.32 844.728 643.512 844.584 643.688C844.44 643.848 844.256 643.952 844.032 644C843.824 644.032 843.584 643.984 843.312 643.856C842.816 643.6 842.336 643.416 841.872 643.304C841.424 643.192 840.992 643.136 840.576 643.136C839.792 643.136 839.208 643.272 838.824 643.544C838.456 643.816 838.272 644.176 838.272 644.624C838.272 644.96 838.384 645.24 838.608 645.464C838.832 645.688 839.176 645.84 839.64 645.92L842.04 646.376C843.08 646.568 843.864 646.92 844.392 647.432C844.936 647.944 845.208 648.632 845.208 649.496C845.208 650.664 844.752 651.584 843.84 652.256C842.928 652.912 841.712 653.24 840.192 653.24Z" fill="black"/>
<path d="M434 70C434 64.4772 438.477 60 444 60H1037C1042.52 60 1047 64.4772 1047 70V405H434V70Z" fill="#B0B0B0"/>
<rect x="690.788" y="154.868" width="99" height="100.471" rx="9.5" fill="white" stroke="black"/>
<rect x="690.788" y="108.191" width="99" height="29.4412" rx="9.5" fill="white" stroke="black"/>
<path d="M474.248 318.603C474.248 313.08 478.725 308.603 484.248 308.603H997.248C1002.77 308.603 1007.25 313.08 1007.25 318.603V405H474.248V318.603Z" fill="#EDEDED"/>
<rect x="963.909" y="361.868" width="23" height="23.3529" rx="5.5" fill="white" stroke="black"/>
<rect x="963.909" y="327.368" width="23" height="23.3529" rx="5.5" fill="white" stroke="black"/>
<rect x="671.857" y="378.104" width="136" height="19.2941" rx="5.5" fill="white" stroke="black"/>
<rect x="671.857" y="350.706" width="136" height="19.2941" rx="5.5" fill="white" stroke="black"/>
<rect x="671.857" y="323.309" width="136" height="19.2941" rx="5.5" fill="white" stroke="black"/>
<rect x="483.003" y="317.221" width="19" height="19.2941" rx="5.5" fill="white" stroke="black"/>
<rect x="506.739" y="272.574" width="66" height="19.2941" rx="5.5" fill="white" stroke="black"/>
<rect x="820.738" y="272.574" width="66" height="19.2941" rx="5.5" fill="white" stroke="black"/>
<rect x="593.739" y="272.574" width="66" height="19.2941" rx="5.5" fill="white" stroke="black"/>
<rect x="907.739" y="272.574" width="66" height="19.2941" rx="5.5" fill="white" stroke="black"/>
<rect x="483.003" y="347.661" width="19" height="19.2941" rx="5.5" fill="white" stroke="black"/>
<rect x="483.003" y="378.104" width="19" height="19.2941" rx="5.5" fill="white" stroke="black"/>
</svg>
