<svg width="1480" height="1000" viewBox="0 0 1480 1000" fill="none" xmlns="http://www.w3.org/2000/svg">
<rect width="1480" height="1000" rx="20" fill="white"/>
<rect x="0.999023" y="0.9375" width="1478" height="998.124" rx="20" fill="black"/>
<rect x="20" y="20" width="1440" height="960" fill="#323333"/>
<rect x="20" y="20" width="1440" height="300" fill="#464646"/>
<path d="M322.72 144.24C320.96 144.24 319.448 143.888 318.184 143.184C316.936 142.464 315.976 141.456 315.304 140.16C314.632 138.848 314.296 137.304 314.296 135.528C314.296 134.2 314.488 133.008 314.872 131.952C315.256 130.88 315.808 129.968 316.528 129.216C317.248 128.448 318.128 127.864 319.168 127.464C320.224 127.048 321.408 126.84 322.72 126.84C323.6 126.84 324.464 126.952 325.312 127.176C326.16 127.4 326.904 127.72 327.544 128.136C327.88 128.344 328.104 128.6 328.216 128.904C328.328 129.192 328.352 129.48 328.288 129.768C328.224 130.04 328.088 130.272 327.88 130.464C327.688 130.656 327.44 130.768 327.136 130.8C326.848 130.816 326.528 130.712 326.176 130.488C325.68 130.168 325.144 129.936 324.568 129.792C323.992 129.648 323.408 129.576 322.816 129.576C321.68 129.576 320.72 129.808 319.936 130.272C319.152 130.736 318.56 131.408 318.16 132.288C317.76 133.168 317.56 134.248 317.56 135.528C317.56 136.792 317.76 137.872 318.16 138.768C318.56 139.664 319.152 140.344 319.936 140.808C320.72 141.272 321.68 141.504 322.816 141.504C323.424 141.504 324.024 141.432 324.616 141.288C325.208 141.128 325.768 140.888 326.296 140.568C326.648 140.36 326.96 140.272 327.232 140.304C327.52 140.32 327.76 140.416 327.952 140.592C328.144 140.768 328.272 140.992 328.336 141.264C328.4 141.52 328.384 141.792 328.288 142.08C328.192 142.352 328 142.592 327.712 142.8C327.072 143.264 326.304 143.624 325.408 143.88C324.528 144.12 323.632 144.24 322.72 144.24ZM345.405 144.24C343.773 144.24 342.341 143.88 341.109 143.16C339.893 142.44 338.949 141.432 338.277 140.136C337.605 138.824 337.269 137.288 337.269 135.528C337.269 134.2 337.461 133.008 337.845 131.952C338.229 130.88 338.773 129.968 339.477 129.216C340.197 128.448 341.053 127.864 342.045 127.464C343.053 127.048 344.173 126.84 345.405 126.84C347.053 126.84 348.485 127.2 349.701 127.92C350.917 128.624 351.861 129.624 352.533 130.92C353.205 132.216 353.541 133.744 353.541 135.504C353.541 136.832 353.349 138.032 352.965 139.104C352.581 140.176 352.029 141.096 351.309 141.864C350.605 142.632 349.749 143.224 348.741 143.64C347.749 144.04 346.637 144.24 345.405 144.24ZM345.405 141.6C346.445 141.6 347.325 141.36 348.045 140.88C348.781 140.4 349.341 139.704 349.725 138.792C350.125 137.88 350.325 136.792 350.325 135.528C350.325 133.608 349.893 132.12 349.029 131.064C348.181 130.008 346.973 129.48 345.405 129.48C344.381 129.48 343.501 129.72 342.765 130.2C342.029 130.664 341.461 131.352 341.061 132.264C340.677 133.16 340.485 134.248 340.485 135.528C340.485 137.432 340.917 138.92 341.781 139.992C342.645 141.064 343.853 141.6 345.405 141.6ZM365.305 144.192C364.857 144.192 364.513 144.064 364.273 143.808C364.033 143.552 363.913 143.2 363.913 142.752V128.328C363.913 127.864 364.041 127.512 364.297 127.272C364.553 127.016 364.905 126.888 365.353 126.888C365.753 126.888 366.065 126.968 366.289 127.128C366.529 127.272 366.745 127.528 366.937 127.896L372.865 138.864H372.097L378.025 127.896C378.217 127.528 378.425 127.272 378.649 127.128C378.873 126.968 379.185 126.888 379.585 126.888C380.033 126.888 380.377 127.016 380.617 127.272C380.857 127.512 380.977 127.864 380.977 128.328V142.752C380.977 143.2 380.857 143.552 380.617 143.808C380.393 144.064 380.049 144.192 379.585 144.192C379.137 144.192 378.793 144.064 378.553 143.808C378.313 143.552 378.193 143.2 378.193 142.752V131.64H378.721L373.681 140.832C373.521 141.104 373.353 141.304 373.177 141.432C373.001 141.56 372.761 141.624 372.457 141.624C372.153 141.624 371.905 141.56 371.713 141.432C371.521 141.288 371.353 141.088 371.209 140.832L366.121 131.616H366.697V142.752C366.697 143.2 366.577 143.552 366.337 143.808C366.113 144.064 365.769 144.192 365.305 144.192ZM393.437 144.192C392.941 144.192 392.557 144.056 392.285 143.784C392.029 143.496 391.901 143.104 391.901 142.608V128.64C391.901 128.128 392.037 127.744 392.309 127.488C392.581 127.216 392.965 127.08 393.461 127.08H399.245C401.101 127.08 402.533 127.544 403.541 128.472C404.549 129.4 405.053 130.696 405.053 132.36C405.053 134.024 404.549 135.328 403.541 136.272C402.533 137.2 401.101 137.664 399.245 137.664H394.973V142.608C394.973 143.104 394.845 143.496 394.589 143.784C394.333 144.056 393.949 144.192 393.437 144.192ZM394.973 135.24H398.765C399.853 135.24 400.677 135 401.237 134.52C401.797 134.024 402.077 133.304 402.077 132.36C402.077 131.416 401.797 130.704 401.237 130.224C400.677 129.744 399.853 129.504 398.765 129.504H394.973V135.24ZM413.168 144.192C412.784 144.192 412.472 144.104 412.232 143.928C412.008 143.752 411.872 143.52 411.824 143.232C411.776 142.928 411.832 142.592 411.992 142.224L418.328 128.184C418.536 127.72 418.784 127.392 419.072 127.2C419.376 126.992 419.72 126.888 420.104 126.888C420.472 126.888 420.8 126.992 421.088 127.2C421.392 127.392 421.648 127.72 421.856 128.184L428.216 142.224C428.392 142.592 428.456 142.928 428.408 143.232C428.36 143.536 428.224 143.776 428 143.952C427.776 144.112 427.48 144.192 427.112 144.192C426.664 144.192 426.312 144.088 426.056 143.88C425.816 143.656 425.6 143.32 425.408 142.872L423.848 139.248L425.144 140.088H415.016L416.312 139.248L414.776 142.872C414.568 143.336 414.352 143.672 414.128 143.88C413.904 144.088 413.584 144.192 413.168 144.192ZM420.056 130.416L416.696 138.408L416.072 137.64H424.088L423.488 138.408L420.104 130.416H420.056ZM439.499 144.192C439.035 144.192 438.675 144.064 438.419 143.808C438.179 143.552 438.059 143.184 438.059 142.704V128.424C438.059 127.928 438.179 127.552 438.419 127.296C438.675 127.024 439.003 126.888 439.403 126.888C439.771 126.888 440.043 126.96 440.219 127.104C440.411 127.232 440.635 127.456 440.891 127.776L450.083 139.704H449.459V128.352C449.459 127.888 449.579 127.528 449.819 127.272C450.075 127.016 450.435 126.888 450.899 126.888C451.363 126.888 451.715 127.016 451.955 127.272C452.195 127.528 452.315 127.888 452.315 128.352V142.752C452.315 143.2 452.203 143.552 451.979 143.808C451.755 144.064 451.451 144.192 451.067 144.192C450.699 144.192 450.403 144.12 450.179 143.976C449.971 143.832 449.739 143.6 449.483 143.28L440.315 131.352H440.915V142.704C440.915 143.184 440.795 143.552 440.555 143.808C440.315 144.064 439.963 144.192 439.499 144.192ZM468.78 144.192C468.284 144.192 467.9 144.056 467.628 143.784C467.372 143.496 467.244 143.096 467.244 142.584V135.288L467.892 137.136L462.108 129C461.9 128.712 461.804 128.408 461.82 128.088C461.852 127.752 461.988 127.472 462.228 127.248C462.468 127.008 462.804 126.888 463.236 126.888C463.556 126.888 463.844 126.968 464.1 127.128C464.372 127.288 464.628 127.536 464.868 127.872L469.164 133.968H468.492L472.812 127.872C473.068 127.52 473.316 127.272 473.556 127.128C473.796 126.968 474.092 126.888 474.444 126.888C474.86 126.888 475.18 127 475.404 127.224C475.644 127.432 475.764 127.696 475.764 128.016C475.78 128.336 475.668 128.672 475.428 129.024L469.692 137.136L470.316 135.288V142.584C470.316 143.656 469.804 144.192 468.78 144.192ZM500.404 144.192C499.94 144.192 499.58 144.064 499.324 143.808C499.084 143.552 498.964 143.184 498.964 142.704V128.424C498.964 127.928 499.084 127.552 499.324 127.296C499.58 127.024 499.908 126.888 500.308 126.888C500.676 126.888 500.948 126.96 501.124 127.104C501.316 127.232 501.54 127.456 501.796 127.776L510.988 139.704H510.364V128.352C510.364 127.888 510.484 127.528 510.724 127.272C510.98 127.016 511.34 126.888 511.804 126.888C512.268 126.888 512.62 127.016 512.86 127.272C513.1 127.528 513.22 127.888 513.22 128.352V142.752C513.22 143.2 513.108 143.552 512.884 143.808C512.66 144.064 512.356 144.192 511.972 144.192C511.604 144.192 511.308 144.12 511.084 143.976C510.876 143.832 510.644 143.6 510.388 143.28L501.22 131.352H501.82V142.704C501.82 143.184 501.7 143.552 501.46 143.808C501.22 144.064 500.868 144.192 500.404 144.192ZM524.285 144.192C523.901 144.192 523.589 144.104 523.349 143.928C523.125 143.752 522.989 143.52 522.941 143.232C522.893 142.928 522.949 142.592 523.109 142.224L529.445 128.184C529.653 127.72 529.901 127.392 530.189 127.2C530.493 126.992 530.837 126.888 531.221 126.888C531.589 126.888 531.917 126.992 532.205 127.2C532.509 127.392 532.765 127.72 532.973 128.184L539.333 142.224C539.509 142.592 539.573 142.928 539.525 143.232C539.477 143.536 539.341 143.776 539.117 143.952C538.893 144.112 538.597 144.192 538.229 144.192C537.781 144.192 537.429 144.088 537.173 143.88C536.933 143.656 536.717 143.32 536.525 142.872L534.965 139.248L536.261 140.088H526.133L527.429 139.248L525.893 142.872C525.685 143.336 525.469 143.672 525.245 143.88C525.021 144.088 524.701 144.192 524.285 144.192ZM531.173 130.416L527.813 138.408L527.189 137.64H535.205L534.605 138.408L531.221 130.416H531.173ZM550.616 144.192C550.168 144.192 549.824 144.064 549.584 143.808C549.344 143.552 549.224 143.2 549.224 142.752V128.328C549.224 127.864 549.352 127.512 549.608 127.272C549.864 127.016 550.216 126.888 550.664 126.888C551.064 126.888 551.376 126.968 551.6 127.128C551.84 127.272 552.056 127.528 552.248 127.896L558.176 138.864H557.408L563.336 127.896C563.528 127.528 563.736 127.272 563.96 127.128C564.184 126.968 564.496 126.888 564.896 126.888C565.344 126.888 565.688 127.016 565.928 127.272C566.168 127.512 566.288 127.864 566.288 128.328V142.752C566.288 143.2 566.168 143.552 565.928 143.808C565.704 144.064 565.36 144.192 564.896 144.192C564.448 144.192 564.104 144.064 563.864 143.808C563.624 143.552 563.504 143.2 563.504 142.752V131.64H564.032L558.992 140.832C558.832 141.104 558.664 141.304 558.488 141.432C558.312 141.56 558.072 141.624 557.768 141.624C557.464 141.624 557.216 141.56 557.024 141.432C556.832 141.288 556.664 141.088 556.52 140.832L551.432 131.616H552.008V142.752C552.008 143.2 551.888 143.552 551.648 143.808C551.424 144.064 551.08 144.192 550.616 144.192ZM578.844 144C578.316 144 577.908 143.864 577.62 143.592C577.348 143.304 577.212 142.896 577.212 142.368V128.712C577.212 128.184 577.348 127.784 577.62 127.512C577.908 127.224 578.316 127.08 578.844 127.08H587.412C587.812 127.08 588.116 127.184 588.324 127.392C588.548 127.6 588.66 127.896 588.66 128.28C588.66 128.68 588.548 128.992 588.324 129.216C588.116 129.424 587.812 129.528 587.412 129.528H580.164V134.184H586.884C587.3 134.184 587.612 134.288 587.82 134.496C588.028 134.704 588.132 135.008 588.132 135.408C588.132 135.808 588.028 136.112 587.82 136.32C587.612 136.528 587.3 136.632 586.884 136.632H580.164V141.552H587.412C587.812 141.552 588.116 141.656 588.324 141.864C588.548 142.072 588.66 142.376 588.66 142.776C588.66 143.176 588.548 143.48 588.324 143.688C588.116 143.896 587.812 144 587.412 144H578.844Z" fill="white"/>
<rect x="180" y="120" width="100" height="100" rx="10" fill="white"/>
<rect x="1390" y="60" width="40" height="40" rx="10" fill="white"/>
<path d="M1410.14 80.8916C1410.05 80.8795 1409.95 80.8795 1409.86 80.8916C1408.85 80.8572 1407.9 80.427 1407.2 79.6918C1406.5 78.9567 1406.11 77.9741 1406.11 76.9518C1406.11 74.7711 1407.84 73 1410 73C1411.02 72.9982 1412 73.4034 1412.73 74.1282C1413.46 74.853 1413.88 75.8394 1413.89 76.8747C1413.91 77.91 1413.53 78.9113 1412.83 79.6627C1412.13 80.4141 1411.16 80.8554 1410.14 80.8916V80.8916ZM1418 88.8434C1415.82 90.8784 1412.96 92.0053 1410 92C1406.91 92 1404.11 90.8072 1402 88.8434C1402.12 87.7108 1402.83 86.6024 1404.1 85.7349C1407.35 83.5422 1412.67 83.5422 1415.9 85.7349C1417.17 86.6024 1417.88 87.7108 1418 88.8434V88.8434Z" stroke="black" stroke-width="1.5" stroke-linecap="round" stroke-linejoin="round"/>
<path d="M1410 92C1416.63 92 1422 86.6276 1422 80C1422 73.3724 1416.63 68 1410 68C1403.37 68 1398 73.3724 1398 80C1398 86.6276 1403.37 92 1410 92Z" stroke="black" stroke-width="1.5" stroke-linecap="round" stroke-linejoin="round"/>
<rect x="1370" y="900" width="60" height="40" rx="10" fill="white"/>
<path d="M1405.99 927H1396.15C1392.76 927 1390 924.515 1390 921.453C1390 918.391 1392.76 915.906 1396.15 915.906H1409.68" stroke="black" stroke-width="1.5" stroke-miterlimit="10" stroke-linecap="round" stroke-linejoin="round"/>
<path d="M1406.85 918.68L1410 915.84L1406.85 913" stroke="black" stroke-width="1.5" stroke-linecap="round" stroke-linejoin="round"/>
<rect x="50" y="900" width="60" height="40" rx="10" fill="white"/>
<path d="M74.0096 927H83.8498C87.2447 927 90 924.515 90 921.453C90 918.391 87.2447 915.906 83.8498 915.906H70.3194" stroke="black" stroke-width="1.5" stroke-miterlimit="10" stroke-linecap="round" stroke-linejoin="round"/>
<path d="M73.1488 918.68L69.9999 915.84L73.1488 913" stroke="black" stroke-width="1.5" stroke-linecap="round" stroke-linejoin="round"/>
<rect x="267" y="630" width="60" height="30" rx="10" fill="white"/>
<path d="M284.716 649.12C283.9 649.12 283.184 648.94 282.568 648.58C281.96 648.22 281.488 647.716 281.152 647.068C280.816 646.412 280.648 645.644 280.648 644.764C280.648 644.1 280.744 643.504 280.936 642.976C281.128 642.44 281.4 641.984 281.752 641.608C282.112 641.224 282.54 640.932 283.036 640.732C283.54 640.524 284.1 640.42 284.716 640.42C285.54 640.42 286.256 640.6 286.864 640.96C287.472 641.312 287.944 641.812 288.28 642.46C288.616 643.108 288.784 643.872 288.784 644.752C288.784 645.416 288.688 646.016 288.496 646.552C288.304 647.088 288.028 647.548 287.668 647.932C287.316 648.316 286.888 648.612 286.384 648.82C285.888 649.02 285.332 649.12 284.716 649.12ZM284.716 647.8C285.236 647.8 285.676 647.68 286.036 647.44C286.404 647.2 286.684 646.852 286.876 646.396C287.076 645.94 287.176 645.396 287.176 644.764C287.176 643.804 286.96 643.06 286.528 642.532C286.104 642.004 285.5 641.74 284.716 641.74C284.204 641.74 283.764 641.86 283.396 642.1C283.028 642.332 282.744 642.676 282.544 643.132C282.352 643.58 282.256 644.124 282.256 644.764C282.256 645.716 282.472 646.46 282.904 646.996C283.336 647.532 283.94 647.8 284.716 647.8ZM291.114 649.096C290.866 649.096 290.674 649.028 290.538 648.892C290.41 648.748 290.346 648.552 290.346 648.304V641.32C290.346 641.064 290.414 640.872 290.55 640.744C290.686 640.608 290.878 640.54 291.126 640.54H294.018C294.946 640.54 295.662 640.772 296.166 641.236C296.67 641.7 296.922 642.348 296.922 643.18C296.922 644.012 296.67 644.664 296.166 645.136C295.662 645.6 294.946 645.832 294.018 645.832H291.882V648.304C291.882 648.552 291.818 648.748 291.69 648.892C291.562 649.028 291.37 649.096 291.114 649.096ZM291.882 644.62H293.778C294.322 644.62 294.734 644.5 295.014 644.26C295.294 644.012 295.434 643.652 295.434 643.18C295.434 642.708 295.294 642.352 295.014 642.112C294.734 641.872 294.322 641.752 293.778 641.752H291.882V644.62ZM298.99 649C298.726 649 298.522 648.932 298.378 648.796C298.242 648.652 298.174 648.448 298.174 648.184V641.356C298.174 641.092 298.242 640.892 298.378 640.756C298.522 640.612 298.726 640.54 298.99 640.54H303.274C303.474 640.54 303.626 640.592 303.73 640.696C303.842 640.8 303.898 640.948 303.898 641.14C303.898 641.34 303.842 641.496 303.73 641.608C303.626 641.712 303.474 641.764 303.274 641.764H299.65V644.092H303.01C303.218 644.092 303.374 644.144 303.478 644.248C303.582 644.352 303.634 644.504 303.634 644.704C303.634 644.904 303.582 645.056 303.478 645.16C303.374 645.264 303.218 645.316 303.01 645.316H299.65V647.776H303.274C303.474 647.776 303.626 647.828 303.73 647.932C303.842 648.036 303.898 648.188 303.898 648.388C303.898 648.588 303.842 648.74 303.73 648.844C303.626 648.948 303.474 649 303.274 649H298.99ZM306.054 649.096C305.822 649.096 305.642 649.032 305.514 648.904C305.394 648.776 305.334 648.592 305.334 648.352V641.212C305.334 640.964 305.394 640.776 305.514 640.648C305.642 640.512 305.806 640.444 306.006 640.444C306.19 640.444 306.326 640.48 306.414 640.552C306.51 640.616 306.622 640.728 306.75 640.888L311.346 646.852H311.034V641.176C311.034 640.944 311.094 640.764 311.214 640.636C311.342 640.508 311.522 640.444 311.754 640.444C311.986 640.444 312.162 640.508 312.282 640.636C312.402 640.764 312.462 640.944 312.462 641.176V648.376C312.462 648.6 312.406 648.776 312.294 648.904C312.182 649.032 312.03 649.096 311.838 649.096C311.654 649.096 311.506 649.06 311.394 648.988C311.29 648.916 311.174 648.8 311.046 648.64L306.462 642.676H306.762V648.352C306.762 648.592 306.702 648.776 306.582 648.904C306.462 649.032 306.286 649.096 306.054 649.096Z" fill="black"/>
<rect x="565" y="630" width="60" height="30" rx="10" fill="white"/>
<path d="M582.716 649.12C581.9 649.12 581.184 648.94 580.568 648.58C579.96 648.22 579.488 647.716 579.152 647.068C578.816 646.412 578.648 645.644 578.648 644.764C578.648 644.1 578.744 643.504 578.936 642.976C579.128 642.44 579.4 641.984 579.752 641.608C580.112 641.224 580.54 640.932 581.036 640.732C581.54 640.524 582.1 640.42 582.716 640.42C583.54 640.42 584.256 640.6 584.864 640.96C585.472 641.312 585.944 641.812 586.28 642.46C586.616 643.108 586.784 643.872 586.784 644.752C586.784 645.416 586.688 646.016 586.496 646.552C586.304 647.088 586.028 647.548 585.668 647.932C585.316 648.316 584.888 648.612 584.384 648.82C583.888 649.02 583.332 649.12 582.716 649.12ZM582.716 647.8C583.236 647.8 583.676 647.68 584.036 647.44C584.404 647.2 584.684 646.852 584.876 646.396C585.076 645.94 585.176 645.396 585.176 644.764C585.176 643.804 584.96 643.06 584.528 642.532C584.104 642.004 583.5 641.74 582.716 641.74C582.204 641.74 581.764 641.86 581.396 642.1C581.028 642.332 580.744 642.676 580.544 643.132C580.352 643.58 580.256 644.124 580.256 644.764C580.256 645.716 580.472 646.46 580.904 646.996C581.336 647.532 581.94 647.8 582.716 647.8ZM589.114 649.096C588.866 649.096 588.674 649.028 588.538 648.892C588.41 648.748 588.346 648.552 588.346 648.304V641.32C588.346 641.064 588.414 640.872 588.55 640.744C588.686 640.608 588.878 640.54 589.126 640.54H592.018C592.946 640.54 593.662 640.772 594.166 641.236C594.67 641.7 594.922 642.348 594.922 643.18C594.922 644.012 594.67 644.664 594.166 645.136C593.662 645.6 592.946 645.832 592.018 645.832H589.882V648.304C589.882 648.552 589.818 648.748 589.69 648.892C589.562 649.028 589.37 649.096 589.114 649.096ZM589.882 644.62H591.778C592.322 644.62 592.734 644.5 593.014 644.26C593.294 644.012 593.434 643.652 593.434 643.18C593.434 642.708 593.294 642.352 593.014 642.112C592.734 641.872 592.322 641.752 591.778 641.752H589.882V644.62ZM596.99 649C596.726 649 596.522 648.932 596.378 648.796C596.242 648.652 596.174 648.448 596.174 648.184V641.356C596.174 641.092 596.242 640.892 596.378 640.756C596.522 640.612 596.726 640.54 596.99 640.54H601.274C601.474 640.54 601.626 640.592 601.73 640.696C601.842 640.8 601.898 640.948 601.898 641.14C601.898 641.34 601.842 641.496 601.73 641.608C601.626 641.712 601.474 641.764 601.274 641.764H597.65V644.092H601.01C601.218 644.092 601.374 644.144 601.478 644.248C601.582 644.352 601.634 644.504 601.634 644.704C601.634 644.904 601.582 645.056 601.478 645.16C601.374 645.264 601.218 645.316 601.01 645.316H597.65V647.776H601.274C601.474 647.776 601.626 647.828 601.73 647.932C601.842 648.036 601.898 648.188 601.898 648.388C601.898 648.588 601.842 648.74 601.73 648.844C601.626 648.948 601.474 649 601.274 649H596.99ZM604.054 649.096C603.822 649.096 603.642 649.032 603.514 648.904C603.394 648.776 603.334 648.592 603.334 648.352V641.212C603.334 640.964 603.394 640.776 603.514 640.648C603.642 640.512 603.806 640.444 604.006 640.444C604.19 640.444 604.326 640.48 604.414 640.552C604.51 640.616 604.622 640.728 604.75 640.888L609.346 646.852H609.034V641.176C609.034 640.944 609.094 640.764 609.214 640.636C609.342 640.508 609.522 640.444 609.754 640.444C609.986 640.444 610.162 640.508 610.282 640.636C610.402 640.764 610.462 640.944 610.462 641.176V648.376C610.462 648.6 610.406 648.776 610.294 648.904C610.182 649.032 610.03 649.096 609.838 649.096C609.654 649.096 609.506 649.06 609.394 648.988C609.29 648.916 609.174 648.8 609.046 648.64L604.462 642.676H604.762V648.352C604.762 648.592 604.702 648.776 604.582 648.904C604.462 649.032 604.286 649.096 604.054 649.096Z" fill="black"/>
<rect x="855" y="630" width="60" height="30" rx="10" fill="white"/>
<path d="M872.716 649.12C871.9 649.12 871.184 648.94 870.568 648.58C869.96 648.22 869.488 647.716 869.152 647.068C868.816 646.412 868.648 645.644 868.648 644.764C868.648 644.1 868.744 643.504 868.936 642.976C869.128 642.44 869.4 641.984 869.752 641.608C870.112 641.224 870.54 640.932 871.036 640.732C871.54 640.524 872.1 640.42 872.716 640.42C873.54 640.42 874.256 640.6 874.864 640.96C875.472 641.312 875.944 641.812 876.28 642.46C876.616 643.108 876.784 643.872 876.784 644.752C876.784 645.416 876.688 646.016 876.496 646.552C876.304 647.088 876.028 647.548 875.668 647.932C875.316 648.316 874.888 648.612 874.384 648.82C873.888 649.02 873.332 649.12 872.716 649.12ZM872.716 647.8C873.236 647.8 873.676 647.68 874.036 647.44C874.404 647.2 874.684 646.852 874.876 646.396C875.076 645.94 875.176 645.396 875.176 644.764C875.176 643.804 874.96 643.06 874.528 642.532C874.104 642.004 873.5 641.74 872.716 641.74C872.204 641.74 871.764 641.86 871.396 642.1C871.028 642.332 870.744 642.676 870.544 643.132C870.352 643.58 870.256 644.124 870.256 644.764C870.256 645.716 870.472 646.46 870.904 646.996C871.336 647.532 871.94 647.8 872.716 647.8ZM879.114 649.096C878.866 649.096 878.674 649.028 878.538 648.892C878.41 648.748 878.346 648.552 878.346 648.304V641.32C878.346 641.064 878.414 640.872 878.55 640.744C878.686 640.608 878.878 640.54 879.126 640.54H882.018C882.946 640.54 883.662 640.772 884.166 641.236C884.67 641.7 884.922 642.348 884.922 643.18C884.922 644.012 884.67 644.664 884.166 645.136C883.662 645.6 882.946 645.832 882.018 645.832H879.882V648.304C879.882 648.552 879.818 648.748 879.69 648.892C879.562 649.028 879.37 649.096 879.114 649.096ZM879.882 644.62H881.778C882.322 644.62 882.734 644.5 883.014 644.26C883.294 644.012 883.434 643.652 883.434 643.18C883.434 642.708 883.294 642.352 883.014 642.112C882.734 641.872 882.322 641.752 881.778 641.752H879.882V644.62ZM886.99 649C886.726 649 886.522 648.932 886.378 648.796C886.242 648.652 886.174 648.448 886.174 648.184V641.356C886.174 641.092 886.242 640.892 886.378 640.756C886.522 640.612 886.726 640.54 886.99 640.54H891.274C891.474 640.54 891.626 640.592 891.73 640.696C891.842 640.8 891.898 640.948 891.898 641.14C891.898 641.34 891.842 641.496 891.73 641.608C891.626 641.712 891.474 641.764 891.274 641.764H887.65V644.092H891.01C891.218 644.092 891.374 644.144 891.478 644.248C891.582 644.352 891.634 644.504 891.634 644.704C891.634 644.904 891.582 645.056 891.478 645.16C891.374 645.264 891.218 645.316 891.01 645.316H887.65V647.776H891.274C891.474 647.776 891.626 647.828 891.73 647.932C891.842 648.036 891.898 648.188 891.898 648.388C891.898 648.588 891.842 648.74 891.73 648.844C891.626 648.948 891.474 649 891.274 649H886.99ZM894.054 649.096C893.822 649.096 893.642 649.032 893.514 648.904C893.394 648.776 893.334 648.592 893.334 648.352V641.212C893.334 640.964 893.394 640.776 893.514 640.648C893.642 640.512 893.806 640.444 894.006 640.444C894.19 640.444 894.326 640.48 894.414 640.552C894.51 640.616 894.622 640.728 894.75 640.888L899.346 646.852H899.034V641.176C899.034 640.944 899.094 640.764 899.214 640.636C899.342 640.508 899.522 640.444 899.754 640.444C899.986 640.444 900.162 640.508 900.282 640.636C900.402 640.764 900.462 640.944 900.462 641.176V648.376C900.462 648.6 900.406 648.776 900.294 648.904C900.182 649.032 900.03 649.096 899.838 649.096C899.654 649.096 899.506 649.06 899.394 648.988C899.29 648.916 899.174 648.8 899.046 648.64L894.462 642.676H894.762V648.352C894.762 648.592 894.702 648.776 894.582 648.904C894.462 649.032 894.286 649.096 894.054 649.096Z" fill="black"/>
<rect x="1145" y="630" width="60" height="30" rx="10" fill="white"/>
<path d="M1162.72 649.12C1161.9 649.12 1161.18 648.94 1160.57 648.58C1159.96 648.22 1159.49 647.716 1159.15 647.068C1158.82 646.412 1158.65 645.644 1158.65 644.764C1158.65 644.1 1158.74 643.504 1158.94 642.976C1159.13 642.44 1159.4 641.984 1159.75 641.608C1160.11 641.224 1160.54 640.932 1161.04 640.732C1161.54 640.524 1162.1 640.42 1162.72 640.42C1163.54 640.42 1164.26 640.6 1164.86 640.96C1165.47 641.312 1165.94 641.812 1166.28 642.46C1166.62 643.108 1166.78 643.872 1166.78 644.752C1166.78 645.416 1166.69 646.016 1166.5 646.552C1166.3 647.088 1166.03 647.548 1165.67 647.932C1165.32 648.316 1164.89 648.612 1164.38 648.82C1163.89 649.02 1163.33 649.12 1162.72 649.12ZM1162.72 647.8C1163.24 647.8 1163.68 647.68 1164.04 647.44C1164.4 647.2 1164.68 646.852 1164.88 646.396C1165.08 645.94 1165.18 645.396 1165.18 644.764C1165.18 643.804 1164.96 643.06 1164.53 642.532C1164.1 642.004 1163.5 641.74 1162.72 641.74C1162.2 641.74 1161.76 641.86 1161.4 642.1C1161.03 642.332 1160.74 642.676 1160.54 643.132C1160.35 643.58 1160.26 644.124 1160.26 644.764C1160.26 645.716 1160.47 646.46 1160.9 646.996C1161.34 647.532 1161.94 647.8 1162.72 647.8ZM1169.11 649.096C1168.87 649.096 1168.67 649.028 1168.54 648.892C1168.41 648.748 1168.35 648.552 1168.35 648.304V641.32C1168.35 641.064 1168.41 640.872 1168.55 640.744C1168.69 640.608 1168.88 640.54 1169.13 640.54H1172.02C1172.95 640.54 1173.66 640.772 1174.17 641.236C1174.67 641.7 1174.92 642.348 1174.92 643.18C1174.92 644.012 1174.67 644.664 1174.17 645.136C1173.66 645.6 1172.95 645.832 1172.02 645.832H1169.88V648.304C1169.88 648.552 1169.82 648.748 1169.69 648.892C1169.56 649.028 1169.37 649.096 1169.11 649.096ZM1169.88 644.62H1171.78C1172.32 644.62 1172.73 644.5 1173.01 644.26C1173.29 644.012 1173.43 643.652 1173.43 643.18C1173.43 642.708 1173.29 642.352 1173.01 642.112C1172.73 641.872 1172.32 641.752 1171.78 641.752H1169.88V644.62ZM1176.99 649C1176.73 649 1176.52 648.932 1176.38 648.796C1176.24 648.652 1176.17 648.448 1176.17 648.184V641.356C1176.17 641.092 1176.24 640.892 1176.38 640.756C1176.52 640.612 1176.73 640.54 1176.99 640.54H1181.27C1181.47 640.54 1181.63 640.592 1181.73 640.696C1181.84 640.8 1181.9 640.948 1181.9 641.14C1181.9 641.34 1181.84 641.496 1181.73 641.608C1181.63 641.712 1181.47 641.764 1181.27 641.764H1177.65V644.092H1181.01C1181.22 644.092 1181.37 644.144 1181.48 644.248C1181.58 644.352 1181.63 644.504 1181.63 644.704C1181.63 644.904 1181.58 645.056 1181.48 645.16C1181.37 645.264 1181.22 645.316 1181.01 645.316H1177.65V647.776H1181.27C1181.47 647.776 1181.63 647.828 1181.73 647.932C1181.84 648.036 1181.9 648.188 1181.9 648.388C1181.9 648.588 1181.84 648.74 1181.73 648.844C1181.63 648.948 1181.47 649 1181.27 649H1176.99ZM1184.05 649.096C1183.82 649.096 1183.64 649.032 1183.51 648.904C1183.39 648.776 1183.33 648.592 1183.33 648.352V641.212C1183.33 640.964 1183.39 640.776 1183.51 640.648C1183.64 640.512 1183.81 640.444 1184.01 640.444C1184.19 640.444 1184.33 640.48 1184.41 640.552C1184.51 640.616 1184.62 640.728 1184.75 640.888L1189.35 646.852H1189.03V641.176C1189.03 640.944 1189.09 640.764 1189.21 640.636C1189.34 640.508 1189.52 640.444 1189.75 640.444C1189.99 640.444 1190.16 640.508 1190.28 640.636C1190.4 640.764 1190.46 640.944 1190.46 641.176V648.376C1190.46 648.6 1190.41 648.776 1190.29 648.904C1190.18 649.032 1190.03 649.096 1189.84 649.096C1189.65 649.096 1189.51 649.06 1189.39 648.988C1189.29 648.916 1189.17 648.8 1189.05 648.64L1184.46 642.676H1184.76V648.352C1184.76 648.592 1184.7 648.776 1184.58 648.904C1184.46 649.032 1184.29 649.096 1184.05 649.096Z" fill="black"/>
<path d="M267 980C267 974.477 271.477 970 277 970H317C322.523 970 327 974.477 327 980H267Z" fill="white"/>
<path d="M847 980C847 974.477 851.477 970 857 970H897C902.523 970 907 974.477 907 980H847Z" fill="white"/>
<path d="M557 980C557 974.477 561.477 970 567 970H607C612.523 970 617 974.477 617 980H557Z" fill="white"/>
<path d="M1137 980C1137 974.477 1141.48 970 1147 970H1187C1192.52 970 1197 974.477 1197 980H1137Z" fill="white"/>
<rect x="180" y="360" width="250" height="250" rx="10" fill="white"/>
<rect x="210.5" y="390.5" width="189" height="29" rx="9.5" stroke="black"/>
<rect x="760" y="360" width="250" height="250" rx="10" fill="white"/>
<rect x="790.5" y="390.5" width="189" height="29" rx="9.5" stroke="black"/>
<rect x="470" y="360" width="250" height="250" rx="10" fill="white"/>
<rect x="500.5" y="390.5" width="189" height="29" rx="9.5" stroke="black"/>
<rect x="1050" y="360" width="250" height="250" rx="10" fill="white"/>
<rect x="1080.5" y="390.5" width="189" height="29" rx="9.5" stroke="black"/>
<rect x="180" y="700" width="250" height="250" rx="10" fill="white"/>
<rect x="210.5" y="730.5" width="189" height="29" rx="9.5" stroke="black"/>
<rect x="760" y="700" width="250" height="250" rx="10" fill="white"/>
<rect x="790.5" y="730.5" width="189" height="29" rx="9.5" stroke="black"/>
<rect x="470" y="700" width="250" height="250" rx="10" fill="white"/>
<rect x="500.5" y="730.5" width="189" height="29" rx="9.5" stroke="black"/>
<rect x="1050" y="700" width="250" height="250" rx="10" fill="white"/>
<rect x="1080.5" y="730.5" width="189" height="29" rx="9.5" stroke="black"/>
<rect x="210.5" y="430.5" width="189" height="149" rx="9.5" stroke="black"/>
<rect x="210.5" y="770.5" width="189" height="149" rx="9.5" stroke="black"/>
<rect x="500.5" y="430.5" width="189" height="149" rx="9.5" stroke="black"/>
<rect x="500.5" y="770.5" width="189" height="149" rx="9.5" stroke="black"/>
<rect x="790.5" y="430.5" width="189" height="149" rx="9.5" stroke="black"/>
<rect x="790.5" y="770.5" width="189" height="149" rx="9.5" stroke="black"/>
<rect x="1080.5" y="430.5" width="189" height="149" rx="9.5" stroke="black"/>
<rect x="1080.5" y="770.5" width="189" height="149" rx="9.5" stroke="black"/>
<rect x="313" y="175" width="987" height="90" rx="10" fill="white"/>
</svg>
