<svg width="1480" height="1000" viewBox="0 0 1480 1000" fill="none" xmlns="http://www.w3.org/2000/svg">
<rect width="1480" height="1000" rx="20" fill="white"/>
<rect x="1" y="0.9375" width="1478" height="998.124" rx="20" fill="black"/>
<rect x="20" y="20" width="1440" height="960" fill="#F2F2F2"/>
<path d="M300.901 383.867V383.427C310.959 378.158 318.768 370.42 324.338 360.212C329.907 350.005 332.687 339.437 332.687 328.51C332.687 314.253 328.147 303.445 319.068 296.067C309.989 288.689 295.821 285.01 276.584 285.01H252.957L247.228 332.459H262.816C272.974 332.459 278.044 336.808 278.044 345.496C278.044 352.234 275.874 357.943 271.524 362.632C267.175 367.321 261.636 369.66 254.897 369.66H242.748L237.869 410.081H257.846C261.756 410.081 265.045 410.691 267.735 411.91C270.425 413.13 272.394 414.82 273.664 416.959C274.934 419.099 275.564 421.648 275.564 424.577C275.564 431.896 272.924 438.174 267.655 443.393C262.386 448.612 255.837 451.231 248.028 451.231H232.899L227.24 498.1H261.496C271.844 498.1 281.313 496.291 289.912 492.682C298.501 489.073 305.76 484.094 311.659 477.745C317.558 471.397 322.128 463.758 325.357 454.83C328.587 445.903 330.187 436.205 330.187 425.757C330.197 404.562 320.428 390.605 300.901 383.867Z" fill="#323333"/>
<path d="M478.568 285.01L463.34 408.471C462.36 416.479 460.97 423.218 459.17 428.677C457.37 434.135 455.071 438.464 452.291 441.634C449.511 444.803 446.362 447.072 442.842 448.442C439.923 449.572 436.523 450.232 432.664 450.421L426.564 501C439.733 500.95 451.271 499.39 461.15 496.321C471.209 493.192 480.137 488.143 487.956 481.164C495.775 474.186 502.115 464.808 506.994 453.041C511.873 441.274 515.343 426.947 517.393 410.061L532.751 285.01H478.568Z" fill="#323333"/>
<path d="M609.441 285.01L583.725 498.09H594.713L620.78 285.01H609.441Z" fill="#323333"/>
<path d="M699.609 449.762L693.779 498.091H758.311L764.17 449.762H699.609Z" fill="#323333"/>
<path d="M961.714 337.268C958.054 326.38 952.605 317.032 945.386 309.224C938.167 301.416 928.928 295.427 917.699 291.278C906.471 287.129 893.583 285.05 879.035 285.05H871.755L865.906 333.529H872.295C885.674 333.529 895.412 337.018 901.512 343.996C907.611 350.975 910.67 361.402 910.67 375.259C910.67 383.367 910.01 391.055 908.691 398.324C907.371 405.592 905.271 412.38 902.391 418.679C899.512 424.977 895.992 430.416 891.843 435.005C887.693 439.594 882.614 443.203 876.615 445.843C870.616 448.482 863.996 449.802 856.767 449.802H851.878L846.049 498.13H850.328C868.396 498.13 884.794 495.081 899.542 488.973C914.29 482.864 926.588 474.356 936.447 463.419C946.306 452.481 953.905 439.404 959.224 424.168C964.543 408.931 967.203 392.245 967.203 374.079C967.203 360.432 965.373 348.155 961.714 337.268Z" fill="#323333"/>
<path d="M1107.28 368.971H1058.83L1053.13 416.28H1101.56L1107.28 368.971Z" fill="#323333"/>
<path d="M1043.25 498.14H1114L1119.86 449.812H1049.08L1043.25 498.14Z" fill="#323333"/>
<path d="M1068.96 285.061L1063.11 333.529H1128.65L1134.51 285.061H1068.96Z" fill="#323333"/>
<path d="M1241.86 498.14H1299.99L1265.72 421.838L1265.87 421.108C1278.75 414.08 1288.66 403.952 1295.6 390.715C1302.54 377.478 1306 362.232 1306 344.946C1306 336.448 1304.8 328.64 1302.41 321.511C1300.02 314.383 1296.43 308.064 1291.64 302.546C1286.85 297.027 1280.48 292.738 1272.52 289.659C1264.57 286.579 1255.37 285.05 1244.92 285.05H1229.94L1224.16 332.939H1230.86C1236.13 332.939 1240.58 334.528 1244.19 337.698C1247.8 340.867 1249.61 345.976 1249.61 353.004C1249.61 361.592 1247.05 368.99 1241.92 375.189C1236.79 381.388 1230.08 384.487 1221.78 384.487H1217.94L1212.23 431.786L1241.86 498.14Z" fill="#323333"/>
<path d="M200.794 285.01C199.584 285.01 198.554 285.92 198.414 287.119L187.235 378.498L173.017 495.401C172.847 496.831 173.957 498.09 175.397 498.09H175.467C176.677 498.09 177.707 497.181 177.847 495.981L203.173 287.699C203.353 286.269 202.233 285.01 200.794 285.01Z" fill="#323333"/>
<path d="M210.612 285.01H210.542C209.332 285.01 208.302 285.92 208.162 287.119L182.836 495.401C182.666 496.831 183.775 498.09 185.215 498.09H185.285C186.495 498.09 187.525 497.181 187.665 495.981L212.992 287.699C213.172 286.269 212.052 285.01 210.612 285.01Z" fill="#323333"/>
<path d="M237.61 287.119L212.283 495.401C212.113 496.831 213.223 498.09 214.663 498.09H214.932C216.152 498.09 217.172 497.181 217.312 495.981L242.449 287.699C242.619 286.269 241.499 285.01 240.059 285.01H239.989C238.779 285.01 237.75 285.92 237.61 287.119Z" fill="#323333"/>
<path d="M230.241 285.01H230.171C228.961 285.01 227.931 285.92 227.791 287.119L202.464 495.401C202.295 496.831 203.404 498.09 204.844 498.09H204.914C206.124 498.09 207.154 497.181 207.294 495.981L232.631 287.699C232.801 286.269 231.681 285.01 230.241 285.01Z" fill="#323333"/>
<path d="M220.431 285.01H220.361C219.151 285.01 218.121 285.92 217.981 287.119L192.644 495.401C192.474 496.831 193.584 498.09 195.024 498.09H195.094C196.304 498.09 197.334 497.181 197.474 495.981L222.81 287.699C222.98 286.269 221.87 285.01 220.431 285.01Z" fill="#323333"/>
<path d="M571.195 498.09H571.565C572.695 498.09 573.644 497.251 573.774 496.131L598.951 287.499C599.111 286.179 598.071 285.01 596.741 285.01H596.561C595.432 285.01 594.492 285.85 594.352 286.969L568.985 495.601C568.815 496.931 569.855 498.09 571.195 498.09Z" fill="#323333"/>
<path d="M587.163 285.01H586.743C585.613 285.01 584.673 285.85 584.534 286.969L559.167 495.601C559.007 496.931 560.037 498.1 561.377 498.1H561.796C562.926 498.1 563.866 497.261 564.006 496.141L589.373 287.509C589.533 286.179 588.503 285.01 587.163 285.01Z" fill="#323333"/>
<path d="M551.558 498.09H551.978C553.108 498.09 554.048 497.251 554.188 496.131L579.565 287.509C579.724 286.179 578.695 285.01 577.355 285.01H576.935C575.805 285.01 574.865 285.85 574.725 286.969L549.348 495.601C549.188 496.931 550.218 498.09 551.558 498.09Z" fill="#323333"/>
<path d="M567.536 285.01C566.406 285.01 565.466 285.85 565.326 286.969L539.8 495.601C539.64 496.931 540.669 498.1 542.009 498.1H542.169C543.299 498.1 544.239 497.261 544.379 496.141L569.746 287.509C569.906 286.179 568.866 285.01 567.536 285.01Z" fill="#323333"/>
<path d="M642.075 498.09H642.305C643.475 498.09 644.465 497.211 644.605 496.051L669.961 287.609C670.131 286.229 669.051 285.01 667.662 285.01H667.432C666.262 285.01 665.272 285.89 665.132 287.049L639.785 495.491C639.605 496.881 640.685 498.09 642.075 498.09Z" fill="#323333"/>
<path d="M681.461 498.09H681.231C679.842 498.09 678.762 496.871 678.932 495.491L704.268 287.049C704.408 285.88 705.398 285.01 706.568 285.01H706.678C708.068 285.01 709.148 286.229 708.978 287.609L683.751 496.051C683.621 497.221 682.631 498.09 681.461 498.09Z" fill="#323333"/>
<path d="M677.472 285.01H677.242C676.072 285.01 675.082 285.89 674.942 287.049L649.596 495.491C649.426 496.871 650.506 498.09 651.895 498.09H652.125C653.295 498.09 654.285 497.211 654.425 496.051L679.782 287.609C679.942 286.229 678.862 285.01 677.472 285.01Z" fill="#323333"/>
<path d="M657.844 285.01C656.674 285.01 655.684 285.89 655.544 287.049L630.037 495.491C629.867 496.871 630.947 498.09 632.337 498.09H632.497C633.667 498.09 634.657 497.211 634.797 496.051L660.143 287.609C660.313 286.229 659.233 285.01 657.844 285.01Z" fill="#323333"/>
<path d="M687.29 285.01H687.061C685.891 285.01 684.901 285.89 684.761 287.049L659.414 495.491C659.244 496.871 660.324 498.09 661.714 498.09H661.944C663.114 498.09 664.104 497.211 664.243 496.051L689.59 287.609C689.76 286.229 688.68 285.01 687.29 285.01Z" fill="#323333"/>
<path d="M696.989 285.01H696.869C695.699 285.01 694.709 285.89 694.569 287.049L669.223 495.491C669.053 496.871 670.133 498.09 671.522 498.09H671.642C672.812 498.09 673.802 497.211 673.942 496.051L699.299 287.609C699.459 286.229 698.379 285.01 696.989 285.01Z" fill="#323333"/>
<path d="M794.585 498.09H794.795C795.975 498.09 796.965 497.211 797.115 496.041L822.452 287.629C822.622 286.239 821.532 285.01 820.132 285.01H819.922C818.742 285.01 817.752 285.89 817.602 287.059L792.266 495.481C792.106 496.871 793.186 498.09 794.585 498.09Z" fill="#323333"/>
<path d="M829.952 285.01H829.742C828.562 285.01 827.573 285.89 827.423 287.059L802.086 495.481C801.916 496.871 803.006 498.1 804.406 498.1H804.616C805.795 498.1 806.785 497.221 806.935 496.051L832.272 287.629C832.442 286.239 831.352 285.01 829.952 285.01Z" fill="#323333"/>
<path d="M839.771 285.01H839.561C838.381 285.01 837.391 285.89 837.241 287.059L811.904 495.481C811.734 496.871 812.824 498.1 814.224 498.1H814.434C815.614 498.1 816.604 497.221 816.754 496.051L842.09 287.629C842.26 286.239 841.17 285.01 839.771 285.01Z" fill="#323333"/>
<path d="M849.469 285.01H849.379C848.199 285.01 847.209 285.89 847.059 287.059L821.723 495.481C821.553 496.871 822.642 498.1 824.042 498.1H824.132C825.312 498.1 826.302 497.221 826.452 496.051L851.789 287.629C851.959 286.239 850.869 285.01 849.469 285.01Z" fill="#323333"/>
<path d="M859.147 285.01H859.057C857.877 285.01 856.887 285.89 856.737 287.059L831.4 495.481C831.23 496.871 832.32 498.1 833.72 498.1H833.81C834.99 498.1 835.98 497.221 836.13 496.051L861.466 287.629C861.636 286.239 860.547 285.01 859.147 285.01Z" fill="#323333"/>
<path d="M810.324 285.01C809.144 285.01 808.154 285.89 808.004 287.059L782.508 495.481C782.338 496.871 783.428 498.1 784.827 498.1H784.987C786.167 498.1 787.157 497.221 787.307 496.051L812.644 287.629C812.804 286.239 811.724 285.01 810.324 285.01Z" fill="#323333"/>
<path d="M1188.04 285.061H1187.6C1186.48 285.061 1185.53 285.9 1185.4 287.01L1160.03 495.662C1159.87 496.981 1160.9 498.141 1162.23 498.141H1162.67C1163.79 498.141 1164.74 497.301 1164.87 496.192L1190.24 287.54C1190.4 286.22 1189.37 285.061 1188.04 285.061Z" fill="#323333"/>
<path d="M1152.41 498.141H1152.85C1153.97 498.141 1154.92 497.301 1155.05 496.192L1180.42 287.54C1180.58 286.22 1179.55 285.061 1178.22 285.061H1177.78C1176.66 285.061 1175.71 285.9 1175.58 287.01L1150.21 495.662C1150.05 496.981 1151.08 498.141 1152.41 498.141Z" fill="#323333"/>
<path d="M1197.85 285.061H1197.41C1196.29 285.061 1195.34 285.9 1195.21 287.01L1169.85 495.662C1169.69 496.981 1170.72 498.141 1172.05 498.141H1172.49C1173.61 498.141 1174.56 497.301 1174.69 496.192L1200.05 287.54C1200.21 286.22 1199.18 285.061 1197.85 285.061Z" fill="#323333"/>
<path d="M1168.41 285.061C1167.29 285.061 1166.35 285.9 1166.21 287.01L1140.68 495.662C1140.52 496.981 1141.55 498.151 1142.88 498.151H1143.04C1144.16 498.151 1145.11 497.311 1145.24 496.202L1170.61 287.55C1170.77 286.22 1169.74 285.061 1168.41 285.061Z" fill="#323333"/>
<path d="M1207.55 285.061H1207.22C1206.1 285.061 1205.15 285.9 1205.02 287.01L1179.66 495.662C1179.5 496.981 1180.53 498.141 1181.86 498.141H1182.19C1183.31 498.141 1184.26 497.301 1184.39 496.192L1209.75 287.54C1209.91 286.22 1208.88 285.061 1207.55 285.061Z" fill="#323333"/>
<path d="M1217.25 285.061H1216.92C1215.8 285.061 1214.85 285.9 1214.72 287.01L1189.36 495.662C1189.2 496.981 1190.23 498.141 1191.56 498.141H1191.88C1193 498.141 1193.95 497.301 1194.08 496.192L1219.45 287.54C1219.62 286.22 1218.59 285.061 1217.25 285.061Z" fill="#323333"/>
<path d="M991.561 498.141H991.901C993.05 498.141 994.01 497.281 994.15 496.152L1019.51 287.6C1019.67 286.25 1018.62 285.061 1017.26 285.061H1016.92C1015.77 285.061 1014.81 285.92 1014.67 287.05L989.311 495.602C989.141 496.952 990.201 498.141 991.561 498.141Z" fill="#323333"/>
<path d="M1027.08 285.061H1026.74C1025.59 285.061 1024.63 285.92 1024.49 287.05L999.129 495.602C998.969 496.952 1000.02 498.141 1001.38 498.141H1001.72C1002.87 498.141 1003.83 497.281 1003.97 496.152L1029.33 287.6C1029.49 286.25 1028.44 285.061 1027.08 285.061Z" fill="#323333"/>
<path d="M1036.77 285.061H1036.54C1035.39 285.061 1034.43 285.92 1034.29 287.05L1008.94 495.602C1008.78 496.952 1009.83 498.141 1011.19 498.141H1011.42C1012.57 498.141 1013.53 497.281 1013.67 496.152L1039.02 287.6C1039.18 286.25 1038.13 285.061 1036.77 285.061Z" fill="#323333"/>
<path d="M1007.44 285.061C1006.29 285.061 1005.33 285.91 1005.19 287.05L979.672 495.602C979.502 496.952 980.562 498.141 981.922 498.141H982.082C983.232 498.141 984.192 497.281 984.332 496.152L1009.69 287.6C1009.86 286.25 1008.8 285.061 1007.44 285.061Z" fill="#323333"/>
<path d="M1046.59 285.061H1046.25C1045.1 285.061 1044.14 285.92 1044 287.05L1018.65 495.602C1018.49 496.952 1019.54 498.141 1020.9 498.141H1021.24C1022.39 498.141 1023.35 497.281 1023.49 496.152L1048.84 287.6C1049 286.25 1047.95 285.061 1046.59 285.061Z" fill="#323333"/>
<path d="M1056.4 285.061H1056.06C1054.91 285.061 1053.95 285.92 1053.81 287.05L1028.46 495.602C1028.3 496.952 1029.35 498.141 1030.71 498.141H1031.05C1032.2 498.141 1033.15 497.281 1033.29 496.152L1058.65 287.6C1058.82 286.25 1057.76 285.061 1056.4 285.061Z" fill="#323333"/>
<path d="M401.618 285.01H401.568C400.338 285.01 399.308 285.92 399.158 287.139L374.362 482.864C374.262 483.644 374.542 484.434 375.122 484.963C375.132 484.973 375.152 484.993 375.162 485.003C376.621 486.333 378.981 485.483 379.231 483.514L404.028 287.749C404.218 286.299 403.088 285.01 401.618 285.01Z" fill="#323333"/>
<path d="M358.044 455.311L379.342 287.15C379.502 285.92 380.542 285 381.781 285C383.261 285 384.401 286.3 384.221 287.769L362.924 455.93C362.604 458.49 359.064 458.88 358.174 456.46C358.044 456.1 357.994 455.7 358.044 455.311Z" fill="#323333"/>
<path d="M413.978 500.45C414.087 500.46 414.197 500.47 414.307 500.48C415.467 500.6 416.517 499.76 416.657 498.601L422.416 450.852C422.526 449.932 422.026 449.052 421.187 448.652C421.177 448.642 421.157 448.642 421.147 448.632C419.837 448.002 418.297 448.862 418.117 450.302L412.068 498.031C411.918 499.24 412.778 500.32 413.978 500.45Z" fill="#323333"/>
<path d="M352.104 429.246L369.802 286.899C369.932 285.819 370.852 285.02 371.932 285.02H372.232C373.522 285.02 374.522 286.159 374.362 287.439L356.364 429.786C356.024 432.475 352.034 432.185 352.084 429.476C352.084 429.396 352.094 429.316 352.104 429.246Z" fill="#323333"/>
<path d="M391.72 285.01H391.67C390.44 285.01 389.41 285.92 389.26 287.139L365.763 472.616C365.693 473.186 365.813 473.766 366.133 474.256C366.143 474.276 366.163 474.296 366.173 474.316C367.413 476.216 370.353 475.546 370.633 473.296L394.13 287.749C394.31 286.299 393.18 285.01 391.72 285.01Z" fill="#323333"/>
<path d="M411.527 285.01H411.477C410.247 285.01 409.217 285.92 409.067 287.139L383.441 489.432C383.321 490.402 383.781 491.352 384.621 491.832C384.641 491.842 384.651 491.852 384.671 491.862C386.19 492.732 388.1 491.802 388.32 490.072L413.937 287.749C414.127 286.299 412.997 285.01 411.527 285.01Z" fill="#323333"/>
<path d="M414.065 443.144L407.256 496.921C407.076 498.321 405.746 499.281 404.357 499.001C404.337 499.001 404.327 498.991 404.307 498.991C403.057 498.741 402.217 497.561 402.377 496.301L409.196 442.444C409.506 439.974 412.896 439.515 413.855 441.814L413.895 441.904C414.065 442.304 414.115 442.724 414.065 443.144Z" fill="#323333"/>
<path d="M421.436 285.01H421.386C420.156 285.01 419.126 285.92 418.976 287.139L392.809 493.661C392.669 494.801 393.339 495.891 394.429 496.271C394.449 496.281 394.459 496.281 394.479 496.291C395.939 496.801 397.489 495.821 397.689 494.291L423.845 287.749C424.025 286.299 422.896 285.01 421.436 285.01Z" fill="#323333"/>
<path d="M448.442 635.168C448.122 635.168 447.874 635.08 447.698 634.904C447.538 634.712 447.458 634.456 447.458 634.136V619.088C447.458 618.752 447.546 618.504 447.722 618.344C447.898 618.168 448.146 618.08 448.466 618.08H454.154C455.962 618.08 457.354 618.528 458.33 619.424C459.306 620.304 459.794 621.552 459.794 623.168C459.794 624.768 459.306 626.016 458.33 626.912C457.354 627.808 455.962 628.256 454.154 628.256H449.426V634.136C449.426 634.456 449.346 634.712 449.186 634.904C449.026 635.08 448.778 635.168 448.442 635.168ZM449.426 626.6H453.914C455.21 626.6 456.186 626.312 456.842 625.736C457.514 625.144 457.85 624.288 457.85 623.168C457.85 622.032 457.514 621.176 456.842 620.6C456.186 620.008 455.21 619.712 453.914 619.712H449.426V626.6ZM466.03 635.168C465.71 635.168 465.462 635.08 465.286 634.904C465.126 634.712 465.046 634.456 465.046 634.136V619.088C465.046 618.752 465.134 618.504 465.31 618.344C465.486 618.168 465.734 618.08 466.054 618.08H471.742C473.55 618.08 474.942 618.504 475.918 619.352C476.894 620.2 477.382 621.408 477.382 622.976C477.382 623.968 477.158 624.832 476.71 625.568C476.278 626.288 475.638 626.84 474.79 627.224C473.942 627.592 472.926 627.776 471.742 627.776L471.982 627.464H472.462C473.086 627.464 473.63 627.624 474.094 627.944C474.558 628.264 474.982 628.776 475.366 629.48L477.67 633.776C477.798 634 477.854 634.224 477.838 634.448C477.838 634.656 477.766 634.832 477.622 634.976C477.478 635.104 477.27 635.168 476.998 635.168C476.726 635.168 476.502 635.104 476.326 634.976C476.15 634.848 475.998 634.664 475.87 634.424L473.254 629.576C472.886 628.888 472.462 628.432 471.982 628.208C471.502 627.968 470.87 627.848 470.086 627.848H467.014V634.136C467.014 634.456 466.934 634.712 466.774 634.904C466.614 635.08 466.366 635.168 466.03 635.168ZM467.014 626.288H471.454C472.766 626.288 473.758 626.016 474.43 625.472C475.102 624.912 475.438 624.08 475.438 622.976C475.438 621.904 475.102 621.096 474.43 620.552C473.758 619.992 472.766 619.712 471.454 619.712H467.014V626.288ZM490.487 635.216C488.919 635.216 487.551 634.864 486.383 634.16C485.231 633.44 484.335 632.432 483.695 631.136C483.071 629.84 482.759 628.304 482.759 626.528C482.759 625.184 482.935 623.984 483.287 622.928C483.655 621.856 484.175 620.952 484.847 620.216C485.519 619.464 486.327 618.888 487.271 618.488C488.231 618.072 489.303 617.864 490.487 617.864C492.087 617.864 493.463 618.216 494.615 618.92C495.783 619.624 496.679 620.624 497.303 621.92C497.943 623.2 498.263 624.728 498.263 626.504C498.263 627.848 498.079 629.056 497.711 630.128C497.343 631.2 496.823 632.112 496.151 632.864C495.479 633.616 494.663 634.2 493.703 634.616C492.759 635.016 491.687 635.216 490.487 635.216ZM490.487 633.464C491.703 633.464 492.727 633.192 493.559 632.648C494.407 632.104 495.055 631.312 495.503 630.272C495.951 629.232 496.175 627.984 496.175 626.528C496.175 624.336 495.679 622.64 494.687 621.44C493.711 620.224 492.311 619.616 490.487 619.616C489.303 619.616 488.287 619.888 487.439 620.432C486.607 620.976 485.967 621.768 485.519 622.808C485.071 623.832 484.847 625.072 484.847 626.528C484.847 628.704 485.343 630.408 486.335 631.64C487.327 632.856 488.711 633.464 490.487 633.464ZM505.238 635.168C504.902 635.168 504.638 635.08 504.446 634.904C504.27 634.712 504.182 634.44 504.182 634.088V619.16C504.182 618.808 504.27 618.544 504.446 618.368C504.638 618.176 504.91 618.08 505.262 618.08H513.974C514.246 618.08 514.454 618.152 514.598 618.296C514.742 618.44 514.814 618.64 514.814 618.896C514.814 619.168 514.742 619.376 514.598 619.52C514.454 619.664 514.246 619.736 513.974 619.736H506.15V625.64H513.47C513.742 625.64 513.95 625.712 514.094 625.856C514.254 626 514.334 626.2 514.334 626.456C514.334 626.728 514.254 626.936 514.094 627.08C513.95 627.224 513.742 627.296 513.47 627.296H506.15V634.088C506.15 634.808 505.846 635.168 505.238 635.168ZM520.714 635.168C520.394 635.168 520.146 635.08 519.97 634.904C519.81 634.712 519.73 634.456 519.73 634.136V618.944C519.73 618.608 519.81 618.352 519.97 618.176C520.146 618 520.394 617.912 520.714 617.912C521.034 617.912 521.274 618 521.434 618.176C521.61 618.352 521.698 618.608 521.698 618.944V634.136C521.698 634.456 521.618 634.712 521.458 634.904C521.298 635.08 521.05 635.168 520.714 635.168ZM529.302 635C528.982 635 528.734 634.912 528.558 634.736C528.382 634.544 528.294 634.288 528.294 633.968V618.992C528.294 618.656 528.374 618.4 528.534 618.224C528.71 618.048 528.958 617.96 529.278 617.96C529.598 617.96 529.838 618.048 529.998 618.224C530.174 618.4 530.262 618.656 530.262 618.992V633.272H538.134C538.422 633.272 538.646 633.352 538.806 633.512C538.966 633.656 539.046 633.864 539.046 634.136C539.046 634.408 538.966 634.624 538.806 634.784C538.646 634.928 538.422 635 538.134 635H529.302ZM544.805 635C544.453 635 544.181 634.912 543.989 634.736C543.813 634.544 543.725 634.272 543.725 633.92V619.16C543.725 618.808 543.813 618.544 543.989 618.368C544.181 618.176 544.453 618.08 544.805 618.08H553.733C554.005 618.08 554.213 618.152 554.357 618.296C554.501 618.44 554.573 618.64 554.573 618.896C554.573 619.168 554.501 619.376 554.357 619.52C554.213 619.664 554.005 619.736 553.733 619.736H545.645V625.592H553.229C553.501 625.592 553.709 625.664 553.853 625.808C553.997 625.936 554.069 626.136 554.069 626.408C554.069 626.68 553.997 626.888 553.853 627.032C553.709 627.176 553.501 627.248 553.229 627.248H545.645V633.344H553.733C554.005 633.344 554.213 633.416 554.357 633.56C554.501 633.704 554.573 633.904 554.573 634.16C554.573 634.432 554.501 634.64 554.357 634.784C554.213 634.928 554.005 635 553.733 635H544.805Z" fill="black"/>
<path d="M665.481 635.216C663.817 635.216 662.393 634.864 661.209 634.16C660.025 633.456 659.113 632.456 658.473 631.16C657.849 629.864 657.537 628.32 657.537 626.528C657.537 625.184 657.713 623.984 658.065 622.928C658.433 621.856 658.953 620.952 659.625 620.216C660.313 619.464 661.153 618.888 662.145 618.488C663.137 618.072 664.249 617.864 665.481 617.864C666.473 617.864 667.417 618.008 668.313 618.296C669.209 618.568 669.985 618.976 670.641 619.52C670.849 619.68 670.985 619.864 671.049 620.072C671.129 620.264 671.137 620.456 671.073 620.648C671.025 620.824 670.929 620.976 670.785 621.104C670.657 621.216 670.497 621.272 670.305 621.272C670.113 621.272 669.897 621.192 669.657 621.032C669.081 620.568 668.449 620.224 667.761 620C667.073 619.776 666.329 619.664 665.529 619.664C664.265 619.664 663.193 619.936 662.313 620.48C661.433 621.008 660.769 621.784 660.321 622.808C659.873 623.832 659.649 625.072 659.649 626.528C659.649 627.984 659.873 629.232 660.321 630.272C660.769 631.296 661.433 632.08 662.313 632.624C663.193 633.152 664.265 633.416 665.529 633.416C666.313 633.416 667.057 633.304 667.761 633.08C668.465 632.84 669.113 632.488 669.705 632.024C669.945 631.864 670.161 631.792 670.353 631.808C670.545 631.808 670.705 631.864 670.833 631.976C670.961 632.088 671.049 632.232 671.097 632.408C671.161 632.584 671.161 632.768 671.097 632.96C671.049 633.152 670.929 633.32 670.737 633.464C670.065 634.04 669.273 634.48 668.361 634.784C667.465 635.072 666.505 635.216 665.481 635.216ZM683.322 635.216C681.754 635.216 680.386 634.864 679.218 634.16C678.066 633.44 677.17 632.432 676.53 631.136C675.906 629.84 675.594 628.304 675.594 626.528C675.594 625.184 675.77 623.984 676.122 622.928C676.49 621.856 677.01 620.952 677.682 620.216C678.354 619.464 679.162 618.888 680.106 618.488C681.066 618.072 682.138 617.864 683.322 617.864C684.922 617.864 686.298 618.216 687.45 618.92C688.618 619.624 689.514 620.624 690.138 621.92C690.778 623.2 691.098 624.728 691.098 626.504C691.098 627.848 690.914 629.056 690.546 630.128C690.178 631.2 689.658 632.112 688.986 632.864C688.314 633.616 687.498 634.2 686.538 634.616C685.594 635.016 684.522 635.216 683.322 635.216ZM683.322 633.464C684.538 633.464 685.562 633.192 686.394 632.648C687.242 632.104 687.89 631.312 688.338 630.272C688.786 629.232 689.01 627.984 689.01 626.528C689.01 624.336 688.514 622.64 687.522 621.44C686.546 620.224 685.146 619.616 683.322 619.616C682.138 619.616 681.122 619.888 680.274 620.432C679.442 620.976 678.802 621.768 678.354 622.808C677.906 623.832 677.682 625.072 677.682 626.528C677.682 628.704 678.178 630.408 679.17 631.64C680.162 632.856 681.546 633.464 683.322 633.464ZM697.952 635.168C697.648 635.168 697.416 635.088 697.256 634.928C697.096 634.752 697.016 634.504 697.016 634.184V618.92C697.016 618.6 697.096 618.352 697.256 618.176C697.416 618 697.624 617.912 697.88 617.912C698.136 617.912 698.32 617.96 698.432 618.056C698.56 618.136 698.704 618.288 698.864 618.512L709.328 632.456H708.752V618.872C708.752 618.568 708.832 618.336 708.992 618.176C709.152 618 709.384 617.912 709.688 617.912C709.976 617.912 710.192 618 710.336 618.176C710.496 618.336 710.576 618.568 710.576 618.872V634.208C710.576 634.512 710.504 634.752 710.36 634.928C710.232 635.088 710.04 635.168 709.784 635.168C709.544 635.168 709.352 635.12 709.208 635.024C709.064 634.928 708.912 634.776 708.752 634.568L698.312 620.624H698.864V634.184C698.864 634.504 698.784 634.752 698.624 634.928C698.464 635.088 698.24 635.168 697.952 635.168ZM722.318 635.168C722.014 635.168 721.774 635.08 721.598 634.904C721.422 634.712 721.334 634.456 721.334 634.136V619.784H715.934C715.646 619.784 715.422 619.704 715.262 619.544C715.102 619.384 715.022 619.176 715.022 618.92C715.022 618.648 715.102 618.44 715.262 618.296C715.422 618.152 715.646 618.08 715.934 618.08H728.726C729.014 618.08 729.238 618.152 729.398 618.296C729.558 618.44 729.638 618.648 729.638 618.92C729.638 619.192 729.558 619.408 729.398 619.568C729.238 619.712 729.014 619.784 728.726 619.784H723.326V634.136C723.326 634.456 723.238 634.712 723.062 634.904C722.902 635.08 722.654 635.168 722.318 635.168ZM735.099 635C734.747 635 734.475 634.912 734.283 634.736C734.107 634.544 734.019 634.272 734.019 633.92V619.16C734.019 618.808 734.107 618.544 734.283 618.368C734.475 618.176 734.747 618.08 735.099 618.08H744.027C744.299 618.08 744.507 618.152 744.651 618.296C744.795 618.44 744.867 618.64 744.867 618.896C744.867 619.168 744.795 619.376 744.651 619.52C744.507 619.664 744.299 619.736 744.027 619.736H735.939V625.592H743.523C743.795 625.592 744.003 625.664 744.147 625.808C744.291 625.936 744.363 626.136 744.363 626.408C744.363 626.68 744.291 626.888 744.147 627.032C744.003 627.176 743.795 627.248 743.523 627.248H735.939V633.344H744.027C744.299 633.344 744.507 633.416 744.651 633.56C744.795 633.704 744.867 633.904 744.867 634.16C744.867 634.432 744.795 634.64 744.651 634.784C744.507 634.928 744.299 635 744.027 635H735.099ZM751.347 635.168C751.043 635.168 750.811 635.088 750.651 634.928C750.491 634.752 750.411 634.504 750.411 634.184V618.92C750.411 618.6 750.491 618.352 750.651 618.176C750.811 618 751.019 617.912 751.275 617.912C751.531 617.912 751.715 617.96 751.827 618.056C751.955 618.136 752.099 618.288 752.259 618.512L762.723 632.456H762.147V618.872C762.147 618.568 762.227 618.336 762.387 618.176C762.547 618 762.779 617.912 763.083 617.912C763.371 617.912 763.587 618 763.731 618.176C763.891 618.336 763.971 618.568 763.971 618.872V634.208C763.971 634.512 763.899 634.752 763.755 634.928C763.627 635.088 763.435 635.168 763.179 635.168C762.939 635.168 762.747 635.12 762.603 635.024C762.459 634.928 762.307 634.776 762.147 634.568L751.707 620.624H752.259V634.184C752.259 634.504 752.179 634.752 752.019 634.928C751.859 635.088 751.635 635.168 751.347 635.168ZM775.713 635.168C775.409 635.168 775.169 635.08 774.993 634.904C774.817 634.712 774.729 634.456 774.729 634.136V619.784H769.329C769.041 619.784 768.817 619.704 768.657 619.544C768.497 619.384 768.417 619.176 768.417 618.92C768.417 618.648 768.497 618.44 768.657 618.296C768.817 618.152 769.041 618.08 769.329 618.08H782.121C782.409 618.08 782.633 618.152 782.793 618.296C782.953 618.44 783.033 618.648 783.033 618.92C783.033 619.192 782.953 619.408 782.793 619.568C782.633 619.712 782.409 619.784 782.121 619.784H776.721V634.136C776.721 634.456 776.633 634.712 776.457 634.904C776.297 635.08 776.049 635.168 775.713 635.168Z" fill="black"/>
<path d="M886.39 635.168C886.07 635.168 885.822 635.08 885.646 634.904C885.486 634.712 885.406 634.456 885.406 634.136V619.088C885.406 618.752 885.494 618.504 885.67 618.344C885.846 618.168 886.094 618.08 886.414 618.08H892.102C893.91 618.08 895.302 618.528 896.278 619.424C897.254 620.304 897.742 621.552 897.742 623.168C897.742 624.768 897.254 626.016 896.278 626.912C895.302 627.808 893.91 628.256 892.102 628.256H887.374V634.136C887.374 634.456 887.294 634.712 887.134 634.904C886.974 635.08 886.726 635.168 886.39 635.168ZM887.374 626.6H891.862C893.158 626.6 894.134 626.312 894.79 625.736C895.462 625.144 895.798 624.288 895.798 623.168C895.798 622.032 895.462 621.176 894.79 620.6C894.134 620.008 893.158 619.712 891.862 619.712H887.374V626.6ZM909.91 635.216C908.342 635.216 906.974 634.864 905.806 634.16C904.654 633.44 903.758 632.432 903.118 631.136C902.494 629.84 902.182 628.304 902.182 626.528C902.182 625.184 902.358 623.984 902.71 622.928C903.078 621.856 903.598 620.952 904.27 620.216C904.942 619.464 905.75 618.888 906.694 618.488C907.654 618.072 908.726 617.864 909.91 617.864C911.51 617.864 912.886 618.216 914.038 618.92C915.206 619.624 916.102 620.624 916.726 621.92C917.366 623.2 917.686 624.728 917.686 626.504C917.686 627.848 917.502 629.056 917.134 630.128C916.766 631.2 916.246 632.112 915.574 632.864C914.902 633.616 914.086 634.2 913.126 634.616C912.182 635.016 911.11 635.216 909.91 635.216ZM909.91 633.464C911.126 633.464 912.15 633.192 912.982 632.648C913.83 632.104 914.478 631.312 914.926 630.272C915.374 629.232 915.598 627.984 915.598 626.528C915.598 624.336 915.102 622.64 914.11 621.44C913.134 620.224 911.734 619.616 909.91 619.616C908.726 619.616 907.71 619.888 906.862 620.432C906.03 620.976 905.39 621.768 904.942 622.808C904.494 623.832 904.27 625.072 904.27 626.528C904.27 628.704 904.766 630.408 905.758 631.64C906.75 632.856 908.134 633.464 909.91 633.464ZM924.588 635.168C924.268 635.168 924.02 635.08 923.844 634.904C923.684 634.712 923.604 634.456 923.604 634.136V619.088C923.604 618.752 923.692 618.504 923.868 618.344C924.044 618.168 924.292 618.08 924.612 618.08H930.3C932.108 618.08 933.5 618.504 934.476 619.352C935.452 620.2 935.94 621.408 935.94 622.976C935.94 623.968 935.716 624.832 935.268 625.568C934.836 626.288 934.196 626.84 933.348 627.224C932.5 627.592 931.484 627.776 930.3 627.776L930.54 627.464H931.02C931.644 627.464 932.188 627.624 932.652 627.944C933.116 628.264 933.54 628.776 933.924 629.48L936.228 633.776C936.356 634 936.412 634.224 936.396 634.448C936.396 634.656 936.324 634.832 936.18 634.976C936.036 635.104 935.828 635.168 935.556 635.168C935.284 635.168 935.06 635.104 934.884 634.976C934.708 634.848 934.556 634.664 934.428 634.424L931.812 629.576C931.444 628.888 931.02 628.432 930.54 628.208C930.06 627.968 929.428 627.848 928.644 627.848H925.572V634.136C925.572 634.456 925.492 634.712 925.332 634.904C925.172 635.08 924.924 635.168 924.588 635.168ZM925.572 626.288H930.012C931.324 626.288 932.316 626.016 932.988 625.472C933.66 624.912 933.996 624.08 933.996 622.976C933.996 621.904 933.66 621.096 932.988 620.552C932.316 619.992 931.324 619.712 930.012 619.712H925.572V626.288ZM946.726 635.168C946.422 635.168 946.182 635.08 946.006 634.904C945.83 634.712 945.742 634.456 945.742 634.136V619.784H940.342C940.054 619.784 939.83 619.704 939.67 619.544C939.51 619.384 939.43 619.176 939.43 618.92C939.43 618.648 939.51 618.44 939.67 618.296C939.83 618.152 940.054 618.08 940.342 618.08H953.134C953.422 618.08 953.646 618.152 953.806 618.296C953.966 618.44 954.046 618.648 954.046 618.92C954.046 619.192 953.966 619.408 953.806 619.568C953.646 619.712 953.422 619.784 953.134 619.784H947.734V634.136C947.734 634.456 947.646 634.712 947.47 634.904C947.31 635.08 947.062 635.168 946.726 635.168ZM959.484 635.168C959.148 635.168 958.884 635.08 958.692 634.904C958.516 634.712 958.428 634.44 958.428 634.088V619.16C958.428 618.808 958.516 618.544 958.692 618.368C958.884 618.176 959.156 618.08 959.508 618.08H968.22C968.492 618.08 968.7 618.152 968.844 618.296C968.988 618.44 969.06 618.64 969.06 618.896C969.06 619.168 968.988 619.376 968.844 619.52C968.7 619.664 968.492 619.736 968.22 619.736H960.396V625.64H967.716C967.988 625.64 968.196 625.712 968.34 625.856C968.5 626 968.58 626.2 968.58 626.456C968.58 626.728 968.5 626.936 968.34 627.08C968.196 627.224 967.988 627.296 967.716 627.296H960.396V634.088C960.396 634.808 960.092 635.168 959.484 635.168ZM980.682 635.216C979.114 635.216 977.746 634.864 976.578 634.16C975.426 633.44 974.53 632.432 973.89 631.136C973.266 629.84 972.954 628.304 972.954 626.528C972.954 625.184 973.13 623.984 973.482 622.928C973.85 621.856 974.37 620.952 975.042 620.216C975.714 619.464 976.522 618.888 977.466 618.488C978.426 618.072 979.498 617.864 980.682 617.864C982.282 617.864 983.658 618.216 984.81 618.92C985.978 619.624 986.874 620.624 987.498 621.92C988.138 623.2 988.458 624.728 988.458 626.504C988.458 627.848 988.274 629.056 987.906 630.128C987.538 631.2 987.018 632.112 986.346 632.864C985.674 633.616 984.858 634.2 983.898 634.616C982.954 635.016 981.882 635.216 980.682 635.216ZM980.682 633.464C981.898 633.464 982.922 633.192 983.754 632.648C984.602 632.104 985.25 631.312 985.698 630.272C986.146 629.232 986.37 627.984 986.37 626.528C986.37 624.336 985.874 622.64 984.882 621.44C983.906 620.224 982.506 619.616 980.682 619.616C979.498 619.616 978.482 619.888 977.634 620.432C976.802 620.976 976.162 621.768 975.714 622.808C975.266 623.832 975.042 625.072 975.042 626.528C975.042 628.704 975.538 630.408 976.53 631.64C977.522 632.856 978.906 633.464 980.682 633.464ZM995.384 635C995.064 635 994.816 634.912 994.64 634.736C994.464 634.544 994.376 634.288 994.376 633.968V618.992C994.376 618.656 994.456 618.4 994.616 618.224C994.792 618.048 995.04 617.96 995.36 617.96C995.68 617.96 995.92 618.048 996.08 618.224C996.256 618.4 996.344 618.656 996.344 618.992V633.272H1004.22C1004.5 633.272 1004.73 633.352 1004.89 633.512C1005.05 633.656 1005.13 633.864 1005.13 634.136C1005.13 634.408 1005.05 634.624 1004.89 634.784C1004.73 634.928 1004.5 635 1004.22 635H995.384ZM1010.79 635.168C1010.47 635.168 1010.22 635.08 1010.05 634.904C1009.89 634.712 1009.81 634.456 1009.81 634.136V618.944C1009.81 618.608 1009.89 618.352 1010.05 618.176C1010.22 618 1010.47 617.912 1010.79 617.912C1011.11 617.912 1011.35 618 1011.51 618.176C1011.69 618.352 1011.78 618.608 1011.78 618.944V634.136C1011.78 634.456 1011.7 634.712 1011.54 634.904C1011.38 635.08 1011.13 635.168 1010.79 635.168ZM1025.48 635.216C1023.91 635.216 1022.54 634.864 1021.37 634.16C1020.22 633.44 1019.32 632.432 1018.68 631.136C1018.06 629.84 1017.75 628.304 1017.75 626.528C1017.75 625.184 1017.92 623.984 1018.28 622.928C1018.64 621.856 1019.16 620.952 1019.84 620.216C1020.51 619.464 1021.32 618.888 1022.26 618.488C1023.22 618.072 1024.29 617.864 1025.48 617.864C1027.08 617.864 1028.45 618.216 1029.6 618.92C1030.77 619.624 1031.67 620.624 1032.29 621.92C1032.93 623.2 1033.25 624.728 1033.25 626.504C1033.25 627.848 1033.07 629.056 1032.7 630.128C1032.33 631.2 1031.81 632.112 1031.14 632.864C1030.47 633.616 1029.65 634.2 1028.69 634.616C1027.75 635.016 1026.68 635.216 1025.48 635.216ZM1025.48 633.464C1026.69 633.464 1027.72 633.192 1028.55 632.648C1029.4 632.104 1030.04 631.312 1030.49 630.272C1030.94 629.232 1031.16 627.984 1031.16 626.528C1031.16 624.336 1030.67 622.64 1029.68 621.44C1028.7 620.224 1027.3 619.616 1025.48 619.616C1024.29 619.616 1023.28 619.888 1022.43 620.432C1021.6 620.976 1020.96 621.768 1020.51 622.808C1020.06 623.832 1019.84 625.072 1019.84 626.528C1019.84 628.704 1020.33 630.408 1021.32 631.64C1022.32 632.856 1023.7 633.464 1025.48 633.464Z" fill="black"/>
<rect x="1290" y="55" width="140" height="30" rx="10" fill="#4D4E50"/>
<path d="M1318.05 73.1C1317.32 73.1 1316.69 72.9533 1316.16 72.66C1315.64 72.36 1315.24 71.94 1314.96 71.4C1314.68 70.8533 1314.54 70.21 1314.54 69.47C1314.54 68.9167 1314.62 68.42 1314.78 67.98C1314.94 67.5333 1315.17 67.1533 1315.47 66.84C1315.77 66.52 1316.14 66.2767 1316.57 66.11C1317.01 65.9367 1317.5 65.85 1318.05 65.85C1318.42 65.85 1318.78 65.8967 1319.13 65.99C1319.48 66.0833 1319.79 66.2167 1320.06 66.39C1320.2 66.4767 1320.29 66.5833 1320.34 66.71C1320.39 66.83 1320.4 66.95 1320.37 67.07C1320.34 67.1833 1320.29 67.28 1320.2 67.36C1320.12 67.44 1320.02 67.4867 1319.89 67.5C1319.77 67.5067 1319.64 67.4633 1319.49 67.37C1319.28 67.2367 1319.06 67.14 1318.82 67.08C1318.58 67.02 1318.34 66.99 1318.09 66.99C1317.62 66.99 1317.22 67.0867 1316.89 67.28C1316.56 67.4733 1316.32 67.7533 1316.15 68.12C1315.98 68.4867 1315.9 68.9367 1315.9 69.47C1315.9 69.9967 1315.98 70.4467 1316.15 70.82C1316.32 71.1933 1316.56 71.4767 1316.89 71.67C1317.22 71.8633 1317.62 71.96 1318.09 71.96C1318.34 71.96 1318.59 71.93 1318.84 71.87C1319.09 71.8033 1319.32 71.7033 1319.54 71.57C1319.69 71.4833 1319.82 71.4467 1319.93 71.46C1320.05 71.4667 1320.15 71.5067 1320.23 71.58C1320.31 71.6533 1320.36 71.7467 1320.39 71.86C1320.42 71.9667 1320.41 72.08 1320.37 72.2C1320.33 72.3133 1320.25 72.4133 1320.13 72.5C1319.86 72.6933 1319.54 72.8433 1319.17 72.95C1318.8 73.05 1318.43 73.1 1318.05 73.1ZM1322.21 73.08C1322 73.08 1321.84 73.0233 1321.73 72.91C1321.62 72.79 1321.57 72.6267 1321.57 72.42V66.6C1321.57 66.3867 1321.62 66.2267 1321.74 66.12C1321.85 66.0067 1322.01 65.95 1322.22 65.95H1324.63C1325.4 65.95 1326 66.1367 1326.42 66.51C1326.84 66.8767 1327.05 67.3933 1327.05 68.06C1327.05 68.4933 1326.95 68.8667 1326.76 69.18C1326.57 69.4933 1326.3 69.7333 1325.94 69.9C1325.58 70.0667 1325.14 70.15 1324.63 70.15L1324.72 70H1325.05C1325.32 70 1325.56 70.0667 1325.76 70.2C1325.96 70.3333 1326.14 70.5433 1326.3 70.83L1327.05 72.22C1327.13 72.36 1327.16 72.4967 1327.16 72.63C1327.15 72.7633 1327.1 72.8733 1327.01 72.96C1326.91 73.04 1326.78 73.08 1326.6 73.08C1326.42 73.08 1326.27 73.0433 1326.16 72.97C1326.04 72.89 1325.94 72.77 1325.86 72.61L1324.85 70.75C1324.73 70.5233 1324.58 70.3733 1324.42 70.3C1324.26 70.22 1324.05 70.18 1323.8 70.18H1322.85V72.42C1322.85 72.6267 1322.79 72.79 1322.69 72.91C1322.58 73.0233 1322.42 73.08 1322.21 73.08ZM1322.85 69.23H1324.41C1324.87 69.23 1325.21 69.1367 1325.45 68.95C1325.69 68.7567 1325.81 68.47 1325.81 68.09C1325.81 67.7167 1325.69 67.4367 1325.45 67.25C1325.21 67.0567 1324.87 66.96 1324.41 66.96H1322.85V69.23ZM1329.1 73C1328.88 73 1328.71 72.9433 1328.59 72.83C1328.48 72.71 1328.42 72.54 1328.42 72.32V66.63C1328.42 66.41 1328.48 66.2433 1328.59 66.13C1328.71 66.01 1328.88 65.95 1329.1 65.95H1332.67C1332.84 65.95 1332.97 65.9933 1333.05 66.08C1333.15 66.1667 1333.19 66.29 1333.19 66.45C1333.19 66.6167 1333.15 66.7467 1333.05 66.84C1332.97 66.9267 1332.84 66.97 1332.67 66.97H1329.65V68.91H1332.45C1332.63 68.91 1332.76 68.9533 1332.84 69.04C1332.93 69.1267 1332.97 69.2533 1332.97 69.42C1332.97 69.5867 1332.93 69.7133 1332.84 69.8C1332.76 69.8867 1332.63 69.93 1332.45 69.93H1329.65V71.98H1332.67C1332.84 71.98 1332.97 72.0233 1333.05 72.11C1333.15 72.1967 1333.19 72.3233 1333.19 72.49C1333.19 72.6567 1333.15 72.7833 1333.05 72.87C1332.97 72.9567 1332.84 73 1332.67 73H1329.1ZM1334.33 73.08C1334.17 73.08 1334.04 73.0433 1333.94 72.97C1333.85 72.8967 1333.79 72.8 1333.77 72.68C1333.75 72.5533 1333.78 72.4133 1333.84 72.26L1336.48 66.41C1336.57 66.2167 1336.67 66.08 1336.79 66C1336.92 65.9133 1337.06 65.87 1337.22 65.87C1337.38 65.87 1337.51 65.9133 1337.63 66C1337.76 66.08 1337.87 66.2167 1337.95 66.41L1340.6 72.26C1340.68 72.4133 1340.7 72.5533 1340.68 72.68C1340.66 72.8067 1340.61 72.9067 1340.51 72.98C1340.42 73.0467 1340.3 73.08 1340.14 73.08C1339.96 73.08 1339.81 73.0367 1339.7 72.95C1339.6 72.8567 1339.51 72.7167 1339.43 72.53L1338.78 71.02L1339.32 71.37H1335.1L1335.64 71.02L1335 72.53C1334.92 72.7233 1334.83 72.8633 1334.73 72.95C1334.64 73.0367 1334.51 73.08 1334.33 73.08ZM1337.2 67.34L1335.8 70.67L1335.54 70.35H1338.88L1338.63 70.67L1337.22 67.34H1337.2ZM1343.26 73.08C1343.06 73.08 1342.9 73.0233 1342.78 72.91C1342.68 72.79 1342.62 72.6267 1342.62 72.42V67.02H1340.67C1340.5 67.02 1340.36 66.9733 1340.26 66.88C1340.17 66.78 1340.12 66.6467 1340.12 66.48C1340.12 66.3067 1340.17 66.1767 1340.26 66.09C1340.36 65.9967 1340.5 65.95 1340.67 65.95H1345.85C1346.03 65.95 1346.16 65.9967 1346.25 66.09C1346.35 66.1767 1346.4 66.3067 1346.4 66.48C1346.4 66.6467 1346.35 66.78 1346.25 66.88C1346.16 66.9733 1346.03 67.02 1345.85 67.02H1343.9V72.42C1343.9 72.6267 1343.85 72.79 1343.74 72.91C1343.64 73.0233 1343.48 73.08 1343.26 73.08ZM1347.81 73C1347.59 73 1347.42 72.9433 1347.3 72.83C1347.19 72.71 1347.13 72.54 1347.13 72.32V66.63C1347.13 66.41 1347.19 66.2433 1347.3 66.13C1347.42 66.01 1347.59 65.95 1347.81 65.95H1351.38C1351.55 65.95 1351.68 65.9933 1351.76 66.08C1351.86 66.1667 1351.9 66.29 1351.9 66.45C1351.9 66.6167 1351.86 66.7467 1351.76 66.84C1351.68 66.9267 1351.55 66.97 1351.38 66.97H1348.36V68.91H1351.16C1351.34 68.91 1351.47 68.9533 1351.55 69.04C1351.64 69.1267 1351.68 69.2533 1351.68 69.42C1351.68 69.5867 1351.64 69.7133 1351.55 69.8C1351.47 69.8867 1351.34 69.93 1351.16 69.93H1348.36V71.98H1351.38C1351.55 71.98 1351.68 72.0233 1351.76 72.11C1351.86 72.1967 1351.9 72.3233 1351.9 72.49C1351.9 72.6567 1351.86 72.7833 1351.76 72.87C1351.68 72.9567 1351.55 73 1351.38 73H1347.81ZM1355.88 73.08C1355.72 73.08 1355.59 73.0433 1355.49 72.97C1355.4 72.8967 1355.34 72.8 1355.32 72.68C1355.3 72.5533 1355.33 72.4133 1355.39 72.26L1358.03 66.41C1358.12 66.2167 1358.22 66.08 1358.34 66C1358.47 65.9133 1358.61 65.87 1358.77 65.87C1358.93 65.87 1359.06 65.9133 1359.18 66C1359.31 66.08 1359.42 66.2167 1359.5 66.41L1362.15 72.26C1362.23 72.4133 1362.25 72.5533 1362.23 72.68C1362.21 72.8067 1362.16 72.9067 1362.06 72.98C1361.97 73.0467 1361.85 73.08 1361.69 73.08C1361.51 73.08 1361.36 73.0367 1361.25 72.95C1361.15 72.8567 1361.06 72.7167 1360.98 72.53L1360.33 71.02L1360.87 71.37H1356.65L1357.19 71.02L1356.55 72.53C1356.47 72.7233 1356.38 72.8633 1356.28 72.95C1356.19 73.0367 1356.06 73.08 1355.88 73.08ZM1358.75 67.34L1357.35 70.67L1357.09 70.35H1360.43L1360.18 70.67L1358.77 67.34H1358.75ZM1366.39 73.1C1365.66 73.1 1365.03 72.9533 1364.5 72.66C1363.98 72.36 1363.58 71.94 1363.3 71.4C1363.02 70.8533 1362.88 70.21 1362.88 69.47C1362.88 68.9167 1362.96 68.42 1363.12 67.98C1363.28 67.5333 1363.51 67.1533 1363.81 66.84C1364.11 66.52 1364.48 66.2767 1364.91 66.11C1365.35 65.9367 1365.84 65.85 1366.39 65.85C1366.76 65.85 1367.12 65.8967 1367.47 65.99C1367.82 66.0833 1368.13 66.2167 1368.4 66.39C1368.54 66.4767 1368.63 66.5833 1368.68 66.71C1368.73 66.83 1368.74 66.95 1368.71 67.07C1368.68 67.1833 1368.63 67.28 1368.54 67.36C1368.46 67.44 1368.36 67.4867 1368.23 67.5C1368.11 67.5067 1367.98 67.4633 1367.83 67.37C1367.62 67.2367 1367.4 67.14 1367.16 67.08C1366.92 67.02 1366.68 66.99 1366.43 66.99C1365.96 66.99 1365.56 67.0867 1365.23 67.28C1364.9 67.4733 1364.66 67.7533 1364.49 68.12C1364.32 68.4867 1364.24 68.9367 1364.24 69.47C1364.24 69.9967 1364.32 70.4467 1364.49 70.82C1364.66 71.1933 1364.9 71.4767 1365.23 71.67C1365.56 71.8633 1365.96 71.96 1366.43 71.96C1366.68 71.96 1366.93 71.93 1367.18 71.87C1367.43 71.8033 1367.66 71.7033 1367.88 71.57C1368.03 71.4833 1368.16 71.4467 1368.27 71.46C1368.39 71.4667 1368.49 71.5067 1368.57 71.58C1368.65 71.6533 1368.7 71.7467 1368.73 71.86C1368.76 71.9667 1368.75 72.08 1368.71 72.2C1368.67 72.3133 1368.59 72.4133 1368.47 72.5C1368.2 72.6933 1367.88 72.8433 1367.51 72.95C1367.14 73.05 1366.77 73.1 1366.39 73.1ZM1372.96 73.1C1372.23 73.1 1371.6 72.9533 1371.07 72.66C1370.55 72.36 1370.15 71.94 1369.87 71.4C1369.59 70.8533 1369.45 70.21 1369.45 69.47C1369.45 68.9167 1369.53 68.42 1369.69 67.98C1369.85 67.5333 1370.08 67.1533 1370.38 66.84C1370.68 66.52 1371.05 66.2767 1371.48 66.11C1371.92 65.9367 1372.42 65.85 1372.96 65.85C1373.33 65.85 1373.69 65.8967 1374.04 65.99C1374.4 66.0833 1374.71 66.2167 1374.97 66.39C1375.11 66.4767 1375.21 66.5833 1375.25 66.71C1375.3 66.83 1375.31 66.95 1375.28 67.07C1375.26 67.1833 1375.2 67.28 1375.11 67.36C1375.03 67.44 1374.93 67.4867 1374.8 67.5C1374.68 67.5067 1374.55 67.4633 1374.4 67.37C1374.2 67.2367 1373.97 67.14 1373.73 67.08C1373.49 67.02 1373.25 66.99 1373 66.99C1372.53 66.99 1372.13 67.0867 1371.8 67.28C1371.48 67.4733 1371.23 67.7533 1371.06 68.12C1370.9 68.4867 1370.81 68.9367 1370.81 69.47C1370.81 69.9967 1370.9 70.4467 1371.06 70.82C1371.23 71.1933 1371.48 71.4767 1371.8 71.67C1372.13 71.8633 1372.53 71.96 1373 71.96C1373.26 71.96 1373.51 71.93 1373.75 71.87C1374 71.8033 1374.23 71.7033 1374.45 71.57C1374.6 71.4833 1374.73 71.4467 1374.84 71.46C1374.96 71.4667 1375.06 71.5067 1375.14 71.58C1375.22 71.6533 1375.28 71.7467 1375.3 71.86C1375.33 71.9667 1375.32 72.08 1375.28 72.2C1375.24 72.3133 1375.16 72.4133 1375.04 72.5C1374.78 72.6933 1374.46 72.8433 1374.08 72.95C1373.72 73.05 1373.34 73.1 1372.96 73.1ZM1379.41 73.1C1378.73 73.1 1378.14 72.95 1377.62 72.65C1377.12 72.35 1376.72 71.93 1376.44 71.39C1376.16 70.8433 1376.02 70.2033 1376.02 69.47C1376.02 68.9167 1376.1 68.42 1376.26 67.98C1376.42 67.5333 1376.65 67.1533 1376.94 66.84C1377.24 66.52 1377.6 66.2767 1378.01 66.11C1378.43 65.9367 1378.9 65.85 1379.41 65.85C1380.1 65.85 1380.7 66 1381.2 66.3C1381.71 66.5933 1382.1 67.01 1382.38 67.55C1382.66 68.09 1382.8 68.7267 1382.8 69.46C1382.8 70.0133 1382.72 70.5133 1382.56 70.96C1382.4 71.4067 1382.17 71.79 1381.87 72.11C1381.58 72.43 1381.22 72.6767 1380.8 72.85C1380.39 73.0167 1379.93 73.1 1379.41 73.1ZM1379.41 72C1379.85 72 1380.21 71.9 1380.51 71.7C1380.82 71.5 1381.05 71.21 1381.21 70.83C1381.38 70.45 1381.46 69.9967 1381.46 69.47C1381.46 68.67 1381.28 68.05 1380.92 67.61C1380.57 67.17 1380.07 66.95 1379.41 66.95C1378.99 66.95 1378.62 67.05 1378.31 67.25C1378.01 67.4433 1377.77 67.73 1377.6 68.11C1377.44 68.4833 1377.36 68.9367 1377.36 69.47C1377.36 70.2633 1377.54 70.8833 1377.9 71.33C1378.26 71.7767 1378.77 72 1379.41 72ZM1387.04 73.1C1386.55 73.1 1386.12 73.0367 1385.75 72.91C1385.38 72.7833 1385.07 72.5967 1384.82 72.35C1384.56 72.0967 1384.37 71.7833 1384.25 71.41C1384.12 71.0367 1384.06 70.6033 1384.06 70.11V66.52C1384.06 66.3 1384.11 66.1367 1384.22 66.03C1384.33 65.9233 1384.49 65.87 1384.7 65.87C1384.9 65.87 1385.06 65.9233 1385.17 66.03C1385.28 66.1367 1385.34 66.3 1385.34 66.52V70.1C1385.34 70.7333 1385.48 71.21 1385.77 71.53C1386.06 71.8433 1386.48 72 1387.04 72C1387.59 72 1388.01 71.8433 1388.3 71.53C1388.58 71.21 1388.73 70.7333 1388.73 70.1V66.52C1388.73 66.3 1388.78 66.1367 1388.89 66.03C1389 65.9233 1389.16 65.87 1389.37 65.87C1389.57 65.87 1389.72 65.9233 1389.83 66.03C1389.94 66.1367 1390 66.3 1390 66.52V70.11C1390 70.7633 1389.88 71.3133 1389.66 71.76C1389.44 72.2067 1389.11 72.5433 1388.67 72.77C1388.23 72.99 1387.68 73.1 1387.04 73.1ZM1392.09 73.08C1391.9 73.08 1391.75 73.0267 1391.64 72.92C1391.54 72.8133 1391.49 72.66 1391.49 72.46V66.51C1391.49 66.3033 1391.54 66.1467 1391.64 66.04C1391.75 65.9267 1391.88 65.87 1392.05 65.87C1392.2 65.87 1392.32 65.9 1392.39 65.96C1392.47 66.0133 1392.56 66.1067 1392.67 66.24L1396.5 71.21H1396.24V66.48C1396.24 66.2867 1396.29 66.1367 1396.39 66.03C1396.5 65.9233 1396.65 65.87 1396.84 65.87C1397.03 65.87 1397.18 65.9233 1397.28 66.03C1397.38 66.1367 1397.43 66.2867 1397.43 66.48V72.48C1397.43 72.6667 1397.38 72.8133 1397.29 72.92C1397.2 73.0267 1397.07 73.08 1396.91 73.08C1396.76 73.08 1396.63 73.05 1396.54 72.99C1396.45 72.93 1396.36 72.8333 1396.25 72.7L1392.43 67.73H1392.68V72.46C1392.68 72.66 1392.63 72.8133 1392.53 72.92C1392.43 73.0267 1392.28 73.08 1392.09 73.08ZM1401.31 73.08C1401.1 73.08 1400.94 73.0233 1400.83 72.91C1400.72 72.79 1400.67 72.6267 1400.67 72.42V67.02H1398.72C1398.55 67.02 1398.41 66.9733 1398.31 66.88C1398.22 66.78 1398.17 66.6467 1398.17 66.48C1398.17 66.3067 1398.22 66.1767 1398.31 66.09C1398.41 65.9967 1398.55 65.95 1398.72 65.95H1403.9C1404.07 65.95 1404.21 65.9967 1404.3 66.09C1404.4 66.1767 1404.45 66.3067 1404.45 66.48C1404.45 66.6467 1404.4 66.78 1404.3 66.88C1404.21 66.9733 1404.07 67.02 1403.9 67.02H1401.95V72.42C1401.95 72.6267 1401.9 72.79 1401.79 72.91C1401.68 73.0233 1401.52 73.08 1401.31 73.08Z" fill="white"/>
<path d="M350 576.333C352.946 576.333 355.333 573.946 355.333 571C355.333 568.054 352.946 565.667 350 565.667C347.054 565.667 344.667 568.054 344.667 571C344.667 573.946 347.054 576.333 350 576.333ZM1130 576.333C1132.95 576.333 1135.33 573.946 1135.33 571C1135.33 568.054 1132.95 565.667 1130 565.667C1127.05 565.667 1124.67 568.054 1124.67 571C1124.67 573.946 1127.05 576.333 1130 576.333ZM350 572H1130V570H350V572Z" fill="#323333"/>
<circle cx="350" cy="571" r="10" fill="#323333"/>
<circle cx="329" cy="571" r="5" fill="#323333"/>
<circle cx="315.5" cy="570.5" r="2.5" fill="#323333"/>
<circle cx="1130" cy="571" r="10" transform="rotate(-180 1130 571)" fill="#323333"/>
<circle cx="1151" cy="571" r="5" transform="rotate(-180 1151 571)" fill="#323333"/>
<circle cx="1164.5" cy="571.5" r="2.5" transform="rotate(-180 1164.5 571.5)" fill="#323333"/>
<path d="M75.1518 71.3413V71.2464C77.3187 70.1089 79.001 68.4384 80.2008 66.2348C81.4006 64.0312 81.9994 61.7498 81.9994 59.3908C81.9994 56.313 81.0215 53.9799 79.0656 52.3871C77.1098 50.7943 74.0576 50 69.9154 50H64.8233L63.5912 60.2433H66.9493C69.1378 60.2433 70.2299 61.1822 70.2299 63.0578C70.2299 64.5125 69.7625 65.7448 68.8255 66.7571C67.8885 67.7693 66.6952 68.2744 65.2434 68.2744H62.6241L61.5729 77.0004H65.8766C66.7189 77.0004 67.4275 77.1321 68.007 77.3954C68.5864 77.6587 69.0107 78.0235 69.2843 78.4853C69.5578 78.9472 69.6935 79.4976 69.6935 80.13C69.6935 81.7098 69.1249 83.0653 67.9897 84.1919C66.8546 85.3185 65.4437 85.884 63.7614 85.884H60.5024L59.2832 96.0022H66.6628C68.8923 96.0022 70.9321 95.6115 72.7845 94.8324C74.6348 94.0532 76.1987 92.9784 77.4695 91.6078C78.7404 90.2373 79.7248 88.5884 80.4205 86.661C81.1163 84.7336 81.4609 82.6401 81.4609 80.3846C81.4631 75.809 79.3586 72.796 75.1518 71.3413Z" fill="#323333"/>
<path d="M53.5858 50C53.3252 50 53.1033 50.1964 53.0732 50.4554L50.665 70.1823L50.0037 75.5781C49.9671 75.8867 50.2062 76.1587 50.5164 76.1587H50.5314C50.7921 76.1587 51.0139 75.9623 51.0441 75.7033L54.1006 50.5806C54.1373 50.2719 53.896 50 53.5858 50Z" fill="#323333"/>
<path d="M55.7019 50H55.6869C55.4262 50 55.2044 50.1964 55.1742 50.4554L51.4822 80.6329C51.4456 80.9415 51.6847 81.2134 51.9949 81.2134H52.01C52.2706 81.2134 52.4925 81.017 52.5226 80.758L56.2146 50.5806C56.2534 50.2719 56.0121 50 55.7019 50Z" fill="#323333"/>
<path d="M61.5165 50.4554L56.0604 95.4194C56.0237 95.7281 56.2628 96 56.573 96H56.6312C56.894 96 57.1137 95.8036 57.1438 95.5446L62.559 50.5806C62.5956 50.2719 62.3565 50 62.0463 50H62.0313C61.7685 50 61.5488 50.1964 61.5165 50.4554Z" fill="#323333"/>
<path d="M59.9316 50H59.9165C59.6559 50 59.434 50.1964 59.4038 50.4554L54.6736 89.4474C54.637 89.756 54.8761 90.028 55.1863 90.028H55.2014C55.462 90.028 55.6839 89.8316 55.714 89.5726L60.4442 50.5806C60.4808 50.2719 60.2418 50 59.9316 50Z" fill="#323333"/>
<path d="M57.8162 50H57.8011C57.5383 50 57.3186 50.1964 57.2863 50.4554L53.0623 85.1221C53.0257 85.4308 53.2648 85.7027 53.575 85.7027H53.59C53.8507 85.7027 54.0725 85.5063 54.1027 85.2473L58.3289 50.5806C58.3676 50.2719 58.1264 50 57.8162 50Z" fill="#323333"/>
</svg>
