<svg width="1480" height="1000" viewBox="0 0 1480 1000" fill="none" xmlns="http://www.w3.org/2000/svg">
<rect width="1480" height="1000" rx="20" fill="white"/>
<rect x="0.999023" y="0.9375" width="1478" height="998.124" rx="20" fill="black"/>
<rect x="20" y="20" width="1440" height="960" fill="#F2F2F2"/>
<rect x="750.5" y="391.5" width="689" height="328.441" rx="9.5" fill="white" stroke="black"/>
<rect x="800.5" y="740.906" width="199" height="238.593" rx="9.5" fill="white" stroke="black"/>
<rect x="40.5" y="740.906" width="359" height="238.593" rx="9.5" fill="white" stroke="black"/>
<rect x="1240.75" y="741.156" width="198.5" height="238.093" rx="9.25" fill="white" stroke="black" stroke-width="1.5"/>
<rect x="1020.5" y="740.906" width="199" height="238.593" rx="9.5" fill="white" stroke="black"/>
<rect x="420.5" y="740.906" width="359" height="238.593" rx="9.5" fill="white" stroke="black"/>
<rect x="40.5" y="391.5" width="689" height="328.441" rx="9.5" fill="white" stroke="black"/>
<path d="M589.93 134C589.182 134 588.604 133.807 588.196 133.422C587.811 133.014 587.618 132.436 587.618 131.688V112.342C587.618 111.594 587.811 111.027 588.196 110.642C588.604 110.234 589.182 110.03 589.93 110.03H598.09C599.767 110.03 601.195 110.279 602.374 110.778C603.553 111.277 604.448 111.991 605.06 112.92C605.695 113.849 606.012 114.96 606.012 116.252C606.012 117.703 605.593 118.927 604.754 119.924C603.915 120.921 602.771 121.59 601.32 121.93V121.42C602.997 121.669 604.301 122.304 605.23 123.324C606.159 124.344 606.624 125.67 606.624 127.302C606.624 129.433 605.899 131.087 604.448 132.266C603.02 133.422 601.025 134 598.464 134H589.93ZM591.8 130.702H597.92C599.461 130.702 600.595 130.407 601.32 129.818C602.045 129.206 602.408 128.299 602.408 127.098C602.408 125.874 602.045 124.967 601.32 124.378C600.595 123.789 599.461 123.494 597.92 123.494H591.8V130.702ZM591.8 120.196H597.342C598.838 120.196 599.949 119.913 600.674 119.346C601.422 118.757 601.796 117.895 601.796 116.762C601.796 115.629 601.422 114.779 600.674 114.212C599.949 113.623 598.838 113.328 597.342 113.328H591.8V120.196ZM616.092 134.34C614.891 134.34 613.814 134.113 612.862 133.66C611.933 133.184 611.196 132.549 610.652 131.756C610.131 130.963 609.87 130.067 609.87 129.07C609.87 127.846 610.188 126.883 610.822 126.18C611.457 125.455 612.488 124.933 613.916 124.616C615.344 124.299 617.26 124.14 619.662 124.14H621.362V126.588H619.696C618.291 126.588 617.169 126.656 616.33 126.792C615.492 126.928 614.891 127.166 614.528 127.506C614.188 127.823 614.018 128.277 614.018 128.866C614.018 129.614 614.279 130.226 614.8 130.702C615.322 131.178 616.047 131.416 616.976 131.416C617.724 131.416 618.382 131.246 618.948 130.906C619.538 130.543 620.002 130.056 620.342 129.444C620.682 128.832 620.852 128.129 620.852 127.336V123.426C620.852 122.293 620.603 121.477 620.104 120.978C619.606 120.479 618.767 120.23 617.588 120.23C616.931 120.23 616.217 120.309 615.446 120.468C614.698 120.627 613.905 120.899 613.066 121.284C612.636 121.488 612.25 121.545 611.91 121.454C611.593 121.363 611.344 121.182 611.162 120.91C610.981 120.615 610.89 120.298 610.89 119.958C610.89 119.618 610.981 119.289 611.162 118.972C611.344 118.632 611.65 118.383 612.08 118.224C613.123 117.793 614.12 117.487 615.072 117.306C616.047 117.125 616.931 117.034 617.724 117.034C619.356 117.034 620.694 117.283 621.736 117.782C622.802 118.281 623.595 119.04 624.116 120.06C624.638 121.057 624.898 122.349 624.898 123.936V132.096C624.898 132.799 624.728 133.343 624.388 133.728C624.048 134.091 623.561 134.272 622.926 134.272C622.292 134.272 621.793 134.091 621.43 133.728C621.09 133.343 620.92 132.799 620.92 132.096V130.464H621.192C621.034 131.257 620.716 131.949 620.24 132.538C619.787 133.105 619.209 133.547 618.506 133.864C617.804 134.181 616.999 134.34 616.092 134.34ZM636.896 134.34C635.151 134.34 633.632 133.989 632.34 133.286C631.048 132.561 630.051 131.541 629.348 130.226C628.645 128.911 628.294 127.37 628.294 125.602C628.294 124.265 628.487 123.075 628.872 122.032C629.28 120.967 629.858 120.071 630.606 119.346C631.354 118.598 632.261 118.031 633.326 117.646C634.391 117.238 635.581 117.034 636.896 117.034C637.644 117.034 638.449 117.136 639.31 117.34C640.194 117.544 641.021 117.884 641.792 118.36C642.155 118.587 642.393 118.859 642.506 119.176C642.619 119.493 642.642 119.822 642.574 120.162C642.506 120.479 642.359 120.763 642.132 121.012C641.928 121.239 641.667 121.386 641.35 121.454C641.033 121.499 640.681 121.42 640.296 121.216C639.797 120.921 639.287 120.706 638.766 120.57C638.245 120.411 637.746 120.332 637.27 120.332C636.522 120.332 635.865 120.457 635.298 120.706C634.731 120.933 634.244 121.273 633.836 121.726C633.451 122.157 633.156 122.701 632.952 123.358C632.748 124.015 632.646 124.775 632.646 125.636C632.646 127.313 633.043 128.639 633.836 129.614C634.652 130.566 635.797 131.042 637.27 131.042C637.746 131.042 638.233 130.974 638.732 130.838C639.253 130.702 639.775 130.487 640.296 130.192C640.681 129.988 641.021 129.92 641.316 129.988C641.633 130.056 641.894 130.215 642.098 130.464C642.302 130.691 642.427 130.974 642.472 131.314C642.517 131.631 642.472 131.949 642.336 132.266C642.223 132.583 641.996 132.844 641.656 133.048C640.908 133.501 640.115 133.83 639.276 134.034C638.437 134.238 637.644 134.34 636.896 134.34ZM647.357 134.272C646.677 134.272 646.156 134.091 645.793 133.728C645.43 133.343 645.249 132.799 645.249 132.096V111.9C645.249 111.197 645.43 110.665 645.793 110.302C646.156 109.939 646.677 109.758 647.357 109.758C648.037 109.758 648.558 109.939 648.921 110.302C649.306 110.665 649.499 111.197 649.499 111.9V124.446H649.567L655.177 118.53C655.63 118.077 656.027 117.725 656.367 117.476C656.707 117.227 657.172 117.102 657.761 117.102C658.35 117.102 658.792 117.261 659.087 117.578C659.404 117.873 659.563 118.235 659.563 118.666C659.563 119.097 659.359 119.527 658.951 119.958L653.035 126.214V124.446L659.529 131.45C659.937 131.881 660.118 132.323 660.073 132.776C660.05 133.207 659.869 133.569 659.529 133.864C659.189 134.136 658.758 134.272 658.237 134.272C657.602 134.272 657.092 134.147 656.707 133.898C656.344 133.649 655.936 133.275 655.483 132.776L649.567 126.588H649.499V132.096C649.499 133.547 648.785 134.272 647.357 134.272ZM670.898 140.46C669.674 140.46 668.484 140.347 667.328 140.12C666.194 139.893 665.163 139.542 664.234 139.066C663.803 138.839 663.508 138.567 663.35 138.25C663.214 137.933 663.168 137.604 663.214 137.264C663.282 136.947 663.418 136.663 663.622 136.414C663.848 136.165 664.12 135.995 664.438 135.904C664.755 135.813 665.084 135.859 665.424 136.04C666.421 136.539 667.362 136.856 668.246 136.992C669.152 137.151 669.923 137.23 670.558 137.23C672.076 137.23 673.21 136.856 673.958 136.108C674.728 135.383 675.114 134.295 675.114 132.844V129.784H675.42C675.08 130.94 674.366 131.869 673.278 132.572C672.212 133.252 671 133.592 669.64 133.592C668.144 133.592 666.84 133.252 665.73 132.572C664.619 131.869 663.758 130.895 663.146 129.648C662.534 128.401 662.228 126.951 662.228 125.296C662.228 124.049 662.398 122.927 662.738 121.93C663.1 120.91 663.599 120.037 664.234 119.312C664.891 118.587 665.673 118.031 666.58 117.646C667.509 117.238 668.529 117.034 669.64 117.034C671.045 117.034 672.269 117.385 673.312 118.088C674.377 118.768 675.068 119.675 675.386 120.808L675.046 121.658V119.244C675.046 118.541 675.227 118.009 675.59 117.646C675.975 117.283 676.496 117.102 677.154 117.102C677.834 117.102 678.355 117.283 678.718 117.646C679.08 118.009 679.262 118.541 679.262 119.244V132.334C679.262 135.031 678.548 137.06 677.12 138.42C675.692 139.78 673.618 140.46 670.898 140.46ZM670.796 130.362C671.68 130.362 672.439 130.158 673.074 129.75C673.708 129.342 674.196 128.764 674.536 128.016C674.898 127.245 675.08 126.339 675.08 125.296C675.08 123.732 674.694 122.508 673.924 121.624C673.153 120.717 672.11 120.264 670.796 120.264C669.912 120.264 669.152 120.468 668.518 120.876C667.883 121.284 667.384 121.862 667.022 122.61C666.682 123.358 666.512 124.253 666.512 125.296C666.512 126.86 666.897 128.095 667.668 129.002C668.438 129.909 669.481 130.362 670.796 130.362ZM685.841 134.272C685.138 134.272 684.594 134.091 684.209 133.728C683.846 133.343 683.665 132.799 683.665 132.096V119.244C683.665 118.541 683.846 118.009 684.209 117.646C684.572 117.283 685.082 117.102 685.739 117.102C686.396 117.102 686.906 117.283 687.269 117.646C687.632 118.009 687.813 118.541 687.813 119.244V121.386H687.473C687.79 120.026 688.414 118.995 689.343 118.292C690.272 117.589 691.508 117.17 693.049 117.034C693.525 116.989 693.899 117.113 694.171 117.408C694.466 117.68 694.636 118.111 694.681 118.7C694.726 119.267 694.59 119.731 694.273 120.094C693.978 120.434 693.525 120.638 692.913 120.706L692.165 120.774C690.782 120.91 689.74 121.341 689.037 122.066C688.334 122.769 687.983 123.766 687.983 125.058V132.096C687.983 132.799 687.802 133.343 687.439 133.728C687.076 134.091 686.544 134.272 685.841 134.272ZM704.296 134.34C702.573 134.34 701.077 133.989 699.808 133.286C698.539 132.583 697.553 131.586 696.85 130.294C696.147 128.979 695.796 127.438 695.796 125.67C695.796 124.333 695.989 123.143 696.374 122.1C696.782 121.035 697.36 120.128 698.108 119.38C698.856 118.609 699.751 118.031 700.794 117.646C701.837 117.238 703.004 117.034 704.296 117.034C706.019 117.034 707.515 117.385 708.784 118.088C710.053 118.791 711.039 119.788 711.742 121.08C712.445 122.372 712.796 123.902 712.796 125.67C712.796 127.007 712.592 128.209 712.184 129.274C711.799 130.339 711.232 131.257 710.484 132.028C709.736 132.776 708.841 133.354 707.798 133.762C706.755 134.147 705.588 134.34 704.296 134.34ZM704.296 131.11C705.135 131.11 705.871 130.906 706.506 130.498C707.141 130.09 707.628 129.489 707.968 128.696C708.331 127.88 708.512 126.871 708.512 125.67C708.512 123.857 708.127 122.508 707.356 121.624C706.585 120.717 705.565 120.264 704.296 120.264C703.457 120.264 702.721 120.468 702.086 120.876C701.451 121.261 700.953 121.862 700.59 122.678C700.25 123.471 700.08 124.469 700.08 125.67C700.08 127.461 700.465 128.821 701.236 129.75C702.007 130.657 703.027 131.11 704.296 131.11ZM722.322 134.34C720.939 134.34 719.794 134.091 718.888 133.592C717.981 133.071 717.301 132.3 716.848 131.28C716.417 130.26 716.202 128.991 716.202 127.472V119.244C716.202 118.519 716.383 117.986 716.746 117.646C717.108 117.283 717.63 117.102 718.31 117.102C718.99 117.102 719.511 117.283 719.874 117.646C720.259 117.986 720.452 118.519 720.452 119.244V127.54C720.452 128.719 720.69 129.591 721.166 130.158C721.642 130.725 722.401 131.008 723.444 131.008C724.577 131.008 725.506 130.623 726.232 129.852C726.957 129.059 727.32 128.016 727.32 126.724V119.244C727.32 118.519 727.501 117.986 727.864 117.646C728.226 117.283 728.748 117.102 729.428 117.102C730.108 117.102 730.629 117.283 730.992 117.646C731.377 117.986 731.57 118.519 731.57 119.244V132.096C731.57 133.547 730.878 134.272 729.496 134.272C728.838 134.272 728.328 134.091 727.966 133.728C727.603 133.343 727.422 132.799 727.422 132.096V129.512L727.898 130.532C727.422 131.756 726.696 132.697 725.722 133.354C724.77 134.011 723.636 134.34 722.322 134.34ZM738.101 134.272C737.421 134.272 736.9 134.091 736.537 133.728C736.175 133.343 735.993 132.799 735.993 132.096V119.244C735.993 118.541 736.175 118.009 736.537 117.646C736.9 117.283 737.41 117.102 738.067 117.102C738.725 117.102 739.235 117.283 739.597 117.646C739.96 118.009 740.141 118.541 740.141 119.244V121.556L739.767 120.706C740.266 119.505 741.037 118.598 742.079 117.986C743.145 117.351 744.346 117.034 745.683 117.034C747.021 117.034 748.12 117.283 748.981 117.782C749.843 118.281 750.489 119.04 750.919 120.06C751.35 121.057 751.565 122.327 751.565 123.868V132.096C751.565 132.799 751.384 133.343 751.021 133.728C750.659 134.091 750.137 134.272 749.457 134.272C748.777 134.272 748.245 134.091 747.859 133.728C747.497 133.343 747.315 132.799 747.315 132.096V124.072C747.315 122.78 747.066 121.839 746.567 121.25C746.091 120.661 745.343 120.366 744.323 120.366C743.077 120.366 742.079 120.763 741.331 121.556C740.606 122.327 740.243 123.358 740.243 124.65V132.096C740.243 133.547 739.529 134.272 738.101 134.272ZM762.274 134.34C760.823 134.34 759.543 133.989 758.432 133.286C757.344 132.583 756.494 131.586 755.882 130.294C755.27 128.979 754.964 127.438 754.964 125.67C754.964 123.879 755.27 122.349 755.882 121.08C756.494 119.788 757.344 118.791 758.432 118.088C759.543 117.385 760.823 117.034 762.274 117.034C763.657 117.034 764.858 117.374 765.878 118.054C766.921 118.734 767.623 119.629 767.986 120.74H767.612V111.9C767.612 111.197 767.793 110.665 768.156 110.302C768.519 109.939 769.04 109.758 769.72 109.758C770.4 109.758 770.921 109.939 771.284 110.302C771.669 110.665 771.862 111.197 771.862 111.9V132.096C771.862 132.799 771.681 133.343 771.318 133.728C770.955 134.091 770.434 134.272 769.754 134.272C769.074 134.272 768.553 134.091 768.19 133.728C767.827 133.343 767.646 132.799 767.646 132.096V129.444L768.02 130.464C767.68 131.643 766.989 132.583 765.946 133.286C764.903 133.989 763.679 134.34 762.274 134.34ZM763.464 131.11C764.303 131.11 765.039 130.906 765.674 130.498C766.309 130.09 766.796 129.489 767.136 128.696C767.499 127.88 767.68 126.871 767.68 125.67C767.68 123.857 767.295 122.508 766.524 121.624C765.753 120.717 764.733 120.264 763.464 120.264C762.625 120.264 761.889 120.468 761.254 120.876C760.619 121.261 760.121 121.862 759.758 122.678C759.418 123.471 759.248 124.469 759.248 125.67C759.248 127.461 759.633 128.821 760.404 129.75C761.175 130.657 762.195 131.11 763.464 131.11ZM788.117 134C787.414 134 786.87 133.807 786.485 133.422C786.1 133.014 785.907 132.459 785.907 131.756V112.138C785.907 111.413 786.088 110.869 786.451 110.506C786.836 110.121 787.38 109.928 788.083 109.928C788.786 109.928 789.318 110.121 789.681 110.506C790.066 110.869 790.259 111.413 790.259 112.138V130.294H800.119C800.731 130.294 801.196 130.453 801.513 130.77C801.853 131.087 802.023 131.541 802.023 132.13C802.023 132.719 801.853 133.184 801.513 133.524C801.196 133.841 800.731 134 800.119 134H788.117ZM806.699 134.238C806.019 134.238 805.498 134.034 805.135 133.626C804.772 133.218 804.591 132.651 804.591 131.926V119.448C804.591 118.7 804.772 118.133 805.135 117.748C805.498 117.34 806.019 117.136 806.699 117.136C807.379 117.136 807.9 117.34 808.263 117.748C808.648 118.133 808.841 118.7 808.841 119.448V131.926C808.841 132.651 808.66 133.218 808.297 133.626C807.934 134.034 807.402 134.238 806.699 134.238ZM806.699 113.974C805.906 113.974 805.282 113.781 804.829 113.396C804.398 112.988 804.183 112.433 804.183 111.73C804.183 111.005 804.398 110.449 804.829 110.064C805.282 109.679 805.906 109.486 806.699 109.486C807.515 109.486 808.138 109.679 808.569 110.064C809 110.449 809.215 111.005 809.215 111.73C809.215 112.433 809 112.988 808.569 113.396C808.138 113.781 807.515 113.974 806.699 113.974ZM822.845 134.34C821.44 134.34 820.204 133.989 819.139 133.286C818.096 132.583 817.405 131.643 817.065 130.464L817.439 129.614V132.096C817.439 132.799 817.258 133.343 816.895 133.728C816.532 134.091 816.022 134.272 815.365 134.272C814.685 134.272 814.164 134.091 813.801 133.728C813.438 133.343 813.257 132.799 813.257 132.096V111.9C813.257 111.197 813.438 110.665 813.801 110.302C814.164 109.939 814.685 109.758 815.365 109.758C816.045 109.758 816.566 109.939 816.929 110.302C817.314 110.665 817.507 111.197 817.507 111.9V120.74H817.099C817.462 119.629 818.164 118.734 819.207 118.054C820.25 117.374 821.462 117.034 822.845 117.034C824.318 117.034 825.599 117.385 826.687 118.088C827.775 118.791 828.625 119.788 829.237 121.08C829.849 122.349 830.155 123.879 830.155 125.67C830.155 127.438 829.849 128.979 829.237 130.294C828.625 131.586 827.764 132.583 826.653 133.286C825.565 133.989 824.296 134.34 822.845 134.34ZM821.655 131.11C822.494 131.11 823.23 130.906 823.865 130.498C824.5 130.09 824.987 129.489 825.327 128.696C825.69 127.88 825.871 126.871 825.871 125.67C825.871 123.857 825.486 122.508 824.715 121.624C823.944 120.717 822.924 120.264 821.655 120.264C820.816 120.264 820.08 120.468 819.445 120.876C818.81 121.261 818.312 121.862 817.949 122.678C817.609 123.471 817.439 124.469 817.439 125.67C817.439 127.461 817.824 128.821 818.595 129.75C819.366 130.657 820.386 131.11 821.655 131.11ZM835.82 134.272C835.117 134.272 834.573 134.091 834.188 133.728C833.825 133.343 833.644 132.799 833.644 132.096V119.244C833.644 118.541 833.825 118.009 834.188 117.646C834.55 117.283 835.06 117.102 835.718 117.102C836.375 117.102 836.885 117.283 837.248 117.646C837.61 118.009 837.792 118.541 837.792 119.244V121.386H837.452C837.769 120.026 838.392 118.995 839.322 118.292C840.251 117.589 841.486 117.17 843.028 117.034C843.504 116.989 843.878 117.113 844.15 117.408C844.444 117.68 844.614 118.111 844.66 118.7C844.705 119.267 844.569 119.731 844.252 120.094C843.957 120.434 843.504 120.638 842.892 120.706L842.144 120.774C840.761 120.91 839.718 121.341 839.016 122.066C838.313 122.769 837.962 123.766 837.962 125.058V132.096C837.962 132.799 837.78 133.343 837.418 133.728C837.055 134.091 836.522 134.272 835.82 134.272ZM852.266 134.34C851.065 134.34 849.988 134.113 849.036 133.66C848.107 133.184 847.37 132.549 846.826 131.756C846.305 130.963 846.044 130.067 846.044 129.07C846.044 127.846 846.361 126.883 846.996 126.18C847.631 125.455 848.662 124.933 850.09 124.616C851.518 124.299 853.433 124.14 855.836 124.14H857.536V126.588H855.87C854.465 126.588 853.343 126.656 852.504 126.792C851.665 126.928 851.065 127.166 850.702 127.506C850.362 127.823 850.192 128.277 850.192 128.866C850.192 129.614 850.453 130.226 850.974 130.702C851.495 131.178 852.221 131.416 853.15 131.416C853.898 131.416 854.555 131.246 855.122 130.906C855.711 130.543 856.176 130.056 856.516 129.444C856.856 128.832 857.026 128.129 857.026 127.336V123.426C857.026 122.293 856.777 121.477 856.278 120.978C855.779 120.479 854.941 120.23 853.762 120.23C853.105 120.23 852.391 120.309 851.62 120.468C850.872 120.627 850.079 120.899 849.24 121.284C848.809 121.488 848.424 121.545 848.084 121.454C847.767 121.363 847.517 121.182 847.336 120.91C847.155 120.615 847.064 120.298 847.064 119.958C847.064 119.618 847.155 119.289 847.336 118.972C847.517 118.632 847.823 118.383 848.254 118.224C849.297 117.793 850.294 117.487 851.246 117.306C852.221 117.125 853.105 117.034 853.898 117.034C855.53 117.034 856.867 117.283 857.91 117.782C858.975 118.281 859.769 119.04 860.29 120.06C860.811 121.057 861.072 122.349 861.072 123.936V132.096C861.072 132.799 860.902 133.343 860.562 133.728C860.222 134.091 859.735 134.272 859.1 134.272C858.465 134.272 857.967 134.091 857.604 133.728C857.264 133.343 857.094 132.799 857.094 132.096V130.464H857.366C857.207 131.257 856.89 131.949 856.414 132.538C855.961 133.105 855.383 133.547 854.68 133.864C853.977 134.181 853.173 134.34 852.266 134.34ZM867.562 134.272C866.859 134.272 866.315 134.091 865.93 133.728C865.567 133.343 865.386 132.799 865.386 132.096V119.244C865.386 118.541 865.567 118.009 865.93 117.646C866.292 117.283 866.802 117.102 867.46 117.102C868.117 117.102 868.627 117.283 868.99 117.646C869.352 118.009 869.534 118.541 869.534 119.244V121.386H869.194C869.511 120.026 870.134 118.995 871.064 118.292C871.993 117.589 873.228 117.17 874.77 117.034C875.246 116.989 875.62 117.113 875.892 117.408C876.186 117.68 876.356 118.111 876.402 118.7C876.447 119.267 876.311 119.731 875.994 120.094C875.699 120.434 875.246 120.638 874.634 120.706L873.886 120.774C872.503 120.91 871.46 121.341 870.758 122.066C870.055 122.769 869.704 123.766 869.704 125.058V132.096C869.704 132.799 869.522 133.343 869.16 133.728C868.797 134.091 868.264 134.272 867.562 134.272ZM883.946 140.392C883.447 140.392 883.039 140.256 882.722 139.984C882.404 139.735 882.212 139.395 882.144 138.964C882.098 138.533 882.178 138.08 882.382 137.604L884.694 132.47V134.238L878.506 119.924C878.302 119.425 878.234 118.961 878.302 118.53C878.37 118.099 878.574 117.759 878.914 117.51C879.276 117.238 879.764 117.102 880.376 117.102C880.897 117.102 881.316 117.227 881.634 117.476C881.951 117.703 882.234 118.145 882.484 118.802L887.074 130.26H886.054L890.746 118.768C890.995 118.133 891.29 117.703 891.63 117.476C891.97 117.227 892.423 117.102 892.99 117.102C893.488 117.102 893.885 117.238 894.18 117.51C894.474 117.759 894.656 118.099 894.724 118.53C894.792 118.938 894.712 119.391 894.486 119.89L886.224 138.76C885.929 139.395 885.612 139.825 885.272 140.052C884.932 140.279 884.49 140.392 883.946 140.392Z" fill="black"/>
<path d="M240 185.333C242.946 185.333 245.333 182.946 245.333 180C245.333 177.054 242.946 174.667 240 174.667C237.054 174.667 234.667 177.054 234.667 180C234.667 182.946 237.054 185.333 240 185.333ZM1240 185.333C1242.95 185.333 1245.33 182.946 1245.33 180C1245.33 177.054 1242.95 174.667 1240 174.667C1237.05 174.667 1234.67 177.054 1234.67 180C1234.67 182.946 1237.05 185.333 1240 185.333ZM240 181L1240 181V179L240 179V181Z" fill="#323333"/>
<rect x="245.75" y="220.75" width="926.5" height="38.5" rx="9.25" fill="white" stroke="black" stroke-width="1.5"/>
<path d="M266.76 245.18C266.232 245.18 265.704 245.138 265.176 245.054C264.648 244.982 264.15 244.868 263.682 244.712C263.214 244.544 262.794 244.34 262.422 244.1C262.206 243.956 262.056 243.782 261.972 243.578C261.888 243.374 261.858 243.176 261.882 242.984C261.918 242.78 261.996 242.606 262.116 242.462C262.248 242.306 262.41 242.21 262.602 242.174C262.794 242.138 263.004 242.192 263.232 242.336C263.76 242.648 264.318 242.876 264.906 243.02C265.494 243.164 266.112 243.236 266.76 243.236C267.708 243.236 268.398 243.08 268.83 242.768C269.262 242.444 269.478 242.03 269.478 241.526C269.478 241.106 269.322 240.776 269.01 240.536C268.71 240.296 268.188 240.098 267.444 239.942L265.464 239.528C264.324 239.288 263.472 238.886 262.908 238.322C262.356 237.746 262.08 236.99 262.08 236.054C262.08 235.466 262.2 234.932 262.44 234.452C262.68 233.972 263.016 233.558 263.448 233.21C263.892 232.862 264.414 232.598 265.014 232.418C265.626 232.226 266.298 232.13 267.03 232.13C267.75 232.13 268.434 232.22 269.082 232.4C269.73 232.58 270.312 232.844 270.828 233.192C271.02 233.324 271.146 233.486 271.206 233.678C271.278 233.87 271.296 234.062 271.26 234.254C271.224 234.434 271.14 234.59 271.008 234.722C270.876 234.854 270.708 234.932 270.504 234.956C270.312 234.98 270.09 234.92 269.838 234.776C269.394 234.524 268.944 234.344 268.488 234.236C268.032 234.128 267.54 234.074 267.012 234.074C266.46 234.074 265.986 234.152 265.59 234.308C265.194 234.464 264.888 234.686 264.672 234.974C264.468 235.25 264.366 235.58 264.366 235.964C264.366 236.396 264.51 236.744 264.798 237.008C265.086 237.26 265.578 237.458 266.274 237.602L268.236 238.016C269.424 238.268 270.306 238.664 270.882 239.204C271.47 239.744 271.764 240.464 271.764 241.364C271.764 241.94 271.644 242.462 271.404 242.93C271.176 243.398 270.84 243.8 270.396 244.136C269.964 244.472 269.442 244.73 268.83 244.91C268.218 245.09 267.528 245.18 266.76 245.18Z" fill="black"/>
<path d="M277.863 245.18C276.867 245.18 276.009 244.994 275.289 244.622C274.569 244.25 274.011 243.722 273.615 243.038C273.231 242.354 273.039 241.544 273.039 240.608C273.039 239.696 273.225 238.898 273.597 238.214C273.981 237.53 274.503 236.996 275.163 236.612C275.835 236.216 276.597 236.018 277.449 236.018C278.073 236.018 278.631 236.12 279.123 236.324C279.627 236.528 280.053 236.822 280.401 237.206C280.761 237.59 281.031 238.058 281.211 238.61C281.403 239.15 281.499 239.762 281.499 240.446C281.499 240.662 281.421 240.83 281.265 240.95C281.121 241.058 280.911 241.112 280.635 241.112H274.857V239.816H279.915L279.627 240.086C279.627 239.534 279.543 239.072 279.375 238.7C279.219 238.328 278.985 238.046 278.673 237.854C278.373 237.65 277.995 237.548 277.539 237.548C277.035 237.548 276.603 237.668 276.243 237.908C275.895 238.136 275.625 238.466 275.433 238.898C275.253 239.318 275.163 239.822 275.163 240.41V240.536C275.163 241.52 275.391 242.258 275.847 242.75C276.315 243.23 276.999 243.47 277.899 243.47C278.211 243.47 278.559 243.434 278.943 243.362C279.339 243.278 279.711 243.14 280.059 242.948C280.311 242.804 280.533 242.744 280.725 242.768C280.917 242.78 281.067 242.846 281.175 242.966C281.295 243.086 281.367 243.236 281.391 243.416C281.415 243.584 281.379 243.758 281.283 243.938C281.199 244.118 281.049 244.274 280.833 244.406C280.413 244.67 279.927 244.868 279.375 245C278.835 245.12 278.331 245.18 277.863 245.18ZM286.179 245.18C285.543 245.18 284.973 245.06 284.469 244.82C283.977 244.568 283.587 244.232 283.299 243.812C283.023 243.392 282.885 242.918 282.885 242.39C282.885 241.742 283.053 241.232 283.389 240.86C283.725 240.476 284.271 240.2 285.027 240.032C285.783 239.864 286.797 239.78 288.069 239.78H288.969V241.076H288.087C287.343 241.076 286.749 241.112 286.305 241.184C285.861 241.256 285.543 241.382 285.351 241.562C285.171 241.73 285.081 241.97 285.081 242.282C285.081 242.678 285.219 243.002 285.495 243.254C285.771 243.506 286.155 243.632 286.647 243.632C287.043 243.632 287.391 243.542 287.691 243.362C288.003 243.17 288.249 242.912 288.429 242.588C288.609 242.264 288.699 241.892 288.699 241.472V239.402C288.699 238.802 288.567 238.37 288.303 238.106C288.039 237.842 287.595 237.71 286.971 237.71C286.623 237.71 286.245 237.752 285.837 237.836C285.441 237.92 285.021 238.064 284.577 238.268C284.349 238.376 284.145 238.406 283.965 238.358C283.797 238.31 283.665 238.214 283.569 238.07C283.473 237.914 283.425 237.746 283.425 237.566C283.425 237.386 283.473 237.212 283.569 237.044C283.665 236.864 283.827 236.732 284.055 236.648C284.607 236.42 285.135 236.258 285.639 236.162C286.155 236.066 286.623 236.018 287.043 236.018C287.907 236.018 288.615 236.15 289.167 236.414C289.731 236.678 290.151 237.08 290.427 237.62C290.703 238.148 290.841 238.832 290.841 239.672V243.992C290.841 244.364 290.751 244.652 290.571 244.856C290.391 245.048 290.133 245.144 289.797 245.144C289.461 245.144 289.197 245.048 289.005 244.856C288.825 244.652 288.735 244.364 288.735 243.992V243.128H288.879C288.795 243.548 288.627 243.914 288.375 244.226C288.135 244.526 287.829 244.76 287.457 244.928C287.085 245.096 286.659 245.18 286.179 245.18ZM294.277 245.144C293.905 245.144 293.617 245.048 293.413 244.856C293.221 244.652 293.125 244.364 293.125 243.992V237.188C293.125 236.816 293.221 236.534 293.413 236.342C293.605 236.15 293.875 236.054 294.223 236.054C294.571 236.054 294.841 236.15 295.033 236.342C295.225 236.534 295.321 236.816 295.321 237.188V238.322H295.141C295.309 237.602 295.639 237.056 296.131 236.684C296.623 236.312 297.277 236.09 298.093 236.018C298.345 235.994 298.543 236.06 298.687 236.216C298.843 236.36 298.933 236.588 298.957 236.9C298.981 237.2 298.909 237.446 298.741 237.638C298.585 237.818 298.345 237.926 298.021 237.962L297.625 237.998C296.893 238.07 296.341 238.298 295.969 238.682C295.597 239.054 295.411 239.582 295.411 240.266V243.992C295.411 244.364 295.315 244.652 295.123 244.856C294.931 245.048 294.649 245.144 294.277 245.144ZM304.101 245.18C303.177 245.18 302.373 244.994 301.689 244.622C301.005 244.238 300.477 243.698 300.105 243.002C299.733 242.306 299.547 241.49 299.547 240.554C299.547 239.846 299.649 239.216 299.853 238.664C300.069 238.1 300.375 237.626 300.771 237.242C301.167 236.846 301.647 236.546 302.211 236.342C302.775 236.126 303.405 236.018 304.101 236.018C304.497 236.018 304.923 236.072 305.379 236.18C305.847 236.288 306.285 236.468 306.693 236.72C306.885 236.84 307.011 236.984 307.071 237.152C307.131 237.32 307.143 237.494 307.107 237.674C307.071 237.842 306.993 237.992 306.873 238.124C306.765 238.244 306.627 238.322 306.459 238.358C306.291 238.382 306.105 238.34 305.901 238.232C305.637 238.076 305.367 237.962 305.091 237.89C304.815 237.806 304.551 237.764 304.299 237.764C303.903 237.764 303.555 237.83 303.255 237.962C302.955 238.082 302.697 238.262 302.481 238.502C302.277 238.73 302.121 239.018 302.013 239.366C301.905 239.714 301.851 240.116 301.851 240.572C301.851 241.46 302.061 242.162 302.481 242.678C302.913 243.182 303.519 243.434 304.299 243.434C304.551 243.434 304.809 243.398 305.073 243.326C305.349 243.254 305.625 243.14 305.901 242.984C306.105 242.876 306.285 242.84 306.441 242.876C306.609 242.912 306.747 242.996 306.855 243.128C306.963 243.248 307.029 243.398 307.053 243.578C307.077 243.746 307.053 243.914 306.981 244.082C306.921 244.25 306.801 244.388 306.621 244.496C306.225 244.736 305.805 244.91 305.361 245.018C304.917 245.126 304.497 245.18 304.101 245.18ZM309.64 245.144C309.28 245.144 309.004 245.048 308.812 244.856C308.62 244.652 308.524 244.364 308.524 243.992V233.3C308.524 232.928 308.62 232.646 308.812 232.454C309.004 232.262 309.28 232.166 309.64 232.166C310 232.166 310.276 232.262 310.468 232.454C310.672 232.646 310.774 232.928 310.774 233.3V237.962H310.522C310.786 237.326 311.194 236.846 311.746 236.522C312.31 236.186 312.946 236.018 313.654 236.018C314.362 236.018 314.944 236.15 315.4 236.414C315.856 236.678 316.198 237.08 316.426 237.62C316.654 238.148 316.768 238.82 316.768 239.636V243.992C316.768 244.364 316.672 244.652 316.48 244.856C316.288 245.048 316.012 245.144 315.652 245.144C315.292 245.144 315.01 245.048 314.806 244.856C314.614 244.652 314.518 244.364 314.518 243.992V239.744C314.518 239.06 314.386 238.562 314.122 238.25C313.87 237.938 313.474 237.782 312.934 237.782C312.274 237.782 311.746 237.992 311.35 238.412C310.966 238.82 310.774 239.366 310.774 240.05V243.992C310.774 244.76 310.396 245.144 309.64 245.144Z" fill="#B0B0B0"/>
<rect x="1370" y="900" width="60" height="40" rx="10" fill="#4D4E50"/>
<path d="M1405.99 927H1396.15C1392.76 927 1390 924.515 1390 921.453C1390 918.391 1392.76 915.906 1396.15 915.906H1409.68" stroke="white" stroke-width="1.5" stroke-miterlimit="10" stroke-linecap="round" stroke-linejoin="round"/>
<path d="M1406.85 918.68L1410 915.84L1406.85 913" stroke="white" stroke-width="1.5" stroke-linecap="round" stroke-linejoin="round"/>
<rect x="50" y="900" width="60" height="40" rx="10" fill="#4D4E50"/>
<path d="M74.0096 927H83.8498C87.2447 927 90 924.515 90 921.453C90 918.391 87.2447 915.906 83.8498 915.906H70.3194" stroke="white" stroke-width="1.5" stroke-miterlimit="10" stroke-linecap="round" stroke-linejoin="round"/>
<path d="M73.1488 918.68L69.9999 915.84L73.1488 913" stroke="white" stroke-width="1.5" stroke-linecap="round" stroke-linejoin="round"/>
<rect x="1390" y="60" width="40" height="40" rx="10" fill="#4D4E50"/>
<path d="M1410.14 80.8916C1410.05 80.8795 1409.95 80.8795 1409.86 80.8916C1408.85 80.8572 1407.9 80.427 1407.2 79.6918C1406.5 78.9567 1406.11 77.9741 1406.11 76.9518C1406.11 74.7711 1407.84 73 1410 73C1411.02 72.9982 1412 73.4034 1412.73 74.1282C1413.46 74.853 1413.88 75.8394 1413.89 76.8747C1413.91 77.91 1413.53 78.9113 1412.83 79.6627C1412.13 80.4141 1411.16 80.8554 1410.14 80.8916V80.8916ZM1418 88.8434C1415.82 90.8784 1412.96 92.0053 1410 92C1406.91 92 1404.11 90.8072 1402 88.8434C1402.12 87.7108 1402.83 86.6024 1404.1 85.7349C1407.35 83.5422 1412.67 83.5422 1415.9 85.7349C1417.17 86.6024 1417.88 87.7108 1418 88.8434V88.8434Z" stroke="white" stroke-width="1.5" stroke-linecap="round" stroke-linejoin="round"/>
<path d="M1410 92C1416.63 92 1422 86.6276 1422 80C1422 73.3724 1416.63 68 1410 68C1403.37 68 1398 73.3724 1398 80C1398 86.6276 1403.37 92 1410 92Z" stroke="white" stroke-width="1.5" stroke-linecap="round" stroke-linejoin="round"/>
<rect x="1193" y="220" width="40" height="40" rx="10" fill="#4D4E50"/>
<path d="M1221 248L1219.4 246.4M1212.6 247.2C1213.6 247.2 1214.59 247.003 1215.51 246.621C1216.43 246.24 1217.27 245.68 1217.97 244.974C1218.68 244.268 1219.24 243.43 1219.62 242.508C1220 241.586 1220.2 240.598 1220.2 239.6C1220.2 238.602 1220 237.614 1219.62 236.692C1219.24 235.77 1218.68 234.932 1217.97 234.226C1217.27 233.52 1216.43 232.96 1215.51 232.579C1214.59 232.197 1213.6 232 1212.6 232C1210.58 232 1208.65 232.801 1207.23 234.226C1205.8 235.651 1205 237.584 1205 239.6C1205 241.616 1205.8 243.549 1207.23 244.974C1208.65 246.399 1210.58 247.2 1212.6 247.2Z" stroke="white" stroke-width="1.5" stroke-linecap="round" stroke-linejoin="round"/>
<path d="M75.1519 71.3413V71.2464C77.3188 70.1089 79.0011 68.4384 80.2009 66.2348C81.4007 64.0312 81.9995 61.7498 81.9995 59.3908C81.9995 56.313 81.0216 53.9799 79.0657 52.3871C77.1099 50.7943 74.0576 50 69.9155 50H64.8234L63.5913 60.2433H66.9494C69.1379 60.2433 70.23 61.1822 70.23 63.0578C70.23 64.5125 69.7625 65.7448 68.8255 66.7571C67.8885 67.7693 66.6952 68.2744 65.2434 68.2744H62.6241L61.573 77.0004H65.8767C66.7189 77.0004 67.4276 77.1321 68.007 77.3954C68.5864 77.6587 69.0108 78.0235 69.2843 78.4853C69.5579 78.9472 69.6936 79.4976 69.6936 80.13C69.6936 81.7098 69.1249 83.0653 67.9898 84.1919C66.8546 85.3185 65.4437 85.884 63.7615 85.884H60.5024L59.2833 96.0022H66.6629C68.8923 96.0022 70.9322 95.6115 72.7846 94.8324C74.6349 94.0532 76.1987 92.9784 77.4696 91.6078C78.7405 90.2373 79.7248 88.5884 80.4206 86.661C81.1163 84.7336 81.461 82.6401 81.461 80.3846C81.4631 75.809 79.3587 72.796 75.1519 71.3413Z" fill="#323333"/>
<path d="M53.5858 50C53.3252 50 53.1033 50.1964 53.0732 50.4554L50.665 70.1823L50.0037 75.5781C49.9671 75.8867 50.2062 76.1587 50.5164 76.1587H50.5314C50.7921 76.1587 51.0139 75.9623 51.0441 75.7033L54.1006 50.5806C54.1373 50.2719 53.896 50 53.5858 50Z" fill="#323333"/>
<path d="M55.7011 50H55.6861C55.4254 50 55.2036 50.1964 55.1734 50.4554L51.4814 80.6329C51.4448 80.9415 51.6839 81.2134 51.9941 81.2134H52.0092C52.2698 81.2134 52.4917 81.017 52.5218 80.758L56.2138 50.5806C56.2526 50.2719 56.0113 50 55.7011 50Z" fill="#323333"/>
<path d="M61.517 50.4554L56.0609 95.4194C56.0242 95.7281 56.2633 96 56.5735 96H56.6317C56.8945 96 57.1142 95.8036 57.1443 95.5446L62.5595 50.5806C62.5961 50.2719 62.357 50 62.0469 50H62.0318C61.769 50 61.5493 50.1964 61.517 50.4554Z" fill="#323333"/>
<path d="M59.9316 50H59.9165C59.6559 50 59.434 50.1964 59.4039 50.4554L54.6737 89.4474C54.6371 89.756 54.8762 90.028 55.1863 90.028H55.2014C55.462 90.028 55.6839 89.8316 55.7141 89.5726L60.4443 50.5806C60.4809 50.2719 60.2418 50 59.9316 50Z" fill="#323333"/>
<path d="M57.8164 50H57.8013C57.5385 50 57.3188 50.1964 57.2865 50.4554L53.0625 85.1221C53.0259 85.4308 53.265 85.7027 53.5751 85.7027H53.5902C53.8508 85.7027 54.0727 85.5063 54.1029 85.2473L58.329 50.5806C58.3678 50.2719 58.1266 50 57.8164 50Z" fill="#323333"/>
<circle cx="239" cy="180" r="10" fill="#323333"/>
<circle cx="218" cy="180" r="5" fill="#323333"/>
<circle cx="204.5" cy="179.5" r="2.5" fill="#323333"/>
<circle cx="1241" cy="180" r="10" transform="rotate(-180 1241 180)" fill="#323333"/>
<circle cx="1262" cy="180" r="5" transform="rotate(-180 1262 180)" fill="#323333"/>
<circle cx="1275.5" cy="180.5" r="2.5" transform="rotate(-180 1275.5 180.5)" fill="#323333"/>
</svg>
