<svg width="1480" height="1000" viewBox="0 0 1480 1000" fill="none" xmlns="http://www.w3.org/2000/svg">
<rect width="1480" height="1000" rx="20" fill="white"/>
<rect x="0.999023" y="0.9375" width="1478" height="998.124" rx="20" fill="black"/>
<rect x="20" y="20" width="1440" height="960" fill="#F2F2F2"/>
<path d="M700.144 134.34C697.492 134.34 695.248 133.841 693.412 132.844C691.599 131.847 690.216 130.43 689.264 128.594C688.312 126.758 687.836 124.582 687.836 122.066C687.836 120.162 688.108 118.451 688.652 116.932C689.219 115.413 690.023 114.121 691.066 113.056C692.131 111.968 693.423 111.141 694.942 110.574C696.461 109.985 698.183 109.69 700.11 109.69C701.379 109.69 702.649 109.849 703.918 110.166C705.21 110.461 706.423 110.971 707.556 111.696C707.941 111.945 708.191 112.251 708.304 112.614C708.44 112.977 708.463 113.351 708.372 113.736C708.281 114.099 708.111 114.416 707.862 114.688C707.613 114.96 707.295 115.13 706.91 115.198C706.547 115.266 706.139 115.175 705.686 114.926C704.825 114.427 703.952 114.065 703.068 113.838C702.184 113.611 701.198 113.498 700.11 113.498C698.433 113.498 697.016 113.838 695.86 114.518C694.704 115.175 693.831 116.139 693.242 117.408C692.675 118.677 692.392 120.23 692.392 122.066C692.392 124.854 693.061 126.973 694.398 128.424C695.735 129.875 697.719 130.6 700.348 130.6C701.255 130.6 702.173 130.509 703.102 130.328C704.031 130.147 704.938 129.897 705.822 129.58L704.972 131.518V124.276H701.232C700.665 124.276 700.223 124.129 699.906 123.834C699.611 123.539 699.464 123.143 699.464 122.644C699.464 122.123 699.611 121.726 699.906 121.454C700.223 121.182 700.665 121.046 701.232 121.046H706.842C707.409 121.046 707.839 121.205 708.134 121.522C708.451 121.817 708.61 122.247 708.61 122.814V131.076C708.61 131.575 708.508 131.994 708.304 132.334C708.123 132.674 707.817 132.923 707.386 133.082C706.389 133.445 705.244 133.751 703.952 134C702.66 134.227 701.391 134.34 700.144 134.34ZM719.263 134.34C717.88 134.34 716.736 134.091 715.829 133.592C714.922 133.071 714.242 132.3 713.789 131.28C713.358 130.26 713.143 128.991 713.143 127.472V119.244C713.143 118.519 713.324 117.986 713.687 117.646C714.05 117.283 714.571 117.102 715.251 117.102C715.931 117.102 716.452 117.283 716.815 117.646C717.2 117.986 717.393 118.519 717.393 119.244V127.54C717.393 128.719 717.631 129.591 718.107 130.158C718.583 130.725 719.342 131.008 720.385 131.008C721.518 131.008 722.448 130.623 723.173 129.852C723.898 129.059 724.261 128.016 724.261 126.724V119.244C724.261 118.519 724.442 117.986 724.805 117.646C725.168 117.283 725.689 117.102 726.369 117.102C727.049 117.102 727.57 117.283 727.933 117.646C728.318 117.986 728.511 118.519 728.511 119.244V132.096C728.511 133.547 727.82 134.272 726.437 134.272C725.78 134.272 725.27 134.091 724.907 133.728C724.544 133.343 724.363 132.799 724.363 132.096V129.512L724.839 130.532C724.363 131.756 723.638 132.697 722.663 133.354C721.711 134.011 720.578 134.34 719.263 134.34ZM735.043 134.238C734.363 134.238 733.841 134.034 733.479 133.626C733.116 133.218 732.935 132.651 732.935 131.926V119.448C732.935 118.7 733.116 118.133 733.479 117.748C733.841 117.34 734.363 117.136 735.043 117.136C735.723 117.136 736.244 117.34 736.607 117.748C736.992 118.133 737.185 118.7 737.185 119.448V131.926C737.185 132.651 737.003 133.218 736.641 133.626C736.278 134.034 735.745 134.238 735.043 134.238ZM735.043 113.974C734.249 113.974 733.626 113.781 733.173 113.396C732.742 112.988 732.527 112.433 732.527 111.73C732.527 111.005 732.742 110.449 733.173 110.064C733.626 109.679 734.249 109.486 735.043 109.486C735.859 109.486 736.482 109.679 736.913 110.064C737.343 110.449 737.559 111.005 737.559 111.73C737.559 112.433 737.343 112.988 736.913 113.396C736.482 113.781 735.859 113.974 735.043 113.974ZM747.993 134.34C746.542 134.34 745.261 133.989 744.151 133.286C743.063 132.583 742.213 131.586 741.601 130.294C740.989 128.979 740.683 127.438 740.683 125.67C740.683 123.879 740.989 122.349 741.601 121.08C742.213 119.788 743.063 118.791 744.151 118.088C745.261 117.385 746.542 117.034 747.993 117.034C749.375 117.034 750.577 117.374 751.597 118.054C752.639 118.734 753.342 119.629 753.705 120.74H753.331V111.9C753.331 111.197 753.512 110.665 753.875 110.302C754.237 109.939 754.759 109.758 755.439 109.758C756.119 109.758 756.64 109.939 757.003 110.302C757.388 110.665 757.581 111.197 757.581 111.9V132.096C757.581 132.799 757.399 133.343 757.037 133.728C756.674 134.091 756.153 134.272 755.473 134.272C754.793 134.272 754.271 134.091 753.909 133.728C753.546 133.343 753.365 132.799 753.365 132.096V129.444L753.739 130.464C753.399 131.643 752.707 132.583 751.665 133.286C750.622 133.989 749.398 134.34 747.993 134.34ZM749.183 131.11C750.021 131.11 750.758 130.906 751.393 130.498C752.027 130.09 752.515 129.489 752.855 128.696C753.217 127.88 753.399 126.871 753.399 125.67C753.399 123.857 753.013 122.508 752.243 121.624C751.472 120.717 750.452 120.264 749.183 120.264C748.344 120.264 747.607 120.468 746.973 120.876C746.338 121.261 745.839 121.862 745.477 122.678C745.137 123.471 744.967 124.469 744.967 125.67C744.967 127.461 745.352 128.821 746.123 129.75C746.893 130.657 747.913 131.11 749.183 131.11ZM770.181 134.34C768.3 134.34 766.679 133.989 765.319 133.286C763.959 132.583 762.905 131.586 762.157 130.294C761.432 129.002 761.069 127.472 761.069 125.704C761.069 123.981 761.421 122.474 762.123 121.182C762.849 119.89 763.835 118.881 765.081 118.156C766.351 117.408 767.79 117.034 769.399 117.034C770.578 117.034 771.632 117.227 772.561 117.612C773.513 117.997 774.318 118.553 774.975 119.278C775.655 120.003 776.165 120.887 776.505 121.93C776.868 122.95 777.049 124.106 777.049 125.398C777.049 125.806 776.902 126.123 776.607 126.35C776.335 126.554 775.939 126.656 775.417 126.656H764.503V124.208H774.057L773.513 124.718C773.513 123.675 773.355 122.803 773.037 122.1C772.743 121.397 772.301 120.865 771.711 120.502C771.145 120.117 770.431 119.924 769.569 119.924C768.617 119.924 767.801 120.151 767.121 120.604C766.464 121.035 765.954 121.658 765.591 122.474C765.251 123.267 765.081 124.219 765.081 125.33V125.568C765.081 127.427 765.512 128.821 766.373 129.75C767.257 130.657 768.549 131.11 770.249 131.11C770.839 131.11 771.496 131.042 772.221 130.906C772.969 130.747 773.672 130.487 774.329 130.124C774.805 129.852 775.225 129.739 775.587 129.784C775.95 129.807 776.233 129.931 776.437 130.158C776.664 130.385 776.8 130.668 776.845 131.008C776.891 131.325 776.823 131.654 776.641 131.994C776.483 132.334 776.199 132.629 775.791 132.878C774.998 133.377 774.08 133.751 773.037 134C772.017 134.227 771.065 134.34 770.181 134.34ZM786.501 134.34C785.526 134.34 784.495 134.238 783.407 134.034C782.319 133.83 781.344 133.479 780.483 132.98C780.12 132.753 779.86 132.493 779.701 132.198C779.565 131.881 779.508 131.575 779.531 131.28C779.576 130.963 779.69 130.691 779.871 130.464C780.075 130.237 780.324 130.09 780.619 130.022C780.936 129.954 781.276 130.011 781.639 130.192C782.546 130.623 783.396 130.929 784.189 131.11C784.982 131.269 785.764 131.348 786.535 131.348C787.623 131.348 788.428 131.167 788.949 130.804C789.493 130.419 789.765 129.92 789.765 129.308C789.765 128.787 789.584 128.39 789.221 128.118C788.881 127.823 788.36 127.608 787.657 127.472L784.257 126.826C782.852 126.554 781.775 126.044 781.027 125.296C780.302 124.525 779.939 123.539 779.939 122.338C779.939 121.25 780.234 120.309 780.823 119.516C781.435 118.723 782.274 118.111 783.339 117.68C784.404 117.249 785.628 117.034 787.011 117.034C788.008 117.034 788.938 117.147 789.799 117.374C790.683 117.578 791.533 117.907 792.349 118.36C792.689 118.541 792.916 118.779 793.029 119.074C793.165 119.369 793.199 119.675 793.131 119.992C793.063 120.287 792.927 120.559 792.723 120.808C792.519 121.035 792.258 121.182 791.941 121.25C791.646 121.295 791.306 121.227 790.921 121.046C790.218 120.683 789.538 120.423 788.881 120.264C788.246 120.105 787.634 120.026 787.045 120.026C785.934 120.026 785.107 120.219 784.563 120.604C784.042 120.989 783.781 121.499 783.781 122.134C783.781 122.61 783.94 123.007 784.257 123.324C784.574 123.641 785.062 123.857 785.719 123.97L789.119 124.616C790.592 124.888 791.703 125.387 792.451 126.112C793.222 126.837 793.607 127.812 793.607 129.036C793.607 130.691 792.961 131.994 791.669 132.946C790.377 133.875 788.654 134.34 786.501 134.34Z" fill="black"/>
<path d="M240 185.333C242.946 185.333 245.333 182.946 245.333 180C245.333 177.054 242.946 174.667 240 174.667C237.054 174.667 234.667 177.054 234.667 180C234.667 182.946 237.054 185.333 240 185.333ZM1240 185.333C1242.95 185.333 1245.33 182.946 1245.33 180C1245.33 177.054 1242.95 174.667 1240 174.667C1237.05 174.667 1234.67 177.054 1234.67 180C1234.67 182.946 1237.05 185.333 1240 185.333ZM240 181L1240 181V179L240 179V181Z" fill="#323333"/>
<rect x="245.75" y="220.75" width="926.5" height="38.5" rx="9.25" fill="white" stroke="black" stroke-width="1.5"/>
<path d="M266.76 245.18C266.232 245.18 265.704 245.138 265.176 245.054C264.648 244.982 264.15 244.868 263.682 244.712C263.214 244.544 262.794 244.34 262.422 244.1C262.206 243.956 262.056 243.782 261.972 243.578C261.888 243.374 261.858 243.176 261.882 242.984C261.918 242.78 261.996 242.606 262.116 242.462C262.248 242.306 262.41 242.21 262.602 242.174C262.794 242.138 263.004 242.192 263.232 242.336C263.76 242.648 264.318 242.876 264.906 243.02C265.494 243.164 266.112 243.236 266.76 243.236C267.708 243.236 268.398 243.08 268.83 242.768C269.262 242.444 269.478 242.03 269.478 241.526C269.478 241.106 269.322 240.776 269.01 240.536C268.71 240.296 268.188 240.098 267.444 239.942L265.464 239.528C264.324 239.288 263.472 238.886 262.908 238.322C262.356 237.746 262.08 236.99 262.08 236.054C262.08 235.466 262.2 234.932 262.44 234.452C262.68 233.972 263.016 233.558 263.448 233.21C263.892 232.862 264.414 232.598 265.014 232.418C265.626 232.226 266.298 232.13 267.03 232.13C267.75 232.13 268.434 232.22 269.082 232.4C269.73 232.58 270.312 232.844 270.828 233.192C271.02 233.324 271.146 233.486 271.206 233.678C271.278 233.87 271.296 234.062 271.26 234.254C271.224 234.434 271.14 234.59 271.008 234.722C270.876 234.854 270.708 234.932 270.504 234.956C270.312 234.98 270.09 234.92 269.838 234.776C269.394 234.524 268.944 234.344 268.488 234.236C268.032 234.128 267.54 234.074 267.012 234.074C266.46 234.074 265.986 234.152 265.59 234.308C265.194 234.464 264.888 234.686 264.672 234.974C264.468 235.25 264.366 235.58 264.366 235.964C264.366 236.396 264.51 236.744 264.798 237.008C265.086 237.26 265.578 237.458 266.274 237.602L268.236 238.016C269.424 238.268 270.306 238.664 270.882 239.204C271.47 239.744 271.764 240.464 271.764 241.364C271.764 241.94 271.644 242.462 271.404 242.93C271.176 243.398 270.84 243.8 270.396 244.136C269.964 244.472 269.442 244.73 268.83 244.91C268.218 245.09 267.528 245.18 266.76 245.18Z" fill="black"/>
<path d="M277.863 245.18C276.867 245.18 276.009 244.994 275.289 244.622C274.569 244.25 274.011 243.722 273.615 243.038C273.231 242.354 273.039 241.544 273.039 240.608C273.039 239.696 273.225 238.898 273.597 238.214C273.981 237.53 274.503 236.996 275.163 236.612C275.835 236.216 276.597 236.018 277.449 236.018C278.073 236.018 278.631 236.12 279.123 236.324C279.627 236.528 280.053 236.822 280.401 237.206C280.761 237.59 281.031 238.058 281.211 238.61C281.403 239.15 281.499 239.762 281.499 240.446C281.499 240.662 281.421 240.83 281.265 240.95C281.121 241.058 280.911 241.112 280.635 241.112H274.857V239.816H279.915L279.627 240.086C279.627 239.534 279.543 239.072 279.375 238.7C279.219 238.328 278.985 238.046 278.673 237.854C278.373 237.65 277.995 237.548 277.539 237.548C277.035 237.548 276.603 237.668 276.243 237.908C275.895 238.136 275.625 238.466 275.433 238.898C275.253 239.318 275.163 239.822 275.163 240.41V240.536C275.163 241.52 275.391 242.258 275.847 242.75C276.315 243.23 276.999 243.47 277.899 243.47C278.211 243.47 278.559 243.434 278.943 243.362C279.339 243.278 279.711 243.14 280.059 242.948C280.311 242.804 280.533 242.744 280.725 242.768C280.917 242.78 281.067 242.846 281.175 242.966C281.295 243.086 281.367 243.236 281.391 243.416C281.415 243.584 281.379 243.758 281.283 243.938C281.199 244.118 281.049 244.274 280.833 244.406C280.413 244.67 279.927 244.868 279.375 245C278.835 245.12 278.331 245.18 277.863 245.18ZM286.179 245.18C285.543 245.18 284.973 245.06 284.469 244.82C283.977 244.568 283.587 244.232 283.299 243.812C283.023 243.392 282.885 242.918 282.885 242.39C282.885 241.742 283.053 241.232 283.389 240.86C283.725 240.476 284.271 240.2 285.027 240.032C285.783 239.864 286.797 239.78 288.069 239.78H288.969V241.076H288.087C287.343 241.076 286.749 241.112 286.305 241.184C285.861 241.256 285.543 241.382 285.351 241.562C285.171 241.73 285.081 241.97 285.081 242.282C285.081 242.678 285.219 243.002 285.495 243.254C285.771 243.506 286.155 243.632 286.647 243.632C287.043 243.632 287.391 243.542 287.691 243.362C288.003 243.17 288.249 242.912 288.429 242.588C288.609 242.264 288.699 241.892 288.699 241.472V239.402C288.699 238.802 288.567 238.37 288.303 238.106C288.039 237.842 287.595 237.71 286.971 237.71C286.623 237.71 286.245 237.752 285.837 237.836C285.441 237.92 285.021 238.064 284.577 238.268C284.349 238.376 284.145 238.406 283.965 238.358C283.797 238.31 283.665 238.214 283.569 238.07C283.473 237.914 283.425 237.746 283.425 237.566C283.425 237.386 283.473 237.212 283.569 237.044C283.665 236.864 283.827 236.732 284.055 236.648C284.607 236.42 285.135 236.258 285.639 236.162C286.155 236.066 286.623 236.018 287.043 236.018C287.907 236.018 288.615 236.15 289.167 236.414C289.731 236.678 290.151 237.08 290.427 237.62C290.703 238.148 290.841 238.832 290.841 239.672V243.992C290.841 244.364 290.751 244.652 290.571 244.856C290.391 245.048 290.133 245.144 289.797 245.144C289.461 245.144 289.197 245.048 289.005 244.856C288.825 244.652 288.735 244.364 288.735 243.992V243.128H288.879C288.795 243.548 288.627 243.914 288.375 244.226C288.135 244.526 287.829 244.76 287.457 244.928C287.085 245.096 286.659 245.18 286.179 245.18ZM294.277 245.144C293.905 245.144 293.617 245.048 293.413 244.856C293.221 244.652 293.125 244.364 293.125 243.992V237.188C293.125 236.816 293.221 236.534 293.413 236.342C293.605 236.15 293.875 236.054 294.223 236.054C294.571 236.054 294.841 236.15 295.033 236.342C295.225 236.534 295.321 236.816 295.321 237.188V238.322H295.141C295.309 237.602 295.639 237.056 296.131 236.684C296.623 236.312 297.277 236.09 298.093 236.018C298.345 235.994 298.543 236.06 298.687 236.216C298.843 236.36 298.933 236.588 298.957 236.9C298.981 237.2 298.909 237.446 298.741 237.638C298.585 237.818 298.345 237.926 298.021 237.962L297.625 237.998C296.893 238.07 296.341 238.298 295.969 238.682C295.597 239.054 295.411 239.582 295.411 240.266V243.992C295.411 244.364 295.315 244.652 295.123 244.856C294.931 245.048 294.649 245.144 294.277 245.144ZM304.101 245.18C303.177 245.18 302.373 244.994 301.689 244.622C301.005 244.238 300.477 243.698 300.105 243.002C299.733 242.306 299.547 241.49 299.547 240.554C299.547 239.846 299.649 239.216 299.853 238.664C300.069 238.1 300.375 237.626 300.771 237.242C301.167 236.846 301.647 236.546 302.211 236.342C302.775 236.126 303.405 236.018 304.101 236.018C304.497 236.018 304.923 236.072 305.379 236.18C305.847 236.288 306.285 236.468 306.693 236.72C306.885 236.84 307.011 236.984 307.071 237.152C307.131 237.32 307.143 237.494 307.107 237.674C307.071 237.842 306.993 237.992 306.873 238.124C306.765 238.244 306.627 238.322 306.459 238.358C306.291 238.382 306.105 238.34 305.901 238.232C305.637 238.076 305.367 237.962 305.091 237.89C304.815 237.806 304.551 237.764 304.299 237.764C303.903 237.764 303.555 237.83 303.255 237.962C302.955 238.082 302.697 238.262 302.481 238.502C302.277 238.73 302.121 239.018 302.013 239.366C301.905 239.714 301.851 240.116 301.851 240.572C301.851 241.46 302.061 242.162 302.481 242.678C302.913 243.182 303.519 243.434 304.299 243.434C304.551 243.434 304.809 243.398 305.073 243.326C305.349 243.254 305.625 243.14 305.901 242.984C306.105 242.876 306.285 242.84 306.441 242.876C306.609 242.912 306.747 242.996 306.855 243.128C306.963 243.248 307.029 243.398 307.053 243.578C307.077 243.746 307.053 243.914 306.981 244.082C306.921 244.25 306.801 244.388 306.621 244.496C306.225 244.736 305.805 244.91 305.361 245.018C304.917 245.126 304.497 245.18 304.101 245.18ZM309.64 245.144C309.28 245.144 309.004 245.048 308.812 244.856C308.62 244.652 308.524 244.364 308.524 243.992V233.3C308.524 232.928 308.62 232.646 308.812 232.454C309.004 232.262 309.28 232.166 309.64 232.166C310 232.166 310.276 232.262 310.468 232.454C310.672 232.646 310.774 232.928 310.774 233.3V237.962H310.522C310.786 237.326 311.194 236.846 311.746 236.522C312.31 236.186 312.946 236.018 313.654 236.018C314.362 236.018 314.944 236.15 315.4 236.414C315.856 236.678 316.198 237.08 316.426 237.62C316.654 238.148 316.768 238.82 316.768 239.636V243.992C316.768 244.364 316.672 244.652 316.48 244.856C316.288 245.048 316.012 245.144 315.652 245.144C315.292 245.144 315.01 245.048 314.806 244.856C314.614 244.652 314.518 244.364 314.518 243.992V239.744C314.518 239.06 314.386 238.562 314.122 238.25C313.87 237.938 313.474 237.782 312.934 237.782C312.274 237.782 311.746 237.992 311.35 238.412C310.966 238.82 310.774 239.366 310.774 240.05V243.992C310.774 244.76 310.396 245.144 309.64 245.144Z" fill="#B0B0B0"/>
<circle cx="239" cy="180" r="10" fill="#323333"/>
<circle cx="218" cy="180" r="5" fill="#323333"/>
<circle cx="204.5" cy="179.5" r="2.5" fill="#323333"/>
<circle cx="1241" cy="180" r="10" transform="rotate(-180 1241 180)" fill="#323333"/>
<circle cx="1262" cy="180" r="5" transform="rotate(-180 1262 180)" fill="#323333"/>
<circle cx="1275.5" cy="180.5" r="2.5" transform="rotate(-180 1275.5 180.5)" fill="#323333"/>
<rect x="1390" y="60" width="40" height="40" rx="10" fill="#4D4E50"/>
<path d="M1410.14 80.8916C1410.05 80.8795 1409.95 80.8795 1409.86 80.8916C1408.85 80.8572 1407.9 80.427 1407.2 79.6918C1406.5 78.9567 1406.11 77.9741 1406.11 76.9518C1406.11 74.7711 1407.84 73 1410 73C1411.02 72.9982 1412 73.4034 1412.73 74.1282C1413.46 74.853 1413.88 75.8394 1413.89 76.8747C1413.91 77.91 1413.53 78.9113 1412.83 79.6627C1412.13 80.4141 1411.16 80.8554 1410.14 80.8916V80.8916ZM1418 88.8434C1415.82 90.8784 1412.96 92.0053 1410 92C1406.91 92 1404.11 90.8072 1402 88.8434C1402.12 87.7108 1402.83 86.6024 1404.1 85.7349C1407.35 83.5422 1412.67 83.5422 1415.9 85.7349C1417.17 86.6024 1417.88 87.7108 1418 88.8434V88.8434Z" stroke="white" stroke-width="1.5" stroke-linecap="round" stroke-linejoin="round"/>
<path d="M1410 92C1416.63 92 1422 86.6276 1422 80C1422 73.3724 1416.63 68 1410 68C1403.37 68 1398 73.3724 1398 80C1398 86.6276 1403.37 92 1410 92Z" stroke="white" stroke-width="1.5" stroke-linecap="round" stroke-linejoin="round"/>
<rect x="1193" y="220" width="40" height="40" rx="10" fill="#4D4E50"/>
<path d="M1221 248L1219.4 246.4M1212.6 247.2C1213.6 247.2 1214.59 247.003 1215.51 246.621C1216.43 246.24 1217.27 245.68 1217.97 244.974C1218.68 244.268 1219.24 243.43 1219.62 242.508C1220 241.586 1220.2 240.598 1220.2 239.6C1220.2 238.602 1220 237.614 1219.62 236.692C1219.24 235.77 1218.68 234.932 1217.97 234.226C1217.27 233.52 1216.43 232.96 1215.51 232.579C1214.59 232.197 1213.6 232 1212.6 232C1210.58 232 1208.65 232.801 1207.23 234.226C1205.8 235.651 1205 237.584 1205 239.6C1205 241.616 1205.8 243.549 1207.23 244.974C1208.65 246.399 1210.58 247.2 1212.6 247.2Z" stroke="white" stroke-width="1.5" stroke-linecap="round" stroke-linejoin="round"/>
<path d="M75.1519 71.3413V71.2464C77.3188 70.1089 79.0011 68.4384 80.2009 66.2348C81.4007 64.0312 81.9995 61.7498 81.9995 59.3908C81.9995 56.313 81.0216 53.9799 79.0657 52.3871C77.1099 50.7943 74.0576 50 69.9155 50H64.8234L63.5913 60.2433H66.9494C69.1379 60.2433 70.23 61.1822 70.23 63.0578C70.23 64.5125 69.7625 65.7448 68.8255 66.7571C67.8885 67.7693 66.6952 68.2744 65.2434 68.2744H62.6241L61.573 77.0004H65.8767C66.7189 77.0004 67.4276 77.1321 68.007 77.3954C68.5864 77.6587 69.0108 78.0235 69.2843 78.4853C69.5579 78.9472 69.6936 79.4976 69.6936 80.13C69.6936 81.7098 69.1249 83.0653 67.9898 84.1919C66.8546 85.3185 65.4437 85.884 63.7615 85.884H60.5024L59.2833 96.0022H66.6629C68.8923 96.0022 70.9322 95.6115 72.7846 94.8324C74.6349 94.0532 76.1987 92.9784 77.4696 91.6078C78.7405 90.2373 79.7248 88.5884 80.4206 86.661C81.1163 84.7336 81.461 82.6401 81.461 80.3846C81.4631 75.809 79.3587 72.796 75.1519 71.3413Z" fill="#323333"/>
<path d="M53.5858 50C53.3252 50 53.1033 50.1964 53.0732 50.4554L50.665 70.1823L50.0037 75.5781C49.9671 75.8867 50.2062 76.1587 50.5164 76.1587H50.5314C50.7921 76.1587 51.0139 75.9623 51.0441 75.7033L54.1006 50.5806C54.1373 50.2719 53.896 50 53.5858 50Z" fill="#323333"/>
<path d="M55.7011 50H55.6861C55.4254 50 55.2036 50.1964 55.1734 50.4554L51.4814 80.6329C51.4448 80.9415 51.6839 81.2134 51.9941 81.2134H52.0092C52.2698 81.2134 52.4917 81.017 52.5218 80.758L56.2138 50.5806C56.2526 50.2719 56.0113 50 55.7011 50Z" fill="#323333"/>
<path d="M61.517 50.4554L56.0609 95.4194C56.0242 95.7281 56.2633 96 56.5735 96H56.6317C56.8945 96 57.1142 95.8036 57.1443 95.5446L62.5595 50.5806C62.5961 50.2719 62.357 50 62.0469 50H62.0318C61.769 50 61.5493 50.1964 61.517 50.4554Z" fill="#323333"/>
<path d="M59.9316 50H59.9165C59.6559 50 59.434 50.1964 59.4039 50.4554L54.6737 89.4474C54.6371 89.756 54.8762 90.028 55.1863 90.028H55.2014C55.462 90.028 55.6839 89.8316 55.7141 89.5726L60.4443 50.5806C60.4809 50.2719 60.2418 50 59.9316 50Z" fill="#323333"/>
<path d="M57.8164 50H57.8013C57.5385 50 57.3188 50.1964 57.2865 50.4554L53.0625 85.1221C53.0259 85.4308 53.265 85.7027 53.5751 85.7027H53.5902C53.8508 85.7027 54.0727 85.5063 54.1029 85.2473L58.329 50.5806C58.3678 50.2719 58.1266 50 57.8164 50Z" fill="#323333"/>
<rect x="160" y="379" width="1160" height="70" rx="10" fill="#D9D9D9"/>
<rect x="160" y="535" width="1160" height="70" rx="10" fill="#D9D9D9"/>
<rect x="160" y="691" width="1160" height="70" rx="10" fill="#D9D9D9"/>
<rect x="160" y="847" width="1160" height="70" rx="10" fill="#D9D9D9"/>
<rect x="160" y="333" width="371" height="30" rx="6" fill="#B0B0B0"/>
<rect x="160" y="489" width="371" height="30" rx="6" fill="#B0B0B0"/>
<rect x="160" y="645" width="371" height="30" rx="6" fill="#B0B0B0"/>
<rect x="160" y="801" width="371" height="30" rx="6" fill="#B0B0B0"/>
</svg>
