<svg width="1440" height="130" viewBox="0 0 1440 130" fill="none" xmlns="http://www.w3.org/2000/svg">
<rect width="1440" height="130" fill="#F2F2F2"/>
<path d="M122.138 76.272C121.526 76.272 121.016 76.136 120.608 75.864C120.223 75.5693 119.905 75.1387 119.656 74.572L110.782 54.648C110.533 54.0813 110.465 53.5827 110.578 53.152C110.691 52.7213 110.929 52.3813 111.292 52.132C111.655 51.8827 112.085 51.758 112.584 51.758C113.241 51.758 113.729 51.9053 114.046 52.2C114.386 52.472 114.669 52.8913 114.896 53.458L122.954 72.124H121.492L129.516 53.424C129.765 52.88 130.06 52.472 130.4 52.2C130.74 51.9053 131.216 51.758 131.828 51.758C132.327 51.758 132.735 51.8827 133.052 52.132C133.392 52.3813 133.607 52.7213 133.698 53.152C133.789 53.5827 133.709 54.0813 133.46 54.648L124.586 74.572C124.337 75.1387 124.019 75.5693 123.634 75.864C123.271 76.136 122.773 76.272 122.138 76.272ZM140.25 76.238C139.57 76.238 139.048 76.034 138.686 75.626C138.323 75.218 138.142 74.6513 138.142 73.926V61.448C138.142 60.7 138.323 60.1333 138.686 59.748C139.048 59.34 139.57 59.136 140.25 59.136C140.93 59.136 141.451 59.34 141.814 59.748C142.199 60.1333 142.392 60.7 142.392 61.448V73.926C142.392 74.6513 142.21 75.218 141.848 75.626C141.485 76.034 140.952 76.238 140.25 76.238ZM140.25 55.974C139.456 55.974 138.833 55.7813 138.38 55.396C137.949 54.988 137.734 54.4327 137.734 53.73C137.734 53.0047 137.949 52.4493 138.38 52.064C138.833 51.6787 139.456 51.486 140.25 51.486C141.066 51.486 141.689 51.6787 142.12 52.064C142.55 52.4493 142.766 53.0047 142.766 53.73C142.766 54.4327 142.55 54.988 142.12 55.396C141.689 55.7813 141.066 55.974 140.25 55.974ZM153.2 76.34C151.749 76.34 150.468 75.9887 149.358 75.286C148.27 74.5833 147.42 73.586 146.808 72.294C146.196 70.9793 145.89 69.438 145.89 67.67C145.89 65.8793 146.196 64.3493 146.808 63.08C147.42 61.788 148.27 60.7907 149.358 60.088C150.468 59.3853 151.749 59.034 153.2 59.034C154.582 59.034 155.784 59.374 156.804 60.054C157.846 60.734 158.549 61.6293 158.912 62.74H158.538V53.9C158.538 53.1973 158.719 52.6647 159.082 52.302C159.444 51.9393 159.966 51.758 160.646 51.758C161.326 51.758 161.847 51.9393 162.21 52.302C162.595 52.6647 162.788 53.1973 162.788 53.9V74.096C162.788 74.7987 162.606 75.3427 162.244 75.728C161.881 76.0907 161.36 76.272 160.68 76.272C160 76.272 159.478 76.0907 159.116 75.728C158.753 75.3427 158.572 74.7987 158.572 74.096V71.444L158.946 72.464C158.606 73.6427 157.914 74.5833 156.872 75.286C155.829 75.9887 154.605 76.34 153.2 76.34ZM154.39 73.11C155.228 73.11 155.965 72.906 156.6 72.498C157.234 72.09 157.722 71.4893 158.062 70.696C158.424 69.88 158.606 68.8713 158.606 67.67C158.606 65.8567 158.22 64.508 157.45 63.624C156.679 62.7173 155.659 62.264 154.39 62.264C153.551 62.264 152.814 62.468 152.18 62.876C151.545 63.2613 151.046 63.862 150.684 64.678C150.344 65.4713 150.174 66.4687 150.174 67.67C150.174 69.4607 150.559 70.8207 151.33 71.75C152.1 72.6567 153.12 73.11 154.39 73.11ZM175.388 76.34C173.507 76.34 171.886 75.9887 170.526 75.286C169.166 74.5833 168.112 73.586 167.364 72.294C166.639 71.002 166.276 69.472 166.276 67.704C166.276 65.9813 166.628 64.474 167.33 63.182C168.056 61.89 169.042 60.8813 170.288 60.156C171.558 59.408 172.997 59.034 174.606 59.034C175.785 59.034 176.839 59.2267 177.768 59.612C178.72 59.9973 179.525 60.5527 180.182 61.278C180.862 62.0033 181.372 62.8873 181.712 63.93C182.075 64.95 182.256 66.106 182.256 67.398C182.256 67.806 182.109 68.1233 181.814 68.35C181.542 68.554 181.146 68.656 180.624 68.656H169.71V66.208H179.264L178.72 66.718C178.72 65.6753 178.562 64.8027 178.244 64.1C177.95 63.3973 177.508 62.8647 176.918 62.502C176.352 62.1167 175.638 61.924 174.776 61.924C173.824 61.924 173.008 62.1507 172.328 62.604C171.671 63.0347 171.161 63.658 170.798 64.474C170.458 65.2673 170.288 66.2193 170.288 67.33V67.568C170.288 69.4267 170.719 70.8207 171.58 71.75C172.464 72.6567 173.756 73.11 175.456 73.11C176.046 73.11 176.703 73.042 177.428 72.906C178.176 72.7473 178.879 72.4867 179.536 72.124C180.012 71.852 180.432 71.7387 180.794 71.784C181.157 71.8067 181.44 71.9313 181.644 72.158C181.871 72.3847 182.007 72.668 182.052 73.008C182.098 73.3253 182.03 73.654 181.848 73.994C181.69 74.334 181.406 74.6287 180.998 74.878C180.205 75.3767 179.287 75.7507 178.244 76C177.224 76.2267 176.272 76.34 175.388 76.34ZM193.204 76.34C191.481 76.34 189.985 75.9887 188.716 75.286C187.447 74.5833 186.461 73.586 185.758 72.294C185.055 70.9793 184.704 69.438 184.704 67.67C184.704 66.3327 184.897 65.1427 185.282 64.1C185.69 63.0347 186.268 62.128 187.016 61.38C187.764 60.6093 188.659 60.0313 189.702 59.646C190.745 59.238 191.912 59.034 193.204 59.034C194.927 59.034 196.423 59.3853 197.692 60.088C198.961 60.7907 199.947 61.788 200.65 63.08C201.353 64.372 201.704 65.902 201.704 67.67C201.704 69.0073 201.5 70.2087 201.092 71.274C200.707 72.3393 200.14 73.2573 199.392 74.028C198.644 74.776 197.749 75.354 196.706 75.762C195.663 76.1473 194.496 76.34 193.204 76.34ZM193.204 73.11C194.043 73.11 194.779 72.906 195.414 72.498C196.049 72.09 196.536 71.4893 196.876 70.696C197.239 69.88 197.42 68.8713 197.42 67.67C197.42 65.8567 197.035 64.508 196.264 63.624C195.493 62.7173 194.473 62.264 193.204 62.264C192.365 62.264 191.629 62.468 190.994 62.876C190.359 63.2613 189.861 63.862 189.498 64.678C189.158 65.4713 188.988 66.4687 188.988 67.67C188.988 69.4607 189.373 70.8207 190.144 71.75C190.915 72.6567 191.935 73.11 193.204 73.11ZM217.026 76.272C216.324 76.272 215.78 76.0793 215.394 75.694C215.032 75.286 214.85 74.7307 214.85 74.028V54.24C214.85 53.5147 215.043 52.9707 215.428 52.608C215.814 52.2227 216.358 52.03 217.06 52.03H225.254C227.884 52.03 229.912 52.6873 231.34 54.002C232.768 55.3167 233.482 57.1527 233.482 59.51C233.482 61.8673 232.768 63.7147 231.34 65.052C229.912 66.3667 227.884 67.024 225.254 67.024H219.202V74.028C219.202 74.7307 219.021 75.286 218.658 75.694C218.296 76.0793 217.752 76.272 217.026 76.272ZM219.202 63.59H224.574C226.116 63.59 227.283 63.25 228.076 62.57C228.87 61.8673 229.266 60.8473 229.266 59.51C229.266 58.1727 228.87 57.164 228.076 56.484C227.283 55.804 226.116 55.464 224.574 55.464H219.202V63.59ZM238.466 76.272C237.763 76.272 237.219 76.0907 236.834 75.728C236.471 75.3427 236.29 74.7987 236.29 74.096V61.244C236.29 60.5413 236.471 60.0087 236.834 59.646C237.197 59.2833 237.707 59.102 238.364 59.102C239.021 59.102 239.531 59.2833 239.894 59.646C240.257 60.0087 240.438 60.5413 240.438 61.244V63.386H240.098C240.415 62.026 241.039 60.9947 241.968 60.292C242.897 59.5893 244.133 59.17 245.674 59.034C246.15 58.9887 246.524 59.1133 246.796 59.408C247.091 59.68 247.261 60.1107 247.306 60.7C247.351 61.2667 247.215 61.7313 246.898 62.094C246.603 62.434 246.15 62.638 245.538 62.706L244.79 62.774C243.407 62.91 242.365 63.3407 241.662 64.066C240.959 64.7687 240.608 65.766 240.608 67.058V74.096C240.608 74.7987 240.427 75.3427 240.064 75.728C239.701 76.0907 239.169 76.272 238.466 76.272ZM256.921 76.34C255.198 76.34 253.702 75.9887 252.433 75.286C251.164 74.5833 250.178 73.586 249.475 72.294C248.772 70.9793 248.421 69.438 248.421 67.67C248.421 66.3327 248.614 65.1427 248.999 64.1C249.407 63.0347 249.985 62.128 250.733 61.38C251.481 60.6093 252.376 60.0313 253.419 59.646C254.462 59.238 255.629 59.034 256.921 59.034C258.644 59.034 260.14 59.3853 261.409 60.088C262.678 60.7907 263.664 61.788 264.367 63.08C265.07 64.372 265.421 65.902 265.421 67.67C265.421 69.0073 265.217 70.2087 264.809 71.274C264.424 72.3393 263.857 73.2573 263.109 74.028C262.361 74.776 261.466 75.354 260.423 75.762C259.38 76.1473 258.213 76.34 256.921 76.34ZM256.921 73.11C257.76 73.11 258.496 72.906 259.131 72.498C259.766 72.09 260.253 71.4893 260.593 70.696C260.956 69.88 261.137 68.8713 261.137 67.67C261.137 65.8567 260.752 64.508 259.981 63.624C259.21 62.7173 258.19 62.264 256.921 62.264C256.082 62.264 255.346 62.468 254.711 62.876C254.076 63.2613 253.578 63.862 253.215 64.678C252.875 65.4713 252.705 66.4687 252.705 67.67C252.705 69.4607 253.09 70.8207 253.861 71.75C254.632 72.6567 255.652 73.11 256.921 73.11ZM276.379 76.34C274.905 76.34 273.67 76.0907 272.673 75.592C271.698 75.0933 270.973 74.368 270.497 73.416C270.021 72.4413 269.783 71.24 269.783 69.812V62.57H268.015C267.471 62.57 267.051 62.434 266.757 62.162C266.462 61.8673 266.315 61.4707 266.315 60.972C266.315 60.4507 266.462 60.054 266.757 59.782C267.051 59.51 267.471 59.374 268.015 59.374H269.783V56.28C269.783 55.5773 269.964 55.0447 270.327 54.682C270.712 54.3193 271.245 54.138 271.925 54.138C272.605 54.138 273.126 54.3193 273.489 54.682C273.851 55.0447 274.033 55.5773 274.033 56.28V59.374H277.637C278.181 59.374 278.6 59.51 278.895 59.782C279.189 60.054 279.337 60.4507 279.337 60.972C279.337 61.4707 279.189 61.8673 278.895 62.162C278.6 62.434 278.181 62.57 277.637 62.57H274.033V69.574C274.033 70.662 274.271 71.478 274.747 72.022C275.223 72.566 275.993 72.838 277.059 72.838C277.444 72.838 277.784 72.804 278.079 72.736C278.373 72.668 278.634 72.6227 278.861 72.6C279.133 72.5773 279.359 72.668 279.541 72.872C279.722 73.0533 279.813 73.4387 279.813 74.028C279.813 74.4813 279.733 74.8893 279.575 75.252C279.439 75.592 279.178 75.83 278.793 75.966C278.498 76.0567 278.113 76.136 277.637 76.204C277.161 76.2947 276.741 76.34 276.379 76.34ZM289.228 76.34C287.505 76.34 286.009 75.9887 284.74 75.286C283.47 74.5833 282.484 73.586 281.782 72.294C281.079 70.9793 280.728 69.438 280.728 67.67C280.728 66.3327 280.92 65.1427 281.306 64.1C281.714 63.0347 282.292 62.128 283.04 61.38C283.788 60.6093 284.683 60.0313 285.726 59.646C286.768 59.238 287.936 59.034 289.228 59.034C290.95 59.034 292.446 59.3853 293.716 60.088C294.985 60.7907 295.971 61.788 296.674 63.08C297.376 64.372 297.728 65.902 297.728 67.67C297.728 69.0073 297.524 70.2087 297.116 71.274C296.73 72.3393 296.164 73.2573 295.416 74.028C294.668 74.776 293.772 75.354 292.73 75.762C291.687 76.1473 290.52 76.34 289.228 76.34ZM289.228 73.11C290.066 73.11 290.803 72.906 291.438 72.498C292.072 72.09 292.56 71.4893 292.9 70.696C293.262 69.88 293.444 68.8713 293.444 67.67C293.444 65.8567 293.058 64.508 292.288 63.624C291.517 62.7173 290.497 62.264 289.228 62.264C288.389 62.264 287.652 62.468 287.018 62.876C286.383 63.2613 285.884 63.862 285.522 64.678C285.182 65.4713 285.012 66.4687 285.012 67.67C285.012 69.4607 285.397 70.8207 286.168 71.75C286.938 72.6567 287.958 73.11 289.228 73.11ZM308.685 76.34C307.212 76.34 305.977 76.0907 304.979 75.592C304.005 75.0933 303.279 74.368 302.803 73.416C302.327 72.4413 302.089 71.24 302.089 69.812V62.57H300.321C299.777 62.57 299.358 62.434 299.063 62.162C298.769 61.8673 298.621 61.4707 298.621 60.972C298.621 60.4507 298.769 60.054 299.063 59.782C299.358 59.51 299.777 59.374 300.321 59.374H302.089V56.28C302.089 55.5773 302.271 55.0447 302.633 54.682C303.019 54.3193 303.551 54.138 304.231 54.138C304.911 54.138 305.433 54.3193 305.795 54.682C306.158 55.0447 306.339 55.5773 306.339 56.28V59.374H309.943C310.487 59.374 310.907 59.51 311.201 59.782C311.496 60.054 311.643 60.4507 311.643 60.972C311.643 61.4707 311.496 61.8673 311.201 62.162C310.907 62.434 310.487 62.57 309.943 62.57H306.339V69.574C306.339 70.662 306.577 71.478 307.053 72.022C307.529 72.566 308.3 72.838 309.365 72.838C309.751 72.838 310.091 72.804 310.385 72.736C310.68 72.668 310.941 72.6227 311.167 72.6C311.439 72.5773 311.666 72.668 311.847 72.872C312.029 73.0533 312.119 73.4387 312.119 74.028C312.119 74.4813 312.04 74.8893 311.881 75.252C311.745 75.592 311.485 75.83 311.099 75.966C310.805 76.0567 310.419 76.136 309.943 76.204C309.467 76.2947 309.048 76.34 308.685 76.34ZM318.6 82.392C318.101 82.392 317.693 82.256 317.376 81.984C317.058 81.7347 316.866 81.3947 316.798 80.964C316.752 80.5333 316.832 80.08 317.036 79.604L319.348 74.47V76.238L313.16 61.924C312.956 61.4253 312.888 60.9607 312.956 60.53C313.024 60.0993 313.228 59.7593 313.568 59.51C313.93 59.238 314.418 59.102 315.03 59.102C315.551 59.102 315.97 59.2267 316.288 59.476C316.605 59.7027 316.888 60.1447 317.138 60.802L321.728 72.26H320.708L325.4 60.768C325.649 60.1333 325.944 59.7027 326.284 59.476C326.624 59.2267 327.077 59.102 327.644 59.102C328.142 59.102 328.539 59.238 328.834 59.51C329.128 59.7593 329.31 60.0993 329.378 60.53C329.446 60.938 329.366 61.3913 329.14 61.89L320.878 80.76C320.583 81.3947 320.266 81.8253 319.926 82.052C319.586 82.2787 319.144 82.392 318.6 82.392ZM334.388 82.392C333.708 82.392 333.187 82.2107 332.824 81.848C332.462 81.4853 332.28 80.9527 332.28 80.25V61.244C332.28 60.5413 332.462 60.0087 332.824 59.646C333.187 59.2833 333.697 59.102 334.354 59.102C335.034 59.102 335.556 59.2833 335.918 59.646C336.281 60.0087 336.462 60.5413 336.462 61.244V63.896L336.088 62.876C336.428 61.72 337.12 60.7907 338.162 60.088C339.228 59.3853 340.463 59.034 341.868 59.034C343.319 59.034 344.588 59.3853 345.676 60.088C346.787 60.7907 347.648 61.788 348.26 63.08C348.872 64.3493 349.178 65.8793 349.178 67.67C349.178 69.438 348.872 70.9793 348.26 72.294C347.648 73.586 346.798 74.5833 345.71 75.286C344.622 75.9887 343.342 76.34 341.868 76.34C340.486 76.34 339.273 76 338.23 75.32C337.188 74.6173 336.485 73.7107 336.122 72.6H336.53V80.25C336.53 80.9527 336.338 81.4853 335.952 81.848C335.59 82.2107 335.068 82.392 334.388 82.392ZM340.678 73.11C341.517 73.11 342.254 72.906 342.888 72.498C343.523 72.09 344.01 71.4893 344.35 70.696C344.713 69.88 344.894 68.8713 344.894 67.67C344.894 65.8567 344.509 64.508 343.738 63.624C342.968 62.7173 341.948 62.264 340.678 62.264C339.84 62.264 339.103 62.468 338.468 62.876C337.834 63.2613 337.335 63.862 336.972 64.678C336.632 65.4713 336.462 66.4687 336.462 67.67C336.462 69.4607 336.848 70.8207 337.618 71.75C338.389 72.6567 339.409 73.11 340.678 73.11ZM360.861 76.34C358.98 76.34 357.359 75.9887 355.999 75.286C354.639 74.5833 353.585 73.586 352.837 72.294C352.112 71.002 351.749 69.472 351.749 67.704C351.749 65.9813 352.1 64.474 352.803 63.182C353.528 61.89 354.514 60.8813 355.761 60.156C357.03 59.408 358.47 59.034 360.079 59.034C361.258 59.034 362.312 59.2267 363.241 59.612C364.193 59.9973 364.998 60.5527 365.655 61.278C366.335 62.0033 366.845 62.8873 367.185 63.93C367.548 64.95 367.729 66.106 367.729 67.398C367.729 67.806 367.582 68.1233 367.287 68.35C367.015 68.554 366.618 68.656 366.097 68.656H355.183V66.208H364.737L364.193 66.718C364.193 65.6753 364.034 64.8027 363.717 64.1C363.422 63.3973 362.98 62.8647 362.391 62.502C361.824 62.1167 361.11 61.924 360.249 61.924C359.297 61.924 358.481 62.1507 357.801 62.604C357.144 63.0347 356.634 63.658 356.271 64.474C355.931 65.2673 355.761 66.2193 355.761 67.33V67.568C355.761 69.4267 356.192 70.8207 357.053 71.75C357.937 72.6567 359.229 73.11 360.929 73.11C361.518 73.11 362.176 73.042 362.901 72.906C363.649 72.7473 364.352 72.4867 365.009 72.124C365.485 71.852 365.904 71.7387 366.267 71.784C366.63 71.8067 366.913 71.9313 367.117 72.158C367.344 72.3847 367.48 72.668 367.525 73.008C367.57 73.3253 367.502 73.654 367.321 73.994C367.162 74.334 366.879 74.6287 366.471 74.878C365.678 75.3767 364.76 75.7507 363.717 76C362.697 76.2267 361.745 76.34 360.861 76.34Z" fill="black"/>
</svg>
