<svg width="1440" height="900" viewBox="0 0 1440 900" fill="none" xmlns="http://www.w3.org/2000/svg">
<rect width="1440" height="900" rx="40" fill="#F7F4ED"/>
<g filter="url(#filter0_i_360_2295)">
<path d="M717.619 599.72C794.939 599.72 857.619 537.04 857.619 459.72C857.619 382.4 794.939 319.72 717.619 319.72C640.299 319.72 577.619 382.4 577.619 459.72C577.619 537.04 640.299 599.72 717.619 599.72Z" fill="#252525"/>
</g>
<g filter="url(#filter1_i_360_2295)">
<path d="M716.5 593C790.23 593 850 533.23 850 459.5C850 385.77 790.23 326 716.5 326C642.77 326 583 385.77 583 459.5C583 533.23 642.77 593 716.5 593Z" fill="#F7F4ED"/>
</g>
<g filter="url(#filter2_i_360_2295)">
<path d="M616.42 348.98L574.15 298.59L617.18 348.33L616.42 348.98Z" fill="#252525"/>
<path d="M612.629 352.58L567.779 304.56L613.349 351.89L612.629 352.58Z" fill="#252525"/>
<path d="M608.959 356.32L561.619 310.75L609.639 355.59L608.959 356.32Z" fill="#252525"/>
<path d="M605.42 360.18L555.68 317.15L606.07 359.42L605.42 360.18Z" fill="#252525"/>
<path d="M602.021 364.16L549.971 323.75L602.631 363.37L602.021 364.16Z" fill="#252525"/>
<path d="M598.77 368.26L544.49 330.55L599.33 367.43L598.77 368.26Z" fill="#252525"/>
<path d="M595.64 372.46L540.75 336.51L596.19 371.62L595.64 372.46Z" fill="#252525"/>
<path d="M592.68 376.78L535.76 343.67L593.18 375.91L592.68 376.78Z" fill="#252525"/>
<path d="M589.87 381.19L531.02 351.01L590.32 380.3L589.87 381.19Z" fill="#252525"/>
<path d="M587.19 385.69L529.07 355.89L587.64 384.8L587.19 385.69Z" fill="#252525"/>
<path d="M584.699 390.29L524.859 363.54L585.099 389.38L584.699 390.29Z" fill="#252525"/>
<path d="M582.35 394.97L505.33 362.52L582.73 394.05L582.35 394.97Z" fill="#252525"/>
<path d="M580.159 399.73L503.109 367.79L580.529 398.8L580.159 399.73Z" fill="#252525"/>
<path d="M578.14 404.56L498.17 373.16L578.5 403.62L578.14 404.56Z" fill="#252525"/>
<path d="M576.291 409.45L495.301 378.85L576.641 408.52L576.291 409.45Z" fill="#252525"/>
<path d="M574.62 414.42L492.48 387.11L574.93 413.47L574.62 414.42Z" fill="#252525"/>
<path d="M573.129 419.44L486.529 394.24L573.399 418.48L573.129 419.44Z" fill="#252525"/>
<path d="M571.809 424.5L484.289 402.68L572.049 423.53L571.809 424.5Z" fill="#252525"/>
<path d="M570.669 429.61L478.939 409.65L570.879 428.64L570.669 429.61Z" fill="#252525"/>
<path d="M569.711 434.76L477.301 418.23L569.881 433.78L569.711 434.76Z" fill="#252525"/>
<path d="M568.93 439.94L469.77 425.5L569.07 438.95L568.93 439.94Z" fill="#252525"/>
<path d="M568.33 445.14L468.73 434.17L568.44 444.15L568.33 445.14Z" fill="#252525"/>
<path d="M567.91 450.36L467.99 442.87L567.98 449.36L567.91 450.36Z" fill="#252525"/>
<path d="M567.681 455.59L467.561 451.59L567.711 454.59L567.681 455.59Z" fill="#252525"/>
<path d="M567.62 460.83L462 460.33L567.62 459.83V460.83Z" fill="#252525"/>
<path d="M567.75 466.06L462.17 469.06L567.72 465.06L567.75 466.06Z" fill="#252525"/>
<path d="M568.07 471.29L462.65 477.78L568 470.29L568.07 471.29Z" fill="#252525"/>
<path d="M568.559 476.5L478.119 485.38L568.459 475.5L568.559 476.5Z" fill="#252525"/>
<path d="M569.241 481.69L479.211 494.04L569.101 480.7L569.241 481.69Z" fill="#252525"/>
<path d="M570.089 486.86L490.029 500.15L569.919 485.87L570.089 486.86Z" fill="#252525"/>
<path d="M571.141 491.99L491.721 508.72L570.921 491.01L571.141 491.99Z" fill="#252525"/>
<path d="M572.35 497.08L475 520.84L572.11 496.11L572.35 497.08Z" fill="#252525"/>
<path d="M573.739 502.13L477.279 529.27L573.469 501.17L573.739 502.13Z" fill="#252525"/>
<path d="M575.309 507.12L479.859 537.61L574.999 506.17L575.309 507.12Z" fill="#252525"/>
<path d="M577.05 512.06L487.73 543.91L576.71 511.12L577.05 512.06Z" fill="#252525"/>
<path d="M578.961 516.94L490.881 552.05L578.591 516.01L578.961 516.94Z" fill="#252525"/>
<path d="M581.041 521.74L489.301 562.04L580.641 520.83L581.041 521.74Z" fill="#252525"/>
<path d="M583.29 526.47L493.01 569.94L582.85 525.57L583.29 526.47Z" fill="#252525"/>
<path d="M585.7 531.12L505.15 572.86L585.24 530.23L585.7 531.12Z" fill="#252525"/>
<path d="M588.27 535.68L509.4 580.49L587.78 534.81L588.27 535.68Z" fill="#252525"/>
<path d="M591.01 540.14L513.92 587.97L590.47 539.3L591.01 540.14Z" fill="#252525"/>
<path d="M593.88 544.52L529.58 586.35L593.33 543.68L593.88 544.52Z" fill="#252525"/>
<path d="M596.919 548.78L534.609 593.5L596.339 547.97L596.919 548.78Z" fill="#252525"/>
<path d="M600.1 552.94L544.26 594.93L599.49 552.15L600.1 552.94Z" fill="#252525"/>
<path d="M603.43 556.98L549.77 601.7L602.79 556.22L603.43 556.98Z" fill="#252525"/>
<path d="M606.89 560.91L475 678.99L606.23 560.17L606.89 560.91Z" fill="#252525"/>
<path d="M610.499 564.71L501.359 670.67L609.799 564L610.499 564.71Z" fill="#252525"/>
<path d="M614.221 568.39L519.391 665.87L613.501 567.69L614.221 568.39Z" fill="#252525"/>
<path d="M618.08 571.93L550.66 646.06L617.34 571.26L618.08 571.93Z" fill="#252525"/>
<path d="M622.06 575.34L557.27 651.77L621.29 574.69L622.06 575.34Z" fill="#252525"/>
<path d="M626.151 578.6L567.561 652.95L625.361 577.99L626.151 578.6Z" fill="#252525"/>
<path d="M630.351 581.72L574.551 658.19L629.541 581.13L630.351 581.72Z" fill="#252525"/>
<path d="M634.66 584.7L583.07 658.78L633.84 584.13L634.66 584.7Z" fill="#252525"/>
<path d="M639.08 587.51L590.41 663.52L638.23 586.98L639.08 587.51Z" fill="#252525"/>
<path d="M643.589 590.17L600.699 663.77L642.719 589.68L643.589 590.17Z" fill="#252525"/>
<path d="M648.18 592.68L608.35 667.98L647.3 592.21L648.18 592.68Z" fill="#252525"/>
<path d="M652.86 595.02L616.42 667.98L651.97 594.58L652.86 595.02Z" fill="#252525"/>
<path d="M657.63 597.2L624.34 671.65L656.71 596.79L657.63 597.2Z" fill="#252525"/>
<path d="M662.46 599.21L632.73 669.11L661.54 598.83L662.46 599.21Z" fill="#252525"/>
<path d="M667.361 601.05L640.891 672.22L666.421 600.71L667.361 601.05Z" fill="#252525"/>
<path d="M672.33 602.72L649.49 670.96L671.38 602.41L672.33 602.72Z" fill="#252525"/>
<path d="M677.35 604.21L657.85 673.49L676.38 603.94L677.35 604.21Z" fill="#252525"/>
<path d="M682.41 605.53L659.98 690.5L681.44 605.28L682.41 605.53Z" fill="#252525"/>
<path d="M687.52 606.67L668.5 692.44L686.54 606.46L687.52 606.67Z" fill="#252525"/>
<path d="M692.669 607.63L674.779 706.22L691.679 607.46L692.669 607.63Z" fill="#252525"/>
<path d="M697.85 608.41L683.41 707.57L696.86 608.27L697.85 608.41Z" fill="#252525"/>
<path d="M703.05 609.01L691.08 717.97L702.05 608.91L703.05 609.01Z" fill="#252525"/>
<path d="M708.269 609.43L699.779 718.71L707.269 609.36L708.269 609.43Z" fill="#252525"/>
<path d="M713.5 609.66L709.5 731.52L712.5 609.63L713.5 609.66Z" fill="#252525"/>
<path d="M718.73 609.72L718.23 731.65L717.73 609.72H718.73Z" fill="#252525"/>
<path d="M723.971 609.58L728.701 739.84L722.971 609.62L723.971 609.58Z" fill="#252525"/>
<path d="M729.189 609.28L737.419 739.36L728.199 609.34L729.189 609.28Z" fill="#252525"/>
<path d="M734.41 608.78L754.78 806.12L733.41 608.88L734.41 608.78Z" fill="#252525"/>
<path d="M739.599 608.1L762.869 781.26L738.609 608.24L739.599 608.1Z" fill="#252525"/>
<path d="M744.759 607.25L767.759 744.87L743.779 607.42L744.759 607.25Z" fill="#252525"/>
<path d="M749.9 606.21L776.33 735.47L748.92 606.41L749.9 606.21Z" fill="#252525"/>
<path d="M754.99 604.99L778.74 702.34L754.02 605.23L754.99 604.99Z" fill="#252525"/>
<path d="M760.04 603.6L787.17 700.06L759.07 603.88L760.04 603.6Z" fill="#252525"/>
<path d="M765.03 602.04L792.39 689.47L764.08 602.34L765.03 602.04Z" fill="#252525"/>
<path d="M769.969 600.29L800.649 686.61L769.029 600.63L769.969 600.29Z" fill="#252525"/>
<path d="M774.84 598.38L804.07 673.29L773.92 598.75L774.84 598.38Z" fill="#252525"/>
<path d="M779.65 596.3L812.1 669.86L778.73 596.71L779.65 596.3Z" fill="#252525"/>
<path d="M784.38 594.05L819.3 666.8L783.48 594.49L784.38 594.05Z" fill="#252525"/>
<path d="M789.021 591.64L829.651 669.11L788.141 592.11L789.021 591.64Z" fill="#252525"/>
<path d="M793.581 589.07L839.341 669.31L792.721 589.57L793.581 589.07Z" fill="#252525"/>
<path d="M798.049 586.34L850.729 671.58L797.199 586.87L798.049 586.34Z" fill="#252525"/>
<path d="M802.42 583.45L858.04 666.8L801.59 584.01L802.42 583.45Z" fill="#252525"/>
<path d="M806.691 580.42L865.181 661.78L805.881 581.01L806.691 580.42Z" fill="#252525"/>
<path d="M810.851 577.24L872.141 656.5L810.061 577.85L810.851 577.24Z" fill="#252525"/>
<path d="M814.891 573.91L881.211 653.73L814.131 574.55L814.891 573.91Z" fill="#252525"/>
<path d="M818.82 570.45L889.33 649.5L818.08 571.12L818.82 570.45Z" fill="#252525"/>
<path d="M822.62 566.85L895.25 642.78L821.9 567.54L822.62 566.85Z" fill="#252525"/>
<path d="M826.3 563.12L900.97 635.93L825.6 563.84L826.3 563.12Z" fill="#252525"/>
<path d="M829.84 559.26L906.64 629.09L829.17 560.01L829.84 559.26Z" fill="#252525"/>
<path d="M833.24 555.29L915.87 625.27L832.6 556.05L833.24 555.29Z" fill="#252525"/>
<path d="M836.511 551.19L915.161 613.28L835.891 551.98L836.511 551.19Z" fill="#252525"/>
<path d="M839.629 546.99L920.399 606.29L839.039 547.8L839.629 546.99Z" fill="#252525"/>
<path d="M842.599 542.68L930.129 602.19L842.039 543.51L842.599 542.68Z" fill="#252525"/>
<path d="M845.421 538.26L930.131 591.79L844.891 539.11L845.421 538.26Z" fill="#252525"/>
<path d="M848.08 533.76L936.95 585.64L847.58 534.62L848.08 533.76Z" fill="#252525"/>
<path d="M850.589 529.16L948.589 581.83L850.119 530.04L850.589 529.16Z" fill="#252525"/>
<path d="M852.93 524.48L946.44 570.64L852.49 525.37L852.93 524.48Z" fill="#252525"/>
<path d="M855.109 519.71L946.439 560.93L854.699 520.63L855.109 519.71Z" fill="#252525"/>
<path d="M857.12 514.88L949.83 552.88L856.74 515.81L857.12 514.88Z" fill="#252525"/>
<path d="M858.959 509.98L941.489 540.55L858.619 510.92L858.959 509.98Z" fill="#252525"/>
<path d="M860.63 505.01L932.98 529.05L860.32 505.97L860.63 505.01Z" fill="#252525"/>
<path d="M862.12 500L920.23 517.18L861.84 500.96L862.12 500Z" fill="#252525"/>
<path d="M863.439 494.93L903.969 505.97L863.189 495.9L863.439 494.93Z" fill="#252525"/>
<path d="M864.589 489.82L906.129 499.96L864.359 490.8L864.589 489.82Z" fill="#252525"/>
<path d="M865.539 484.67L908.119 492.69L865.359 485.66L865.539 484.67Z" fill="#252525"/>
<path d="M866.32 479.49L909.24 486.03L866.18 480.49L866.32 479.49Z" fill="#252525"/>
<path d="M866.931 474.29L924.651 481.91L866.811 475.29L866.931 474.29Z" fill="#252525"/>
<path d="M867.33 469.07L925.39 473.21L867.27 470.07L867.33 469.07Z" fill="#252525"/>
<path d="M867.569 463.84L936.949 466.84L867.539 464.84L867.569 463.84Z" fill="#252525"/>
<path d="M867.619 458.61L937.079 458.11L867.629 459.61L867.619 458.61Z" fill="#252525"/>
<path d="M867.5 453.37L946.68 451.45L867.53 454.37L867.5 453.37Z" fill="#252525"/>
<path d="M867.18 448.15L946.2 442.73L867.25 449.14L867.18 448.15Z" fill="#252525"/>
<path d="M866.689 442.93L953.489 434.05L866.789 443.93L866.689 442.93Z" fill="#252525"/>
<path d="M866.01 437.74L952.4 425.39L866.15 438.73L866.01 437.74Z" fill="#252525"/>
<path d="M865.15 432.58L963.92 415.67L865.33 433.56L865.15 432.58Z" fill="#252525"/>
<path d="M864.119 427.45L962.229 407.1L864.319 428.42L864.119 427.45Z" fill="#252525"/>
<path d="M862.9 422.35L973.03 395.41L863.14 423.32L862.9 422.35Z" fill="#252525"/>
<path d="M861.51 417.31L978.81 384.19L861.78 418.27L861.51 417.31Z" fill="#252525"/>
<path d="M859.939 412.31L921.959 393.18L860.249 413.26L859.939 412.31Z" fill="#252525"/>
<path d="M858.189 407.38L935.929 377.56L858.549 408.31L858.189 407.38Z" fill="#252525"/>
<path d="M856.289 402.5L943.279 367.89L856.659 403.42L856.289 402.5Z" fill="#252525"/>
<path d="M854.211 397.69L943.281 358.58L854.611 398.61L854.211 397.69Z" fill="#252525"/>
<path d="M851.949 392.97L940.769 349.4L852.399 393.86L851.949 392.97Z" fill="#252525"/>
<path d="M849.551 388.32L945.681 338.57L850.011 389.2L849.551 388.32Z" fill="#252525"/>
<path d="M846.98 383.75L943.28 330.04L847.47 384.63L846.98 383.75Z" fill="#252525"/>
<path d="M844.25 379.29L944.5 317.89L844.77 380.14L844.25 379.29Z" fill="#252525"/>
<path d="M841.359 374.92L940.769 308.33L841.919 375.75L841.359 374.92Z" fill="#252525"/>
<path d="M838.33 370.65L928.94 306.08L838.91 371.46L838.33 370.65Z" fill="#252525"/>
<path d="M835.141 366.49L914.411 305.2L835.761 367.28L835.141 366.49Z" fill="#252525"/>
<path d="M831.82 362.45L908.9 298.42L832.46 363.22L831.82 362.45Z" fill="#252525"/>
<path d="M828.359 358.52L893.599 301.19L829.019 359.27L828.359 358.52Z" fill="#252525"/>
<path d="M824.76 354.72L887.63 294.82L825.45 355.44L824.76 354.72Z" fill="#252525"/>
<path d="M821.029 351.04L876.919 294.82L821.739 351.74L821.029 351.04Z" fill="#252525"/>
<path d="M711.281 309.84L706.881 106.14L712.281 309.82L711.281 309.84Z" fill="#252525"/>
<path d="M706.051 310.15L696.151 128.61L707.051 310.1L706.051 310.15Z" fill="#252525"/>
<path d="M700.841 310.65L686.391 168.39L701.841 310.55L700.841 310.65Z" fill="#252525"/>
<path d="M695.651 311.33L677.731 180.25L696.641 311.19L695.651 311.33Z" fill="#252525"/>
<path d="M690.491 312.19L674.981 221.95L691.471 312.01L690.491 312.19Z" fill="#252525"/>
<path d="M685.351 313.23L666.411 223.64L686.331 313.01L685.351 313.23Z" fill="#252525"/>
<path d="M680.261 314.44L660.271 231.39L681.231 314.2L680.261 314.44Z" fill="#252525"/>
<path d="M675.211 315.83L651.841 233.68L676.171 315.56L675.211 315.83Z" fill="#252525"/>
<path d="M670.221 317.4L646.221 241.23L671.171 317.09L670.221 317.4Z" fill="#252525"/>
<path d="M665.281 319.14L637.971 244.1L666.221 318.8L665.281 319.14Z" fill="#252525"/>
<path d="M660.411 321.05L633.371 252.63L661.331 320.68L660.411 321.05Z" fill="#252525"/>
<path d="M655.601 323.14L625.341 256.06L656.511 322.72L655.601 323.14Z" fill="#252525"/>
<path d="M650.871 325.38L620.931 262.93L651.771 324.95L650.871 325.38Z" fill="#252525"/>
<path d="M646.231 327.8L613.161 266.91L647.101 327.32L646.231 327.8Z" fill="#252525"/>
<path d="M641.661 330.36L610.011 273L642.531 329.87L641.661 330.36Z" fill="#252525"/>
<path d="M637.201 333.1L602.541 277.52L638.041 332.56L637.201 333.1Z" fill="#252525"/>
<path d="M632.831 335.99L595.231 282.29L633.651 335.41L632.831 335.99Z" fill="#252525"/>
<path d="M628.571 339.02L590.091 287.32L629.361 338.42L628.571 339.02Z" fill="#252525"/>
<path d="M624.411 342.2L584.111 291.19L625.191 341.58L624.411 342.2Z" fill="#252525"/>
<path d="M620.351 345.52L579.561 294.14L621.131 344.89L620.351 345.52Z" fill="#252525"/>
<path d="M817.171 347.5L870.521 288.88L817.911 348.17L817.171 347.5Z" fill="#252525"/>
<path d="M813.201 344.09L859.591 291.36L813.951 344.75L813.201 344.09Z" fill="#252525"/>
<path d="M809.101 340.83L852.791 285.88L809.891 341.45L809.101 340.83Z" fill="#252525"/>
<path d="M804.901 337.71L841.721 288.62L805.701 338.3L804.901 337.71Z" fill="#252525"/>
<path d="M800.581 334.75L834.551 283.62L801.421 335.29L800.581 334.75Z" fill="#252525"/>
<path d="M796.171 331.92L835.451 270.01L797.021 332.45L796.171 331.92Z" fill="#252525"/>
<path d="M791.661 329.26L832.451 259.62L792.531 329.76L791.661 329.26Z" fill="#252525"/>
<path d="M787.071 326.75L834.551 238.52L787.951 327.22L787.071 326.75Z" fill="#252525"/>
<path d="M782.381 324.41L826.761 234.57L783.281 324.85L782.381 324.41Z" fill="#252525"/>
<path d="M777.621 322.24L815.051 238.8L778.541 322.64L777.621 322.24Z" fill="#252525"/>
<path d="M772.791 320.23L807.011 235.41L773.721 320.6L772.791 320.23Z" fill="#252525"/>
<path d="M767.891 318.38L797.601 239.93L768.821 318.73L767.891 318.38Z" fill="#252525"/>
<path d="M762.921 316.72L789.331 237.11L763.871 317.02L762.921 316.72Z" fill="#252525"/>
<path d="M757.911 315.22L779.881 242.73L758.861 315.5L757.911 315.22Z" fill="#252525"/>
<path d="M752.841 313.91L771.441 240.49L753.811 314.14L752.841 313.91Z" fill="#252525"/>
<path d="M747.731 312.76L762.921 244.92L748.701 312.97L747.731 312.76Z" fill="#252525"/>
<path d="M742.581 311.81L754.341 243.27L743.571 311.97L742.581 311.81Z" fill="#252525"/>
<path d="M737.401 311.01L747.511 249.39L738.391 311.17L737.401 311.01Z" fill="#252525"/>
<path d="M732.201 310.43L738.841 248.34L733.201 310.52L732.201 310.43Z" fill="#252525"/>
<path d="M726.981 310L731.841 254.23L727.981 310.08L726.981 310Z" fill="#252525"/>
<path d="M721.751 309.78L723.121 253.79L722.751 309.79L721.751 309.78Z" fill="#252525"/>
<path d="M716.521 309.72L717.021 93L717.521 309.72H716.521Z" fill="#252525"/>
</g>
<g filter="url(#filter3_i_360_2295)">
<path d="M717.251 569C777.334 568.865 826 520.116 826 460C826 399.801 777.199 351 717 351C656.801 351 608 399.801 608 460C608 520.116 656.666 568.865 716.749 569V525.4C698.815 525.332 682.583 518.047 670.807 506.297L640.877 536.227L640.523 535.872L670.454 505.942C658.973 494.311 651.82 478.398 651.605 460.815H608.439V460.313H651.601C651.6 460.209 651.6 460.105 651.6 460C651.6 441.935 658.925 425.58 670.766 413.745L640.773 383.752L641.128 383.398L671.122 413.392C682.872 401.825 698.975 394.667 716.749 394.601V352.002H717.251V394.601C735.185 394.668 751.417 401.954 763.193 413.703L793.248 383.648L793.602 384.003L763.546 414.059C775.204 425.869 782.4 442.094 782.4 460C782.4 460.105 782.4 460.209 782.399 460.313H825.561V460.814H782.395C782.179 478.493 774.949 494.483 763.359 506.13L793.352 536.123L792.998 536.477L763.004 506.484C751.244 518.124 735.089 525.333 717.251 525.4V569Z" fill="#FD784E"/>
</g>
<path d="M782.887 461.314H825.492C824.791 520.382 776.89 568.097 717.751 568.498V525.896C735.349 525.7 751.293 518.604 763.001 507.188L792.644 536.831L792.998 537.185L793.351 536.831L793.705 536.477L794.059 536.123L793.705 535.77L764.064 506.128C775.43 494.533 782.546 478.753 782.887 461.314ZM825.5 459.813H782.9C782.85 442.023 775.751 425.89 764.25 414.062L793.956 384.356L794.31 384.003L793.956 383.649L793.602 383.295L793.248 382.941L792.895 383.295L763.191 412.998C751.465 401.473 735.445 394.302 717.751 394.104V352.002V351.503C777.266 351.906 825.399 400.227 825.5 459.813ZM717 351.5C717.238 351.5 717.476 351.501 717.714 351.502H717.251H716.749H716.286C716.524 351.501 716.762 351.5 717 351.5ZM608.5 459.813C608.601 400.227 656.734 351.906 716.249 351.503V352.002V394.104C698.714 394.3 682.823 401.345 671.126 412.689L641.481 383.044L641.128 382.69L640.774 383.044L640.42 383.398L640.066 383.752L640.42 384.105L670.06 413.746C658.376 425.602 651.15 441.864 651.1 459.813H608.5ZM716.249 568.498C657.11 568.097 609.209 520.382 608.508 461.315H651.113C651.452 478.658 658.492 494.361 669.75 505.938L640.169 535.519L639.816 535.872L640.169 536.226L640.524 536.58L640.877 536.934L641.231 536.58L670.809 507.002C682.535 518.527 698.555 525.699 716.249 525.896V568.498Z" stroke="#FD784E"/>
<path opacity="0.35" d="M372.044 846.553C372.044 846.89 371.98 847.209 371.853 847.51C371.725 847.806 371.549 848.066 371.326 848.289C371.107 848.508 370.848 848.681 370.547 848.809C370.251 848.936 369.934 849 369.597 849H363.643V847.599H369.597C369.738 847.599 369.872 847.571 370 847.517C370.128 847.462 370.239 847.387 370.335 847.291C370.431 847.195 370.506 847.086 370.561 846.963C370.615 846.835 370.643 846.699 370.643 846.553C370.643 846.411 370.615 846.277 370.561 846.149C370.506 846.022 370.431 845.91 370.335 845.814C370.239 845.719 370.128 845.644 370 845.589C369.872 845.53 369.738 845.5 369.597 845.5H365.741C365.45 845.5 365.176 845.445 364.921 845.336C364.666 845.227 364.442 845.078 364.251 844.892C364.064 844.7 363.916 844.477 363.807 844.222C363.697 843.966 363.643 843.693 363.643 843.401C363.643 843.11 363.697 842.836 363.807 842.581C363.916 842.326 364.064 842.105 364.251 841.918C364.442 841.727 364.666 841.576 364.921 841.467C365.176 841.357 365.45 841.303 365.741 841.303H371.347V842.697H365.741C365.545 842.697 365.379 842.766 365.242 842.902C365.11 843.035 365.044 843.201 365.044 843.401C365.044 843.597 365.11 843.764 365.242 843.9C365.379 844.033 365.545 844.099 365.741 844.099H369.597C369.934 844.099 370.251 844.162 370.547 844.29C370.848 844.418 371.107 844.593 371.326 844.816C371.549 845.04 371.725 845.299 371.853 845.596C371.98 845.892 372.044 846.211 372.044 846.553ZM376.159 849H374.758V842.697H372.659V841.303H374.758V838.5H376.159V841.303H381.061V842.697H376.159V849ZM390.713 849H383.713C383.371 849 383.052 848.936 382.756 848.809C382.46 848.681 382.2 848.508 381.977 848.289C381.753 848.066 381.578 847.806 381.45 847.51C381.323 847.209 381.259 846.89 381.259 846.553C381.259 846.211 381.323 845.892 381.45 845.596C381.578 845.299 381.753 845.04 381.977 844.816C382.2 844.593 382.46 844.418 382.756 844.29C383.052 844.162 383.371 844.099 383.713 844.099H388.607V845.5H383.713C383.567 845.5 383.43 845.53 383.303 845.589C383.175 845.644 383.063 845.719 382.968 845.814C382.872 845.91 382.797 846.022 382.742 846.149C382.688 846.277 382.66 846.411 382.66 846.553C382.66 846.699 382.688 846.835 382.742 846.963C382.797 847.086 382.872 847.195 382.968 847.291C383.063 847.387 383.175 847.462 383.303 847.517C383.43 847.571 383.567 847.599 383.713 847.599H389.312V843.75C389.312 843.609 389.282 843.474 389.223 843.347C389.168 843.219 389.093 843.107 388.997 843.012C388.901 842.916 388.79 842.841 388.662 842.786C388.535 842.727 388.4 842.697 388.259 842.697H382.66V841.303H388.259C388.601 841.303 388.92 841.367 389.216 841.494C389.512 841.622 389.772 841.797 389.995 842.021C390.218 842.239 390.394 842.497 390.521 842.793C390.649 843.089 390.713 843.408 390.713 843.75V849ZM394.076 849H392.675V841.303H397.925C398.453 841.303 398.95 841.405 399.415 841.61C399.88 841.811 400.285 842.087 400.632 842.438C400.978 842.784 401.252 843.192 401.452 843.661C401.653 844.126 401.753 844.623 401.753 845.151V849H400.352V845.151C400.352 844.814 400.288 844.497 400.16 844.201C400.033 843.905 399.859 843.647 399.641 843.429C399.422 843.205 399.164 843.03 398.868 842.902C398.576 842.77 398.262 842.702 397.925 842.697H394.076V849ZM412.226 849H410.824V842.697H406.976C406.638 842.697 406.322 842.763 406.025 842.896C405.734 843.023 405.479 843.199 405.26 843.422C405.041 843.641 404.868 843.9 404.74 844.201C404.617 844.497 404.556 844.814 404.556 845.151C404.556 845.489 404.617 845.805 404.74 846.102C404.868 846.393 405.041 846.651 405.26 846.874C405.479 847.093 405.734 847.268 406.025 847.4C406.322 847.528 406.638 847.594 406.976 847.599H410.127V849H406.976C406.447 849 405.95 848.9 405.485 848.699C405.021 848.494 404.615 848.218 404.269 847.872C403.927 847.521 403.656 847.113 403.455 846.648C403.255 846.179 403.154 845.68 403.154 845.151C403.154 844.623 403.255 844.126 403.455 843.661C403.656 843.196 403.927 842.791 404.269 842.444C404.615 842.093 405.021 841.818 405.485 841.617C405.95 841.412 406.447 841.307 406.976 841.303H410.824V838.5H412.226V849ZM423.006 849H416.006C415.664 849 415.345 848.936 415.049 848.809C414.753 848.681 414.493 848.508 414.27 848.289C414.046 848.066 413.871 847.806 413.743 847.51C413.616 847.209 413.552 846.89 413.552 846.553C413.552 846.211 413.616 845.892 413.743 845.596C413.871 845.299 414.046 845.04 414.27 844.816C414.493 844.593 414.753 844.418 415.049 844.29C415.345 844.162 415.664 844.099 416.006 844.099H420.9V845.5H416.006C415.86 845.5 415.723 845.53 415.596 845.589C415.468 845.644 415.356 845.719 415.261 845.814C415.165 845.91 415.09 846.022 415.035 846.149C414.98 846.277 414.953 846.411 414.953 846.553C414.953 846.699 414.98 846.835 415.035 846.963C415.09 847.086 415.165 847.195 415.261 847.291C415.356 847.387 415.468 847.462 415.596 847.517C415.723 847.571 415.86 847.599 416.006 847.599H421.604V843.75C421.604 843.609 421.575 843.474 421.516 843.347C421.461 843.219 421.386 843.107 421.29 843.012C421.194 842.916 421.083 842.841 420.955 842.786C420.827 842.727 420.693 842.697 420.552 842.697H414.953V841.303H420.552C420.894 841.303 421.213 841.367 421.509 841.494C421.805 841.622 422.065 841.797 422.288 842.021C422.511 842.239 422.687 842.497 422.814 842.793C422.942 843.089 423.006 843.408 423.006 843.75V849ZM432.617 842.697H427.367C427.221 842.697 427.085 842.727 426.957 842.786C426.829 842.841 426.718 842.916 426.622 843.012C426.526 843.107 426.451 843.219 426.396 843.347C426.342 843.474 426.314 843.609 426.314 843.75V849H424.913V843.75C424.913 843.408 424.977 843.089 425.104 842.793C425.232 842.497 425.408 842.239 425.631 842.021C425.854 841.797 426.114 841.622 426.41 841.494C426.706 841.367 427.025 841.303 427.367 841.303H432.617V842.697ZM442.235 849H440.834V842.697H436.985C436.648 842.697 436.331 842.763 436.035 842.896C435.743 843.023 435.488 843.199 435.27 843.422C435.051 843.641 434.878 843.9 434.75 844.201C434.627 844.497 434.565 844.814 434.565 845.151C434.565 845.489 434.627 845.805 434.75 846.102C434.878 846.393 435.051 846.651 435.27 846.874C435.488 847.093 435.743 847.268 436.035 847.4C436.331 847.528 436.648 847.594 436.985 847.599H440.137V849H436.985C436.457 849 435.96 848.9 435.495 848.699C435.03 848.494 434.625 848.218 434.278 847.872C433.937 847.521 433.665 847.113 433.465 846.648C433.264 846.179 433.164 845.68 433.164 845.151C433.164 844.623 433.264 844.126 433.465 843.661C433.665 843.196 433.937 842.791 434.278 842.444C434.625 842.093 435.03 841.818 435.495 841.617C435.96 841.412 436.457 841.307 436.985 841.303H440.834V838.5H442.235V849ZM458.519 841.303L454.267 849H452.667L448.442 841.303H450.076L453.467 847.544L456.885 841.303H458.519ZM461.458 839.553C461.458 839.699 461.431 839.835 461.376 839.963C461.321 840.086 461.246 840.195 461.15 840.291C461.055 840.387 460.943 840.462 460.815 840.517C460.688 840.571 460.553 840.599 460.412 840.599C460.266 840.599 460.13 840.571 460.002 840.517C459.874 840.462 459.763 840.387 459.667 840.291C459.571 840.195 459.496 840.086 459.441 839.963C459.387 839.835 459.359 839.699 459.359 839.553C459.359 839.411 459.387 839.277 459.441 839.149C459.496 839.022 459.571 838.91 459.667 838.814C459.763 838.719 459.874 838.644 460.002 838.589C460.13 838.53 460.266 838.5 460.412 838.5C460.553 838.5 460.688 838.53 460.815 838.589C460.943 838.644 461.055 838.719 461.15 838.814C461.246 838.91 461.321 839.022 461.376 839.149C461.431 839.277 461.458 839.411 461.458 839.553ZM461.109 849H459.708V841.303H461.109V849ZM464.527 849H463.126V841.303H468.376C468.905 841.303 469.401 841.405 469.866 841.61C470.331 841.811 470.737 842.087 471.083 842.438C471.429 842.784 471.703 843.192 471.903 843.661C472.104 844.126 472.204 844.623 472.204 845.151V849H470.803V845.151C470.803 844.814 470.739 844.497 470.611 844.201C470.484 843.905 470.311 843.647 470.092 843.429C469.873 843.205 469.616 843.03 469.319 842.902C469.028 842.77 468.713 842.702 468.376 842.697H464.527V849ZM483.039 849.349C483.039 849.69 482.975 850.009 482.848 850.306C482.72 850.602 482.545 850.862 482.321 851.085C482.103 851.308 481.843 851.484 481.542 851.611C481.246 851.739 480.929 851.803 480.592 851.803H474.993V850.401H480.592C480.733 850.401 480.868 850.374 480.995 850.319C481.123 850.265 481.234 850.189 481.33 850.094C481.426 849.998 481.501 849.886 481.556 849.759C481.61 849.631 481.638 849.494 481.638 849.349V849H477.789C477.26 849 476.764 848.9 476.299 848.699C475.834 848.494 475.428 848.218 475.082 847.872C474.74 847.521 474.469 847.113 474.269 846.648C474.068 846.179 473.968 845.68 473.968 845.151V841.303H475.369V845.151C475.369 845.489 475.431 845.805 475.554 846.102C475.681 846.393 475.854 846.651 476.073 846.874C476.292 847.093 476.547 847.268 476.839 847.4C477.135 847.528 477.452 847.594 477.789 847.599H481.638V841.303H483.039V849.349ZM487.804 849H487.455C487.113 849 486.794 848.936 486.498 848.809C486.202 848.681 485.942 848.508 485.719 848.289C485.495 848.066 485.32 847.806 485.192 847.51C485.065 847.209 485.001 846.89 485.001 846.553V838.5H486.402V846.553C486.402 846.699 486.43 846.835 486.484 846.963C486.539 847.086 486.614 847.195 486.71 847.291C486.806 847.387 486.917 847.462 487.045 847.517C487.173 847.571 487.309 847.599 487.455 847.599H487.804V849ZM502.973 849H495.973C495.631 849 495.312 848.936 495.016 848.809C494.719 848.681 494.46 848.508 494.236 848.289C494.013 848.066 493.838 847.806 493.71 847.51C493.582 847.209 493.519 846.89 493.519 846.553C493.519 846.211 493.582 845.892 493.71 845.596C493.838 845.299 494.013 845.04 494.236 844.816C494.46 844.593 494.719 844.418 495.016 844.29C495.312 844.162 495.631 844.099 495.973 844.099H500.867V845.5H495.973C495.827 845.5 495.69 845.53 495.562 845.589C495.435 845.644 495.323 845.719 495.228 845.814C495.132 845.91 495.057 846.022 495.002 846.149C494.947 846.277 494.92 846.411 494.92 846.553C494.92 846.699 494.947 846.835 495.002 846.963C495.057 847.086 495.132 847.195 495.228 847.291C495.323 847.387 495.435 847.462 495.562 847.517C495.69 847.571 495.827 847.599 495.973 847.599H501.571V843.75C501.571 843.609 501.542 843.474 501.482 843.347C501.428 843.219 501.353 843.107 501.257 843.012C501.161 842.916 501.049 842.841 500.922 842.786C500.794 842.727 500.66 842.697 500.519 842.697H494.92V841.303H500.519C500.86 841.303 501.179 841.367 501.476 841.494C501.772 841.622 502.032 841.797 502.255 842.021C502.478 842.239 502.654 842.497 502.781 842.793C502.909 843.089 502.973 843.408 502.973 843.75V849ZM507.683 849H507.334C506.992 849 506.673 848.936 506.377 848.809C506.081 848.681 505.821 848.508 505.598 848.289C505.374 848.066 505.199 847.806 505.071 847.51C504.944 847.209 504.88 846.89 504.88 846.553V838.5H506.281V846.553C506.281 846.699 506.309 846.835 506.363 846.963C506.418 847.086 506.493 847.195 506.589 847.291C506.685 847.387 506.796 847.462 506.924 847.517C507.051 847.571 507.188 847.599 507.334 847.599H507.683V849ZM517.978 845.151C517.978 845.68 517.877 846.177 517.677 846.642C517.476 847.106 517.203 847.514 516.856 847.865C516.51 848.212 516.104 848.487 515.64 848.692C515.175 848.893 514.678 848.995 514.149 849H508.899V838.5H510.301V847.599H514.149C514.487 847.599 514.801 847.535 515.093 847.407C515.389 847.275 515.646 847.1 515.865 846.881C516.084 846.658 516.257 846.398 516.385 846.102C516.512 845.805 516.576 845.489 516.576 845.151C516.576 844.814 516.512 844.497 516.385 844.201C516.257 843.905 516.084 843.647 515.865 843.429C515.646 843.205 515.389 843.03 515.093 842.902C514.801 842.77 514.487 842.702 514.149 842.697H511.005V841.303H514.149C514.678 841.303 515.175 841.405 515.64 841.61C516.104 841.811 516.51 842.087 516.856 842.438C517.203 842.784 517.476 843.192 517.677 843.661C517.877 844.126 517.978 844.623 517.978 845.151ZM528.443 849H523.193C522.665 849 522.168 848.9 521.703 848.699C521.238 848.494 520.833 848.218 520.486 847.872C520.145 847.521 519.873 847.113 519.673 846.648C519.472 846.179 519.372 845.68 519.372 845.151V841.303H520.773V845.151C520.773 845.489 520.835 845.805 520.958 846.102C521.086 846.393 521.259 846.651 521.478 846.874C521.696 847.093 521.951 847.268 522.243 847.4C522.539 847.528 522.856 847.594 523.193 847.599H527.042V841.303H528.443V849ZM531.861 849H530.46V841.303H537.843C538.371 841.303 538.868 841.405 539.333 841.61C539.798 841.811 540.201 842.087 540.543 842.438C540.889 842.784 541.163 843.192 541.363 843.661C541.564 844.126 541.664 844.623 541.664 845.151V849H540.263V845.151C540.263 844.814 540.199 844.497 540.071 844.201C539.944 843.905 539.771 843.647 539.552 843.429C539.333 843.205 539.076 843.03 538.779 842.902C538.488 842.77 538.175 842.702 537.843 842.697H536.763V849H535.361V842.697H531.861V849ZM550.558 839.553C550.558 839.699 550.53 839.835 550.476 839.963C550.421 840.086 550.346 840.195 550.25 840.291C550.154 840.387 550.043 840.462 549.915 840.517C549.787 840.571 549.653 840.599 549.512 840.599C549.366 840.599 549.229 840.571 549.102 840.517C548.974 840.462 548.862 840.387 548.767 840.291C548.671 840.195 548.596 840.086 548.541 839.963C548.486 839.835 548.459 839.699 548.459 839.553C548.459 839.411 548.486 839.277 548.541 839.149C548.596 839.022 548.671 838.91 548.767 838.814C548.862 838.719 548.974 838.644 549.102 838.589C549.229 838.53 549.366 838.5 549.512 838.5C549.653 838.5 549.787 838.53 549.915 838.589C550.043 838.644 550.154 838.719 550.25 838.814C550.346 838.91 550.421 839.022 550.476 839.149C550.53 839.277 550.558 839.411 550.558 839.553ZM550.209 849H548.808V841.303H550.209V849ZM560.265 846.553C560.265 846.89 560.201 847.209 560.073 847.51C559.946 847.806 559.77 848.066 559.547 848.289C559.328 848.508 559.068 848.681 558.768 848.809C558.471 848.936 558.155 849 557.817 849H551.863V847.599H557.817C557.959 847.599 558.093 847.571 558.221 847.517C558.348 847.462 558.46 847.387 558.556 847.291C558.651 847.195 558.727 847.086 558.781 846.963C558.836 846.835 558.863 846.699 558.863 846.553C558.863 846.411 558.836 846.277 558.781 846.149C558.727 846.022 558.651 845.91 558.556 845.814C558.46 845.719 558.348 845.644 558.221 845.589C558.093 845.53 557.959 845.5 557.817 845.5H553.962C553.67 845.5 553.397 845.445 553.142 845.336C552.886 845.227 552.663 845.078 552.472 844.892C552.285 844.7 552.137 844.477 552.027 844.222C551.918 843.966 551.863 843.693 551.863 843.401C551.863 843.11 551.918 842.836 552.027 842.581C552.137 842.326 552.285 842.105 552.472 841.918C552.663 841.727 552.886 841.576 553.142 841.467C553.397 841.357 553.67 841.303 553.962 841.303H559.567V842.697H553.962C553.766 842.697 553.6 842.766 553.463 842.902C553.331 843.035 553.265 843.201 553.265 843.401C553.265 843.597 553.331 843.764 553.463 843.9C553.6 844.033 553.766 844.099 553.962 844.099H557.817C558.155 844.099 558.471 844.162 558.768 844.29C559.068 844.418 559.328 844.593 559.547 844.816C559.77 845.04 559.946 845.299 560.073 845.596C560.201 845.892 560.265 846.211 560.265 846.553ZM569.493 849H568.092V842.697H565.993V841.303H568.092V838.5H569.493V841.303H574.395V842.697H569.493V849ZM584.573 849H583.172V845.151C583.172 844.814 583.108 844.497 582.98 844.201C582.853 843.905 582.68 843.647 582.461 843.429C582.242 843.205 581.985 843.03 581.688 842.902C581.397 842.77 581.082 842.702 580.745 842.697H576.896V849H575.495V838.5H576.896V841.303H580.745C581.274 841.303 581.771 841.405 582.235 841.61C582.7 841.811 583.106 842.087 583.452 842.438C583.799 842.784 584.072 843.192 584.272 843.661C584.473 844.126 584.573 844.623 584.573 845.151V849ZM595.422 843.75C595.422 844.092 595.358 844.411 595.23 844.707C595.103 845.003 594.927 845.263 594.704 845.486C594.485 845.705 594.226 845.878 593.925 846.006C593.629 846.133 593.312 846.197 592.975 846.197H587.608C587.709 846.402 587.834 846.591 587.984 846.765C588.135 846.938 588.303 847.086 588.49 847.209C588.677 847.332 588.88 847.428 589.099 847.496C589.322 847.564 589.554 847.599 589.796 847.599H594.376V849H589.796C589.267 848.995 588.771 848.893 588.306 848.692C587.841 848.487 587.435 848.212 587.089 847.865C586.747 847.514 586.476 847.106 586.275 846.642C586.075 846.177 585.975 845.68 585.975 845.151C585.975 844.623 586.075 844.126 586.275 843.661C586.476 843.196 586.747 842.791 587.089 842.444C587.435 842.093 587.841 841.818 588.306 841.617C588.771 841.412 589.267 841.307 589.796 841.303H592.975C593.312 841.303 593.629 841.367 593.925 841.494C594.226 841.622 594.485 841.797 594.704 842.021C594.927 842.239 595.103 842.497 595.23 842.793C595.358 843.089 595.422 843.408 595.422 843.75ZM592.975 844.803C593.116 844.803 593.25 844.775 593.378 844.721C593.506 844.666 593.617 844.591 593.713 844.495C593.809 844.399 593.884 844.288 593.938 844.16C593.993 844.033 594.021 843.896 594.021 843.75C594.021 843.609 593.993 843.474 593.938 843.347C593.884 843.219 593.809 843.107 593.713 843.012C593.617 842.916 593.506 842.841 593.378 842.786C593.25 842.727 593.116 842.697 592.975 842.697H589.796C589.486 842.697 589.194 842.752 588.921 842.861C588.652 842.971 588.41 843.121 588.196 843.312C587.987 843.499 587.811 843.723 587.67 843.982C587.533 844.238 587.444 844.511 587.403 844.803H592.975ZM604.247 849H602.846V840.599H601.444V839.197H604.247V849ZM615.157 849H606.059V846.197C606.059 845.814 606.132 845.454 606.277 845.117C606.428 844.775 606.628 844.479 606.879 844.229C607.134 843.973 607.43 843.773 607.768 843.627C608.109 843.477 608.474 843.401 608.861 843.401H612.361C612.553 843.401 612.733 843.365 612.901 843.292C613.075 843.219 613.223 843.119 613.346 842.991C613.473 842.864 613.574 842.715 613.646 842.547C613.724 842.374 613.763 842.191 613.763 842C613.763 841.809 613.724 841.629 613.646 841.46C613.574 841.287 613.473 841.136 613.346 841.009C613.223 840.881 613.075 840.781 612.901 840.708C612.733 840.635 612.553 840.599 612.361 840.599H606.763V839.197H612.361C612.744 839.197 613.104 839.272 613.441 839.423C613.783 839.569 614.079 839.769 614.33 840.024C614.585 840.275 614.786 840.571 614.932 840.913C615.082 841.255 615.157 841.617 615.157 842C615.157 842.383 615.082 842.745 614.932 843.087C614.786 843.429 614.585 843.727 614.33 843.982C614.079 844.233 613.783 844.434 613.441 844.584C613.104 844.73 612.744 844.803 612.361 844.803H608.861C608.67 844.803 608.488 844.839 608.314 844.912C608.141 844.985 607.991 845.085 607.863 845.213C607.736 845.34 607.633 845.489 607.556 845.657C607.483 845.826 607.446 846.006 607.446 846.197V847.599H615.157V849ZM624.481 844.803H616.784V843.401H624.481V844.803ZM628.146 839.553C628.146 839.699 628.118 839.835 628.063 839.963C628.009 840.086 627.934 840.195 627.838 840.291C627.742 840.387 627.631 840.462 627.503 840.517C627.375 840.571 627.241 840.599 627.1 840.599C626.954 840.599 626.817 840.571 626.689 840.517C626.562 840.462 626.45 840.387 626.354 840.291C626.259 840.195 626.184 840.086 626.129 839.963C626.074 839.835 626.047 839.699 626.047 839.553C626.047 839.411 626.074 839.277 626.129 839.149C626.184 839.022 626.259 838.91 626.354 838.814C626.45 838.719 626.562 838.644 626.689 838.589C626.817 838.53 626.954 838.5 627.1 838.5C627.241 838.5 627.375 838.53 627.503 838.589C627.631 838.644 627.742 838.719 627.838 838.814C627.934 838.91 628.009 839.022 628.063 839.149C628.118 839.277 628.146 839.411 628.146 839.553ZM627.797 849H626.396V841.303H627.797V849ZM631.215 849H629.813V841.303H635.063C635.592 841.303 636.089 841.405 636.554 841.61C637.019 841.811 637.424 842.087 637.771 842.438C638.117 842.784 638.39 843.192 638.591 843.661C638.791 844.126 638.892 844.623 638.892 845.151V849H637.49V845.151C637.49 844.814 637.426 844.497 637.299 844.201C637.171 843.905 636.998 843.647 636.779 843.429C636.561 843.205 636.303 843.03 636.007 842.902C635.715 842.77 635.401 842.702 635.063 842.697H631.215V849ZM648.694 849H644.114C643.586 848.995 643.089 848.893 642.624 848.692C642.159 848.487 641.754 848.212 641.407 847.865C641.065 847.514 640.794 847.106 640.594 846.642C640.393 846.177 640.293 845.68 640.293 845.151C640.293 844.623 640.393 844.126 640.594 843.661C640.794 843.192 641.065 842.784 641.407 842.438C641.754 842.087 642.159 841.811 642.624 841.61C643.089 841.405 643.586 841.303 644.114 841.303H648.694V842.697H644.114C643.777 842.702 643.46 842.77 643.164 842.902C642.872 843.03 642.617 843.205 642.398 843.429C642.18 843.647 642.007 843.905 641.879 844.201C641.756 844.497 641.694 844.814 641.694 845.151C641.694 845.489 641.756 845.805 641.879 846.102C642.007 846.398 642.18 846.658 642.398 846.881C642.617 847.1 642.872 847.275 643.164 847.407C643.46 847.535 643.777 847.599 644.114 847.599H648.694V849ZM659.304 849H657.902V845.151C657.902 844.814 657.839 844.497 657.711 844.201C657.583 843.905 657.41 843.647 657.191 843.429C656.973 843.205 656.715 843.03 656.419 842.902C656.127 842.77 655.813 842.702 655.476 842.697H651.627V849H650.226V838.5H651.627V841.303H655.476C656.004 841.303 656.501 841.405 656.966 841.61C657.431 841.811 657.836 842.087 658.183 842.438C658.529 842.784 658.802 843.192 659.003 843.661C659.203 844.126 659.304 844.623 659.304 845.151V849ZM675.225 842C675.225 842.424 675.136 842.816 674.958 843.176C674.785 843.536 674.55 843.843 674.254 844.099C674.55 844.358 674.785 844.671 674.958 845.035C675.136 845.395 675.225 845.783 675.225 846.197C675.225 846.585 675.149 846.949 674.999 847.291C674.853 847.628 674.653 847.924 674.397 848.18C674.147 848.43 673.851 848.631 673.509 848.781C673.167 848.927 672.805 849 672.422 849H666.119V847.599H672.422C672.613 847.599 672.793 847.562 672.962 847.489C673.135 847.416 673.285 847.316 673.413 847.188C673.541 847.061 673.641 846.913 673.714 846.744C673.787 846.571 673.823 846.389 673.823 846.197C673.823 846.006 673.787 845.826 673.714 845.657C673.641 845.489 673.541 845.34 673.413 845.213C673.285 845.085 673.135 844.985 672.962 844.912C672.793 844.839 672.613 844.803 672.422 844.803H667.883V843.401H672.422C672.613 843.401 672.793 843.365 672.962 843.292C673.135 843.219 673.285 843.119 673.413 842.991C673.541 842.864 673.641 842.715 673.714 842.547C673.787 842.374 673.823 842.191 673.823 842C673.823 841.809 673.787 841.629 673.714 841.46C673.641 841.287 673.541 841.136 673.413 841.009C673.285 840.881 673.135 840.781 672.962 840.708C672.793 840.635 672.613 840.599 672.422 840.599H666.119V839.197H672.422C672.805 839.197 673.167 839.272 673.509 839.423C673.851 839.569 674.147 839.769 674.397 840.024C674.653 840.275 674.853 840.571 674.999 840.913C675.149 841.255 675.225 841.617 675.225 842ZM685.807 842C685.807 842.424 685.718 842.816 685.54 843.176C685.367 843.536 685.132 843.843 684.836 844.099C685.132 844.358 685.367 844.671 685.54 845.035C685.718 845.395 685.807 845.783 685.807 846.197C685.807 846.585 685.731 846.949 685.581 847.291C685.435 847.628 685.235 847.924 684.979 848.18C684.729 848.43 684.433 848.631 684.091 848.781C683.749 848.927 683.387 849 683.004 849H676.701V847.599H683.004C683.195 847.599 683.375 847.562 683.544 847.489C683.717 847.416 683.868 847.316 683.995 847.188C684.123 847.061 684.223 846.913 684.296 846.744C684.369 846.571 684.405 846.389 684.405 846.197C684.405 846.006 684.369 845.826 684.296 845.657C684.223 845.489 684.123 845.34 683.995 845.213C683.868 845.085 683.717 844.985 683.544 844.912C683.375 844.839 683.195 844.803 683.004 844.803H678.465V843.401H683.004C683.195 843.401 683.375 843.365 683.544 843.292C683.717 843.219 683.868 843.119 683.995 842.991C684.123 842.864 684.223 842.715 684.296 842.547C684.369 842.374 684.405 842.191 684.405 842C684.405 841.809 684.369 841.629 684.296 841.46C684.223 841.287 684.123 841.136 683.995 841.009C683.868 840.881 683.717 840.781 683.544 840.708C683.375 840.635 683.195 840.599 683.004 840.599H676.701V839.197H683.004C683.387 839.197 683.749 839.272 684.091 839.423C684.433 839.569 684.729 839.769 684.979 840.024C685.235 840.275 685.435 840.571 685.581 840.913C685.731 841.255 685.807 841.617 685.807 842ZM700.504 842.697H695.254C695.108 842.697 694.971 842.727 694.844 842.786C694.716 842.841 694.604 842.916 694.509 843.012C694.413 843.107 694.338 843.219 694.283 843.347C694.229 843.474 694.201 843.609 694.201 843.75V849H692.8V843.75C692.8 843.408 692.864 843.089 692.991 842.793C693.119 842.497 693.294 842.239 693.518 842.021C693.741 841.797 694.001 841.622 694.297 841.494C694.593 841.367 694.912 841.303 695.254 841.303H700.504V842.697ZM710.71 845.151C710.71 845.68 710.61 846.179 710.409 846.648C710.209 847.113 709.935 847.521 709.589 847.872C709.243 848.218 708.837 848.494 708.372 848.699C707.907 848.9 707.41 849 706.882 849H703.737V847.599H706.882C707.219 847.594 707.534 847.528 707.825 847.4C708.121 847.268 708.379 847.093 708.598 846.874C708.816 846.651 708.99 846.393 709.117 846.102C709.245 845.805 709.309 845.489 709.309 845.151C709.309 844.814 709.245 844.497 709.117 844.201C708.99 843.9 708.816 843.641 708.598 843.422C708.379 843.199 708.121 843.023 707.825 842.896C707.534 842.763 707.219 842.697 706.882 842.697H703.033V851.803H701.632V841.303H706.882C707.41 841.307 707.907 841.412 708.372 841.617C708.837 841.818 709.243 842.093 709.589 842.444C709.935 842.791 710.209 843.196 710.409 843.661C710.61 844.126 710.71 844.623 710.71 845.151ZM713.629 849H712.228V841.303H719.61C720.139 841.303 720.636 841.405 721.101 841.61C721.565 841.811 721.969 842.087 722.311 842.438C722.657 842.784 722.93 843.192 723.131 843.661C723.331 844.126 723.432 844.623 723.432 845.151V849H722.03V845.151C722.03 844.814 721.966 844.497 721.839 844.201C721.711 843.905 721.538 843.647 721.319 843.429C721.101 843.205 720.843 843.03 720.547 842.902C720.255 842.77 719.943 842.702 719.61 842.697H718.53V849H717.129V842.697H713.629V849ZM740.111 849H730.746V839.197H732.147V847.599H740.111V849ZM752.751 842.697C752.751 843.18 752.658 843.636 752.471 844.064C752.288 844.488 752.038 844.86 751.719 845.179C751.404 845.493 751.035 845.742 750.611 845.924C750.188 846.106 749.734 846.197 749.251 846.197H743.625V844.816H749.251C749.543 844.816 749.816 844.762 750.071 844.652C750.326 844.538 750.548 844.386 750.734 844.194C750.926 844.003 751.076 843.78 751.186 843.524C751.295 843.265 751.35 842.989 751.35 842.697C751.35 842.406 751.295 842.132 751.186 841.877C751.076 841.622 750.926 841.401 750.734 841.214C750.548 841.022 750.326 840.872 750.071 840.763C749.816 840.653 749.543 840.599 749.251 840.599H742.839V849H741.438V839.197H749.251C749.734 839.197 750.188 839.291 750.611 839.478C751.035 839.66 751.404 839.91 751.719 840.229C752.038 840.544 752.288 840.913 752.471 841.337C752.658 841.761 752.751 842.214 752.751 842.697ZM755.52 847.995C755.51 848.228 755.474 848.449 755.41 848.658C755.351 848.868 755.285 849.052 755.212 849.212C755.13 849.399 755.036 849.576 754.932 849.745L754.036 849.725C754.068 849.67 754.1 849.606 754.132 849.533C754.159 849.469 754.189 849.392 754.221 849.301C754.253 849.214 754.285 849.114 754.316 849C754.189 848.982 754.07 848.943 753.961 848.884C753.852 848.82 753.756 848.743 753.674 848.651C753.596 848.556 753.535 848.449 753.489 848.33C753.444 848.207 753.421 848.079 753.421 847.947C753.421 847.806 753.448 847.672 753.503 847.544C753.558 847.416 753.633 847.305 753.729 847.209C753.824 847.113 753.934 847.038 754.057 846.983C754.184 846.929 754.321 846.901 754.467 846.901C754.608 846.901 754.743 846.929 754.87 846.983C754.998 847.038 755.109 847.116 755.205 847.216C755.301 847.312 755.376 847.428 755.431 847.564C755.49 847.697 755.52 847.84 755.52 847.995ZM771.769 840.599L764.502 849H762.581L769.848 840.599H761.966V839.197H771.769V840.599ZM780.423 844.803H772.726V843.401H780.423V844.803ZM784.087 839.553C784.087 839.699 784.06 839.835 784.005 839.963C783.95 840.086 783.875 840.195 783.779 840.291C783.684 840.387 783.572 840.462 783.444 840.517C783.317 840.571 783.182 840.599 783.041 840.599C782.895 840.599 782.758 840.571 782.631 840.517C782.503 840.462 782.392 840.387 782.296 840.291C782.2 840.195 782.125 840.086 782.07 839.963C782.016 839.835 781.988 839.699 781.988 839.553C781.988 839.411 782.016 839.277 782.07 839.149C782.125 839.022 782.2 838.91 782.296 838.814C782.392 838.719 782.503 838.644 782.631 838.589C782.758 838.53 782.895 838.5 783.041 838.5C783.182 838.5 783.317 838.53 783.444 838.589C783.572 838.644 783.684 838.719 783.779 838.814C783.875 838.91 783.95 839.022 784.005 839.149C784.06 839.277 784.087 839.411 784.087 839.553ZM783.738 849H782.337V841.303H783.738V849ZM787.156 849H785.755V841.303H791.005C791.534 841.303 792.03 841.405 792.495 841.61C792.96 841.811 793.366 842.087 793.712 842.438C794.058 842.784 794.332 843.192 794.532 843.661C794.733 844.126 794.833 844.623 794.833 845.151V849H793.432V845.151C793.432 844.814 793.368 844.497 793.24 844.201C793.113 843.905 792.939 843.647 792.721 843.429C792.502 843.205 792.244 843.03 791.948 842.902C791.657 842.77 791.342 842.702 791.005 842.697H787.156V849ZM804.636 849H800.056C799.527 848.995 799.03 848.893 798.565 848.692C798.101 848.487 797.695 848.212 797.349 847.865C797.007 847.514 796.736 847.106 796.535 846.642C796.335 846.177 796.234 845.68 796.234 845.151C796.234 844.623 796.335 844.126 796.535 843.661C796.736 843.192 797.007 842.784 797.349 842.438C797.695 842.087 798.101 841.811 798.565 841.61C799.03 841.405 799.527 841.303 800.056 841.303H804.636V842.697H800.056C799.718 842.702 799.402 842.77 799.105 842.902C798.814 843.03 798.559 843.205 798.34 843.429C798.121 843.647 797.948 843.905 797.82 844.201C797.697 844.497 797.636 844.814 797.636 845.151C797.636 845.489 797.697 845.805 797.82 846.102C797.948 846.398 798.121 846.658 798.34 846.881C798.559 847.1 798.814 847.275 799.105 847.407C799.402 847.535 799.718 847.599 800.056 847.599H804.636V849ZM815.245 849H813.844V845.151C813.844 844.814 813.78 844.497 813.652 844.201C813.525 843.905 813.352 843.647 813.133 843.429C812.914 843.205 812.657 843.03 812.36 842.902C812.069 842.77 811.754 842.702 811.417 842.697H807.568V849H806.167V838.5H807.568V841.303H811.417C811.946 841.303 812.442 841.405 812.907 841.61C813.372 841.811 813.778 842.087 814.124 842.438C814.47 842.784 814.744 843.192 814.944 843.661C815.145 844.126 815.245 844.623 815.245 845.151V849ZM831.166 842C831.166 842.424 831.077 842.816 830.899 843.176C830.726 843.536 830.492 843.843 830.195 844.099C830.492 844.358 830.726 844.671 830.899 845.035C831.077 845.395 831.166 845.783 831.166 846.197C831.166 846.585 831.091 846.949 830.94 847.291C830.795 847.628 830.594 847.924 830.339 848.18C830.088 848.43 829.792 848.631 829.45 848.781C829.108 848.927 828.746 849 828.363 849H822.061V847.599H828.363C828.555 847.599 828.735 847.562 828.903 847.489C829.076 847.416 829.227 847.316 829.354 847.188C829.482 847.061 829.582 846.913 829.655 846.744C829.728 846.571 829.765 846.389 829.765 846.197C829.765 846.006 829.728 845.826 829.655 845.657C829.582 845.489 829.482 845.34 829.354 845.213C829.227 845.085 829.076 844.985 828.903 844.912C828.735 844.839 828.555 844.803 828.363 844.803H823.824V843.401H828.363C828.555 843.401 828.735 843.365 828.903 843.292C829.076 843.219 829.227 843.119 829.354 842.991C829.482 842.864 829.582 842.715 829.655 842.547C829.728 842.374 829.765 842.191 829.765 842C829.765 841.809 829.728 841.629 829.655 841.46C829.582 841.287 829.482 841.136 829.354 841.009C829.227 840.881 829.076 840.781 828.903 840.708C828.735 840.635 828.555 840.599 828.363 840.599H822.061V839.197H828.363C828.746 839.197 829.108 839.272 829.45 839.423C829.792 839.569 830.088 839.769 830.339 840.024C830.594 840.275 830.795 840.571 830.94 840.913C831.091 841.255 831.166 841.617 831.166 842ZM841.748 842C841.748 842.424 841.659 842.816 841.481 843.176C841.308 843.536 841.074 843.843 840.777 844.099C841.074 844.358 841.308 844.671 841.481 845.035C841.659 845.395 841.748 845.783 841.748 846.197C841.748 846.585 841.673 846.949 841.522 847.291C841.377 847.628 841.176 847.924 840.921 848.18C840.67 848.43 840.374 848.631 840.032 848.781C839.69 848.927 839.328 849 838.945 849H832.643V847.599H838.945C839.137 847.599 839.317 847.562 839.485 847.489C839.659 847.416 839.809 847.316 839.937 847.188C840.064 847.061 840.164 846.913 840.237 846.744C840.31 846.571 840.347 846.389 840.347 846.197C840.347 846.006 840.31 845.826 840.237 845.657C840.164 845.489 840.064 845.34 839.937 845.213C839.809 845.085 839.659 844.985 839.485 844.912C839.317 844.839 839.137 844.803 838.945 844.803H834.406V843.401H838.945C839.137 843.401 839.317 843.365 839.485 843.292C839.659 843.219 839.809 843.119 839.937 842.991C840.064 842.864 840.164 842.715 840.237 842.547C840.31 842.374 840.347 842.191 840.347 842C840.347 841.809 840.31 841.629 840.237 841.46C840.164 841.287 840.064 841.136 839.937 841.009C839.809 840.881 839.659 840.781 839.485 840.708C839.317 840.635 839.137 840.599 838.945 840.599H832.643V839.197H838.945C839.328 839.197 839.69 839.272 840.032 839.423C840.374 839.569 840.67 839.769 840.921 840.024C841.176 840.275 841.377 840.571 841.522 840.913C841.673 841.255 841.748 841.617 841.748 842ZM856.445 842.697H851.195C851.049 842.697 850.913 842.727 850.785 842.786C850.658 842.841 850.546 842.916 850.45 843.012C850.354 843.107 850.279 843.219 850.225 843.347C850.17 843.474 850.143 843.609 850.143 843.75V849H848.741V843.75C848.741 843.408 848.805 843.089 848.933 842.793C849.06 842.497 849.236 842.239 849.459 842.021C849.682 841.797 849.942 841.622 850.238 841.494C850.535 841.367 850.854 841.303 851.195 841.303H856.445V842.697ZM866.651 845.151C866.651 845.68 866.551 846.179 866.351 846.648C866.15 847.113 865.877 847.521 865.53 847.872C865.184 848.218 864.778 848.494 864.313 848.699C863.849 848.9 863.352 849 862.823 849H859.679V847.599H862.823C863.16 847.594 863.475 847.528 863.767 847.4C864.063 847.268 864.32 847.093 864.539 846.874C864.758 846.651 864.931 846.393 865.059 846.102C865.186 845.805 865.25 845.489 865.25 845.151C865.25 844.814 865.186 844.497 865.059 844.201C864.931 843.9 864.758 843.641 864.539 843.422C864.32 843.199 864.063 843.023 863.767 842.896C863.475 842.763 863.16 842.697 862.823 842.697H858.975V851.803H857.573V841.303H862.823C863.352 841.307 863.849 841.412 864.313 841.617C864.778 841.818 865.184 842.093 865.53 842.444C865.877 842.791 866.15 843.196 866.351 843.661C866.551 844.126 866.651 844.623 866.651 845.151ZM869.57 849H868.169V841.303H875.552C876.08 841.303 876.577 841.405 877.042 841.61C877.507 841.811 877.91 842.087 878.252 842.438C878.598 842.784 878.872 843.192 879.072 843.661C879.273 844.126 879.373 844.623 879.373 845.151V849H877.972V845.151C877.972 844.814 877.908 844.497 877.78 844.201C877.653 843.905 877.479 843.647 877.261 843.429C877.042 843.205 876.785 843.03 876.488 842.902C876.197 842.77 875.884 842.702 875.552 842.697H874.472V849H873.07V842.697H869.57V849ZM896.825 849H886.688V839.197H896.825V840.599H888.089V847.599H896.825V849ZM895.636 844.803H888.786V843.401H895.636V844.803ZM909.882 842.697C909.882 843.18 909.788 843.636 909.602 844.064C909.419 844.488 909.169 844.86 908.85 845.179C908.535 845.493 908.166 845.742 907.742 845.924C907.318 846.106 906.865 846.197 906.382 846.197H900.756V844.816H906.382C906.674 844.816 906.947 844.762 907.202 844.652C907.457 844.538 907.678 844.386 907.865 844.194C908.057 844.003 908.207 843.78 908.316 843.524C908.426 843.265 908.48 842.989 908.48 842.697C908.48 842.406 908.426 842.132 908.316 841.877C908.207 841.622 908.057 841.401 907.865 841.214C907.678 841.022 907.457 840.872 907.202 840.763C906.947 840.653 906.674 840.599 906.382 840.599H899.97V849H898.568V839.197H906.382C906.865 839.197 907.318 839.291 907.742 839.478C908.166 839.66 908.535 839.91 908.85 840.229C909.169 840.544 909.419 840.913 909.602 841.337C909.788 841.761 909.882 842.214 909.882 842.697ZM912.65 847.995C912.641 848.228 912.605 848.449 912.541 848.658C912.482 848.868 912.416 849.052 912.343 849.212C912.261 849.399 912.167 849.576 912.062 849.745L911.167 849.725C911.199 849.67 911.231 849.606 911.263 849.533C911.29 849.469 911.32 849.392 911.352 849.301C911.383 849.214 911.415 849.114 911.447 849C911.32 848.982 911.201 848.943 911.092 848.884C910.982 848.82 910.887 848.743 910.805 848.651C910.727 848.556 910.666 848.449 910.62 848.33C910.575 848.207 910.552 848.079 910.552 847.947C910.552 847.806 910.579 847.672 910.634 847.544C910.688 847.416 910.764 847.305 910.859 847.209C910.955 847.113 911.064 847.038 911.188 846.983C911.315 846.929 911.452 846.901 911.598 846.901C911.739 846.901 911.873 846.929 912.001 846.983C912.129 847.038 912.24 847.116 912.336 847.216C912.432 847.312 912.507 847.428 912.562 847.564C912.621 847.697 912.65 847.84 912.65 847.995ZM928.482 849H921.482C921.141 849 920.822 848.936 920.525 848.809C920.229 848.681 919.969 848.508 919.746 848.289C919.523 848.066 919.347 847.806 919.22 847.51C919.092 847.209 919.028 846.89 919.028 846.553C919.028 846.211 919.092 845.892 919.22 845.596C919.347 845.299 919.523 845.04 919.746 844.816C919.969 844.593 920.229 844.418 920.525 844.29C920.822 844.162 921.141 844.099 921.482 844.099H926.377V845.5H921.482C921.337 845.5 921.2 845.53 921.072 845.589C920.945 845.644 920.833 845.719 920.737 845.814C920.642 845.91 920.566 846.022 920.512 846.149C920.457 846.277 920.43 846.411 920.43 846.553C920.43 846.699 920.457 846.835 920.512 846.963C920.566 847.086 920.642 847.195 920.737 847.291C920.833 847.387 920.945 847.462 921.072 847.517C921.2 847.571 921.337 847.599 921.482 847.599H927.081V843.75C927.081 843.609 927.051 843.474 926.992 843.347C926.938 843.219 926.862 843.107 926.767 843.012C926.671 842.916 926.559 842.841 926.432 842.786C926.304 842.727 926.17 842.697 926.028 842.697H920.43V841.303H926.028C926.37 841.303 926.689 841.367 926.985 841.494C927.282 841.622 927.541 841.797 927.765 842.021C927.988 842.239 928.163 842.497 928.291 842.793C928.419 843.089 928.482 843.408 928.482 843.75V849ZM931.846 849H930.444V841.303H935.694C936.223 841.303 936.72 841.405 937.185 841.61C937.649 841.811 938.055 842.087 938.401 842.438C938.748 842.784 939.021 843.192 939.222 843.661C939.422 844.126 939.522 844.623 939.522 845.151V849H938.121V845.151C938.121 844.814 938.057 844.497 937.93 844.201C937.802 843.905 937.629 843.647 937.41 843.429C937.191 843.205 936.934 843.03 936.638 842.902C936.346 842.77 936.032 842.702 935.694 842.697H931.846V849ZM949.995 849H948.594V842.697H944.745C944.408 842.697 944.091 842.763 943.795 842.896C943.503 843.023 943.248 843.199 943.029 843.422C942.811 843.641 942.637 843.9 942.51 844.201C942.387 844.497 942.325 844.814 942.325 845.151C942.325 845.489 942.387 845.805 942.51 846.102C942.637 846.393 942.811 846.651 943.029 846.874C943.248 847.093 943.503 847.268 943.795 847.4C944.091 847.528 944.408 847.594 944.745 847.599H947.896V849H944.745C944.216 849 943.72 848.9 943.255 848.699C942.79 848.494 942.384 848.218 942.038 847.872C941.696 847.521 941.425 847.113 941.225 846.648C941.024 846.179 940.924 845.68 940.924 845.151C940.924 844.623 941.024 844.126 941.225 843.661C941.425 843.196 941.696 842.791 942.038 842.444C942.384 842.093 942.79 841.818 943.255 841.617C943.72 841.412 944.216 841.307 944.745 841.303H948.594V838.5H949.995V849ZM966.442 840.599L959.176 849H957.255L964.521 840.599H956.64V839.197H966.442V840.599ZM975.097 844.803H967.399V843.401H975.097V844.803ZM978.761 839.553C978.761 839.699 978.733 839.835 978.679 839.963C978.624 840.086 978.549 840.195 978.453 840.291C978.357 840.387 978.246 840.462 978.118 840.517C977.991 840.571 977.856 840.599 977.715 840.599C977.569 840.599 977.432 840.571 977.305 840.517C977.177 840.462 977.065 840.387 976.97 840.291C976.874 840.195 976.799 840.086 976.744 839.963C976.689 839.835 976.662 839.699 976.662 839.553C976.662 839.411 976.689 839.277 976.744 839.149C976.799 839.022 976.874 838.91 976.97 838.814C977.065 838.719 977.177 838.644 977.305 838.589C977.432 838.53 977.569 838.5 977.715 838.5C977.856 838.5 977.991 838.53 978.118 838.589C978.246 838.644 978.357 838.719 978.453 838.814C978.549 838.91 978.624 839.022 978.679 839.149C978.733 839.277 978.761 839.411 978.761 839.553ZM978.412 849H977.011V841.303H978.412V849ZM981.83 849H980.429V841.303H985.679C986.207 841.303 986.704 841.405 987.169 841.61C987.634 841.811 988.039 842.087 988.386 842.438C988.732 842.784 989.006 843.192 989.206 843.661C989.407 844.126 989.507 844.623 989.507 845.151V849H988.105V845.151C988.105 844.814 988.042 844.497 987.914 844.201C987.786 843.905 987.613 843.647 987.395 843.429C987.176 843.205 986.918 843.03 986.622 842.902C986.33 842.77 986.016 842.702 985.679 842.697H981.83V849ZM999.31 849H994.729C994.201 848.995 993.704 848.893 993.239 848.692C992.774 848.487 992.369 848.212 992.022 847.865C991.681 847.514 991.41 847.106 991.209 846.642C991.008 846.177 990.908 845.68 990.908 845.151C990.908 844.623 991.008 844.126 991.209 843.661C991.41 843.192 991.681 842.784 992.022 842.438C992.369 842.087 992.774 841.811 993.239 841.61C993.704 841.405 994.201 841.303 994.729 841.303H999.31V842.697H994.729C994.392 842.702 994.076 842.77 993.779 842.902C993.488 843.03 993.232 843.205 993.014 843.429C992.795 843.647 992.622 843.905 992.494 844.201C992.371 844.497 992.31 844.814 992.31 845.151C992.31 845.489 992.371 845.805 992.494 846.102C992.622 846.398 992.795 846.658 993.014 846.881C993.232 847.1 993.488 847.275 993.779 847.407C994.076 847.535 994.392 847.599 994.729 847.599H999.31V849ZM1009.92 849H1008.52V845.151C1008.52 844.814 1008.45 844.497 1008.33 844.201C1008.2 843.905 1008.03 843.647 1007.81 843.429C1007.59 843.205 1007.33 843.03 1007.03 842.902C1006.74 842.77 1006.43 842.702 1006.09 842.697H1002.24V849H1000.84V838.5H1002.24V841.303H1006.09C1006.62 841.303 1007.12 841.405 1007.58 841.61C1008.05 841.811 1008.45 842.087 1008.8 842.438C1009.14 842.784 1009.42 843.192 1009.62 843.661C1009.82 844.126 1009.92 844.623 1009.92 845.151V849ZM1016.61 839.197H1018.01V842.697C1018.01 842.889 1018.05 843.071 1018.12 843.244C1018.19 843.413 1018.3 843.561 1018.42 843.688C1018.55 843.816 1018.7 843.916 1018.87 843.989C1019.04 844.062 1019.22 844.099 1019.41 844.099H1025.01V839.197H1026.41V849H1025.01V845.5H1019.41C1019.03 845.5 1018.66 845.427 1018.32 845.281C1017.98 845.131 1017.69 844.93 1017.43 844.68C1017.18 844.424 1016.98 844.128 1016.83 843.791C1016.68 843.449 1016.61 843.085 1016.61 842.697V839.197ZM1037.61 845.849C1037.61 846.282 1037.53 846.689 1037.37 847.072C1037.2 847.455 1036.98 847.79 1036.7 848.077C1036.41 848.36 1036.08 848.585 1035.7 848.754C1035.31 848.918 1034.9 849 1034.47 849H1028.49V847.599H1034.47C1034.71 847.599 1034.93 847.553 1035.14 847.462C1035.36 847.371 1035.54 847.248 1035.7 847.093C1035.86 846.933 1035.99 846.746 1036.08 846.532C1036.17 846.318 1036.22 846.09 1036.22 845.849C1036.22 845.607 1036.17 845.382 1036.08 845.172C1035.99 844.958 1035.86 844.771 1035.7 844.611C1035.54 844.452 1035.36 844.326 1035.14 844.235C1034.93 844.144 1034.71 844.099 1034.47 844.099H1028.5V839.197H1036.91V840.599H1029.9V842.697H1034.47C1034.9 842.697 1035.31 842.782 1035.7 842.95C1036.08 843.114 1036.41 843.34 1036.7 843.627C1036.98 843.91 1037.2 844.242 1037.37 844.625C1037.53 845.008 1037.61 845.416 1037.61 845.849ZM1052.04 842.697H1046.79C1046.64 842.697 1046.5 842.727 1046.38 842.786C1046.25 842.841 1046.14 842.916 1046.04 843.012C1045.94 843.107 1045.87 843.219 1045.81 843.347C1045.76 843.474 1045.73 843.609 1045.73 843.75V849H1044.33V843.75C1044.33 843.408 1044.39 843.089 1044.52 842.793C1044.65 842.497 1044.83 842.239 1045.05 842.021C1045.27 841.797 1045.53 841.622 1045.83 841.494C1046.12 841.367 1046.44 841.303 1046.79 841.303H1052.04V842.697ZM1062.24 845.151C1062.24 845.68 1062.14 846.179 1061.94 846.648C1061.74 847.113 1061.47 847.521 1061.12 847.872C1060.77 848.218 1060.37 848.494 1059.9 848.699C1059.44 848.9 1058.94 849 1058.41 849H1055.27V847.599H1058.41C1058.75 847.594 1059.06 847.528 1059.36 847.4C1059.65 847.268 1059.91 847.093 1060.13 846.874C1060.35 846.651 1060.52 846.393 1060.65 846.102C1060.78 845.805 1060.84 845.489 1060.84 845.151C1060.84 844.814 1060.78 844.497 1060.65 844.201C1060.52 843.9 1060.35 843.641 1060.13 843.422C1059.91 843.199 1059.65 843.023 1059.36 842.896C1059.06 842.763 1058.75 842.697 1058.41 842.697H1054.56V851.803H1053.16V841.303H1058.41C1058.94 841.307 1059.44 841.412 1059.9 841.617C1060.37 841.818 1060.77 842.093 1061.12 842.444C1061.47 842.791 1061.74 843.196 1061.94 843.661C1062.14 844.126 1062.24 844.623 1062.24 845.151ZM1065.16 849H1063.76V841.303H1071.14C1071.67 841.303 1072.17 841.405 1072.63 841.61C1073.1 841.811 1073.5 842.087 1073.84 842.438C1074.19 842.784 1074.46 843.192 1074.66 843.661C1074.86 844.126 1074.96 844.623 1074.96 845.151V849H1073.56V845.151C1073.56 844.814 1073.5 844.497 1073.37 844.201C1073.24 843.905 1073.07 843.647 1072.85 843.429C1072.63 843.205 1072.37 843.03 1072.08 842.902C1071.79 842.77 1071.47 842.702 1071.14 842.697H1070.06V849H1068.66V842.697H1065.16V849Z" fill="#252525"/>
<g filter="url(#filter4_i_360_2295)">
<path d="M1375 52.5C1375 45.5964 1380.6 40 1387.5 40C1394.4 40 1400 45.5964 1400 52.5C1400 59.4036 1394.4 65 1387.5 65C1380.6 65 1375 59.4036 1375 52.5Z" fill="#D9D9D9"/>
</g>
<path d="M1376 52.5C1376 46.1487 1381.15 41 1387.5 41C1393.85 41 1399 46.1487 1399 52.5C1399 58.8513 1393.85 64 1387.5 64C1381.15 64 1376 58.8513 1376 52.5Z" stroke="#252525" stroke-width="2"/>
<g filter="url(#filter5_i_360_2295)">
<path d="M650 459.5C650 422.221 680.221 392 717.5 392C754.779 392 785 422.221 785 459.5C785 496.779 754.779 527 717.5 527C680.221 527 650 496.779 650 459.5Z" fill="#F7F4ED"/>
</g>
<path d="M651 459.5C651 422.773 680.773 393 717.5 393C754.227 393 784 422.773 784 459.5C784 496.227 754.227 526 717.5 526C680.773 526 651 496.227 651 459.5Z" stroke="#252525" stroke-width="2"/>
<path d="M609.555 176.391L591.883 210H586.398L568.75 176.391H574.211L589.141 204.82L604.07 176.391H609.555ZM619.703 177.609C619.703 178.109 619.609 178.578 619.422 179.016C619.234 179.438 618.977 179.812 618.648 180.141C618.32 180.469 617.938 180.727 617.5 180.914C617.062 181.102 616.602 181.195 616.117 181.195C615.617 181.195 615.148 181.102 614.711 180.914C614.273 180.727 613.891 180.469 613.562 180.141C613.234 179.812 612.977 179.438 612.789 179.016C612.602 178.578 612.508 178.109 612.508 177.609C612.508 177.125 612.602 176.664 612.789 176.227C612.977 175.789 613.234 175.406 613.562 175.078C613.891 174.75 614.273 174.492 614.711 174.305C615.148 174.102 615.617 174 616.117 174C616.602 174 617.062 174.102 617.5 174.305C617.938 174.492 618.32 174.75 618.648 175.078C618.977 175.406 619.234 175.789 619.422 176.227C619.609 176.664 619.703 177.125 619.703 177.609ZM618.508 210H613.703V183.609H618.508V210ZM630.227 210H625.422V183.609H643.422C645.234 183.609 646.938 183.961 648.531 184.664C650.125 185.352 651.516 186.297 652.703 187.5C653.891 188.688 654.828 190.086 655.516 191.695C656.203 193.289 656.547 194.992 656.547 196.805V210H651.742V196.805C651.742 195.648 651.523 194.562 651.086 193.547C650.648 192.531 650.055 191.648 649.305 190.898C648.555 190.133 647.672 189.531 646.656 189.094C645.656 188.641 644.578 188.406 643.422 188.391H630.227V210ZM693.695 211.195C693.695 212.367 693.477 213.461 693.039 214.477C692.602 215.492 692 216.383 691.234 217.148C690.484 217.914 689.594 218.516 688.562 218.953C687.547 219.391 686.461 219.609 685.305 219.609H666.109V214.805H685.305C685.789 214.805 686.25 214.711 686.688 214.523C687.125 214.336 687.508 214.078 687.836 213.75C688.164 213.422 688.422 213.039 688.609 212.602C688.797 212.164 688.891 211.695 688.891 211.195V210H675.695C673.883 210 672.18 209.656 670.586 208.969C668.992 208.266 667.602 207.32 666.414 206.133C665.242 204.93 664.312 203.531 663.625 201.938C662.938 200.328 662.594 198.617 662.594 196.805V183.609H667.398V196.805C667.398 197.961 667.609 199.047 668.031 200.062C668.469 201.062 669.062 201.945 669.812 202.711C670.562 203.461 671.438 204.062 672.438 204.516C673.453 204.953 674.539 205.18 675.695 205.195H688.891V183.609H693.695V211.195ZM710.031 210H708.836C707.664 210 706.57 209.781 705.555 209.344C704.539 208.906 703.648 208.312 702.883 207.562C702.117 206.797 701.516 205.906 701.078 204.891C700.641 203.859 700.422 202.766 700.422 201.609V174H705.227V201.609C705.227 202.109 705.32 202.578 705.508 203.016C705.695 203.438 705.953 203.812 706.281 204.141C706.609 204.469 706.992 204.727 707.43 204.914C707.867 205.102 708.336 205.195 708.836 205.195H710.031V210ZM763.094 210H758.289V196.805C758.289 195.648 758.07 194.562 757.633 193.547C757.195 192.531 756.602 191.648 755.852 190.898C755.102 190.133 754.219 189.531 753.203 189.094C752.203 188.641 751.125 188.406 749.969 188.391H736.773V210H731.969V174H736.773V183.609H749.969C751.781 183.609 753.484 183.961 755.078 184.664C756.672 185.352 758.062 186.297 759.25 187.5C760.438 188.688 761.375 190.086 762.062 191.695C762.75 193.289 763.094 194.992 763.094 196.805V210ZM801.484 196.805C801.484 198.617 801.141 200.32 800.453 201.914C799.766 203.508 798.828 204.906 797.641 206.109C796.469 207.297 795.086 208.242 793.492 208.945C791.898 209.633 790.195 209.984 788.383 210H781C779.188 209.984 777.484 209.633 775.891 208.945C774.297 208.242 772.906 207.297 771.719 206.109C770.547 204.906 769.617 203.508 768.93 201.914C768.242 200.32 767.898 198.617 767.898 196.805C767.898 194.992 768.242 193.289 768.93 191.695C769.617 190.086 770.547 188.688 771.719 187.5C772.906 186.297 774.297 185.352 775.891 184.664C777.484 183.961 779.188 183.609 781 183.609H788.383C789.586 183.609 790.75 183.766 791.875 184.078C793 184.391 794.047 184.836 795.016 185.414C795.984 185.992 796.867 186.688 797.664 187.5C798.461 188.297 799.141 189.188 799.703 190.172C800.266 191.141 800.703 192.188 801.016 193.312C801.328 194.438 801.484 195.602 801.484 196.805ZM796.703 196.805C796.703 195.648 796.484 194.562 796.047 193.547C795.609 192.531 795.016 191.648 794.266 190.898C793.516 190.133 792.633 189.531 791.617 189.094C790.617 188.641 789.539 188.406 788.383 188.391H781C779.844 188.406 778.758 188.641 777.742 189.094C776.742 189.531 775.867 190.133 775.117 190.898C774.367 191.648 773.773 192.531 773.336 193.547C772.914 194.562 772.703 195.648 772.703 196.805C772.703 197.961 772.914 199.047 773.336 200.062C773.773 201.078 774.367 201.969 775.117 202.734C775.867 203.484 776.742 204.086 777.742 204.539C778.758 204.977 779.844 205.195 781 205.195H788.383C789.539 205.195 790.617 204.977 791.617 204.539C792.633 204.086 793.516 203.484 794.266 202.734C795.016 201.969 795.609 201.078 796.047 200.062C796.484 199.047 796.703 197.961 796.703 196.805ZM837.414 210H819.414C817.602 210 815.898 209.656 814.305 208.969C812.711 208.266 811.32 207.32 810.133 206.133C808.961 204.93 808.031 203.531 807.344 201.938C806.656 200.328 806.312 198.617 806.312 196.805V183.609H811.117V196.805C811.117 197.961 811.328 199.047 811.75 200.062C812.188 201.062 812.781 201.945 813.531 202.711C814.281 203.461 815.156 204.062 816.156 204.516C817.172 204.953 818.258 205.18 819.414 205.195H832.609V183.609H837.414V210ZM870.555 188.391H852.555C852.055 188.391 851.586 188.492 851.148 188.695C850.711 188.883 850.328 189.141 850 189.469C849.672 189.797 849.414 190.18 849.227 190.617C849.039 191.055 848.945 191.516 848.945 192V210H844.141V192C844.141 190.828 844.359 189.734 844.797 188.719C845.234 187.703 845.836 186.82 846.602 186.07C847.367 185.305 848.258 184.703 849.273 184.266C850.289 183.828 851.383 183.609 852.555 183.609H870.555V188.391Z" fill="#252525"/>
<path d="M697.681 465H695.879V458.698C695.879 458.077 695.762 457.494 695.527 456.949C695.293 456.404 694.971 455.93 694.561 455.525C694.156 455.115 693.679 454.793 693.128 454.559C692.583 454.318 692 454.198 691.379 454.198H690.412V465H688.61V452.396H691.379C691.953 452.396 692.504 452.473 693.031 452.625C693.564 452.771 694.062 452.979 694.525 453.249C694.988 453.519 695.41 453.841 695.791 454.216C696.172 454.591 696.503 455.007 696.784 455.464C697.06 455.007 697.388 454.591 697.769 454.216C698.149 453.841 698.571 453.519 699.034 453.249C699.497 452.979 699.992 452.771 700.52 452.625C701.053 452.473 701.606 452.396 702.181 452.396H704.958V465H703.156V454.198H702.181C701.56 454.198 700.977 454.318 700.432 454.559C699.887 454.793 699.409 455.115 698.999 455.525C698.595 455.93 698.272 456.404 698.032 456.949C697.798 457.494 697.681 458.077 697.681 458.698V465ZM719.231 458.25C719.231 458.689 719.149 459.1 718.985 459.48C718.821 459.861 718.596 460.195 718.309 460.482C718.027 460.764 717.693 460.986 717.307 461.15C716.926 461.314 716.519 461.396 716.085 461.396H709.186C709.314 461.66 709.476 461.903 709.669 462.126C709.862 462.349 710.079 462.539 710.319 462.697C710.56 462.855 710.82 462.979 711.102 463.066C711.389 463.154 711.688 463.198 711.998 463.198H717.887V465H711.998C711.318 464.994 710.68 464.862 710.082 464.604C709.484 464.341 708.963 463.986 708.518 463.541C708.078 463.09 707.729 462.565 707.472 461.968C707.214 461.37 707.085 460.731 707.085 460.052C707.085 459.372 707.214 458.733 707.472 458.136C707.729 457.538 708.078 457.017 708.518 456.571C708.963 456.12 709.484 455.766 710.082 455.508C710.68 455.244 711.318 455.109 711.998 455.104H716.085C716.519 455.104 716.926 455.186 717.307 455.35C717.693 455.514 718.027 455.739 718.309 456.026C718.596 456.308 718.821 456.639 718.985 457.02C719.149 457.4 719.231 457.811 719.231 458.25ZM716.085 459.604C716.267 459.604 716.439 459.568 716.604 459.498C716.768 459.428 716.911 459.331 717.034 459.208C717.157 459.085 717.254 458.941 717.324 458.777C717.395 458.613 717.43 458.438 717.43 458.25C717.43 458.068 717.395 457.896 717.324 457.731C717.254 457.567 717.157 457.424 717.034 457.301C716.911 457.178 716.768 457.081 716.604 457.011C716.439 456.935 716.267 456.896 716.085 456.896H711.998C711.6 456.896 711.225 456.967 710.873 457.107C710.527 457.248 710.217 457.441 709.941 457.688C709.672 457.928 709.446 458.215 709.265 458.549C709.089 458.877 708.975 459.229 708.922 459.604H716.085ZM722.8 465H720.998V455.104H727.748C728.428 455.104 729.066 455.235 729.664 455.499C730.262 455.757 730.783 456.111 731.229 456.562C731.674 457.008 732.025 457.532 732.283 458.136C732.541 458.733 732.67 459.372 732.67 460.052V465H730.868V460.052C730.868 459.618 730.786 459.211 730.622 458.83C730.458 458.449 730.235 458.118 729.954 457.837C729.673 457.55 729.342 457.324 728.961 457.16C728.586 456.99 728.182 456.902 727.748 456.896H722.8V465ZM746.601 465H739.851C739.171 465 738.532 464.871 737.935 464.613C737.337 464.35 736.815 463.995 736.37 463.55C735.931 463.099 735.582 462.574 735.324 461.977C735.066 461.373 734.938 460.731 734.938 460.052V455.104H736.739V460.052C736.739 460.485 736.818 460.893 736.977 461.273C737.141 461.648 737.363 461.979 737.645 462.267C737.926 462.548 738.254 462.773 738.629 462.943C739.01 463.107 739.417 463.192 739.851 463.198H744.799V455.104H746.601V465Z" fill="#252525"/>
<g filter="url(#filter6_i_360_2295)">
<path d="M751.654 371.855C755.642 372.457 757.48 374.316 757.987 378.254C757.989 378.284 757.992 378.314 757.994 378.344C758.017 378.703 757.936 379.167 758.423 379.174C758.844 379.182 758.867 378.871 758.857 378.56C758.852 378.464 758.847 378.369 758.847 378.281C758.897 374.574 755.599 371.138 751.77 371.01C751.481 371.053 750.882 370.814 750.847 371.449C750.822 371.878 751.323 371.808 751.654 371.855Z" fill="#252525"/>
<path d="M752.435 372.936C752.051 372.891 751.544 372.713 751.454 373.235C751.359 373.781 751.923 373.726 752.287 373.807C754.749 374.346 755.607 375.224 756.011 377.619C756.028 377.722 756.031 377.84 756.041 377.953C756.064 378.231 756.129 378.487 756.56 378.422C756.781 378.389 756.853 378.259 756.876 378.103C756.899 377.943 756.866 377.755 756.884 377.617C756.904 375.319 754.895 373.225 752.435 372.936Z" fill="#252525"/>
<path d="M752.665 374.817C752.409 374.822 752.156 374.85 752.063 375.118C751.923 375.517 752.219 375.615 752.522 375.663C753.533 375.821 754.065 376.405 754.165 377.393C754.177 377.519 754.225 377.634 754.298 377.717C754.378 377.81 754.491 377.865 754.631 377.847C754.714 377.837 754.782 377.812 754.832 377.777C755.008 377.659 755.028 377.416 755.02 377.183C755.035 376.072 753.756 374.79 752.665 374.817Z" fill="#252525"/>
<path d="M757.769 382.578C757.273 382.184 756.738 381.833 756.217 381.472C755.174 380.752 754.218 380.697 753.438 381.853C752.999 382.503 752.387 382.53 751.748 382.247C749.982 381.462 748.618 380.253 747.82 378.492C747.695 378.216 747.617 377.95 747.602 377.697C747.575 377.235 747.765 376.819 748.299 376.465C748.736 376.174 749.177 375.831 749.142 375.194C749.097 374.363 747.043 371.592 746.23 371.301C745.894 371.18 745.561 371.188 745.217 371.301C743.316 371.925 742.529 373.46 743.284 375.276C743.703 376.285 744.182 377.235 744.716 378.131C747.061 382.049 750.511 384.896 754.948 386.769C755.259 386.9 755.605 386.952 755.78 387C757.022 387.013 758.476 385.839 758.895 384.675C759.302 383.559 758.446 383.112 757.769 382.578Z" fill="#252525"/>
</g>
<g clip-path="url(#clip0_360_2295)" filter="url(#filter7_i_360_2295)">
<path d="M759 537.512H752.047L753.879 531.413L752.337 531L750.382 537.512H743V539.413H759V537.512Z" fill="#252525"/>
<path d="M756.817 548L758.204 540.147H743.795L745.257 548H756.817Z" fill="#252525"/>
</g>
<g filter="url(#filter8_i_360_2295)">
<path d="M683 368C685.213 368 687 369.793 687 372.014C687 374.235 685.213 376.028 683 376.028C680.787 376.028 679 374.235 679 372.014C679 369.793 680.787 368 683 368ZM683 387C679.667 387 676.72 385.287 675 382.692C675.04 380.029 680.333 378.57 683 378.57C685.653 378.57 690.96 380.029 691 382.692C689.28 385.287 686.333 387 683 387Z" fill="#252525"/>
</g>
<g clip-path="url(#clip1_360_2295)" filter="url(#filter9_i_360_2295)">
<path d="M683.499 532C678.806 532 675 535.806 675 540.499C675 545.192 678.806 548.998 683.499 548.998C688.192 548.998 691.998 545.192 691.998 540.499C691.998 535.806 688.194 532 683.499 532ZM683.499 543.562C681.807 543.562 680.436 542.191 680.436 540.499C680.436 538.807 681.807 537.436 683.499 537.436C685.191 537.436 686.562 538.807 686.562 540.499C686.562 542.191 685.191 543.562 683.499 543.562Z" fill="#252525"/>
<path d="M683.5 541.444C684.021 541.444 684.444 541.021 684.444 540.499C684.444 539.977 684.021 539.554 683.5 539.554C682.978 539.554 682.555 539.977 682.555 540.499C682.555 541.021 682.978 541.444 683.5 541.444Z" fill="#252525"/>
</g>
<g filter="url(#filter10_i_360_2295)">
<path d="M804.4 488H791.6C790.72 488 790 488.72 790 489.6V504L793.2 500.8H804.4C805.28 500.8 806 500.08 806 499.2V489.6C806 488.72 805.28 488 804.4 488Z" fill="#252525"/>
</g>
<g filter="url(#filter11_i_360_2295)">
<path d="M799.75 417H792.75C791.787 417 791 417.81 791 418.8V433.2C791 434.19 791.787 435 792.75 435H803.25C804.212 435 805 434.19 805 433.2V422.4L799.75 417ZM798 424.2C798.963 424.2 799.75 425.01 799.75 426C799.75 426.99 798.963 427.8 798 427.8C797.037 427.8 796.25 426.99 796.25 426C796.25 425.01 797.037 424.2 798 424.2ZM801.5 431.4H794.5V430.887C794.5 430.158 794.92 429.51 795.568 429.222C796.311 428.889 797.134 428.7 798 428.7C798.866 428.7 799.689 428.889 800.432 429.222C801.08 429.51 801.5 430.158 801.5 430.887V431.4Z" fill="#252525"/>
</g>
<g filter="url(#filter12_i_360_2295)">
<path d="M643.546 496.862C643.583 496.587 643.601 496.303 643.601 496C643.601 495.707 643.583 495.413 643.537 495.138L645.398 493.69C645.563 493.562 645.609 493.314 645.508 493.131L643.748 490.088C643.638 489.886 643.409 489.822 643.207 489.886L641.016 490.766C640.558 490.418 640.072 490.124 639.531 489.904L639.201 487.576C639.165 487.356 638.981 487.2 638.761 487.2H635.241C635.021 487.2 634.847 487.356 634.81 487.576L634.48 489.904C633.94 490.124 633.445 490.427 632.995 490.766L630.805 489.886C630.603 489.813 630.374 489.886 630.264 490.088L628.513 493.131C628.403 493.323 628.44 493.562 628.623 493.69L630.484 495.138C630.438 495.413 630.401 495.716 630.401 496C630.401 496.284 630.42 496.587 630.465 496.862L628.605 498.31C628.44 498.438 628.394 498.686 628.495 498.869L630.255 501.913C630.365 502.114 630.594 502.178 630.795 502.114L632.986 501.234C633.445 501.583 633.93 501.876 634.471 502.096L634.801 504.424C634.847 504.644 635.021 504.8 635.241 504.8H638.761C638.981 504.8 639.165 504.644 639.192 504.424L639.522 502.096C640.063 501.876 640.558 501.583 641.007 501.234L643.198 502.114C643.4 502.188 643.629 502.114 643.739 501.913L645.499 498.869C645.609 498.668 645.563 498.438 645.389 498.31L643.546 496.862ZM637.001 499.3C635.186 499.3 633.701 497.815 633.701 496C633.701 494.185 635.186 492.7 637.001 492.7C638.816 492.7 640.301 494.185 640.301 496C640.301 497.815 638.816 499.3 637.001 499.3Z" fill="#252525"/>
</g>
<defs>
<filter id="filter0_i_360_2295" x="577.619" y="319.72" width="281" height="281" filterUnits="userSpaceOnUse" color-interpolation-filters="sRGB">
<feFlood flood-opacity="0" result="BackgroundImageFix"/>
<feBlend mode="normal" in="SourceGraphic" in2="BackgroundImageFix" result="shape"/>
<feColorMatrix in="SourceAlpha" type="matrix" values="0 0 0 0 0 0 0 0 0 0 0 0 0 0 0 0 0 0 127 0" result="hardAlpha"/>
<feOffset dx="1" dy="1"/>
<feGaussianBlur stdDeviation="1"/>
<feComposite in2="hardAlpha" operator="arithmetic" k2="-1" k3="1"/>
<feColorMatrix type="matrix" values="0 0 0 0 0 0 0 0 0 0 0 0 0 0 0 0 0 0 1 0"/>
<feBlend mode="normal" in2="shape" result="effect1_innerShadow_360_2295"/>
</filter>
<filter id="filter1_i_360_2295" x="583" y="326" width="268" height="268" filterUnits="userSpaceOnUse" color-interpolation-filters="sRGB">
<feFlood flood-opacity="0" result="BackgroundImageFix"/>
<feBlend mode="normal" in="SourceGraphic" in2="BackgroundImageFix" result="shape"/>
<feColorMatrix in="SourceAlpha" type="matrix" values="0 0 0 0 0 0 0 0 0 0 0 0 0 0 0 0 0 0 127 0" result="hardAlpha"/>
<feOffset dx="1" dy="1"/>
<feGaussianBlur stdDeviation="1"/>
<feComposite in2="hardAlpha" operator="arithmetic" k2="-1" k3="1"/>
<feColorMatrix type="matrix" values="0 0 0 0 0 0 0 0 0 0 0 0 0 0 0 0 0 0 1 0"/>
<feBlend mode="normal" in2="shape" result="effect1_innerShadow_360_2295"/>
</filter>
<filter id="filter2_i_360_2295" x="462" y="93" width="516.811" height="717.12" filterUnits="userSpaceOnUse" color-interpolation-filters="sRGB">
<feFlood flood-opacity="0" result="BackgroundImageFix"/>
<feBlend mode="normal" in="SourceGraphic" in2="BackgroundImageFix" result="shape"/>
<feColorMatrix in="SourceAlpha" type="matrix" values="0 0 0 0 0 0 0 0 0 0 0 0 0 0 0 0 0 0 127 0" result="hardAlpha"/>
<feOffset dy="4"/>
<feGaussianBlur stdDeviation="2"/>
<feComposite in2="hardAlpha" operator="arithmetic" k2="-1" k3="1"/>
<feColorMatrix type="matrix" values="0 0 0 0 0 0 0 0 0 0 0 0 0 0 0 0 0 0 1 0"/>
<feBlend mode="normal" in2="shape" result="effect1_innerShadow_360_2295"/>
</filter>
<filter id="filter3_i_360_2295" x="608" y="351" width="219" height="219" filterUnits="userSpaceOnUse" color-interpolation-filters="sRGB">
<feFlood flood-opacity="0" result="BackgroundImageFix"/>
<feBlend mode="normal" in="SourceGraphic" in2="BackgroundImageFix" result="shape"/>
<feColorMatrix in="SourceAlpha" type="matrix" values="0 0 0 0 0 0 0 0 0 0 0 0 0 0 0 0 0 0 127 0" result="hardAlpha"/>
<feOffset dx="1" dy="1"/>
<feGaussianBlur stdDeviation="1"/>
<feComposite in2="hardAlpha" operator="arithmetic" k2="-1" k3="1"/>
<feColorMatrix type="matrix" values="0 0 0 0 0 0 0 0 0 0 0 0 0 0 0 0 0 0 1 0"/>
<feBlend mode="normal" in2="shape" result="effect1_innerShadow_360_2295"/>
</filter>
<filter id="filter4_i_360_2295" x="1375" y="40" width="25" height="29" filterUnits="userSpaceOnUse" color-interpolation-filters="sRGB">
<feFlood flood-opacity="0" result="BackgroundImageFix"/>
<feBlend mode="normal" in="SourceGraphic" in2="BackgroundImageFix" result="shape"/>
<feColorMatrix in="SourceAlpha" type="matrix" values="0 0 0 0 0 0 0 0 0 0 0 0 0 0 0 0 0 0 127 0" result="hardAlpha"/>
<feOffset dy="4"/>
<feGaussianBlur stdDeviation="2"/>
<feComposite in2="hardAlpha" operator="arithmetic" k2="-1" k3="1"/>
<feColorMatrix type="matrix" values="0 0 0 0 0 0 0 0 0 0 0 0 0 0 0 0 0 0 1 0"/>
<feBlend mode="normal" in2="shape" result="effect1_innerShadow_360_2295"/>
</filter>
<filter id="filter5_i_360_2295" x="650" y="392" width="135" height="139" filterUnits="userSpaceOnUse" color-interpolation-filters="sRGB">
<feFlood flood-opacity="0" result="BackgroundImageFix"/>
<feBlend mode="normal" in="SourceGraphic" in2="BackgroundImageFix" result="shape"/>
<feColorMatrix in="SourceAlpha" type="matrix" values="0 0 0 0 0 0 0 0 0 0 0 0 0 0 0 0 0 0 127 0" result="hardAlpha"/>
<feOffset dy="4"/>
<feGaussianBlur stdDeviation="2"/>
<feComposite in2="hardAlpha" operator="arithmetic" k2="-1" k3="1"/>
<feColorMatrix type="matrix" values="0 0 0 0 0 0 0 0 0 0 0 0 0 0 0 0 0 0 1 0"/>
<feBlend mode="normal" in2="shape" result="effect1_innerShadow_360_2295"/>
</filter>
<filter id="filter6_i_360_2295" x="743" y="371" width="16" height="20.0002" filterUnits="userSpaceOnUse" color-interpolation-filters="sRGB">
<feFlood flood-opacity="0" result="BackgroundImageFix"/>
<feBlend mode="normal" in="SourceGraphic" in2="BackgroundImageFix" result="shape"/>
<feColorMatrix in="SourceAlpha" type="matrix" values="0 0 0 0 0 0 0 0 0 0 0 0 0 0 0 0 0 0 127 0" result="hardAlpha"/>
<feOffset dy="4"/>
<feGaussianBlur stdDeviation="2"/>
<feComposite in2="hardAlpha" operator="arithmetic" k2="-1" k3="1"/>
<feColorMatrix type="matrix" values="0 0 0 0 0 0 0 0 0 0 0 0 0 0 0 0 0 0 1 0"/>
<feBlend mode="normal" in2="shape" result="effect1_innerShadow_360_2295"/>
</filter>
<filter id="filter7_i_360_2295" x="743" y="531" width="16" height="21" filterUnits="userSpaceOnUse" color-interpolation-filters="sRGB">
<feFlood flood-opacity="0" result="BackgroundImageFix"/>
<feBlend mode="normal" in="SourceGraphic" in2="BackgroundImageFix" result="shape"/>
<feColorMatrix in="SourceAlpha" type="matrix" values="0 0 0 0 0 0 0 0 0 0 0 0 0 0 0 0 0 0 127 0" result="hardAlpha"/>
<feOffset dy="4"/>
<feGaussianBlur stdDeviation="2"/>
<feComposite in2="hardAlpha" operator="arithmetic" k2="-1" k3="1"/>
<feColorMatrix type="matrix" values="0 0 0 0 0 0 0 0 0 0 0 0 0 0 0 0 0 0 1 0"/>
<feBlend mode="normal" in2="shape" result="effect1_innerShadow_360_2295"/>
</filter>
<filter id="filter8_i_360_2295" x="675" y="368" width="16" height="23" filterUnits="userSpaceOnUse" color-interpolation-filters="sRGB">
<feFlood flood-opacity="0" result="BackgroundImageFix"/>
<feBlend mode="normal" in="SourceGraphic" in2="BackgroundImageFix" result="shape"/>
<feColorMatrix in="SourceAlpha" type="matrix" values="0 0 0 0 0 0 0 0 0 0 0 0 0 0 0 0 0 0 127 0" result="hardAlpha"/>
<feOffset dy="4"/>
<feGaussianBlur stdDeviation="2"/>
<feComposite in2="hardAlpha" operator="arithmetic" k2="-1" k3="1"/>
<feColorMatrix type="matrix" values="0 0 0 0 0 0 0 0 0 0 0 0 0 0 0 0 0 0 1 0"/>
<feBlend mode="normal" in2="shape" result="effect1_innerShadow_360_2295"/>
</filter>
<filter id="filter9_i_360_2295" x="675" y="532" width="17" height="21" filterUnits="userSpaceOnUse" color-interpolation-filters="sRGB">
<feFlood flood-opacity="0" result="BackgroundImageFix"/>
<feBlend mode="normal" in="SourceGraphic" in2="BackgroundImageFix" result="shape"/>
<feColorMatrix in="SourceAlpha" type="matrix" values="0 0 0 0 0 0 0 0 0 0 0 0 0 0 0 0 0 0 127 0" result="hardAlpha"/>
<feOffset dy="4"/>
<feGaussianBlur stdDeviation="2"/>
<feComposite in2="hardAlpha" operator="arithmetic" k2="-1" k3="1"/>
<feColorMatrix type="matrix" values="0 0 0 0 0 0 0 0 0 0 0 0 0 0 0 0 0 0 1 0"/>
<feBlend mode="normal" in2="shape" result="effect1_innerShadow_360_2295"/>
</filter>
<filter id="filter10_i_360_2295" x="790" y="488" width="16" height="20" filterUnits="userSpaceOnUse" color-interpolation-filters="sRGB">
<feFlood flood-opacity="0" result="BackgroundImageFix"/>
<feBlend mode="normal" in="SourceGraphic" in2="BackgroundImageFix" result="shape"/>
<feColorMatrix in="SourceAlpha" type="matrix" values="0 0 0 0 0 0 0 0 0 0 0 0 0 0 0 0 0 0 127 0" result="hardAlpha"/>
<feOffset dy="4"/>
<feGaussianBlur stdDeviation="2"/>
<feComposite in2="hardAlpha" operator="arithmetic" k2="-1" k3="1"/>
<feColorMatrix type="matrix" values="0 0 0 0 0 0 0 0 0 0 0 0 0 0 0 0 0 0 1 0"/>
<feBlend mode="normal" in2="shape" result="effect1_innerShadow_360_2295"/>
</filter>
<filter id="filter11_i_360_2295" x="791" y="417" width="14" height="22" filterUnits="userSpaceOnUse" color-interpolation-filters="sRGB">
<feFlood flood-opacity="0" result="BackgroundImageFix"/>
<feBlend mode="normal" in="SourceGraphic" in2="BackgroundImageFix" result="shape"/>
<feColorMatrix in="SourceAlpha" type="matrix" values="0 0 0 0 0 0 0 0 0 0 0 0 0 0 0 0 0 0 127 0" result="hardAlpha"/>
<feOffset dy="4"/>
<feGaussianBlur stdDeviation="2"/>
<feComposite in2="hardAlpha" operator="arithmetic" k2="-1" k3="1"/>
<feColorMatrix type="matrix" values="0 0 0 0 0 0 0 0 0 0 0 0 0 0 0 0 0 0 1 0"/>
<feBlend mode="normal" in2="shape" result="effect1_innerShadow_360_2295"/>
</filter>
<filter id="filter12_i_360_2295" x="628.441" y="487.2" width="17.1191" height="21.6" filterUnits="userSpaceOnUse" color-interpolation-filters="sRGB">
<feFlood flood-opacity="0" result="BackgroundImageFix"/>
<feBlend mode="normal" in="SourceGraphic" in2="BackgroundImageFix" result="shape"/>
<feColorMatrix in="SourceAlpha" type="matrix" values="0 0 0 0 0 0 0 0 0 0 0 0 0 0 0 0 0 0 127 0" result="hardAlpha"/>
<feOffset dy="4"/>
<feGaussianBlur stdDeviation="2"/>
<feComposite in2="hardAlpha" operator="arithmetic" k2="-1" k3="1"/>
<feColorMatrix type="matrix" values="0 0 0 0 0 0 0 0 0 0 0 0 0 0 0 0 0 0 1 0"/>
<feBlend mode="normal" in2="shape" result="effect1_innerShadow_360_2295"/>
</filter>
<clipPath id="clip0_360_2295">
<rect width="16" height="17" fill="white" transform="translate(743 531)"/>
</clipPath>
<clipPath id="clip1_360_2295">
<rect width="17" height="17" fill="white" transform="translate(675 532)"/>
</clipPath>
</defs>
</svg>
