<svg width="1440" height="1024" viewBox="0 0 1440 1024" fill="none" xmlns="http://www.w3.org/2000/svg">
<rect width="1440" height="1024" fill="#F7F4ED"/>
<g filter="url(#filter0_i_433_342)">
<path d="M717.619 665.72C794.939 665.72 857.619 603.04 857.619 525.72C857.619 448.4 794.939 385.72 717.619 385.72C640.299 385.72 577.619 448.4 577.619 525.72C577.619 603.04 640.299 665.72 717.619 665.72Z" fill="#252525"/>
</g>
<g filter="url(#filter1_i_433_342)">
<path d="M716.5 659C790.23 659 850 599.23 850 525.5C850 451.77 790.23 392 716.5 392C642.77 392 583 451.77 583 525.5C583 599.23 642.77 659 716.5 659Z" fill="#F7F4ED"/>
</g>
<g filter="url(#filter2_i_433_342)">
<path d="M616.42 414.98L574.15 364.59L617.18 414.33L616.42 414.98Z" fill="#252525"/>
<path d="M612.629 418.58L567.779 370.56L613.349 417.89L612.629 418.58Z" fill="#252525"/>
<path d="M608.959 422.32L561.619 376.75L609.639 421.59L608.959 422.32Z" fill="#252525"/>
<path d="M605.42 426.18L555.68 383.15L606.07 425.42L605.42 426.18Z" fill="#252525"/>
<path d="M602.021 430.16L549.971 389.75L602.631 429.37L602.021 430.16Z" fill="#252525"/>
<path d="M598.77 434.26L544.49 396.55L599.33 433.43L598.77 434.26Z" fill="#252525"/>
<path d="M595.64 438.46L540.75 402.51L596.19 437.62L595.64 438.46Z" fill="#252525"/>
<path d="M592.68 442.78L535.76 409.67L593.18 441.91L592.68 442.78Z" fill="#252525"/>
<path d="M589.87 447.19L531.02 417.01L590.32 446.3L589.87 447.19Z" fill="#252525"/>
<path d="M587.19 451.69L529.07 421.89L587.64 450.8L587.19 451.69Z" fill="#252525"/>
<path d="M584.699 456.29L524.859 429.54L585.099 455.38L584.699 456.29Z" fill="#252525"/>
<path d="M582.35 460.97L505.33 428.52L582.73 460.05L582.35 460.97Z" fill="#252525"/>
<path d="M580.159 465.73L503.109 433.79L580.529 464.8L580.159 465.73Z" fill="#252525"/>
<path d="M578.14 470.56L498.17 439.16L578.5 469.62L578.14 470.56Z" fill="#252525"/>
<path d="M576.291 475.45L495.301 444.85L576.641 474.52L576.291 475.45Z" fill="#252525"/>
<path d="M574.62 480.42L492.48 453.11L574.93 479.47L574.62 480.42Z" fill="#252525"/>
<path d="M573.129 485.44L486.529 460.24L573.399 484.48L573.129 485.44Z" fill="#252525"/>
<path d="M571.809 490.5L484.289 468.68L572.049 489.53L571.809 490.5Z" fill="#252525"/>
<path d="M570.669 495.61L478.939 475.65L570.879 494.64L570.669 495.61Z" fill="#252525"/>
<path d="M569.711 500.76L477.301 484.23L569.881 499.78L569.711 500.76Z" fill="#252525"/>
<path d="M568.93 505.94L469.77 491.5L569.07 504.95L568.93 505.94Z" fill="#252525"/>
<path d="M568.33 511.14L468.73 500.17L568.44 510.15L568.33 511.14Z" fill="#252525"/>
<path d="M567.91 516.36L467.99 508.87L567.98 515.36L567.91 516.36Z" fill="#252525"/>
<path d="M567.681 521.59L467.561 517.59L567.711 520.59L567.681 521.59Z" fill="#252525"/>
<path d="M567.62 526.83L462 526.33L567.62 525.83V526.83Z" fill="#252525"/>
<path d="M567.75 532.06L462.17 535.06L567.72 531.06L567.75 532.06Z" fill="#252525"/>
<path d="M568.07 537.29L462.65 543.78L568 536.29L568.07 537.29Z" fill="#252525"/>
<path d="M568.559 542.5L478.119 551.38L568.459 541.5L568.559 542.5Z" fill="#252525"/>
<path d="M569.241 547.69L479.211 560.04L569.101 546.7L569.241 547.69Z" fill="#252525"/>
<path d="M570.089 552.86L490.029 566.15L569.919 551.87L570.089 552.86Z" fill="#252525"/>
<path d="M571.141 557.99L491.721 574.72L570.921 557.01L571.141 557.99Z" fill="#252525"/>
<path d="M572.35 563.08L475 586.84L572.11 562.11L572.35 563.08Z" fill="#252525"/>
<path d="M573.739 568.13L477.279 595.27L573.469 567.17L573.739 568.13Z" fill="#252525"/>
<path d="M575.309 573.12L479.859 603.61L574.999 572.17L575.309 573.12Z" fill="#252525"/>
<path d="M577.05 578.06L487.73 609.91L576.71 577.12L577.05 578.06Z" fill="#252525"/>
<path d="M578.961 582.94L490.881 618.05L578.591 582.01L578.961 582.94Z" fill="#252525"/>
<path d="M581.041 587.74L489.301 628.04L580.641 586.83L581.041 587.74Z" fill="#252525"/>
<path d="M583.29 592.47L493.01 635.94L582.85 591.57L583.29 592.47Z" fill="#252525"/>
<path d="M585.7 597.12L505.15 638.86L585.24 596.23L585.7 597.12Z" fill="#252525"/>
<path d="M588.27 601.68L509.4 646.49L587.78 600.81L588.27 601.68Z" fill="#252525"/>
<path d="M591.01 606.14L513.92 653.97L590.47 605.3L591.01 606.14Z" fill="#252525"/>
<path d="M593.88 610.52L529.58 652.35L593.33 609.68L593.88 610.52Z" fill="#252525"/>
<path d="M596.919 614.78L534.609 659.5L596.339 613.97L596.919 614.78Z" fill="#252525"/>
<path d="M600.1 618.94L544.26 660.93L599.49 618.15L600.1 618.94Z" fill="#252525"/>
<path d="M603.43 622.98L549.77 667.7L602.79 622.22L603.43 622.98Z" fill="#252525"/>
<path d="M606.89 626.91L475 744.99L606.23 626.17L606.89 626.91Z" fill="#252525"/>
<path d="M610.499 630.71L501.359 736.67L609.799 630L610.499 630.71Z" fill="#252525"/>
<path d="M614.221 634.39L519.391 731.87L613.501 633.69L614.221 634.39Z" fill="#252525"/>
<path d="M618.08 637.93L550.66 712.06L617.34 637.26L618.08 637.93Z" fill="#252525"/>
<path d="M622.06 641.34L557.27 717.77L621.29 640.69L622.06 641.34Z" fill="#252525"/>
<path d="M626.151 644.6L567.561 718.95L625.361 643.99L626.151 644.6Z" fill="#252525"/>
<path d="M630.351 647.72L574.551 724.19L629.541 647.13L630.351 647.72Z" fill="#252525"/>
<path d="M634.66 650.7L583.07 724.78L633.84 650.13L634.66 650.7Z" fill="#252525"/>
<path d="M639.08 653.51L590.41 729.52L638.23 652.98L639.08 653.51Z" fill="#252525"/>
<path d="M643.589 656.17L600.699 729.77L642.719 655.68L643.589 656.17Z" fill="#252525"/>
<path d="M648.18 658.68L608.35 733.98L647.3 658.21L648.18 658.68Z" fill="#252525"/>
<path d="M652.86 661.02L616.42 733.98L651.97 660.58L652.86 661.02Z" fill="#252525"/>
<path d="M657.63 663.2L624.34 737.65L656.71 662.79L657.63 663.2Z" fill="#252525"/>
<path d="M662.46 665.21L632.73 735.11L661.54 664.83L662.46 665.21Z" fill="#252525"/>
<path d="M667.361 667.05L640.891 738.22L666.421 666.71L667.361 667.05Z" fill="#252525"/>
<path d="M672.33 668.72L649.49 736.96L671.38 668.41L672.33 668.72Z" fill="#252525"/>
<path d="M677.35 670.21L657.85 739.49L676.38 669.94L677.35 670.21Z" fill="#252525"/>
<path d="M682.41 671.53L659.98 756.5L681.44 671.28L682.41 671.53Z" fill="#252525"/>
<path d="M687.52 672.67L668.5 758.44L686.54 672.46L687.52 672.67Z" fill="#252525"/>
<path d="M692.669 673.63L674.779 772.22L691.679 673.46L692.669 673.63Z" fill="#252525"/>
<path d="M697.85 674.41L683.41 773.57L696.86 674.27L697.85 674.41Z" fill="#252525"/>
<path d="M703.05 675.01L691.08 783.97L702.05 674.91L703.05 675.01Z" fill="#252525"/>
<path d="M708.269 675.43L699.779 784.71L707.269 675.36L708.269 675.43Z" fill="#252525"/>
<path d="M713.5 675.66L709.5 797.52L712.5 675.63L713.5 675.66Z" fill="#252525"/>
<path d="M718.73 675.72L718.23 797.65L717.73 675.72H718.73Z" fill="#252525"/>
<path d="M723.971 675.58L728.701 805.84L722.971 675.62L723.971 675.58Z" fill="#252525"/>
<path d="M729.189 675.28L737.419 805.36L728.199 675.34L729.189 675.28Z" fill="#252525"/>
<path d="M734.41 674.78L754.78 872.12L733.41 674.88L734.41 674.78Z" fill="#252525"/>
<path d="M739.599 674.1L762.869 847.26L738.609 674.24L739.599 674.1Z" fill="#252525"/>
<path d="M744.759 673.25L767.759 810.87L743.779 673.42L744.759 673.25Z" fill="#252525"/>
<path d="M749.9 672.21L776.33 801.47L748.92 672.41L749.9 672.21Z" fill="#252525"/>
<path d="M754.99 670.99L778.74 768.34L754.02 671.23L754.99 670.99Z" fill="#252525"/>
<path d="M760.04 669.6L787.17 766.06L759.07 669.88L760.04 669.6Z" fill="#252525"/>
<path d="M765.03 668.04L792.39 755.47L764.08 668.34L765.03 668.04Z" fill="#252525"/>
<path d="M769.969 666.29L800.649 752.61L769.029 666.63L769.969 666.29Z" fill="#252525"/>
<path d="M774.84 664.38L804.07 739.29L773.92 664.75L774.84 664.38Z" fill="#252525"/>
<path d="M779.65 662.3L812.1 735.86L778.73 662.71L779.65 662.3Z" fill="#252525"/>
<path d="M784.38 660.05L819.3 732.8L783.48 660.49L784.38 660.05Z" fill="#252525"/>
<path d="M789.021 657.64L829.651 735.11L788.141 658.11L789.021 657.64Z" fill="#252525"/>
<path d="M793.581 655.07L839.341 735.31L792.721 655.57L793.581 655.07Z" fill="#252525"/>
<path d="M798.049 652.34L850.729 737.58L797.199 652.87L798.049 652.34Z" fill="#252525"/>
<path d="M802.42 649.45L858.04 732.8L801.59 650.01L802.42 649.45Z" fill="#252525"/>
<path d="M806.691 646.42L865.181 727.78L805.881 647.01L806.691 646.42Z" fill="#252525"/>
<path d="M810.851 643.24L872.141 722.5L810.061 643.85L810.851 643.24Z" fill="#252525"/>
<path d="M814.891 639.91L881.211 719.73L814.131 640.55L814.891 639.91Z" fill="#252525"/>
<path d="M818.82 636.45L889.33 715.5L818.08 637.12L818.82 636.45Z" fill="#252525"/>
<path d="M822.62 632.85L895.25 708.78L821.9 633.54L822.62 632.85Z" fill="#252525"/>
<path d="M826.3 629.12L900.97 701.93L825.6 629.84L826.3 629.12Z" fill="#252525"/>
<path d="M829.84 625.26L906.64 695.09L829.17 626.01L829.84 625.26Z" fill="#252525"/>
<path d="M833.24 621.29L915.87 691.27L832.6 622.05L833.24 621.29Z" fill="#252525"/>
<path d="M836.511 617.19L915.161 679.28L835.891 617.98L836.511 617.19Z" fill="#252525"/>
<path d="M839.629 612.99L920.399 672.29L839.039 613.8L839.629 612.99Z" fill="#252525"/>
<path d="M842.599 608.68L930.129 668.19L842.039 609.51L842.599 608.68Z" fill="#252525"/>
<path d="M845.421 604.26L930.131 657.79L844.891 605.11L845.421 604.26Z" fill="#252525"/>
<path d="M848.08 599.76L936.95 651.64L847.58 600.62L848.08 599.76Z" fill="#252525"/>
<path d="M850.589 595.16L948.589 647.83L850.119 596.04L850.589 595.16Z" fill="#252525"/>
<path d="M852.93 590.48L946.44 636.64L852.49 591.37L852.93 590.48Z" fill="#252525"/>
<path d="M855.109 585.71L946.439 626.93L854.699 586.63L855.109 585.71Z" fill="#252525"/>
<path d="M857.12 580.88L949.83 618.88L856.74 581.81L857.12 580.88Z" fill="#252525"/>
<path d="M858.959 575.98L941.489 606.55L858.619 576.92L858.959 575.98Z" fill="#252525"/>
<path d="M860.63 571.01L932.98 595.05L860.32 571.97L860.63 571.01Z" fill="#252525"/>
<path d="M862.12 566L920.23 583.18L861.84 566.96L862.12 566Z" fill="#252525"/>
<path d="M863.439 560.93L903.969 571.97L863.189 561.9L863.439 560.93Z" fill="#252525"/>
<path d="M864.589 555.82L906.129 565.96L864.359 556.8L864.589 555.82Z" fill="#252525"/>
<path d="M865.539 550.67L908.119 558.69L865.359 551.66L865.539 550.67Z" fill="#252525"/>
<path d="M866.32 545.49L909.24 552.03L866.18 546.49L866.32 545.49Z" fill="#252525"/>
<path d="M866.931 540.29L924.651 547.91L866.811 541.29L866.931 540.29Z" fill="#252525"/>
<path d="M867.33 535.07L925.39 539.21L867.27 536.07L867.33 535.07Z" fill="#252525"/>
<path d="M867.569 529.84L936.949 532.84L867.539 530.84L867.569 529.84Z" fill="#252525"/>
<path d="M867.619 524.61L937.079 524.11L867.629 525.61L867.619 524.61Z" fill="#252525"/>
<path d="M867.5 519.37L946.68 517.45L867.53 520.37L867.5 519.37Z" fill="#252525"/>
<path d="M867.18 514.15L946.2 508.73L867.25 515.14L867.18 514.15Z" fill="#252525"/>
<path d="M866.689 508.93L953.489 500.05L866.789 509.93L866.689 508.93Z" fill="#252525"/>
<path d="M866.01 503.74L952.4 491.39L866.15 504.73L866.01 503.74Z" fill="#252525"/>
<path d="M865.15 498.58L963.92 481.67L865.33 499.56L865.15 498.58Z" fill="#252525"/>
<path d="M864.119 493.45L962.229 473.1L864.319 494.42L864.119 493.45Z" fill="#252525"/>
<path d="M862.9 488.35L973.03 461.41L863.14 489.32L862.9 488.35Z" fill="#252525"/>
<path d="M861.51 483.31L978.81 450.19L861.78 484.27L861.51 483.31Z" fill="#252525"/>
<path d="M859.939 478.31L921.959 459.18L860.249 479.26L859.939 478.31Z" fill="#252525"/>
<path d="M858.189 473.38L935.929 443.56L858.549 474.31L858.189 473.38Z" fill="#252525"/>
<path d="M856.289 468.5L943.279 433.89L856.659 469.42L856.289 468.5Z" fill="#252525"/>
<path d="M854.211 463.69L943.281 424.58L854.611 464.61L854.211 463.69Z" fill="#252525"/>
<path d="M851.949 458.97L940.769 415.4L852.399 459.86L851.949 458.97Z" fill="#252525"/>
<path d="M849.551 454.32L945.681 404.57L850.011 455.2L849.551 454.32Z" fill="#252525"/>
<path d="M846.98 449.75L943.28 396.04L847.47 450.63L846.98 449.75Z" fill="#252525"/>
<path d="M844.25 445.29L944.5 383.89L844.77 446.14L844.25 445.29Z" fill="#252525"/>
<path d="M841.359 440.92L940.769 374.33L841.919 441.75L841.359 440.92Z" fill="#252525"/>
<path d="M838.33 436.65L928.94 372.08L838.91 437.46L838.33 436.65Z" fill="#252525"/>
<path d="M835.141 432.49L914.411 371.2L835.761 433.28L835.141 432.49Z" fill="#252525"/>
<path d="M831.82 428.45L908.9 364.42L832.46 429.22L831.82 428.45Z" fill="#252525"/>
<path d="M828.359 424.52L893.599 367.19L829.019 425.27L828.359 424.52Z" fill="#252525"/>
<path d="M824.76 420.72L887.63 360.82L825.45 421.44L824.76 420.72Z" fill="#252525"/>
<path d="M821.029 417.04L876.919 360.82L821.739 417.74L821.029 417.04Z" fill="#252525"/>
<path d="M711.281 375.84L706.881 172.14L712.281 375.82L711.281 375.84Z" fill="#252525"/>
<path d="M706.051 376.15L696.151 194.61L707.051 376.1L706.051 376.15Z" fill="#252525"/>
<path d="M700.841 376.65L686.391 234.39L701.841 376.55L700.841 376.65Z" fill="#252525"/>
<path d="M695.651 377.33L677.731 246.25L696.641 377.19L695.651 377.33Z" fill="#252525"/>
<path d="M690.491 378.19L674.981 287.95L691.471 378.01L690.491 378.19Z" fill="#252525"/>
<path d="M685.351 379.23L666.411 289.64L686.331 379.01L685.351 379.23Z" fill="#252525"/>
<path d="M680.261 380.44L660.271 297.39L681.231 380.2L680.261 380.44Z" fill="#252525"/>
<path d="M675.211 381.83L651.841 299.68L676.171 381.56L675.211 381.83Z" fill="#252525"/>
<path d="M670.221 383.4L646.221 307.23L671.171 383.09L670.221 383.4Z" fill="#252525"/>
<path d="M665.281 385.14L637.971 310.1L666.221 384.8L665.281 385.14Z" fill="#252525"/>
<path d="M660.411 387.05L633.371 318.63L661.331 386.68L660.411 387.05Z" fill="#252525"/>
<path d="M655.601 389.14L625.341 322.06L656.511 388.72L655.601 389.14Z" fill="#252525"/>
<path d="M650.871 391.38L620.931 328.93L651.771 390.95L650.871 391.38Z" fill="#252525"/>
<path d="M646.231 393.8L613.161 332.91L647.101 393.32L646.231 393.8Z" fill="#252525"/>
<path d="M641.661 396.36L610.011 339L642.531 395.87L641.661 396.36Z" fill="#252525"/>
<path d="M637.201 399.1L602.541 343.52L638.041 398.56L637.201 399.1Z" fill="#252525"/>
<path d="M632.831 401.99L595.231 348.29L633.651 401.41L632.831 401.99Z" fill="#252525"/>
<path d="M628.571 405.02L590.091 353.32L629.361 404.42L628.571 405.02Z" fill="#252525"/>
<path d="M624.411 408.2L584.111 357.19L625.191 407.58L624.411 408.2Z" fill="#252525"/>
<path d="M620.351 411.52L579.561 360.14L621.131 410.89L620.351 411.52Z" fill="#252525"/>
<path d="M817.171 413.5L870.521 354.88L817.911 414.17L817.171 413.5Z" fill="#252525"/>
<path d="M813.201 410.09L859.591 357.36L813.951 410.75L813.201 410.09Z" fill="#252525"/>
<path d="M809.101 406.83L852.791 351.88L809.891 407.45L809.101 406.83Z" fill="#252525"/>
<path d="M804.901 403.71L841.721 354.62L805.701 404.3L804.901 403.71Z" fill="#252525"/>
<path d="M800.581 400.75L834.551 349.62L801.421 401.29L800.581 400.75Z" fill="#252525"/>
<path d="M796.171 397.92L835.451 336.01L797.021 398.45L796.171 397.92Z" fill="#252525"/>
<path d="M791.661 395.26L832.451 325.62L792.531 395.76L791.661 395.26Z" fill="#252525"/>
<path d="M787.071 392.75L834.551 304.52L787.951 393.22L787.071 392.75Z" fill="#252525"/>
<path d="M782.381 390.41L826.761 300.57L783.281 390.85L782.381 390.41Z" fill="#252525"/>
<path d="M777.621 388.24L815.051 304.8L778.541 388.64L777.621 388.24Z" fill="#252525"/>
<path d="M772.791 386.23L807.011 301.41L773.721 386.6L772.791 386.23Z" fill="#252525"/>
<path d="M767.891 384.38L797.601 305.93L768.821 384.73L767.891 384.38Z" fill="#252525"/>
<path d="M762.921 382.72L789.331 303.11L763.871 383.02L762.921 382.72Z" fill="#252525"/>
<path d="M757.911 381.22L779.881 308.73L758.861 381.5L757.911 381.22Z" fill="#252525"/>
<path d="M752.841 379.91L771.441 306.49L753.811 380.14L752.841 379.91Z" fill="#252525"/>
<path d="M747.731 378.76L762.921 310.92L748.701 378.97L747.731 378.76Z" fill="#252525"/>
<path d="M742.581 377.81L754.341 309.27L743.571 377.97L742.581 377.81Z" fill="#252525"/>
<path d="M737.401 377.01L747.511 315.39L738.391 377.17L737.401 377.01Z" fill="#252525"/>
<path d="M732.201 376.43L738.841 314.34L733.201 376.52L732.201 376.43Z" fill="#252525"/>
<path d="M726.981 376L731.841 320.23L727.981 376.08L726.981 376Z" fill="#252525"/>
<path d="M721.751 375.78L723.121 319.79L722.751 375.79L721.751 375.78Z" fill="#252525"/>
<path d="M716.521 375.72L717.021 159L717.521 375.72H716.521Z" fill="#252525"/>
</g>
<g filter="url(#filter3_i_433_342)">
<path d="M717.251 635C777.334 634.865 826 586.116 826 526C826 465.801 777.199 417 717 417C656.801 417 608 465.801 608 526C608 586.116 656.666 634.865 716.749 635V591.4C698.815 591.332 682.583 584.047 670.807 572.297L640.877 602.227L640.523 601.872L670.454 571.942C658.973 560.31 651.82 544.398 651.605 526.815H608.439V526.313H651.601C651.6 526.209 651.6 526.105 651.6 526C651.6 507.935 658.925 491.58 670.766 479.745L640.773 449.752L641.128 449.398L671.122 479.392C682.872 467.825 698.975 460.667 716.749 460.601V418.002H717.251V460.601C735.185 460.668 751.417 467.954 763.193 479.703L793.248 449.648L793.602 450.003L763.546 480.059C775.204 491.869 782.4 508.094 782.4 526C782.4 526.105 782.4 526.209 782.399 526.313H825.561V526.814H782.395C782.179 544.493 774.949 560.483 763.359 572.13L793.352 602.123L792.998 602.477L763.004 572.484C751.244 584.124 735.089 591.333 717.251 591.4V635Z" fill="#FD784E"/>
</g>
<path d="M782.887 527.314H825.492C824.791 586.382 776.89 634.097 717.751 634.498V591.896C735.349 591.7 751.293 584.604 763.001 573.188L792.644 602.831L792.998 603.185L793.351 602.831L793.705 602.477L794.059 602.123L793.705 601.77L764.064 572.128C775.43 560.533 782.546 544.753 782.887 527.314ZM825.5 525.813H782.9C782.85 508.023 775.751 491.89 764.25 480.062L793.956 450.356L794.31 450.003L793.956 449.649L793.602 449.295L793.248 448.941L792.895 449.295L763.191 478.998C751.465 467.473 735.445 460.302 717.751 460.104V418.002V417.503C777.266 417.906 825.399 466.227 825.5 525.813ZM717 417.5C717.238 417.5 717.476 417.501 717.714 417.502H717.251H716.749H716.286C716.524 417.501 716.762 417.5 717 417.5ZM608.5 525.813C608.601 466.227 656.734 417.906 716.249 417.503V418.002V460.104C698.714 460.3 682.823 467.345 671.126 478.689L641.481 449.044L641.128 448.69L640.774 449.044L640.42 449.398L640.066 449.752L640.42 450.105L670.06 479.746C658.376 491.602 651.15 507.864 651.1 525.813H608.5ZM716.249 634.498C657.11 634.097 609.209 586.382 608.508 527.315H651.113C651.452 544.658 658.492 560.361 669.75 571.938L640.169 601.519L639.816 601.872L640.169 602.226L640.524 602.58L640.877 602.934L641.231 602.58L670.809 573.002C682.535 584.527 698.555 591.699 716.249 591.896V634.498Z" stroke="#FD784E"/>
<path opacity="0.35" d="M372.044 912.553C372.044 912.89 371.98 913.209 371.853 913.51C371.725 913.806 371.549 914.066 371.326 914.289C371.107 914.508 370.848 914.681 370.547 914.809C370.251 914.936 369.934 915 369.597 915H363.643V913.599H369.597C369.738 913.599 369.872 913.571 370 913.517C370.128 913.462 370.239 913.387 370.335 913.291C370.431 913.195 370.506 913.086 370.561 912.963C370.615 912.835 370.643 912.699 370.643 912.553C370.643 912.411 370.615 912.277 370.561 912.149C370.506 912.022 370.431 911.91 370.335 911.814C370.239 911.719 370.128 911.644 370 911.589C369.872 911.53 369.738 911.5 369.597 911.5H365.741C365.45 911.5 365.176 911.445 364.921 911.336C364.666 911.227 364.442 911.078 364.251 910.892C364.064 910.7 363.916 910.477 363.807 910.222C363.697 909.966 363.643 909.693 363.643 909.401C363.643 909.11 363.697 908.836 363.807 908.581C363.916 908.326 364.064 908.105 364.251 907.918C364.442 907.727 364.666 907.576 364.921 907.467C365.176 907.357 365.45 907.303 365.741 907.303H371.347V908.697H365.741C365.545 908.697 365.379 908.766 365.242 908.902C365.11 909.035 365.044 909.201 365.044 909.401C365.044 909.597 365.11 909.764 365.242 909.9C365.379 910.033 365.545 910.099 365.741 910.099H369.597C369.934 910.099 370.251 910.162 370.547 910.29C370.848 910.418 371.107 910.593 371.326 910.816C371.549 911.04 371.725 911.299 371.853 911.596C371.98 911.892 372.044 912.211 372.044 912.553ZM376.159 915H374.758V908.697H372.659V907.303H374.758V904.5H376.159V907.303H381.061V908.697H376.159V915ZM390.713 915H383.713C383.371 915 383.052 914.936 382.756 914.809C382.46 914.681 382.2 914.508 381.977 914.289C381.753 914.066 381.578 913.806 381.45 913.51C381.323 913.209 381.259 912.89 381.259 912.553C381.259 912.211 381.323 911.892 381.45 911.596C381.578 911.299 381.753 911.04 381.977 910.816C382.2 910.593 382.46 910.418 382.756 910.29C383.052 910.162 383.371 910.099 383.713 910.099H388.607V911.5H383.713C383.567 911.5 383.43 911.53 383.303 911.589C383.175 911.644 383.063 911.719 382.968 911.814C382.872 911.91 382.797 912.022 382.742 912.149C382.688 912.277 382.66 912.411 382.66 912.553C382.66 912.699 382.688 912.835 382.742 912.963C382.797 913.086 382.872 913.195 382.968 913.291C383.063 913.387 383.175 913.462 383.303 913.517C383.43 913.571 383.567 913.599 383.713 913.599H389.312V909.75C389.312 909.609 389.282 909.474 389.223 909.347C389.168 909.219 389.093 909.107 388.997 909.012C388.901 908.916 388.79 908.841 388.662 908.786C388.535 908.727 388.4 908.697 388.259 908.697H382.66V907.303H388.259C388.601 907.303 388.92 907.367 389.216 907.494C389.512 907.622 389.772 907.797 389.995 908.021C390.218 908.239 390.394 908.497 390.521 908.793C390.649 909.089 390.713 909.408 390.713 909.75V915ZM394.076 915H392.675V907.303H397.925C398.453 907.303 398.95 907.405 399.415 907.61C399.88 907.811 400.285 908.087 400.632 908.438C400.978 908.784 401.252 909.192 401.452 909.661C401.653 910.126 401.753 910.623 401.753 911.151V915H400.352V911.151C400.352 910.814 400.288 910.497 400.16 910.201C400.033 909.905 399.859 909.647 399.641 909.429C399.422 909.205 399.164 909.03 398.868 908.902C398.576 908.77 398.262 908.702 397.925 908.697H394.076V915ZM412.226 915H410.824V908.697H406.976C406.638 908.697 406.322 908.763 406.025 908.896C405.734 909.023 405.479 909.199 405.26 909.422C405.041 909.641 404.868 909.9 404.74 910.201C404.617 910.497 404.556 910.814 404.556 911.151C404.556 911.489 404.617 911.805 404.74 912.102C404.868 912.393 405.041 912.651 405.26 912.874C405.479 913.093 405.734 913.268 406.025 913.4C406.322 913.528 406.638 913.594 406.976 913.599H410.127V915H406.976C406.447 915 405.95 914.9 405.485 914.699C405.021 914.494 404.615 914.218 404.269 913.872C403.927 913.521 403.656 913.113 403.455 912.648C403.255 912.179 403.154 911.68 403.154 911.151C403.154 910.623 403.255 910.126 403.455 909.661C403.656 909.196 403.927 908.791 404.269 908.444C404.615 908.093 405.021 907.818 405.485 907.617C405.95 907.412 406.447 907.307 406.976 907.303H410.824V904.5H412.226V915ZM423.006 915H416.006C415.664 915 415.345 914.936 415.049 914.809C414.753 914.681 414.493 914.508 414.27 914.289C414.046 914.066 413.871 913.806 413.743 913.51C413.616 913.209 413.552 912.89 413.552 912.553C413.552 912.211 413.616 911.892 413.743 911.596C413.871 911.299 414.046 911.04 414.27 910.816C414.493 910.593 414.753 910.418 415.049 910.29C415.345 910.162 415.664 910.099 416.006 910.099H420.9V911.5H416.006C415.86 911.5 415.723 911.53 415.596 911.589C415.468 911.644 415.356 911.719 415.261 911.814C415.165 911.91 415.09 912.022 415.035 912.149C414.98 912.277 414.953 912.411 414.953 912.553C414.953 912.699 414.98 912.835 415.035 912.963C415.09 913.086 415.165 913.195 415.261 913.291C415.356 913.387 415.468 913.462 415.596 913.517C415.723 913.571 415.86 913.599 416.006 913.599H421.604V909.75C421.604 909.609 421.575 909.474 421.516 909.347C421.461 909.219 421.386 909.107 421.29 909.012C421.194 908.916 421.083 908.841 420.955 908.786C420.827 908.727 420.693 908.697 420.552 908.697H414.953V907.303H420.552C420.894 907.303 421.213 907.367 421.509 907.494C421.805 907.622 422.065 907.797 422.288 908.021C422.511 908.239 422.687 908.497 422.814 908.793C422.942 909.089 423.006 909.408 423.006 909.75V915ZM432.617 908.697H427.367C427.221 908.697 427.085 908.727 426.957 908.786C426.829 908.841 426.718 908.916 426.622 909.012C426.526 909.107 426.451 909.219 426.396 909.347C426.342 909.474 426.314 909.609 426.314 909.75V915H424.913V909.75C424.913 909.408 424.977 909.089 425.104 908.793C425.232 908.497 425.408 908.239 425.631 908.021C425.854 907.797 426.114 907.622 426.41 907.494C426.706 907.367 427.025 907.303 427.367 907.303H432.617V908.697ZM442.235 915H440.834V908.697H436.985C436.648 908.697 436.331 908.763 436.035 908.896C435.743 909.023 435.488 909.199 435.27 909.422C435.051 909.641 434.878 909.9 434.75 910.201C434.627 910.497 434.565 910.814 434.565 911.151C434.565 911.489 434.627 911.805 434.75 912.102C434.878 912.393 435.051 912.651 435.27 912.874C435.488 913.093 435.743 913.268 436.035 913.4C436.331 913.528 436.648 913.594 436.985 913.599H440.137V915H436.985C436.457 915 435.96 914.9 435.495 914.699C435.03 914.494 434.625 914.218 434.278 913.872C433.937 913.521 433.665 913.113 433.465 912.648C433.264 912.179 433.164 911.68 433.164 911.151C433.164 910.623 433.264 910.126 433.465 909.661C433.665 909.196 433.937 908.791 434.278 908.444C434.625 908.093 435.03 907.818 435.495 907.617C435.96 907.412 436.457 907.307 436.985 907.303H440.834V904.5H442.235V915ZM458.519 907.303L454.267 915H452.667L448.442 907.303H450.076L453.467 913.544L456.885 907.303H458.519ZM461.458 905.553C461.458 905.699 461.431 905.835 461.376 905.963C461.321 906.086 461.246 906.195 461.15 906.291C461.055 906.387 460.943 906.462 460.815 906.517C460.688 906.571 460.553 906.599 460.412 906.599C460.266 906.599 460.13 906.571 460.002 906.517C459.874 906.462 459.763 906.387 459.667 906.291C459.571 906.195 459.496 906.086 459.441 905.963C459.387 905.835 459.359 905.699 459.359 905.553C459.359 905.411 459.387 905.277 459.441 905.149C459.496 905.022 459.571 904.91 459.667 904.814C459.763 904.719 459.874 904.644 460.002 904.589C460.13 904.53 460.266 904.5 460.412 904.5C460.553 904.5 460.688 904.53 460.815 904.589C460.943 904.644 461.055 904.719 461.15 904.814C461.246 904.91 461.321 905.022 461.376 905.149C461.431 905.277 461.458 905.411 461.458 905.553ZM461.109 915H459.708V907.303H461.109V915ZM464.527 915H463.126V907.303H468.376C468.905 907.303 469.401 907.405 469.866 907.61C470.331 907.811 470.737 908.087 471.083 908.438C471.429 908.784 471.703 909.192 471.903 909.661C472.104 910.126 472.204 910.623 472.204 911.151V915H470.803V911.151C470.803 910.814 470.739 910.497 470.611 910.201C470.484 909.905 470.311 909.647 470.092 909.429C469.873 909.205 469.616 909.03 469.319 908.902C469.028 908.77 468.713 908.702 468.376 908.697H464.527V915ZM483.039 915.349C483.039 915.69 482.975 916.009 482.848 916.306C482.72 916.602 482.545 916.862 482.321 917.085C482.103 917.308 481.843 917.484 481.542 917.611C481.246 917.739 480.929 917.803 480.592 917.803H474.993V916.401H480.592C480.733 916.401 480.868 916.374 480.995 916.319C481.123 916.265 481.234 916.189 481.33 916.094C481.426 915.998 481.501 915.886 481.556 915.759C481.61 915.631 481.638 915.494 481.638 915.349V915H477.789C477.26 915 476.764 914.9 476.299 914.699C475.834 914.494 475.428 914.218 475.082 913.872C474.74 913.521 474.469 913.113 474.269 912.648C474.068 912.179 473.968 911.68 473.968 911.151V907.303H475.369V911.151C475.369 911.489 475.431 911.805 475.554 912.102C475.681 912.393 475.854 912.651 476.073 912.874C476.292 913.093 476.547 913.268 476.839 913.4C477.135 913.528 477.452 913.594 477.789 913.599H481.638V907.303H483.039V915.349ZM487.804 915H487.455C487.113 915 486.794 914.936 486.498 914.809C486.202 914.681 485.942 914.508 485.719 914.289C485.495 914.066 485.32 913.806 485.192 913.51C485.065 913.209 485.001 912.89 485.001 912.553V904.5H486.402V912.553C486.402 912.699 486.43 912.835 486.484 912.963C486.539 913.086 486.614 913.195 486.71 913.291C486.806 913.387 486.917 913.462 487.045 913.517C487.173 913.571 487.309 913.599 487.455 913.599H487.804V915ZM502.973 915H495.973C495.631 915 495.312 914.936 495.016 914.809C494.719 914.681 494.46 914.508 494.236 914.289C494.013 914.066 493.838 913.806 493.71 913.51C493.582 913.209 493.519 912.89 493.519 912.553C493.519 912.211 493.582 911.892 493.71 911.596C493.838 911.299 494.013 911.04 494.236 910.816C494.46 910.593 494.719 910.418 495.016 910.29C495.312 910.162 495.631 910.099 495.973 910.099H500.867V911.5H495.973C495.827 911.5 495.69 911.53 495.562 911.589C495.435 911.644 495.323 911.719 495.228 911.814C495.132 911.91 495.057 912.022 495.002 912.149C494.947 912.277 494.92 912.411 494.92 912.553C494.92 912.699 494.947 912.835 495.002 912.963C495.057 913.086 495.132 913.195 495.228 913.291C495.323 913.387 495.435 913.462 495.562 913.517C495.69 913.571 495.827 913.599 495.973 913.599H501.571V909.75C501.571 909.609 501.542 909.474 501.482 909.347C501.428 909.219 501.353 909.107 501.257 909.012C501.161 908.916 501.049 908.841 500.922 908.786C500.794 908.727 500.66 908.697 500.519 908.697H494.92V907.303H500.519C500.86 907.303 501.179 907.367 501.476 907.494C501.772 907.622 502.032 907.797 502.255 908.021C502.478 908.239 502.654 908.497 502.781 908.793C502.909 909.089 502.973 909.408 502.973 909.75V915ZM507.683 915H507.334C506.992 915 506.673 914.936 506.377 914.809C506.081 914.681 505.821 914.508 505.598 914.289C505.374 914.066 505.199 913.806 505.071 913.51C504.944 913.209 504.88 912.89 504.88 912.553V904.5H506.281V912.553C506.281 912.699 506.309 912.835 506.363 912.963C506.418 913.086 506.493 913.195 506.589 913.291C506.685 913.387 506.796 913.462 506.924 913.517C507.051 913.571 507.188 913.599 507.334 913.599H507.683V915ZM517.978 911.151C517.978 911.68 517.877 912.177 517.677 912.642C517.476 913.106 517.203 913.514 516.856 913.865C516.51 914.212 516.104 914.487 515.64 914.692C515.175 914.893 514.678 914.995 514.149 915H508.899V904.5H510.301V913.599H514.149C514.487 913.599 514.801 913.535 515.093 913.407C515.389 913.275 515.646 913.1 515.865 912.881C516.084 912.658 516.257 912.398 516.385 912.102C516.512 911.805 516.576 911.489 516.576 911.151C516.576 910.814 516.512 910.497 516.385 910.201C516.257 909.905 516.084 909.647 515.865 909.429C515.646 909.205 515.389 909.03 515.093 908.902C514.801 908.77 514.487 908.702 514.149 908.697H511.005V907.303H514.149C514.678 907.303 515.175 907.405 515.64 907.61C516.104 907.811 516.51 908.087 516.856 908.438C517.203 908.784 517.476 909.192 517.677 909.661C517.877 910.126 517.978 910.623 517.978 911.151ZM528.443 915H523.193C522.665 915 522.168 914.9 521.703 914.699C521.238 914.494 520.833 914.218 520.486 913.872C520.145 913.521 519.873 913.113 519.673 912.648C519.472 912.179 519.372 911.68 519.372 911.151V907.303H520.773V911.151C520.773 911.489 520.835 911.805 520.958 912.102C521.086 912.393 521.259 912.651 521.478 912.874C521.696 913.093 521.951 913.268 522.243 913.4C522.539 913.528 522.856 913.594 523.193 913.599H527.042V907.303H528.443V915ZM531.861 915H530.46V907.303H537.843C538.371 907.303 538.868 907.405 539.333 907.61C539.798 907.811 540.201 908.087 540.543 908.438C540.889 908.784 541.163 909.192 541.363 909.661C541.564 910.126 541.664 910.623 541.664 911.151V915H540.263V911.151C540.263 910.814 540.199 910.497 540.071 910.201C539.944 909.905 539.771 909.647 539.552 909.429C539.333 909.205 539.076 909.03 538.779 908.902C538.488 908.77 538.175 908.702 537.843 908.697H536.763V915H535.361V908.697H531.861V915ZM550.558 905.553C550.558 905.699 550.53 905.835 550.476 905.963C550.421 906.086 550.346 906.195 550.25 906.291C550.154 906.387 550.043 906.462 549.915 906.517C549.787 906.571 549.653 906.599 549.512 906.599C549.366 906.599 549.229 906.571 549.102 906.517C548.974 906.462 548.862 906.387 548.767 906.291C548.671 906.195 548.596 906.086 548.541 905.963C548.486 905.835 548.459 905.699 548.459 905.553C548.459 905.411 548.486 905.277 548.541 905.149C548.596 905.022 548.671 904.91 548.767 904.814C548.862 904.719 548.974 904.644 549.102 904.589C549.229 904.53 549.366 904.5 549.512 904.5C549.653 904.5 549.787 904.53 549.915 904.589C550.043 904.644 550.154 904.719 550.25 904.814C550.346 904.91 550.421 905.022 550.476 905.149C550.53 905.277 550.558 905.411 550.558 905.553ZM550.209 915H548.808V907.303H550.209V915ZM560.265 912.553C560.265 912.89 560.201 913.209 560.073 913.51C559.946 913.806 559.77 914.066 559.547 914.289C559.328 914.508 559.068 914.681 558.768 914.809C558.471 914.936 558.155 915 557.817 915H551.863V913.599H557.817C557.959 913.599 558.093 913.571 558.221 913.517C558.348 913.462 558.46 913.387 558.556 913.291C558.651 913.195 558.727 913.086 558.781 912.963C558.836 912.835 558.863 912.699 558.863 912.553C558.863 912.411 558.836 912.277 558.781 912.149C558.727 912.022 558.651 911.91 558.556 911.814C558.46 911.719 558.348 911.644 558.221 911.589C558.093 911.53 557.959 911.5 557.817 911.5H553.962C553.67 911.5 553.397 911.445 553.142 911.336C552.886 911.227 552.663 911.078 552.472 910.892C552.285 910.7 552.137 910.477 552.027 910.222C551.918 909.966 551.863 909.693 551.863 909.401C551.863 909.11 551.918 908.836 552.027 908.581C552.137 908.326 552.285 908.105 552.472 907.918C552.663 907.727 552.886 907.576 553.142 907.467C553.397 907.357 553.67 907.303 553.962 907.303H559.567V908.697H553.962C553.766 908.697 553.6 908.766 553.463 908.902C553.331 909.035 553.265 909.201 553.265 909.401C553.265 909.597 553.331 909.764 553.463 909.9C553.6 910.033 553.766 910.099 553.962 910.099H557.817C558.155 910.099 558.471 910.162 558.768 910.29C559.068 910.418 559.328 910.593 559.547 910.816C559.77 911.04 559.946 911.299 560.073 911.596C560.201 911.892 560.265 912.211 560.265 912.553ZM569.493 915H568.092V908.697H565.993V907.303H568.092V904.5H569.493V907.303H574.395V908.697H569.493V915ZM584.573 915H583.172V911.151C583.172 910.814 583.108 910.497 582.98 910.201C582.853 909.905 582.68 909.647 582.461 909.429C582.242 909.205 581.985 909.03 581.688 908.902C581.397 908.77 581.082 908.702 580.745 908.697H576.896V915H575.495V904.5H576.896V907.303H580.745C581.274 907.303 581.771 907.405 582.235 907.61C582.7 907.811 583.106 908.087 583.452 908.438C583.799 908.784 584.072 909.192 584.272 909.661C584.473 910.126 584.573 910.623 584.573 911.151V915ZM595.422 909.75C595.422 910.092 595.358 910.411 595.23 910.707C595.103 911.003 594.927 911.263 594.704 911.486C594.485 911.705 594.226 911.878 593.925 912.006C593.629 912.133 593.312 912.197 592.975 912.197H587.608C587.709 912.402 587.834 912.591 587.984 912.765C588.135 912.938 588.303 913.086 588.49 913.209C588.677 913.332 588.88 913.428 589.099 913.496C589.322 913.564 589.554 913.599 589.796 913.599H594.376V915H589.796C589.267 914.995 588.771 914.893 588.306 914.692C587.841 914.487 587.435 914.212 587.089 913.865C586.747 913.514 586.476 913.106 586.275 912.642C586.075 912.177 585.975 911.68 585.975 911.151C585.975 910.623 586.075 910.126 586.275 909.661C586.476 909.196 586.747 908.791 587.089 908.444C587.435 908.093 587.841 907.818 588.306 907.617C588.771 907.412 589.267 907.307 589.796 907.303H592.975C593.312 907.303 593.629 907.367 593.925 907.494C594.226 907.622 594.485 907.797 594.704 908.021C594.927 908.239 595.103 908.497 595.23 908.793C595.358 909.089 595.422 909.408 595.422 909.75ZM592.975 910.803C593.116 910.803 593.25 910.775 593.378 910.721C593.506 910.666 593.617 910.591 593.713 910.495C593.809 910.399 593.884 910.288 593.938 910.16C593.993 910.033 594.021 909.896 594.021 909.75C594.021 909.609 593.993 909.474 593.938 909.347C593.884 909.219 593.809 909.107 593.713 909.012C593.617 908.916 593.506 908.841 593.378 908.786C593.25 908.727 593.116 908.697 592.975 908.697H589.796C589.486 908.697 589.194 908.752 588.921 908.861C588.652 908.971 588.41 909.121 588.196 909.312C587.987 909.499 587.811 909.723 587.67 909.982C587.533 910.238 587.444 910.511 587.403 910.803H592.975ZM604.247 915H602.846V906.599H601.444V905.197H604.247V915ZM615.157 915H606.059V912.197C606.059 911.814 606.132 911.454 606.277 911.117C606.428 910.775 606.628 910.479 606.879 910.229C607.134 909.973 607.43 909.773 607.768 909.627C608.109 909.477 608.474 909.401 608.861 909.401H612.361C612.553 909.401 612.733 909.365 612.901 909.292C613.075 909.219 613.223 909.119 613.346 908.991C613.473 908.864 613.574 908.715 613.646 908.547C613.724 908.374 613.763 908.191 613.763 908C613.763 907.809 613.724 907.629 613.646 907.46C613.574 907.287 613.473 907.136 613.346 907.009C613.223 906.881 613.075 906.781 612.901 906.708C612.733 906.635 612.553 906.599 612.361 906.599H606.763V905.197H612.361C612.744 905.197 613.104 905.272 613.441 905.423C613.783 905.569 614.079 905.769 614.33 906.024C614.585 906.275 614.786 906.571 614.932 906.913C615.082 907.255 615.157 907.617 615.157 908C615.157 908.383 615.082 908.745 614.932 909.087C614.786 909.429 614.585 909.727 614.33 909.982C614.079 910.233 613.783 910.434 613.441 910.584C613.104 910.73 612.744 910.803 612.361 910.803H608.861C608.67 910.803 608.488 910.839 608.314 910.912C608.141 910.985 607.991 911.085 607.863 911.213C607.736 911.34 607.633 911.489 607.556 911.657C607.483 911.826 607.446 912.006 607.446 912.197V913.599H615.157V915ZM624.481 910.803H616.784V909.401H624.481V910.803ZM628.146 905.553C628.146 905.699 628.118 905.835 628.063 905.963C628.009 906.086 627.934 906.195 627.838 906.291C627.742 906.387 627.631 906.462 627.503 906.517C627.375 906.571 627.241 906.599 627.1 906.599C626.954 906.599 626.817 906.571 626.689 906.517C626.562 906.462 626.45 906.387 626.354 906.291C626.259 906.195 626.184 906.086 626.129 905.963C626.074 905.835 626.047 905.699 626.047 905.553C626.047 905.411 626.074 905.277 626.129 905.149C626.184 905.022 626.259 904.91 626.354 904.814C626.45 904.719 626.562 904.644 626.689 904.589C626.817 904.53 626.954 904.5 627.1 904.5C627.241 904.5 627.375 904.53 627.503 904.589C627.631 904.644 627.742 904.719 627.838 904.814C627.934 904.91 628.009 905.022 628.063 905.149C628.118 905.277 628.146 905.411 628.146 905.553ZM627.797 915H626.396V907.303H627.797V915ZM631.215 915H629.813V907.303H635.063C635.592 907.303 636.089 907.405 636.554 907.61C637.019 907.811 637.424 908.087 637.771 908.438C638.117 908.784 638.39 909.192 638.591 909.661C638.791 910.126 638.892 910.623 638.892 911.151V915H637.49V911.151C637.49 910.814 637.426 910.497 637.299 910.201C637.171 909.905 636.998 909.647 636.779 909.429C636.561 909.205 636.303 909.03 636.007 908.902C635.715 908.77 635.401 908.702 635.063 908.697H631.215V915ZM648.694 915H644.114C643.586 914.995 643.089 914.893 642.624 914.692C642.159 914.487 641.754 914.212 641.407 913.865C641.065 913.514 640.794 913.106 640.594 912.642C640.393 912.177 640.293 911.68 640.293 911.151C640.293 910.623 640.393 910.126 640.594 909.661C640.794 909.192 641.065 908.784 641.407 908.438C641.754 908.087 642.159 907.811 642.624 907.61C643.089 907.405 643.586 907.303 644.114 907.303H648.694V908.697H644.114C643.777 908.702 643.46 908.77 643.164 908.902C642.872 909.03 642.617 909.205 642.398 909.429C642.18 909.647 642.007 909.905 641.879 910.201C641.756 910.497 641.694 910.814 641.694 911.151C641.694 911.489 641.756 911.805 641.879 912.102C642.007 912.398 642.18 912.658 642.398 912.881C642.617 913.1 642.872 913.275 643.164 913.407C643.46 913.535 643.777 913.599 644.114 913.599H648.694V915ZM659.304 915H657.902V911.151C657.902 910.814 657.839 910.497 657.711 910.201C657.583 909.905 657.41 909.647 657.191 909.429C656.973 909.205 656.715 909.03 656.419 908.902C656.127 908.77 655.813 908.702 655.476 908.697H651.627V915H650.226V904.5H651.627V907.303H655.476C656.004 907.303 656.501 907.405 656.966 907.61C657.431 907.811 657.836 908.087 658.183 908.438C658.529 908.784 658.802 909.192 659.003 909.661C659.203 910.126 659.304 910.623 659.304 911.151V915ZM675.225 908C675.225 908.424 675.136 908.816 674.958 909.176C674.785 909.536 674.55 909.843 674.254 910.099C674.55 910.358 674.785 910.671 674.958 911.035C675.136 911.395 675.225 911.783 675.225 912.197C675.225 912.585 675.149 912.949 674.999 913.291C674.853 913.628 674.653 913.924 674.397 914.18C674.147 914.43 673.851 914.631 673.509 914.781C673.167 914.927 672.805 915 672.422 915H666.119V913.599H672.422C672.613 913.599 672.793 913.562 672.962 913.489C673.135 913.416 673.285 913.316 673.413 913.188C673.541 913.061 673.641 912.913 673.714 912.744C673.787 912.571 673.823 912.389 673.823 912.197C673.823 912.006 673.787 911.826 673.714 911.657C673.641 911.489 673.541 911.34 673.413 911.213C673.285 911.085 673.135 910.985 672.962 910.912C672.793 910.839 672.613 910.803 672.422 910.803H667.883V909.401H672.422C672.613 909.401 672.793 909.365 672.962 909.292C673.135 909.219 673.285 909.119 673.413 908.991C673.541 908.864 673.641 908.715 673.714 908.547C673.787 908.374 673.823 908.191 673.823 908C673.823 907.809 673.787 907.629 673.714 907.46C673.641 907.287 673.541 907.136 673.413 907.009C673.285 906.881 673.135 906.781 672.962 906.708C672.793 906.635 672.613 906.599 672.422 906.599H666.119V905.197H672.422C672.805 905.197 673.167 905.272 673.509 905.423C673.851 905.569 674.147 905.769 674.397 906.024C674.653 906.275 674.853 906.571 674.999 906.913C675.149 907.255 675.225 907.617 675.225 908ZM685.807 908C685.807 908.424 685.718 908.816 685.54 909.176C685.367 909.536 685.132 909.843 684.836 910.099C685.132 910.358 685.367 910.671 685.54 911.035C685.718 911.395 685.807 911.783 685.807 912.197C685.807 912.585 685.731 912.949 685.581 913.291C685.435 913.628 685.235 913.924 684.979 914.18C684.729 914.43 684.433 914.631 684.091 914.781C683.749 914.927 683.387 915 683.004 915H676.701V913.599H683.004C683.195 913.599 683.375 913.562 683.544 913.489C683.717 913.416 683.868 913.316 683.995 913.188C684.123 913.061 684.223 912.913 684.296 912.744C684.369 912.571 684.405 912.389 684.405 912.197C684.405 912.006 684.369 911.826 684.296 911.657C684.223 911.489 684.123 911.34 683.995 911.213C683.868 911.085 683.717 910.985 683.544 910.912C683.375 910.839 683.195 910.803 683.004 910.803H678.465V909.401H683.004C683.195 909.401 683.375 909.365 683.544 909.292C683.717 909.219 683.868 909.119 683.995 908.991C684.123 908.864 684.223 908.715 684.296 908.547C684.369 908.374 684.405 908.191 684.405 908C684.405 907.809 684.369 907.629 684.296 907.46C684.223 907.287 684.123 907.136 683.995 907.009C683.868 906.881 683.717 906.781 683.544 906.708C683.375 906.635 683.195 906.599 683.004 906.599H676.701V905.197H683.004C683.387 905.197 683.749 905.272 684.091 905.423C684.433 905.569 684.729 905.769 684.979 906.024C685.235 906.275 685.435 906.571 685.581 906.913C685.731 907.255 685.807 907.617 685.807 908ZM700.504 908.697H695.254C695.108 908.697 694.971 908.727 694.844 908.786C694.716 908.841 694.604 908.916 694.509 909.012C694.413 909.107 694.338 909.219 694.283 909.347C694.229 909.474 694.201 909.609 694.201 909.75V915H692.8V909.75C692.8 909.408 692.864 909.089 692.991 908.793C693.119 908.497 693.294 908.239 693.518 908.021C693.741 907.797 694.001 907.622 694.297 907.494C694.593 907.367 694.912 907.303 695.254 907.303H700.504V908.697ZM710.71 911.151C710.71 911.68 710.61 912.179 710.409 912.648C710.209 913.113 709.935 913.521 709.589 913.872C709.243 914.218 708.837 914.494 708.372 914.699C707.907 914.9 707.41 915 706.882 915H703.737V913.599H706.882C707.219 913.594 707.534 913.528 707.825 913.4C708.121 913.268 708.379 913.093 708.598 912.874C708.816 912.651 708.99 912.393 709.117 912.102C709.245 911.805 709.309 911.489 709.309 911.151C709.309 910.814 709.245 910.497 709.117 910.201C708.99 909.9 708.816 909.641 708.598 909.422C708.379 909.199 708.121 909.023 707.825 908.896C707.534 908.763 707.219 908.697 706.882 908.697H703.033V917.803H701.632V907.303H706.882C707.41 907.307 707.907 907.412 708.372 907.617C708.837 907.818 709.243 908.093 709.589 908.444C709.935 908.791 710.209 909.196 710.409 909.661C710.61 910.126 710.71 910.623 710.71 911.151ZM713.629 915H712.228V907.303H719.61C720.139 907.303 720.636 907.405 721.101 907.61C721.565 907.811 721.969 908.087 722.311 908.438C722.657 908.784 722.93 909.192 723.131 909.661C723.331 910.126 723.432 910.623 723.432 911.151V915H722.03V911.151C722.03 910.814 721.966 910.497 721.839 910.201C721.711 909.905 721.538 909.647 721.319 909.429C721.101 909.205 720.843 909.03 720.547 908.902C720.255 908.77 719.943 908.702 719.61 908.697H718.53V915H717.129V908.697H713.629V915ZM740.111 915H730.746V905.197H732.147V913.599H740.111V915ZM752.751 908.697C752.751 909.18 752.658 909.636 752.471 910.064C752.288 910.488 752.038 910.86 751.719 911.179C751.404 911.493 751.035 911.742 750.611 911.924C750.188 912.106 749.734 912.197 749.251 912.197H743.625V910.816H749.251C749.543 910.816 749.816 910.762 750.071 910.652C750.326 910.538 750.548 910.386 750.734 910.194C750.926 910.003 751.076 909.78 751.186 909.524C751.295 909.265 751.35 908.989 751.35 908.697C751.35 908.406 751.295 908.132 751.186 907.877C751.076 907.622 750.926 907.401 750.734 907.214C750.548 907.022 750.326 906.872 750.071 906.763C749.816 906.653 749.543 906.599 749.251 906.599H742.839V915H741.438V905.197H749.251C749.734 905.197 750.188 905.291 750.611 905.478C751.035 905.66 751.404 905.91 751.719 906.229C752.038 906.544 752.288 906.913 752.471 907.337C752.658 907.761 752.751 908.214 752.751 908.697ZM755.52 913.995C755.51 914.228 755.474 914.449 755.41 914.658C755.351 914.868 755.285 915.052 755.212 915.212C755.13 915.399 755.036 915.576 754.932 915.745L754.036 915.725C754.068 915.67 754.1 915.606 754.132 915.533C754.159 915.469 754.189 915.392 754.221 915.301C754.253 915.214 754.285 915.114 754.316 915C754.189 914.982 754.07 914.943 753.961 914.884C753.852 914.82 753.756 914.743 753.674 914.651C753.596 914.556 753.535 914.449 753.489 914.33C753.444 914.207 753.421 914.079 753.421 913.947C753.421 913.806 753.448 913.672 753.503 913.544C753.558 913.416 753.633 913.305 753.729 913.209C753.824 913.113 753.934 913.038 754.057 912.983C754.184 912.929 754.321 912.901 754.467 912.901C754.608 912.901 754.743 912.929 754.87 912.983C754.998 913.038 755.109 913.116 755.205 913.216C755.301 913.312 755.376 913.428 755.431 913.564C755.49 913.697 755.52 913.84 755.52 913.995ZM771.769 906.599L764.502 915H762.581L769.848 906.599H761.966V905.197H771.769V906.599ZM780.423 910.803H772.726V909.401H780.423V910.803ZM784.087 905.553C784.087 905.699 784.06 905.835 784.005 905.963C783.95 906.086 783.875 906.195 783.779 906.291C783.684 906.387 783.572 906.462 783.444 906.517C783.317 906.571 783.182 906.599 783.041 906.599C782.895 906.599 782.758 906.571 782.631 906.517C782.503 906.462 782.392 906.387 782.296 906.291C782.2 906.195 782.125 906.086 782.07 905.963C782.016 905.835 781.988 905.699 781.988 905.553C781.988 905.411 782.016 905.277 782.07 905.149C782.125 905.022 782.2 904.91 782.296 904.814C782.392 904.719 782.503 904.644 782.631 904.589C782.758 904.53 782.895 904.5 783.041 904.5C783.182 904.5 783.317 904.53 783.444 904.589C783.572 904.644 783.684 904.719 783.779 904.814C783.875 904.91 783.95 905.022 784.005 905.149C784.06 905.277 784.087 905.411 784.087 905.553ZM783.738 915H782.337V907.303H783.738V915ZM787.156 915H785.755V907.303H791.005C791.534 907.303 792.03 907.405 792.495 907.61C792.96 907.811 793.366 908.087 793.712 908.438C794.058 908.784 794.332 909.192 794.532 909.661C794.733 910.126 794.833 910.623 794.833 911.151V915H793.432V911.151C793.432 910.814 793.368 910.497 793.24 910.201C793.113 909.905 792.939 909.647 792.721 909.429C792.502 909.205 792.244 909.03 791.948 908.902C791.657 908.77 791.342 908.702 791.005 908.697H787.156V915ZM804.636 915H800.056C799.527 914.995 799.03 914.893 798.565 914.692C798.101 914.487 797.695 914.212 797.349 913.865C797.007 913.514 796.736 913.106 796.535 912.642C796.335 912.177 796.234 911.68 796.234 911.151C796.234 910.623 796.335 910.126 796.535 909.661C796.736 909.192 797.007 908.784 797.349 908.438C797.695 908.087 798.101 907.811 798.565 907.61C799.03 907.405 799.527 907.303 800.056 907.303H804.636V908.697H800.056C799.718 908.702 799.402 908.77 799.105 908.902C798.814 909.03 798.559 909.205 798.34 909.429C798.121 909.647 797.948 909.905 797.82 910.201C797.697 910.497 797.636 910.814 797.636 911.151C797.636 911.489 797.697 911.805 797.82 912.102C797.948 912.398 798.121 912.658 798.34 912.881C798.559 913.1 798.814 913.275 799.105 913.407C799.402 913.535 799.718 913.599 800.056 913.599H804.636V915ZM815.245 915H813.844V911.151C813.844 910.814 813.78 910.497 813.652 910.201C813.525 909.905 813.352 909.647 813.133 909.429C812.914 909.205 812.657 909.03 812.36 908.902C812.069 908.77 811.754 908.702 811.417 908.697H807.568V915H806.167V904.5H807.568V907.303H811.417C811.946 907.303 812.442 907.405 812.907 907.61C813.372 907.811 813.778 908.087 814.124 908.438C814.47 908.784 814.744 909.192 814.944 909.661C815.145 910.126 815.245 910.623 815.245 911.151V915ZM831.166 908C831.166 908.424 831.077 908.816 830.899 909.176C830.726 909.536 830.492 909.843 830.195 910.099C830.492 910.358 830.726 910.671 830.899 911.035C831.077 911.395 831.166 911.783 831.166 912.197C831.166 912.585 831.091 912.949 830.94 913.291C830.795 913.628 830.594 913.924 830.339 914.18C830.088 914.43 829.792 914.631 829.45 914.781C829.108 914.927 828.746 915 828.363 915H822.061V913.599H828.363C828.555 913.599 828.735 913.562 828.903 913.489C829.076 913.416 829.227 913.316 829.354 913.188C829.482 913.061 829.582 912.913 829.655 912.744C829.728 912.571 829.765 912.389 829.765 912.197C829.765 912.006 829.728 911.826 829.655 911.657C829.582 911.489 829.482 911.34 829.354 911.213C829.227 911.085 829.076 910.985 828.903 910.912C828.735 910.839 828.555 910.803 828.363 910.803H823.824V909.401H828.363C828.555 909.401 828.735 909.365 828.903 909.292C829.076 909.219 829.227 909.119 829.354 908.991C829.482 908.864 829.582 908.715 829.655 908.547C829.728 908.374 829.765 908.191 829.765 908C829.765 907.809 829.728 907.629 829.655 907.46C829.582 907.287 829.482 907.136 829.354 907.009C829.227 906.881 829.076 906.781 828.903 906.708C828.735 906.635 828.555 906.599 828.363 906.599H822.061V905.197H828.363C828.746 905.197 829.108 905.272 829.45 905.423C829.792 905.569 830.088 905.769 830.339 906.024C830.594 906.275 830.795 906.571 830.94 906.913C831.091 907.255 831.166 907.617 831.166 908ZM841.748 908C841.748 908.424 841.659 908.816 841.481 909.176C841.308 909.536 841.074 909.843 840.777 910.099C841.074 910.358 841.308 910.671 841.481 911.035C841.659 911.395 841.748 911.783 841.748 912.197C841.748 912.585 841.673 912.949 841.522 913.291C841.377 913.628 841.176 913.924 840.921 914.18C840.67 914.43 840.374 914.631 840.032 914.781C839.69 914.927 839.328 915 838.945 915H832.643V913.599H838.945C839.137 913.599 839.317 913.562 839.485 913.489C839.659 913.416 839.809 913.316 839.937 913.188C840.064 913.061 840.164 912.913 840.237 912.744C840.31 912.571 840.347 912.389 840.347 912.197C840.347 912.006 840.31 911.826 840.237 911.657C840.164 911.489 840.064 911.34 839.937 911.213C839.809 911.085 839.659 910.985 839.485 910.912C839.317 910.839 839.137 910.803 838.945 910.803H834.406V909.401H838.945C839.137 909.401 839.317 909.365 839.485 909.292C839.659 909.219 839.809 909.119 839.937 908.991C840.064 908.864 840.164 908.715 840.237 908.547C840.31 908.374 840.347 908.191 840.347 908C840.347 907.809 840.31 907.629 840.237 907.46C840.164 907.287 840.064 907.136 839.937 907.009C839.809 906.881 839.659 906.781 839.485 906.708C839.317 906.635 839.137 906.599 838.945 906.599H832.643V905.197H838.945C839.328 905.197 839.69 905.272 840.032 905.423C840.374 905.569 840.67 905.769 840.921 906.024C841.176 906.275 841.377 906.571 841.522 906.913C841.673 907.255 841.748 907.617 841.748 908ZM856.445 908.697H851.195C851.049 908.697 850.913 908.727 850.785 908.786C850.658 908.841 850.546 908.916 850.45 909.012C850.354 909.107 850.279 909.219 850.225 909.347C850.17 909.474 850.143 909.609 850.143 909.75V915H848.741V909.75C848.741 909.408 848.805 909.089 848.933 908.793C849.06 908.497 849.236 908.239 849.459 908.021C849.682 907.797 849.942 907.622 850.238 907.494C850.535 907.367 850.854 907.303 851.195 907.303H856.445V908.697ZM866.651 911.151C866.651 911.68 866.551 912.179 866.351 912.648C866.15 913.113 865.877 913.521 865.53 913.872C865.184 914.218 864.778 914.494 864.313 914.699C863.849 914.9 863.352 915 862.823 915H859.679V913.599H862.823C863.16 913.594 863.475 913.528 863.767 913.4C864.063 913.268 864.32 913.093 864.539 912.874C864.758 912.651 864.931 912.393 865.059 912.102C865.186 911.805 865.25 911.489 865.25 911.151C865.25 910.814 865.186 910.497 865.059 910.201C864.931 909.9 864.758 909.641 864.539 909.422C864.32 909.199 864.063 909.023 863.767 908.896C863.475 908.763 863.16 908.697 862.823 908.697H858.975V917.803H857.573V907.303H862.823C863.352 907.307 863.849 907.412 864.313 907.617C864.778 907.818 865.184 908.093 865.53 908.444C865.877 908.791 866.15 909.196 866.351 909.661C866.551 910.126 866.651 910.623 866.651 911.151ZM869.57 915H868.169V907.303H875.552C876.08 907.303 876.577 907.405 877.042 907.61C877.507 907.811 877.91 908.087 878.252 908.438C878.598 908.784 878.872 909.192 879.072 909.661C879.273 910.126 879.373 910.623 879.373 911.151V915H877.972V911.151C877.972 910.814 877.908 910.497 877.78 910.201C877.653 909.905 877.479 909.647 877.261 909.429C877.042 909.205 876.785 909.03 876.488 908.902C876.197 908.77 875.884 908.702 875.552 908.697H874.472V915H873.07V908.697H869.57V915ZM896.825 915H886.688V905.197H896.825V906.599H888.089V913.599H896.825V915ZM895.636 910.803H888.786V909.401H895.636V910.803ZM909.882 908.697C909.882 909.18 909.788 909.636 909.602 910.064C909.419 910.488 909.169 910.86 908.85 911.179C908.535 911.493 908.166 911.742 907.742 911.924C907.318 912.106 906.865 912.197 906.382 912.197H900.756V910.816H906.382C906.674 910.816 906.947 910.762 907.202 910.652C907.457 910.538 907.678 910.386 907.865 910.194C908.057 910.003 908.207 909.78 908.316 909.524C908.426 909.265 908.48 908.989 908.48 908.697C908.48 908.406 908.426 908.132 908.316 907.877C908.207 907.622 908.057 907.401 907.865 907.214C907.678 907.022 907.457 906.872 907.202 906.763C906.947 906.653 906.674 906.599 906.382 906.599H899.97V915H898.568V905.197H906.382C906.865 905.197 907.318 905.291 907.742 905.478C908.166 905.66 908.535 905.91 908.85 906.229C909.169 906.544 909.419 906.913 909.602 907.337C909.788 907.761 909.882 908.214 909.882 908.697ZM912.65 913.995C912.641 914.228 912.605 914.449 912.541 914.658C912.482 914.868 912.416 915.052 912.343 915.212C912.261 915.399 912.167 915.576 912.062 915.745L911.167 915.725C911.199 915.67 911.231 915.606 911.263 915.533C911.29 915.469 911.32 915.392 911.352 915.301C911.383 915.214 911.415 915.114 911.447 915C911.32 914.982 911.201 914.943 911.092 914.884C910.982 914.82 910.887 914.743 910.805 914.651C910.727 914.556 910.666 914.449 910.62 914.33C910.575 914.207 910.552 914.079 910.552 913.947C910.552 913.806 910.579 913.672 910.634 913.544C910.688 913.416 910.764 913.305 910.859 913.209C910.955 913.113 911.064 913.038 911.188 912.983C911.315 912.929 911.452 912.901 911.598 912.901C911.739 912.901 911.873 912.929 912.001 912.983C912.129 913.038 912.24 913.116 912.336 913.216C912.432 913.312 912.507 913.428 912.562 913.564C912.621 913.697 912.65 913.84 912.65 913.995ZM928.482 915H921.482C921.141 915 920.822 914.936 920.525 914.809C920.229 914.681 919.969 914.508 919.746 914.289C919.523 914.066 919.347 913.806 919.22 913.51C919.092 913.209 919.028 912.89 919.028 912.553C919.028 912.211 919.092 911.892 919.22 911.596C919.347 911.299 919.523 911.04 919.746 910.816C919.969 910.593 920.229 910.418 920.525 910.29C920.822 910.162 921.141 910.099 921.482 910.099H926.377V911.5H921.482C921.337 911.5 921.2 911.53 921.072 911.589C920.945 911.644 920.833 911.719 920.737 911.814C920.642 911.91 920.566 912.022 920.512 912.149C920.457 912.277 920.43 912.411 920.43 912.553C920.43 912.699 920.457 912.835 920.512 912.963C920.566 913.086 920.642 913.195 920.737 913.291C920.833 913.387 920.945 913.462 921.072 913.517C921.2 913.571 921.337 913.599 921.482 913.599H927.081V909.75C927.081 909.609 927.051 909.474 926.992 909.347C926.938 909.219 926.862 909.107 926.767 909.012C926.671 908.916 926.559 908.841 926.432 908.786C926.304 908.727 926.17 908.697 926.028 908.697H920.43V907.303H926.028C926.37 907.303 926.689 907.367 926.985 907.494C927.282 907.622 927.541 907.797 927.765 908.021C927.988 908.239 928.163 908.497 928.291 908.793C928.419 909.089 928.482 909.408 928.482 909.75V915ZM931.846 915H930.444V907.303H935.694C936.223 907.303 936.72 907.405 937.185 907.61C937.649 907.811 938.055 908.087 938.401 908.438C938.748 908.784 939.021 909.192 939.222 909.661C939.422 910.126 939.522 910.623 939.522 911.151V915H938.121V911.151C938.121 910.814 938.057 910.497 937.93 910.201C937.802 909.905 937.629 909.647 937.41 909.429C937.191 909.205 936.934 909.03 936.638 908.902C936.346 908.77 936.032 908.702 935.694 908.697H931.846V915ZM949.995 915H948.594V908.697H944.745C944.408 908.697 944.091 908.763 943.795 908.896C943.503 909.023 943.248 909.199 943.029 909.422C942.811 909.641 942.637 909.9 942.51 910.201C942.387 910.497 942.325 910.814 942.325 911.151C942.325 911.489 942.387 911.805 942.51 912.102C942.637 912.393 942.811 912.651 943.029 912.874C943.248 913.093 943.503 913.268 943.795 913.4C944.091 913.528 944.408 913.594 944.745 913.599H947.896V915H944.745C944.216 915 943.72 914.9 943.255 914.699C942.79 914.494 942.384 914.218 942.038 913.872C941.696 913.521 941.425 913.113 941.225 912.648C941.024 912.179 940.924 911.68 940.924 911.151C940.924 910.623 941.024 910.126 941.225 909.661C941.425 909.196 941.696 908.791 942.038 908.444C942.384 908.093 942.79 907.818 943.255 907.617C943.72 907.412 944.216 907.307 944.745 907.303H948.594V904.5H949.995V915ZM966.442 906.599L959.176 915H957.255L964.521 906.599H956.64V905.197H966.442V906.599ZM975.097 910.803H967.399V909.401H975.097V910.803ZM978.761 905.553C978.761 905.699 978.733 905.835 978.679 905.963C978.624 906.086 978.549 906.195 978.453 906.291C978.357 906.387 978.246 906.462 978.118 906.517C977.991 906.571 977.856 906.599 977.715 906.599C977.569 906.599 977.432 906.571 977.305 906.517C977.177 906.462 977.065 906.387 976.97 906.291C976.874 906.195 976.799 906.086 976.744 905.963C976.689 905.835 976.662 905.699 976.662 905.553C976.662 905.411 976.689 905.277 976.744 905.149C976.799 905.022 976.874 904.91 976.97 904.814C977.065 904.719 977.177 904.644 977.305 904.589C977.432 904.53 977.569 904.5 977.715 904.5C977.856 904.5 977.991 904.53 978.118 904.589C978.246 904.644 978.357 904.719 978.453 904.814C978.549 904.91 978.624 905.022 978.679 905.149C978.733 905.277 978.761 905.411 978.761 905.553ZM978.412 915H977.011V907.303H978.412V915ZM981.83 915H980.429V907.303H985.679C986.207 907.303 986.704 907.405 987.169 907.61C987.634 907.811 988.039 908.087 988.386 908.438C988.732 908.784 989.006 909.192 989.206 909.661C989.407 910.126 989.507 910.623 989.507 911.151V915H988.105V911.151C988.105 910.814 988.042 910.497 987.914 910.201C987.786 909.905 987.613 909.647 987.395 909.429C987.176 909.205 986.918 909.03 986.622 908.902C986.33 908.77 986.016 908.702 985.679 908.697H981.83V915ZM999.31 915H994.729C994.201 914.995 993.704 914.893 993.239 914.692C992.774 914.487 992.369 914.212 992.022 913.865C991.681 913.514 991.41 913.106 991.209 912.642C991.008 912.177 990.908 911.68 990.908 911.151C990.908 910.623 991.008 910.126 991.209 909.661C991.41 909.192 991.681 908.784 992.022 908.438C992.369 908.087 992.774 907.811 993.239 907.61C993.704 907.405 994.201 907.303 994.729 907.303H999.31V908.697H994.729C994.392 908.702 994.076 908.77 993.779 908.902C993.488 909.03 993.232 909.205 993.014 909.429C992.795 909.647 992.622 909.905 992.494 910.201C992.371 910.497 992.31 910.814 992.31 911.151C992.31 911.489 992.371 911.805 992.494 912.102C992.622 912.398 992.795 912.658 993.014 912.881C993.232 913.1 993.488 913.275 993.779 913.407C994.076 913.535 994.392 913.599 994.729 913.599H999.31V915ZM1009.92 915H1008.52V911.151C1008.52 910.814 1008.45 910.497 1008.33 910.201C1008.2 909.905 1008.03 909.647 1007.81 909.429C1007.59 909.205 1007.33 909.03 1007.03 908.902C1006.74 908.77 1006.43 908.702 1006.09 908.697H1002.24V915H1000.84V904.5H1002.24V907.303H1006.09C1006.62 907.303 1007.12 907.405 1007.58 907.61C1008.05 907.811 1008.45 908.087 1008.8 908.438C1009.14 908.784 1009.42 909.192 1009.62 909.661C1009.82 910.126 1009.92 910.623 1009.92 911.151V915ZM1016.61 905.197H1018.01V908.697C1018.01 908.889 1018.05 909.071 1018.12 909.244C1018.19 909.413 1018.3 909.561 1018.42 909.688C1018.55 909.816 1018.7 909.916 1018.87 909.989C1019.04 910.062 1019.22 910.099 1019.41 910.099H1025.01V905.197H1026.41V915H1025.01V911.5H1019.41C1019.03 911.5 1018.66 911.427 1018.32 911.281C1017.98 911.131 1017.69 910.93 1017.43 910.68C1017.18 910.424 1016.98 910.128 1016.83 909.791C1016.68 909.449 1016.61 909.085 1016.61 908.697V905.197ZM1037.61 911.849C1037.61 912.282 1037.53 912.689 1037.37 913.072C1037.2 913.455 1036.98 913.79 1036.7 914.077C1036.41 914.36 1036.08 914.585 1035.7 914.754C1035.31 914.918 1034.9 915 1034.47 915H1028.49V913.599H1034.47C1034.71 913.599 1034.93 913.553 1035.14 913.462C1035.36 913.371 1035.54 913.248 1035.7 913.093C1035.86 912.933 1035.99 912.746 1036.08 912.532C1036.17 912.318 1036.22 912.09 1036.22 911.849C1036.22 911.607 1036.17 911.382 1036.08 911.172C1035.99 910.958 1035.86 910.771 1035.7 910.611C1035.54 910.452 1035.36 910.326 1035.14 910.235C1034.93 910.144 1034.71 910.099 1034.47 910.099H1028.5V905.197H1036.91V906.599H1029.9V908.697H1034.47C1034.9 908.697 1035.31 908.782 1035.7 908.95C1036.08 909.114 1036.41 909.34 1036.7 909.627C1036.98 909.91 1037.2 910.242 1037.37 910.625C1037.53 911.008 1037.61 911.416 1037.61 911.849ZM1052.04 908.697H1046.79C1046.64 908.697 1046.5 908.727 1046.38 908.786C1046.25 908.841 1046.14 908.916 1046.04 909.012C1045.94 909.107 1045.87 909.219 1045.81 909.347C1045.76 909.474 1045.73 909.609 1045.73 909.75V915H1044.33V909.75C1044.33 909.408 1044.39 909.089 1044.52 908.793C1044.65 908.497 1044.83 908.239 1045.05 908.021C1045.27 907.797 1045.53 907.622 1045.83 907.494C1046.12 907.367 1046.44 907.303 1046.79 907.303H1052.04V908.697ZM1062.24 911.151C1062.24 911.68 1062.14 912.179 1061.94 912.648C1061.74 913.113 1061.47 913.521 1061.12 913.872C1060.77 914.218 1060.37 914.494 1059.9 914.699C1059.44 914.9 1058.94 915 1058.41 915H1055.27V913.599H1058.41C1058.75 913.594 1059.06 913.528 1059.36 913.4C1059.65 913.268 1059.91 913.093 1060.13 912.874C1060.35 912.651 1060.52 912.393 1060.65 912.102C1060.78 911.805 1060.84 911.489 1060.84 911.151C1060.84 910.814 1060.78 910.497 1060.65 910.201C1060.52 909.9 1060.35 909.641 1060.13 909.422C1059.91 909.199 1059.65 909.023 1059.36 908.896C1059.06 908.763 1058.75 908.697 1058.41 908.697H1054.56V917.803H1053.16V907.303H1058.41C1058.94 907.307 1059.44 907.412 1059.9 907.617C1060.37 907.818 1060.77 908.093 1061.12 908.444C1061.47 908.791 1061.74 909.196 1061.94 909.661C1062.14 910.126 1062.24 910.623 1062.24 911.151ZM1065.16 915H1063.76V907.303H1071.14C1071.67 907.303 1072.17 907.405 1072.63 907.61C1073.1 907.811 1073.5 908.087 1073.84 908.438C1074.19 908.784 1074.46 909.192 1074.66 909.661C1074.86 910.126 1074.96 910.623 1074.96 911.151V915H1073.56V911.151C1073.56 910.814 1073.5 910.497 1073.37 910.201C1073.24 909.905 1073.07 909.647 1072.85 909.429C1072.63 909.205 1072.37 909.03 1072.08 908.902C1071.79 908.77 1071.47 908.702 1071.14 908.697H1070.06V915H1068.66V908.697H1065.16V915Z" fill="#252525"/>
<g filter="url(#filter4_i_433_342)">
<path d="M1375 118.5C1375 111.596 1380.6 106 1387.5 106V106C1394.4 106 1400 111.596 1400 118.5V118.5C1400 125.404 1394.4 131 1387.5 131V131C1380.6 131 1375 125.404 1375 118.5V118.5Z" fill="#D9D9D9"/>
</g>
<path d="M1387.5 130C1381.15 130 1376 124.851 1376 118.5C1376 112.149 1381.15 107 1387.5 107C1393.85 107 1399 112.149 1399 118.5C1399 124.851 1393.85 130 1387.5 130Z" stroke="#252525" stroke-width="2"/>
<g filter="url(#filter5_i_433_342)">
<path d="M650 525.5C650 488.221 680.221 458 717.5 458V458C754.779 458 785 488.221 785 525.5V525.5C785 562.779 754.779 593 717.5 593V593C680.221 593 650 562.779 650 525.5V525.5Z" fill="#F7F4ED"/>
</g>
<path d="M717.5 592C680.773 592 651 562.227 651 525.5C651 488.773 680.773 459 717.5 459C754.227 459 784 488.773 784 525.5C784 562.227 754.227 592 717.5 592Z" stroke="#252525" stroke-width="2"/>
<path d="M609.555 242.391L591.883 276H586.398L568.75 242.391H574.211L589.141 270.82L604.07 242.391H609.555ZM619.703 243.609C619.703 244.109 619.609 244.578 619.422 245.016C619.234 245.438 618.977 245.812 618.648 246.141C618.32 246.469 617.938 246.727 617.5 246.914C617.062 247.102 616.602 247.195 616.117 247.195C615.617 247.195 615.148 247.102 614.711 246.914C614.273 246.727 613.891 246.469 613.562 246.141C613.234 245.812 612.977 245.438 612.789 245.016C612.602 244.578 612.508 244.109 612.508 243.609C612.508 243.125 612.602 242.664 612.789 242.227C612.977 241.789 613.234 241.406 613.562 241.078C613.891 240.75 614.273 240.492 614.711 240.305C615.148 240.102 615.617 240 616.117 240C616.602 240 617.062 240.102 617.5 240.305C617.938 240.492 618.32 240.75 618.648 241.078C618.977 241.406 619.234 241.789 619.422 242.227C619.609 242.664 619.703 243.125 619.703 243.609ZM618.508 276H613.703V249.609H618.508V276ZM630.227 276H625.422V249.609H643.422C645.234 249.609 646.938 249.961 648.531 250.664C650.125 251.352 651.516 252.297 652.703 253.5C653.891 254.688 654.828 256.086 655.516 257.695C656.203 259.289 656.547 260.992 656.547 262.805V276H651.742V262.805C651.742 261.648 651.523 260.562 651.086 259.547C650.648 258.531 650.055 257.648 649.305 256.898C648.555 256.133 647.672 255.531 646.656 255.094C645.656 254.641 644.578 254.406 643.422 254.391H630.227V276ZM693.695 277.195C693.695 278.367 693.477 279.461 693.039 280.477C692.602 281.492 692 282.383 691.234 283.148C690.484 283.914 689.594 284.516 688.562 284.953C687.547 285.391 686.461 285.609 685.305 285.609H666.109V280.805H685.305C685.789 280.805 686.25 280.711 686.688 280.523C687.125 280.336 687.508 280.078 687.836 279.75C688.164 279.422 688.422 279.039 688.609 278.602C688.797 278.164 688.891 277.695 688.891 277.195V276H675.695C673.883 276 672.18 275.656 670.586 274.969C668.992 274.266 667.602 273.32 666.414 272.133C665.242 270.93 664.312 269.531 663.625 267.938C662.938 266.328 662.594 264.617 662.594 262.805V249.609H667.398V262.805C667.398 263.961 667.609 265.047 668.031 266.062C668.469 267.062 669.062 267.945 669.812 268.711C670.562 269.461 671.438 270.062 672.438 270.516C673.453 270.953 674.539 271.18 675.695 271.195H688.891V249.609H693.695V277.195ZM710.031 276H708.836C707.664 276 706.57 275.781 705.555 275.344C704.539 274.906 703.648 274.312 702.883 273.562C702.117 272.797 701.516 271.906 701.078 270.891C700.641 269.859 700.422 268.766 700.422 267.609V240H705.227V267.609C705.227 268.109 705.32 268.578 705.508 269.016C705.695 269.438 705.953 269.812 706.281 270.141C706.609 270.469 706.992 270.727 707.43 270.914C707.867 271.102 708.336 271.195 708.836 271.195H710.031V276ZM763.094 276H758.289V262.805C758.289 261.648 758.07 260.562 757.633 259.547C757.195 258.531 756.602 257.648 755.852 256.898C755.102 256.133 754.219 255.531 753.203 255.094C752.203 254.641 751.125 254.406 749.969 254.391H736.773V276H731.969V240H736.773V249.609H749.969C751.781 249.609 753.484 249.961 755.078 250.664C756.672 251.352 758.062 252.297 759.25 253.5C760.438 254.688 761.375 256.086 762.062 257.695C762.75 259.289 763.094 260.992 763.094 262.805V276ZM801.484 262.805C801.484 264.617 801.141 266.32 800.453 267.914C799.766 269.508 798.828 270.906 797.641 272.109C796.469 273.297 795.086 274.242 793.492 274.945C791.898 275.633 790.195 275.984 788.383 276H781C779.188 275.984 777.484 275.633 775.891 274.945C774.297 274.242 772.906 273.297 771.719 272.109C770.547 270.906 769.617 269.508 768.93 267.914C768.242 266.32 767.898 264.617 767.898 262.805C767.898 260.992 768.242 259.289 768.93 257.695C769.617 256.086 770.547 254.688 771.719 253.5C772.906 252.297 774.297 251.352 775.891 250.664C777.484 249.961 779.188 249.609 781 249.609H788.383C789.586 249.609 790.75 249.766 791.875 250.078C793 250.391 794.047 250.836 795.016 251.414C795.984 251.992 796.867 252.688 797.664 253.5C798.461 254.297 799.141 255.188 799.703 256.172C800.266 257.141 800.703 258.188 801.016 259.312C801.328 260.438 801.484 261.602 801.484 262.805ZM796.703 262.805C796.703 261.648 796.484 260.562 796.047 259.547C795.609 258.531 795.016 257.648 794.266 256.898C793.516 256.133 792.633 255.531 791.617 255.094C790.617 254.641 789.539 254.406 788.383 254.391H781C779.844 254.406 778.758 254.641 777.742 255.094C776.742 255.531 775.867 256.133 775.117 256.898C774.367 257.648 773.773 258.531 773.336 259.547C772.914 260.562 772.703 261.648 772.703 262.805C772.703 263.961 772.914 265.047 773.336 266.062C773.773 267.078 774.367 267.969 775.117 268.734C775.867 269.484 776.742 270.086 777.742 270.539C778.758 270.977 779.844 271.195 781 271.195H788.383C789.539 271.195 790.617 270.977 791.617 270.539C792.633 270.086 793.516 269.484 794.266 268.734C795.016 267.969 795.609 267.078 796.047 266.062C796.484 265.047 796.703 263.961 796.703 262.805ZM837.414 276H819.414C817.602 276 815.898 275.656 814.305 274.969C812.711 274.266 811.32 273.32 810.133 272.133C808.961 270.93 808.031 269.531 807.344 267.938C806.656 266.328 806.312 264.617 806.312 262.805V249.609H811.117V262.805C811.117 263.961 811.328 265.047 811.75 266.062C812.188 267.062 812.781 267.945 813.531 268.711C814.281 269.461 815.156 270.062 816.156 270.516C817.172 270.953 818.258 271.18 819.414 271.195H832.609V249.609H837.414V276ZM870.555 254.391H852.555C852.055 254.391 851.586 254.492 851.148 254.695C850.711 254.883 850.328 255.141 850 255.469C849.672 255.797 849.414 256.18 849.227 256.617C849.039 257.055 848.945 257.516 848.945 258V276H844.141V258C844.141 256.828 844.359 255.734 844.797 254.719C845.234 253.703 845.836 252.82 846.602 252.07C847.367 251.305 848.258 250.703 849.273 250.266C850.289 249.828 851.383 249.609 852.555 249.609H870.555V254.391Z" fill="#252525"/>
<path d="M697.681 531H695.879V524.698C695.879 524.077 695.762 523.494 695.527 522.949C695.293 522.404 694.971 521.93 694.561 521.525C694.156 521.115 693.679 520.793 693.128 520.559C692.583 520.318 692 520.198 691.379 520.198H690.412V531H688.61V518.396H691.379C691.953 518.396 692.504 518.473 693.031 518.625C693.564 518.771 694.062 518.979 694.525 519.249C694.988 519.519 695.41 519.841 695.791 520.216C696.172 520.591 696.503 521.007 696.784 521.464C697.06 521.007 697.388 520.591 697.769 520.216C698.149 519.841 698.571 519.519 699.034 519.249C699.497 518.979 699.992 518.771 700.52 518.625C701.053 518.473 701.606 518.396 702.181 518.396H704.958V531H703.156V520.198H702.181C701.56 520.198 700.977 520.318 700.432 520.559C699.887 520.793 699.409 521.115 698.999 521.525C698.595 521.93 698.272 522.404 698.032 522.949C697.798 523.494 697.681 524.077 697.681 524.698V531ZM719.231 524.25C719.231 524.689 719.149 525.1 718.985 525.48C718.821 525.861 718.596 526.195 718.309 526.482C718.027 526.764 717.693 526.986 717.307 527.15C716.926 527.314 716.519 527.396 716.085 527.396H709.186C709.314 527.66 709.476 527.903 709.669 528.126C709.862 528.349 710.079 528.539 710.319 528.697C710.56 528.855 710.82 528.979 711.102 529.066C711.389 529.154 711.688 529.198 711.998 529.198H717.887V531H711.998C711.318 530.994 710.68 530.862 710.082 530.604C709.484 530.341 708.963 529.986 708.518 529.541C708.078 529.09 707.729 528.565 707.472 527.968C707.214 527.37 707.085 526.731 707.085 526.052C707.085 525.372 707.214 524.733 707.472 524.136C707.729 523.538 708.078 523.017 708.518 522.571C708.963 522.12 709.484 521.766 710.082 521.508C710.68 521.244 711.318 521.109 711.998 521.104H716.085C716.519 521.104 716.926 521.186 717.307 521.35C717.693 521.514 718.027 521.739 718.309 522.026C718.596 522.308 718.821 522.639 718.985 523.02C719.149 523.4 719.231 523.811 719.231 524.25ZM716.085 525.604C716.267 525.604 716.439 525.568 716.604 525.498C716.768 525.428 716.911 525.331 717.034 525.208C717.157 525.085 717.254 524.941 717.324 524.777C717.395 524.613 717.43 524.438 717.43 524.25C717.43 524.068 717.395 523.896 717.324 523.731C717.254 523.567 717.157 523.424 717.034 523.301C716.911 523.178 716.768 523.081 716.604 523.011C716.439 522.935 716.267 522.896 716.085 522.896H711.998C711.6 522.896 711.225 522.967 710.873 523.107C710.527 523.248 710.217 523.441 709.941 523.688C709.672 523.928 709.446 524.215 709.265 524.549C709.089 524.877 708.975 525.229 708.922 525.604H716.085ZM722.8 531H720.998V521.104H727.748C728.428 521.104 729.066 521.235 729.664 521.499C730.262 521.757 730.783 522.111 731.229 522.562C731.674 523.008 732.025 523.532 732.283 524.136C732.541 524.733 732.67 525.372 732.67 526.052V531H730.868V526.052C730.868 525.618 730.786 525.211 730.622 524.83C730.458 524.449 730.235 524.118 729.954 523.837C729.673 523.55 729.342 523.324 728.961 523.16C728.586 522.99 728.182 522.902 727.748 522.896H722.8V531ZM746.601 531H739.851C739.171 531 738.532 530.871 737.935 530.613C737.337 530.35 736.815 529.995 736.37 529.55C735.931 529.099 735.582 528.574 735.324 527.977C735.066 527.373 734.938 526.731 734.938 526.052V521.104H736.739V526.052C736.739 526.485 736.818 526.893 736.977 527.273C737.141 527.648 737.363 527.979 737.645 528.267C737.926 528.548 738.254 528.773 738.629 528.943C739.01 529.107 739.417 529.192 739.851 529.198H744.799V521.104H746.601V531Z" fill="#252525"/>
<g filter="url(#filter6_i_433_342)">
<path d="M751.654 437.855C755.642 438.457 757.48 440.316 757.987 444.254C757.989 444.284 757.992 444.314 757.994 444.344C758.017 444.703 757.936 445.167 758.423 445.174C758.844 445.182 758.867 444.871 758.857 444.56C758.852 444.464 758.847 444.369 758.847 444.281C758.897 440.574 755.599 437.138 751.77 437.01C751.481 437.052 750.882 436.814 750.847 437.449C750.822 437.878 751.323 437.807 751.654 437.855Z" fill="#252525"/>
<path d="M752.436 438.936C752.052 438.891 751.545 438.713 751.455 439.234C751.36 439.781 751.924 439.726 752.288 439.806C754.75 440.346 755.608 441.224 756.012 443.619C756.029 443.722 756.032 443.84 756.042 443.953C756.064 444.231 756.13 444.487 756.561 444.422C756.782 444.389 756.854 444.259 756.877 444.103C756.9 443.942 756.867 443.754 756.885 443.616C756.905 441.319 754.896 439.224 752.436 438.936Z" fill="#252525"/>
<path d="M752.664 440.817C752.408 440.822 752.155 440.85 752.062 441.118C751.922 441.517 752.218 441.615 752.521 441.663C753.532 441.821 754.064 442.405 754.164 443.393C754.176 443.519 754.224 443.634 754.297 443.717C754.377 443.81 754.49 443.865 754.63 443.847C754.713 443.837 754.781 443.812 754.831 443.777C755.007 443.659 755.027 443.416 755.019 443.183C755.034 442.071 753.755 440.79 752.664 440.817Z" fill="#252525"/>
<path d="M757.769 448.578C757.273 448.184 756.738 447.833 756.217 447.472C755.174 446.752 754.218 446.697 753.438 447.853C752.999 448.503 752.387 448.53 751.748 448.247C749.982 447.462 748.618 446.253 747.82 444.492C747.695 444.216 747.617 443.95 747.602 443.697C747.575 443.235 747.765 442.819 748.299 442.465C748.736 442.174 749.177 441.831 749.142 441.194C749.097 440.363 747.043 437.592 746.23 437.301C745.894 437.18 745.561 437.188 745.217 437.301C743.316 437.925 742.529 439.46 743.284 441.276C743.703 442.285 744.182 443.235 744.716 444.131C747.061 448.049 750.511 450.896 754.948 452.769C755.259 452.9 755.605 452.952 755.78 453C757.022 453.013 758.476 451.839 758.895 450.675C759.302 449.559 758.446 449.112 757.769 448.578Z" fill="#252525"/>
</g>
<g clip-path="url(#clip0_433_342)" filter="url(#filter7_i_433_342)">
<path d="M759 603.512H752.047L753.879 597.413L752.337 597L750.382 603.512H743V605.413H759V603.512Z" fill="#252525"/>
<path d="M756.817 614L758.204 606.147H743.795L745.257 614H756.817Z" fill="#252525"/>
</g>
<g filter="url(#filter8_i_433_342)">
<path d="M683 434C685.213 434 687 435.793 687 438.014C687 440.235 685.213 442.028 683 442.028C680.787 442.028 679 440.235 679 438.014C679 435.793 680.787 434 683 434ZM683 453C679.667 453 676.72 451.287 675 448.692C675.04 446.029 680.333 444.57 683 444.57C685.653 444.57 690.96 446.029 691 448.692C689.28 451.287 686.333 453 683 453Z" fill="#252525"/>
</g>
<g clip-path="url(#clip1_433_342)" filter="url(#filter9_i_433_342)">
<path d="M683.499 598C678.806 598 675 601.806 675 606.499C675 611.192 678.806 614.998 683.499 614.998C688.192 614.998 691.998 611.192 691.998 606.499C691.998 601.806 688.194 598 683.499 598ZM683.499 609.562C681.807 609.562 680.436 608.191 680.436 606.499C680.436 604.807 681.807 603.436 683.499 603.436C685.191 603.436 686.562 604.807 686.562 606.499C686.562 608.191 685.191 609.562 683.499 609.562Z" fill="#252525"/>
<path d="M683.499 607.444C684.02 607.444 684.443 607.021 684.443 606.499C684.443 605.977 684.02 605.554 683.499 605.554C682.977 605.554 682.554 605.977 682.554 606.499C682.554 607.021 682.977 607.444 683.499 607.444Z" fill="#252525"/>
</g>
<g filter="url(#filter10_i_433_342)">
<path d="M804.4 554H791.6C790.72 554 790 554.72 790 555.6V570L793.2 566.8H804.4C805.28 566.8 806 566.08 806 565.2V555.6C806 554.72 805.28 554 804.4 554Z" fill="#252525"/>
</g>
<g filter="url(#filter11_i_433_342)">
<path d="M799.75 483H792.75C791.787 483 791 483.81 791 484.8V499.2C791 500.19 791.787 501 792.75 501H803.25C804.213 501 805 500.19 805 499.2V488.4L799.75 483ZM798 490.2C798.963 490.2 799.75 491.01 799.75 492C799.75 492.99 798.963 493.8 798 493.8C797.037 493.8 796.25 492.99 796.25 492C796.25 491.01 797.037 490.2 798 490.2ZM801.5 497.4H794.5V496.887C794.5 496.158 794.92 495.51 795.568 495.222C796.311 494.889 797.134 494.7 798 494.7C798.866 494.7 799.689 494.889 800.432 495.222C801.08 495.51 801.5 496.158 801.5 496.887V497.4Z" fill="#252525"/>
</g>
<g filter="url(#filter12_i_433_342)">
<path d="M643.546 562.862C643.583 562.587 643.601 562.303 643.601 562C643.601 561.707 643.583 561.414 643.537 561.139L645.398 559.69C645.563 559.562 645.609 559.314 645.508 559.131L643.748 556.088C643.638 555.886 643.409 555.822 643.207 555.886L641.016 556.766C640.558 556.418 640.072 556.124 639.531 555.904L639.201 553.576C639.165 553.356 638.981 553.2 638.761 553.2H635.241C635.021 553.2 634.847 553.356 634.81 553.576L634.48 555.904C633.94 556.124 633.445 556.427 632.995 556.766L630.805 555.886C630.603 555.813 630.374 555.886 630.264 556.088L628.513 559.131C628.403 559.324 628.44 559.562 628.623 559.69L630.484 561.139C630.438 561.414 630.401 561.716 630.401 562C630.401 562.284 630.42 562.587 630.465 562.862L628.605 564.31C628.44 564.439 628.394 564.686 628.495 564.869L630.255 567.913C630.365 568.114 630.594 568.179 630.795 568.114L632.986 567.234C633.445 567.583 633.93 567.876 634.471 568.096L634.801 570.424C634.847 570.644 635.021 570.8 635.241 570.8H638.761C638.981 570.8 639.165 570.644 639.192 570.424L639.522 568.096C640.063 567.876 640.558 567.583 641.007 567.234L643.198 568.114C643.4 568.188 643.629 568.114 643.739 567.913L645.499 564.869C645.609 564.668 645.563 564.439 645.389 564.31L643.546 562.862ZM637.001 565.3C635.186 565.3 633.701 563.815 633.701 562C633.701 560.185 635.186 558.7 637.001 558.7C638.816 558.7 640.301 560.185 640.301 562C640.301 563.815 638.816 565.3 637.001 565.3Z" fill="#252525"/>
</g>
<defs>
<filter id="filter0_i_433_342" x="577.619" y="385.72" width="281" height="281" filterUnits="userSpaceOnUse" color-interpolation-filters="sRGB">
<feFlood flood-opacity="0" result="BackgroundImageFix"/>
<feBlend mode="normal" in="SourceGraphic" in2="BackgroundImageFix" result="shape"/>
<feColorMatrix in="SourceAlpha" type="matrix" values="0 0 0 0 0 0 0 0 0 0 0 0 0 0 0 0 0 0 127 0" result="hardAlpha"/>
<feOffset dx="1" dy="1"/>
<feGaussianBlur stdDeviation="1"/>
<feComposite in2="hardAlpha" operator="arithmetic" k2="-1" k3="1"/>
<feColorMatrix type="matrix" values="0 0 0 0 0 0 0 0 0 0 0 0 0 0 0 0 0 0 1 0"/>
<feBlend mode="normal" in2="shape" result="effect1_innerShadow_433_342"/>
</filter>
<filter id="filter1_i_433_342" x="583" y="392" width="268" height="268" filterUnits="userSpaceOnUse" color-interpolation-filters="sRGB">
<feFlood flood-opacity="0" result="BackgroundImageFix"/>
<feBlend mode="normal" in="SourceGraphic" in2="BackgroundImageFix" result="shape"/>
<feColorMatrix in="SourceAlpha" type="matrix" values="0 0 0 0 0 0 0 0 0 0 0 0 0 0 0 0 0 0 127 0" result="hardAlpha"/>
<feOffset dx="1" dy="1"/>
<feGaussianBlur stdDeviation="1"/>
<feComposite in2="hardAlpha" operator="arithmetic" k2="-1" k3="1"/>
<feColorMatrix type="matrix" values="0 0 0 0 0 0 0 0 0 0 0 0 0 0 0 0 0 0 1 0"/>
<feBlend mode="normal" in2="shape" result="effect1_innerShadow_433_342"/>
</filter>
<filter id="filter2_i_433_342" x="462" y="159" width="516.81" height="717.12" filterUnits="userSpaceOnUse" color-interpolation-filters="sRGB">
<feFlood flood-opacity="0" result="BackgroundImageFix"/>
<feBlend mode="normal" in="SourceGraphic" in2="BackgroundImageFix" result="shape"/>
<feColorMatrix in="SourceAlpha" type="matrix" values="0 0 0 0 0 0 0 0 0 0 0 0 0 0 0 0 0 0 127 0" result="hardAlpha"/>
<feOffset dy="4"/>
<feGaussianBlur stdDeviation="2"/>
<feComposite in2="hardAlpha" operator="arithmetic" k2="-1" k3="1"/>
<feColorMatrix type="matrix" values="0 0 0 0 0 0 0 0 0 0 0 0 0 0 0 0 0 0 1 0"/>
<feBlend mode="normal" in2="shape" result="effect1_innerShadow_433_342"/>
</filter>
<filter id="filter3_i_433_342" x="608" y="417" width="219" height="219" filterUnits="userSpaceOnUse" color-interpolation-filters="sRGB">
<feFlood flood-opacity="0" result="BackgroundImageFix"/>
<feBlend mode="normal" in="SourceGraphic" in2="BackgroundImageFix" result="shape"/>
<feColorMatrix in="SourceAlpha" type="matrix" values="0 0 0 0 0 0 0 0 0 0 0 0 0 0 0 0 0 0 127 0" result="hardAlpha"/>
<feOffset dx="1" dy="1"/>
<feGaussianBlur stdDeviation="1"/>
<feComposite in2="hardAlpha" operator="arithmetic" k2="-1" k3="1"/>
<feColorMatrix type="matrix" values="0 0 0 0 0 0 0 0 0 0 0 0 0 0 0 0 0 0 1 0"/>
<feBlend mode="normal" in2="shape" result="effect1_innerShadow_433_342"/>
</filter>
<filter id="filter4_i_433_342" x="1375" y="106" width="25" height="29" filterUnits="userSpaceOnUse" color-interpolation-filters="sRGB">
<feFlood flood-opacity="0" result="BackgroundImageFix"/>
<feBlend mode="normal" in="SourceGraphic" in2="BackgroundImageFix" result="shape"/>
<feColorMatrix in="SourceAlpha" type="matrix" values="0 0 0 0 0 0 0 0 0 0 0 0 0 0 0 0 0 0 127 0" result="hardAlpha"/>
<feOffset dy="4"/>
<feGaussianBlur stdDeviation="2"/>
<feComposite in2="hardAlpha" operator="arithmetic" k2="-1" k3="1"/>
<feColorMatrix type="matrix" values="0 0 0 0 0 0 0 0 0 0 0 0 0 0 0 0 0 0 1 0"/>
<feBlend mode="normal" in2="shape" result="effect1_innerShadow_433_342"/>
</filter>
<filter id="filter5_i_433_342" x="650" y="458" width="135" height="139" filterUnits="userSpaceOnUse" color-interpolation-filters="sRGB">
<feFlood flood-opacity="0" result="BackgroundImageFix"/>
<feBlend mode="normal" in="SourceGraphic" in2="BackgroundImageFix" result="shape"/>
<feColorMatrix in="SourceAlpha" type="matrix" values="0 0 0 0 0 0 0 0 0 0 0 0 0 0 0 0 0 0 127 0" result="hardAlpha"/>
<feOffset dy="4"/>
<feGaussianBlur stdDeviation="2"/>
<feComposite in2="hardAlpha" operator="arithmetic" k2="-1" k3="1"/>
<feColorMatrix type="matrix" values="0 0 0 0 0 0 0 0 0 0 0 0 0 0 0 0 0 0 1 0"/>
<feBlend mode="normal" in2="shape" result="effect1_innerShadow_433_342"/>
</filter>
<filter id="filter6_i_433_342" x="743" y="437" width="16" height="20" filterUnits="userSpaceOnUse" color-interpolation-filters="sRGB">
<feFlood flood-opacity="0" result="BackgroundImageFix"/>
<feBlend mode="normal" in="SourceGraphic" in2="BackgroundImageFix" result="shape"/>
<feColorMatrix in="SourceAlpha" type="matrix" values="0 0 0 0 0 0 0 0 0 0 0 0 0 0 0 0 0 0 127 0" result="hardAlpha"/>
<feOffset dy="4"/>
<feGaussianBlur stdDeviation="2"/>
<feComposite in2="hardAlpha" operator="arithmetic" k2="-1" k3="1"/>
<feColorMatrix type="matrix" values="0 0 0 0 0 0 0 0 0 0 0 0 0 0 0 0 0 0 1 0"/>
<feBlend mode="normal" in2="shape" result="effect1_innerShadow_433_342"/>
</filter>
<filter id="filter7_i_433_342" x="743" y="597" width="16" height="21" filterUnits="userSpaceOnUse" color-interpolation-filters="sRGB">
<feFlood flood-opacity="0" result="BackgroundImageFix"/>
<feBlend mode="normal" in="SourceGraphic" in2="BackgroundImageFix" result="shape"/>
<feColorMatrix in="SourceAlpha" type="matrix" values="0 0 0 0 0 0 0 0 0 0 0 0 0 0 0 0 0 0 127 0" result="hardAlpha"/>
<feOffset dy="4"/>
<feGaussianBlur stdDeviation="2"/>
<feComposite in2="hardAlpha" operator="arithmetic" k2="-1" k3="1"/>
<feColorMatrix type="matrix" values="0 0 0 0 0 0 0 0 0 0 0 0 0 0 0 0 0 0 1 0"/>
<feBlend mode="normal" in2="shape" result="effect1_innerShadow_433_342"/>
</filter>
<filter id="filter8_i_433_342" x="675" y="434" width="16" height="23" filterUnits="userSpaceOnUse" color-interpolation-filters="sRGB">
<feFlood flood-opacity="0" result="BackgroundImageFix"/>
<feBlend mode="normal" in="SourceGraphic" in2="BackgroundImageFix" result="shape"/>
<feColorMatrix in="SourceAlpha" type="matrix" values="0 0 0 0 0 0 0 0 0 0 0 0 0 0 0 0 0 0 127 0" result="hardAlpha"/>
<feOffset dy="4"/>
<feGaussianBlur stdDeviation="2"/>
<feComposite in2="hardAlpha" operator="arithmetic" k2="-1" k3="1"/>
<feColorMatrix type="matrix" values="0 0 0 0 0 0 0 0 0 0 0 0 0 0 0 0 0 0 1 0"/>
<feBlend mode="normal" in2="shape" result="effect1_innerShadow_433_342"/>
</filter>
<filter id="filter9_i_433_342" x="675" y="598" width="17" height="21" filterUnits="userSpaceOnUse" color-interpolation-filters="sRGB">
<feFlood flood-opacity="0" result="BackgroundImageFix"/>
<feBlend mode="normal" in="SourceGraphic" in2="BackgroundImageFix" result="shape"/>
<feColorMatrix in="SourceAlpha" type="matrix" values="0 0 0 0 0 0 0 0 0 0 0 0 0 0 0 0 0 0 127 0" result="hardAlpha"/>
<feOffset dy="4"/>
<feGaussianBlur stdDeviation="2"/>
<feComposite in2="hardAlpha" operator="arithmetic" k2="-1" k3="1"/>
<feColorMatrix type="matrix" values="0 0 0 0 0 0 0 0 0 0 0 0 0 0 0 0 0 0 1 0"/>
<feBlend mode="normal" in2="shape" result="effect1_innerShadow_433_342"/>
</filter>
<filter id="filter10_i_433_342" x="790" y="554" width="16" height="20" filterUnits="userSpaceOnUse" color-interpolation-filters="sRGB">
<feFlood flood-opacity="0" result="BackgroundImageFix"/>
<feBlend mode="normal" in="SourceGraphic" in2="BackgroundImageFix" result="shape"/>
<feColorMatrix in="SourceAlpha" type="matrix" values="0 0 0 0 0 0 0 0 0 0 0 0 0 0 0 0 0 0 127 0" result="hardAlpha"/>
<feOffset dy="4"/>
<feGaussianBlur stdDeviation="2"/>
<feComposite in2="hardAlpha" operator="arithmetic" k2="-1" k3="1"/>
<feColorMatrix type="matrix" values="0 0 0 0 0 0 0 0 0 0 0 0 0 0 0 0 0 0 1 0"/>
<feBlend mode="normal" in2="shape" result="effect1_innerShadow_433_342"/>
</filter>
<filter id="filter11_i_433_342" x="791" y="483" width="14" height="22" filterUnits="userSpaceOnUse" color-interpolation-filters="sRGB">
<feFlood flood-opacity="0" result="BackgroundImageFix"/>
<feBlend mode="normal" in="SourceGraphic" in2="BackgroundImageFix" result="shape"/>
<feColorMatrix in="SourceAlpha" type="matrix" values="0 0 0 0 0 0 0 0 0 0 0 0 0 0 0 0 0 0 127 0" result="hardAlpha"/>
<feOffset dy="4"/>
<feGaussianBlur stdDeviation="2"/>
<feComposite in2="hardAlpha" operator="arithmetic" k2="-1" k3="1"/>
<feColorMatrix type="matrix" values="0 0 0 0 0 0 0 0 0 0 0 0 0 0 0 0 0 0 1 0"/>
<feBlend mode="normal" in2="shape" result="effect1_innerShadow_433_342"/>
</filter>
<filter id="filter12_i_433_342" x="628.441" y="553.2" width="17.1201" height="21.6001" filterUnits="userSpaceOnUse" color-interpolation-filters="sRGB">
<feFlood flood-opacity="0" result="BackgroundImageFix"/>
<feBlend mode="normal" in="SourceGraphic" in2="BackgroundImageFix" result="shape"/>
<feColorMatrix in="SourceAlpha" type="matrix" values="0 0 0 0 0 0 0 0 0 0 0 0 0 0 0 0 0 0 127 0" result="hardAlpha"/>
<feOffset dy="4"/>
<feGaussianBlur stdDeviation="2"/>
<feComposite in2="hardAlpha" operator="arithmetic" k2="-1" k3="1"/>
<feColorMatrix type="matrix" values="0 0 0 0 0 0 0 0 0 0 0 0 0 0 0 0 0 0 1 0"/>
<feBlend mode="normal" in2="shape" result="effect1_innerShadow_433_342"/>
</filter>
<clipPath id="clip0_433_342">
<rect width="16" height="17" fill="white" transform="translate(743 597)"/>
</clipPath>
<clipPath id="clip1_433_342">
<rect width="17" height="17" fill="white" transform="translate(675 598)"/>
</clipPath>
</defs>
</svg>
