<svg width="45" height="32" viewBox="0 0 45 32" fill="none" xmlns="http://www.w3.org/2000/svg">
<path d="M35.8773 23.12C33.9545 27.76 30.4364 32 23.8909 32C23.8909 32 21.1091 12.2 21.0682 11.76C20.9045 12.24 17.0182 22.64 17.0182 22.64C15.1773 27.44 11.6591 31.96 5.11363 32L0 0C4.25454 0 9.49091 3.6 9.85909 9.48C9.85909 9.48 10.5136 21.2 10.5545 22.16C10.9227 21.16 15.3409 9.36 15.3409 9.36C17.1 4.52 20.4136 0 26.6727 0C26.6727 0 29.3318 21.12 29.4545 22.08C29.7 21.12 33.3818 9.36 33.3818 9.36C35.1409 4.52 38.5364 0 45 0L35.8773 23.12Z" fill="#111111"/>
</svg>
